G04 #@! TF.GenerationSoftware,KiCad,Pcbnew,(5.1.0-rc1-139-g5a414a74d)*
G04 #@! TF.CreationDate,2019-03-28T22:17:59+00:00
G04 #@! TF.ProjectId,raspi-serial-hat,72617370-692d-4736-9572-69616c2d6861,3*
G04 #@! TF.SameCoordinates,Original*
G04 #@! TF.FileFunction,Soldermask,Bot*
G04 #@! TF.FilePolarity,Negative*
%FSLAX46Y46*%
G04 Gerber Fmt 4.6, Leading zero omitted, Abs format (unit mm)*
G04 Created by KiCad (PCBNEW (5.1.0-rc1-139-g5a414a74d)) date 2019-03-28 22:17:59*
%MOMM*%
%LPD*%
G04 APERTURE LIST*
%ADD10O,1.400000X1.400000*%
%ADD11R,1.400000X1.400000*%
%ADD12O,2.100000X2.100000*%
%ADD13R,2.100000X2.100000*%
%ADD14O,2.127200X2.127200*%
%ADD15R,2.127200X2.127200*%
%ADD16C,6.350000*%
%ADD17C,2.180000*%
%ADD18C,2.100000*%
G04 APERTURE END LIST*
D10*
X43360000Y-46975000D03*
X44630000Y-46975000D03*
D11*
X45900000Y-46975000D03*
D10*
X77500000Y-45180000D03*
D11*
X77500000Y-46450000D03*
D10*
X80650000Y-45180000D03*
D11*
X80650000Y-46450000D03*
D10*
X85070000Y-40675000D03*
D11*
X83800000Y-40675000D03*
D12*
X96390000Y-78865000D03*
X93850000Y-78865000D03*
X96390000Y-76325000D03*
X93850000Y-76325000D03*
X96390000Y-73785000D03*
X93850000Y-73785000D03*
X96390000Y-71245000D03*
X93850000Y-71245000D03*
X96390000Y-68705000D03*
X93850000Y-68705000D03*
X96390000Y-66165000D03*
X93850000Y-66165000D03*
X96390000Y-63625000D03*
D13*
X93850000Y-63625000D03*
D12*
X86875000Y-76335000D03*
X89415000Y-76335000D03*
X86875000Y-78875000D03*
X89415000Y-78875000D03*
X86875000Y-81415000D03*
X89415000Y-81415000D03*
X86875000Y-83955000D03*
D13*
X89415000Y-83955000D03*
D14*
X78210000Y-80535000D03*
X78210000Y-83075000D03*
X75670000Y-80535000D03*
X75670000Y-83075000D03*
X73130000Y-80535000D03*
X73130000Y-83075000D03*
X70590000Y-80535000D03*
X70590000Y-83075000D03*
X68050000Y-80535000D03*
D15*
X68050000Y-83075000D03*
D14*
X56770000Y-80535000D03*
X56770000Y-83075000D03*
X54230000Y-80535000D03*
X54230000Y-83075000D03*
X51690000Y-80535000D03*
X51690000Y-83075000D03*
X49150000Y-80535000D03*
X49150000Y-83075000D03*
X46610000Y-80535000D03*
D15*
X46610000Y-83075000D03*
D16*
X37400000Y-58075000D03*
X95400000Y-58075000D03*
D17*
X89260000Y-35065000D03*
X43540000Y-35065000D03*
D18*
X90530000Y-33795000D03*
X90530000Y-36335000D03*
X87990000Y-33795000D03*
X87990000Y-36335000D03*
X85450000Y-33795000D03*
X85450000Y-36335000D03*
X82910000Y-33795000D03*
X82910000Y-36335000D03*
X80370000Y-33795000D03*
X80370000Y-36335000D03*
X77830000Y-33795000D03*
X77830000Y-36335000D03*
X75290000Y-33795000D03*
X75290000Y-36335000D03*
X72750000Y-33795000D03*
X72750000Y-36335000D03*
X70210000Y-33795000D03*
X70210000Y-36335000D03*
X67670000Y-33795000D03*
X67670000Y-36335000D03*
X65130000Y-33795000D03*
X65130000Y-36335000D03*
X62590000Y-33795000D03*
X62590000Y-36335000D03*
X60050000Y-33795000D03*
X60050000Y-36335000D03*
X57510000Y-33795000D03*
X57510000Y-36335000D03*
X54970000Y-33795000D03*
X54970000Y-36335000D03*
X52430000Y-33795000D03*
X52430000Y-36335000D03*
X49890000Y-33795000D03*
X49890000Y-36335000D03*
X47350000Y-33795000D03*
X47350000Y-36335000D03*
X44810000Y-33795000D03*
X44810000Y-36335000D03*
X42270000Y-33795000D03*
X42270000Y-36335000D03*
D16*
X37400000Y-35075000D03*
X95400000Y-35075000D03*
X37400000Y-84075000D03*
X95400000Y-84075000D03*
M02*
