G04 #@! TF.GenerationSoftware,KiCad,Pcbnew,(5.1.0-rc1-139-g5a414a74d)*
G04 #@! TF.CreationDate,2019-03-28T22:17:59+00:00
G04 #@! TF.ProjectId,raspi-serial-hat,72617370-692d-4736-9572-69616c2d6861,3*
G04 #@! TF.SameCoordinates,Original*
G04 #@! TF.FileFunction,Legend,Top*
G04 #@! TF.FilePolarity,Positive*
%FSLAX46Y46*%
G04 Gerber Fmt 4.6, Leading zero omitted, Abs format (unit mm)*
G04 Created by KiCad (PCBNEW (5.1.0-rc1-139-g5a414a74d)) date 2019-03-28 22:17:59*
%MOMM*%
%LPD*%
G04 APERTURE LIST*
%ADD10C,0.150000*%
%ADD11C,0.300000*%
%ADD12C,0.200000*%
%ADD13C,0.250000*%
%ADD14C,0.450000*%
%ADD15C,0.120000*%
%ADD16C,0.100000*%
G04 APERTURE END LIST*
D10*
X45714285Y-57177380D02*
X45380952Y-56701190D01*
X45142857Y-57177380D02*
X45142857Y-56177380D01*
X45523809Y-56177380D01*
X45619047Y-56225000D01*
X45666666Y-56272619D01*
X45714285Y-56367857D01*
X45714285Y-56510714D01*
X45666666Y-56605952D01*
X45619047Y-56653571D01*
X45523809Y-56701190D01*
X45142857Y-56701190D01*
X46571428Y-57177380D02*
X46571428Y-56653571D01*
X46523809Y-56558333D01*
X46428571Y-56510714D01*
X46238095Y-56510714D01*
X46142857Y-56558333D01*
X46571428Y-57129761D02*
X46476190Y-57177380D01*
X46238095Y-57177380D01*
X46142857Y-57129761D01*
X46095238Y-57034523D01*
X46095238Y-56939285D01*
X46142857Y-56844047D01*
X46238095Y-56796428D01*
X46476190Y-56796428D01*
X46571428Y-56748809D01*
X47000000Y-57129761D02*
X47095238Y-57177380D01*
X47285714Y-57177380D01*
X47380952Y-57129761D01*
X47428571Y-57034523D01*
X47428571Y-56986904D01*
X47380952Y-56891666D01*
X47285714Y-56844047D01*
X47142857Y-56844047D01*
X47047619Y-56796428D01*
X47000000Y-56701190D01*
X47000000Y-56653571D01*
X47047619Y-56558333D01*
X47142857Y-56510714D01*
X47285714Y-56510714D01*
X47380952Y-56558333D01*
X47857142Y-57177380D02*
X47857142Y-56177380D01*
X48238095Y-56177380D01*
X48333333Y-56225000D01*
X48380952Y-56272619D01*
X48428571Y-56367857D01*
X48428571Y-56510714D01*
X48380952Y-56605952D01*
X48333333Y-56653571D01*
X48238095Y-56701190D01*
X47857142Y-56701190D01*
X48857142Y-57177380D02*
X48857142Y-56510714D01*
X48857142Y-56177380D02*
X48809523Y-56225000D01*
X48857142Y-56272619D01*
X48904761Y-56225000D01*
X48857142Y-56177380D01*
X48857142Y-56272619D01*
X50666666Y-57177380D02*
X50333333Y-56701190D01*
X50095238Y-57177380D02*
X50095238Y-56177380D01*
X50476190Y-56177380D01*
X50571428Y-56225000D01*
X50619047Y-56272619D01*
X50666666Y-56367857D01*
X50666666Y-56510714D01*
X50619047Y-56605952D01*
X50571428Y-56653571D01*
X50476190Y-56701190D01*
X50095238Y-56701190D01*
X51047619Y-57129761D02*
X51190476Y-57177380D01*
X51428571Y-57177380D01*
X51523809Y-57129761D01*
X51571428Y-57082142D01*
X51619047Y-56986904D01*
X51619047Y-56891666D01*
X51571428Y-56796428D01*
X51523809Y-56748809D01*
X51428571Y-56701190D01*
X51238095Y-56653571D01*
X51142857Y-56605952D01*
X51095238Y-56558333D01*
X51047619Y-56463095D01*
X51047619Y-56367857D01*
X51095238Y-56272619D01*
X51142857Y-56225000D01*
X51238095Y-56177380D01*
X51476190Y-56177380D01*
X51619047Y-56225000D01*
X52000000Y-56272619D02*
X52047619Y-56225000D01*
X52142857Y-56177380D01*
X52380952Y-56177380D01*
X52476190Y-56225000D01*
X52523809Y-56272619D01*
X52571428Y-56367857D01*
X52571428Y-56463095D01*
X52523809Y-56605952D01*
X51952380Y-57177380D01*
X52571428Y-57177380D01*
X52904761Y-56177380D02*
X53523809Y-56177380D01*
X53190476Y-56558333D01*
X53333333Y-56558333D01*
X53428571Y-56605952D01*
X53476190Y-56653571D01*
X53523809Y-56748809D01*
X53523809Y-56986904D01*
X53476190Y-57082142D01*
X53428571Y-57129761D01*
X53333333Y-57177380D01*
X53047619Y-57177380D01*
X52952380Y-57129761D01*
X52904761Y-57082142D01*
X53904761Y-56272619D02*
X53952380Y-56225000D01*
X54047619Y-56177380D01*
X54285714Y-56177380D01*
X54380952Y-56225000D01*
X54428571Y-56272619D01*
X54476190Y-56367857D01*
X54476190Y-56463095D01*
X54428571Y-56605952D01*
X53857142Y-57177380D01*
X54476190Y-57177380D01*
X55666666Y-57177380D02*
X55666666Y-56177380D01*
X55666666Y-56653571D02*
X56238095Y-56653571D01*
X56238095Y-57177380D02*
X56238095Y-56177380D01*
X56666666Y-56891666D02*
X57142857Y-56891666D01*
X56571428Y-57177380D02*
X56904761Y-56177380D01*
X57238095Y-57177380D01*
X57428571Y-56177380D02*
X57999999Y-56177380D01*
X57714285Y-57177380D02*
X57714285Y-56177380D01*
X44809523Y-58827380D02*
X44476190Y-58351190D01*
X44238095Y-58827380D02*
X44238095Y-57827380D01*
X44619047Y-57827380D01*
X44714285Y-57875000D01*
X44761904Y-57922619D01*
X44809523Y-58017857D01*
X44809523Y-58160714D01*
X44761904Y-58255952D01*
X44714285Y-58303571D01*
X44619047Y-58351190D01*
X44238095Y-58351190D01*
X45619047Y-58779761D02*
X45523809Y-58827380D01*
X45333333Y-58827380D01*
X45238095Y-58779761D01*
X45190476Y-58684523D01*
X45190476Y-58303571D01*
X45238095Y-58208333D01*
X45333333Y-58160714D01*
X45523809Y-58160714D01*
X45619047Y-58208333D01*
X45666666Y-58303571D01*
X45666666Y-58398809D01*
X45190476Y-58494047D01*
X46000000Y-58160714D02*
X46238095Y-58827380D01*
X46476190Y-58160714D01*
X47809523Y-57827380D02*
X47904761Y-57827380D01*
X48000000Y-57875000D01*
X48047619Y-57922619D01*
X48095238Y-58017857D01*
X48142857Y-58208333D01*
X48142857Y-58446428D01*
X48095238Y-58636904D01*
X48047619Y-58732142D01*
X48000000Y-58779761D01*
X47904761Y-58827380D01*
X47809523Y-58827380D01*
X47714285Y-58779761D01*
X47666666Y-58732142D01*
X47619047Y-58636904D01*
X47571428Y-58446428D01*
X47571428Y-58208333D01*
X47619047Y-58017857D01*
X47666666Y-57922619D01*
X47714285Y-57875000D01*
X47809523Y-57827380D01*
X48571428Y-58732142D02*
X48619047Y-58779761D01*
X48571428Y-58827380D01*
X48523809Y-58779761D01*
X48571428Y-58732142D01*
X48571428Y-58827380D01*
X48952380Y-57827380D02*
X49571428Y-57827380D01*
X49238095Y-58208333D01*
X49380952Y-58208333D01*
X49476190Y-58255952D01*
X49523809Y-58303571D01*
X49571428Y-58398809D01*
X49571428Y-58636904D01*
X49523809Y-58732142D01*
X49476190Y-58779761D01*
X49380952Y-58827380D01*
X49095238Y-58827380D01*
X49000000Y-58779761D01*
X48952380Y-58732142D01*
X50047619Y-58779761D02*
X50047619Y-58827380D01*
X50000000Y-58922619D01*
X49952380Y-58970238D01*
X51761904Y-58827380D02*
X51190476Y-58827380D01*
X51476190Y-58827380D02*
X51476190Y-57827380D01*
X51380952Y-57970238D01*
X51285714Y-58065476D01*
X51190476Y-58113095D01*
X52142857Y-57922619D02*
X52190476Y-57875000D01*
X52285714Y-57827380D01*
X52523809Y-57827380D01*
X52619047Y-57875000D01*
X52666666Y-57922619D01*
X52714285Y-58017857D01*
X52714285Y-58113095D01*
X52666666Y-58255952D01*
X52095238Y-58827380D01*
X52714285Y-58827380D01*
X53904761Y-58827380D02*
X53904761Y-57827380D01*
X54238095Y-58541666D01*
X54571428Y-57827380D01*
X54571428Y-58827380D01*
X55476190Y-58827380D02*
X55476190Y-58303571D01*
X55428571Y-58208333D01*
X55333333Y-58160714D01*
X55142857Y-58160714D01*
X55047619Y-58208333D01*
X55476190Y-58779761D02*
X55380952Y-58827380D01*
X55142857Y-58827380D01*
X55047619Y-58779761D01*
X55000000Y-58684523D01*
X55000000Y-58589285D01*
X55047619Y-58494047D01*
X55142857Y-58446428D01*
X55380952Y-58446428D01*
X55476190Y-58398809D01*
X55952380Y-58827380D02*
X55952380Y-58160714D01*
X55952380Y-58351190D02*
X56000000Y-58255952D01*
X56047619Y-58208333D01*
X56142857Y-58160714D01*
X56238095Y-58160714D01*
X57857142Y-58827380D02*
X57285714Y-58827380D01*
X57571428Y-58827380D02*
X57571428Y-57827380D01*
X57476190Y-57970238D01*
X57380952Y-58065476D01*
X57285714Y-58113095D01*
X58333333Y-58827380D02*
X58523809Y-58827380D01*
X58619047Y-58779761D01*
X58666666Y-58732142D01*
X58761904Y-58589285D01*
X58809523Y-58398809D01*
X58809523Y-58017857D01*
X58761904Y-57922619D01*
X58714285Y-57875000D01*
X58619047Y-57827380D01*
X58428571Y-57827380D01*
X58333333Y-57875000D01*
X58285714Y-57922619D01*
X58238095Y-58017857D01*
X58238095Y-58255952D01*
X58285714Y-58351190D01*
X58333333Y-58398809D01*
X58428571Y-58446428D01*
X58619047Y-58446428D01*
X58714285Y-58398809D01*
X58761904Y-58351190D01*
X58809523Y-58255952D01*
X45071428Y-59715476D02*
X44976190Y-59667857D01*
X44785714Y-59667857D01*
X44690476Y-59715476D01*
X44595238Y-59810714D01*
X44547619Y-59905952D01*
X44547619Y-60096428D01*
X44595238Y-60191666D01*
X44690476Y-60286904D01*
X44785714Y-60334523D01*
X44976190Y-60334523D01*
X45071428Y-60286904D01*
X44880952Y-59334523D02*
X44642857Y-59382142D01*
X44404761Y-59525000D01*
X44261904Y-59763095D01*
X44214285Y-60001190D01*
X44261904Y-60239285D01*
X44404761Y-60477380D01*
X44642857Y-60620238D01*
X44880952Y-60667857D01*
X45119047Y-60620238D01*
X45357142Y-60477380D01*
X45500000Y-60239285D01*
X45547619Y-60001190D01*
X45500000Y-59763095D01*
X45357142Y-59525000D01*
X45119047Y-59382142D01*
X44880952Y-59334523D01*
X46690476Y-59572619D02*
X46738095Y-59525000D01*
X46833333Y-59477380D01*
X47071428Y-59477380D01*
X47166666Y-59525000D01*
X47214285Y-59572619D01*
X47261904Y-59667857D01*
X47261904Y-59763095D01*
X47214285Y-59905952D01*
X46642857Y-60477380D01*
X47261904Y-60477380D01*
X47880952Y-59477380D02*
X47976190Y-59477380D01*
X48071428Y-59525000D01*
X48119047Y-59572619D01*
X48166666Y-59667857D01*
X48214285Y-59858333D01*
X48214285Y-60096428D01*
X48166666Y-60286904D01*
X48119047Y-60382142D01*
X48071428Y-60429761D01*
X47976190Y-60477380D01*
X47880952Y-60477380D01*
X47785714Y-60429761D01*
X47738095Y-60382142D01*
X47690476Y-60286904D01*
X47642857Y-60096428D01*
X47642857Y-59858333D01*
X47690476Y-59667857D01*
X47738095Y-59572619D01*
X47785714Y-59525000D01*
X47880952Y-59477380D01*
X49166666Y-60477380D02*
X48595238Y-60477380D01*
X48880952Y-60477380D02*
X48880952Y-59477380D01*
X48785714Y-59620238D01*
X48690476Y-59715476D01*
X48595238Y-59763095D01*
X49642857Y-60477380D02*
X49833333Y-60477380D01*
X49928571Y-60429761D01*
X49976190Y-60382142D01*
X50071428Y-60239285D01*
X50119047Y-60048809D01*
X50119047Y-59667857D01*
X50071428Y-59572619D01*
X50023809Y-59525000D01*
X49928571Y-59477380D01*
X49738095Y-59477380D01*
X49642857Y-59525000D01*
X49595238Y-59572619D01*
X49547619Y-59667857D01*
X49547619Y-59905952D01*
X49595238Y-60001190D01*
X49642857Y-60048809D01*
X49738095Y-60096428D01*
X49928571Y-60096428D01*
X50023809Y-60048809D01*
X50071428Y-60001190D01*
X50119047Y-59905952D01*
X51309523Y-60477380D02*
X51309523Y-59477380D01*
X51690476Y-59810714D02*
X51928571Y-60477380D01*
X52166666Y-59810714D01*
X52547619Y-60477380D02*
X52547619Y-59810714D01*
X52547619Y-59477380D02*
X52500000Y-59525000D01*
X52547619Y-59572619D01*
X52595238Y-59525000D01*
X52547619Y-59477380D01*
X52547619Y-59572619D01*
X53023809Y-60477380D02*
X53023809Y-59810714D01*
X53023809Y-59905952D02*
X53071428Y-59858333D01*
X53166666Y-59810714D01*
X53309523Y-59810714D01*
X53404761Y-59858333D01*
X53452380Y-59953571D01*
X53452380Y-60477380D01*
X53452380Y-59953571D02*
X53500000Y-59858333D01*
X53595238Y-59810714D01*
X53738095Y-59810714D01*
X53833333Y-59858333D01*
X53880952Y-59953571D01*
X53880952Y-60477380D01*
X54738095Y-60429761D02*
X54642857Y-60477380D01*
X54452380Y-60477380D01*
X54357142Y-60429761D01*
X54309523Y-60334523D01*
X54309523Y-59953571D01*
X54357142Y-59858333D01*
X54452380Y-59810714D01*
X54642857Y-59810714D01*
X54738095Y-59858333D01*
X54785714Y-59953571D01*
X54785714Y-60048809D01*
X54309523Y-60144047D01*
X55119047Y-59810714D02*
X55357142Y-60477380D01*
X55595238Y-59810714D02*
X55357142Y-60477380D01*
X55261904Y-60715476D01*
X55214285Y-60763095D01*
X55119047Y-60810714D01*
X56547619Y-60382142D02*
X56500000Y-60429761D01*
X56357142Y-60477380D01*
X56261904Y-60477380D01*
X56119047Y-60429761D01*
X56023809Y-60334523D01*
X55976190Y-60239285D01*
X55928571Y-60048809D01*
X55928571Y-59905952D01*
X55976190Y-59715476D01*
X56023809Y-59620238D01*
X56119047Y-59525000D01*
X56261904Y-59477380D01*
X56357142Y-59477380D01*
X56500000Y-59525000D01*
X56547619Y-59572619D01*
X57119047Y-60477380D02*
X57023809Y-60429761D01*
X56976190Y-60382142D01*
X56928571Y-60286904D01*
X56928571Y-60001190D01*
X56976190Y-59905952D01*
X57023809Y-59858333D01*
X57119047Y-59810714D01*
X57261904Y-59810714D01*
X57357142Y-59858333D01*
X57404761Y-59905952D01*
X57452380Y-60001190D01*
X57452380Y-60286904D01*
X57404761Y-60382142D01*
X57357142Y-60429761D01*
X57261904Y-60477380D01*
X57119047Y-60477380D01*
X57880952Y-60477380D02*
X57880952Y-59810714D01*
X57880952Y-59905952D02*
X57928571Y-59858333D01*
X58023809Y-59810714D01*
X58166666Y-59810714D01*
X58261904Y-59858333D01*
X58309523Y-59953571D01*
X58309523Y-60477380D01*
X58309523Y-59953571D02*
X58357142Y-59858333D01*
X58452380Y-59810714D01*
X58595238Y-59810714D01*
X58690476Y-59858333D01*
X58738095Y-59953571D01*
X58738095Y-60477380D01*
X84525000Y-73700000D02*
X84525000Y-87525000D01*
X64900000Y-73700000D02*
X84525000Y-73700000D01*
X64900000Y-61510000D02*
X64900000Y-73700000D01*
X40825000Y-61525000D02*
X64900000Y-61525000D01*
D11*
X90450000Y-72375000D02*
X90364285Y-72546428D01*
X90364285Y-72803571D01*
X90450000Y-73060714D01*
X90621428Y-73232142D01*
X90792857Y-73317857D01*
X91135714Y-73403571D01*
X91392857Y-73403571D01*
X91735714Y-73317857D01*
X91907142Y-73232142D01*
X92078571Y-73060714D01*
X92164285Y-72803571D01*
X92164285Y-72632142D01*
X92078571Y-72375000D01*
X91992857Y-72289285D01*
X91392857Y-72289285D01*
X91392857Y-72632142D01*
X92164285Y-71517857D02*
X90364285Y-71517857D01*
X90364285Y-70832142D01*
X90450000Y-70660714D01*
X90535714Y-70575000D01*
X90707142Y-70489285D01*
X90964285Y-70489285D01*
X91135714Y-70575000D01*
X91221428Y-70660714D01*
X91307142Y-70832142D01*
X91307142Y-71517857D01*
X92164285Y-69717857D02*
X90364285Y-69717857D01*
X90364285Y-68517857D02*
X90364285Y-68175000D01*
X90450000Y-68003571D01*
X90621428Y-67832142D01*
X90964285Y-67746428D01*
X91564285Y-67746428D01*
X91907142Y-67832142D01*
X92078571Y-68003571D01*
X92164285Y-68175000D01*
X92164285Y-68517857D01*
X92078571Y-68689285D01*
X91907142Y-68860714D01*
X91564285Y-68946428D01*
X90964285Y-68946428D01*
X90621428Y-68860714D01*
X90450000Y-68689285D01*
X90364285Y-68517857D01*
X37721428Y-72748809D02*
X37007142Y-72748809D01*
X36935714Y-73510714D01*
X37007142Y-73434523D01*
X37150000Y-73358333D01*
X37507142Y-73358333D01*
X37650000Y-73434523D01*
X37721428Y-73510714D01*
X37792857Y-73663095D01*
X37792857Y-74044047D01*
X37721428Y-74196428D01*
X37650000Y-74272619D01*
X37507142Y-74348809D01*
X37150000Y-74348809D01*
X37007142Y-74272619D01*
X36935714Y-74196428D01*
X38221428Y-72748809D02*
X38721428Y-74348809D01*
X39221428Y-72748809D01*
X41221428Y-74348809D02*
X41150000Y-74348809D01*
X41007142Y-74272619D01*
X40792857Y-74044047D01*
X40435714Y-73586904D01*
X40292857Y-73358333D01*
X40221428Y-73129761D01*
X40221428Y-72977380D01*
X40292857Y-72825000D01*
X40435714Y-72748809D01*
X40507142Y-72748809D01*
X40650000Y-72825000D01*
X40721428Y-72977380D01*
X40721428Y-73053571D01*
X40650000Y-73205952D01*
X40578571Y-73282142D01*
X40150000Y-73586904D01*
X40078571Y-73663095D01*
X40007142Y-73815476D01*
X40007142Y-74044047D01*
X40078571Y-74196428D01*
X40150000Y-74272619D01*
X40292857Y-74348809D01*
X40507142Y-74348809D01*
X40650000Y-74272619D01*
X40721428Y-74196428D01*
X40935714Y-73891666D01*
X41007142Y-73663095D01*
X41007142Y-73510714D01*
X42150000Y-73434523D02*
X43292857Y-73434523D01*
X42721428Y-74044047D02*
X42721428Y-72825000D01*
X43292857Y-74348809D02*
X42150000Y-74348809D01*
X44792857Y-74348809D02*
X43935714Y-74348809D01*
X44364285Y-74348809D02*
X44364285Y-72748809D01*
X44221428Y-72977380D01*
X44078571Y-73129761D01*
X43935714Y-73205952D01*
X45364285Y-72901190D02*
X45435714Y-72825000D01*
X45578571Y-72748809D01*
X45935714Y-72748809D01*
X46078571Y-72825000D01*
X46150000Y-72901190D01*
X46221428Y-73053571D01*
X46221428Y-73205952D01*
X46150000Y-73434523D01*
X45292857Y-74348809D01*
X46221428Y-74348809D01*
X46650000Y-72748809D02*
X47150000Y-74348809D01*
X47650000Y-72748809D01*
X49150000Y-73282142D02*
X49935714Y-73282142D01*
X49150000Y-74348809D01*
X49935714Y-74348809D01*
X50721428Y-74348809D02*
X50578571Y-74272619D01*
X50507142Y-74196428D01*
X50435714Y-74044047D01*
X50435714Y-73586904D01*
X50507142Y-73434523D01*
X50578571Y-73358333D01*
X50721428Y-73282142D01*
X50935714Y-73282142D01*
X51078571Y-73358333D01*
X51150000Y-73434523D01*
X51221428Y-73586904D01*
X51221428Y-74044047D01*
X51150000Y-74196428D01*
X51078571Y-74272619D01*
X50935714Y-74348809D01*
X50721428Y-74348809D01*
X51864285Y-73282142D02*
X51864285Y-74348809D01*
X51864285Y-73434523D02*
X51935714Y-73358333D01*
X52078571Y-73282142D01*
X52292857Y-73282142D01*
X52435714Y-73358333D01*
X52507142Y-73510714D01*
X52507142Y-74348809D01*
X53792857Y-74272619D02*
X53650000Y-74348809D01*
X53364285Y-74348809D01*
X53221428Y-74272619D01*
X53150000Y-74120238D01*
X53150000Y-73510714D01*
X53221428Y-73358333D01*
X53364285Y-73282142D01*
X53650000Y-73282142D01*
X53792857Y-73358333D01*
X53864285Y-73510714D01*
X53864285Y-73663095D01*
X53150000Y-73815476D01*
D12*
X40820000Y-38970000D02*
X40820000Y-61500000D01*
D13*
X66989285Y-55652380D02*
X66989285Y-54652380D01*
X67560714Y-55652380D01*
X67560714Y-54652380D01*
X68036904Y-55557142D02*
X68084523Y-55604761D01*
X68036904Y-55652380D01*
X67989285Y-55604761D01*
X68036904Y-55557142D01*
X68036904Y-55652380D01*
X68703571Y-54652380D02*
X68894047Y-54652380D01*
X68989285Y-54700000D01*
X69084523Y-54795238D01*
X69132142Y-54985714D01*
X69132142Y-55319047D01*
X69084523Y-55509523D01*
X68989285Y-55604761D01*
X68894047Y-55652380D01*
X68703571Y-55652380D01*
X68608333Y-55604761D01*
X68513095Y-55509523D01*
X68465476Y-55319047D01*
X68465476Y-54985714D01*
X68513095Y-54795238D01*
X68608333Y-54700000D01*
X68703571Y-54652380D01*
X69560714Y-55557142D02*
X69608333Y-55604761D01*
X69560714Y-55652380D01*
X69513095Y-55604761D01*
X69560714Y-55557142D01*
X69560714Y-55652380D01*
D11*
X72578571Y-76617857D02*
X72492857Y-76703571D01*
X72235714Y-76789285D01*
X72064285Y-76789285D01*
X71807142Y-76703571D01*
X71635714Y-76532142D01*
X71550000Y-76360714D01*
X71464285Y-76017857D01*
X71464285Y-75760714D01*
X71550000Y-75417857D01*
X71635714Y-75246428D01*
X71807142Y-75075000D01*
X72064285Y-74989285D01*
X72235714Y-74989285D01*
X72492857Y-75075000D01*
X72578571Y-75160714D01*
X73692857Y-74989285D02*
X74035714Y-74989285D01*
X74207142Y-75075000D01*
X74378571Y-75246428D01*
X74464285Y-75589285D01*
X74464285Y-76189285D01*
X74378571Y-76532142D01*
X74207142Y-76703571D01*
X74035714Y-76789285D01*
X73692857Y-76789285D01*
X73521428Y-76703571D01*
X73350000Y-76532142D01*
X73264285Y-76189285D01*
X73264285Y-75589285D01*
X73350000Y-75246428D01*
X73521428Y-75075000D01*
X73692857Y-74989285D01*
X75235714Y-76789285D02*
X75235714Y-74989285D01*
X75835714Y-76275000D01*
X76435714Y-74989285D01*
X76435714Y-76789285D01*
X77207142Y-75160714D02*
X77292857Y-75075000D01*
X77464285Y-74989285D01*
X77892857Y-74989285D01*
X78064285Y-75075000D01*
X78150000Y-75160714D01*
X78235714Y-75332142D01*
X78235714Y-75503571D01*
X78150000Y-75760714D01*
X77121428Y-76789285D01*
X78235714Y-76789285D01*
X78053571Y-60148809D02*
X78982142Y-60148809D01*
X78482142Y-60758333D01*
X78696428Y-60758333D01*
X78839285Y-60834523D01*
X78910714Y-60910714D01*
X78982142Y-61063095D01*
X78982142Y-61444047D01*
X78910714Y-61596428D01*
X78839285Y-61672619D01*
X78696428Y-61748809D01*
X78267857Y-61748809D01*
X78125000Y-61672619D01*
X78053571Y-61596428D01*
X79410714Y-60148809D02*
X79910714Y-61748809D01*
X80410714Y-60148809D01*
X81910714Y-60682142D02*
X82696428Y-60682142D01*
X81910714Y-61748809D01*
X82696428Y-61748809D01*
X83482142Y-61748809D02*
X83339285Y-61672619D01*
X83267857Y-61596428D01*
X83196428Y-61444047D01*
X83196428Y-60986904D01*
X83267857Y-60834523D01*
X83339285Y-60758333D01*
X83482142Y-60682142D01*
X83696428Y-60682142D01*
X83839285Y-60758333D01*
X83910714Y-60834523D01*
X83982142Y-60986904D01*
X83982142Y-61444047D01*
X83910714Y-61596428D01*
X83839285Y-61672619D01*
X83696428Y-61748809D01*
X83482142Y-61748809D01*
X84625000Y-60682142D02*
X84625000Y-61748809D01*
X84625000Y-60834523D02*
X84696428Y-60758333D01*
X84839285Y-60682142D01*
X85053571Y-60682142D01*
X85196428Y-60758333D01*
X85267857Y-60910714D01*
X85267857Y-61748809D01*
X86553571Y-61672619D02*
X86410714Y-61748809D01*
X86125000Y-61748809D01*
X85982142Y-61672619D01*
X85910714Y-61520238D01*
X85910714Y-60910714D01*
X85982142Y-60758333D01*
X86125000Y-60682142D01*
X86410714Y-60682142D01*
X86553571Y-60758333D01*
X86625000Y-60910714D01*
X86625000Y-61063095D01*
X85910714Y-61215476D01*
X37903571Y-76692857D02*
X37817857Y-76778571D01*
X37560714Y-76864285D01*
X37389285Y-76864285D01*
X37132142Y-76778571D01*
X36960714Y-76607142D01*
X36875000Y-76435714D01*
X36789285Y-76092857D01*
X36789285Y-75835714D01*
X36875000Y-75492857D01*
X36960714Y-75321428D01*
X37132142Y-75150000D01*
X37389285Y-75064285D01*
X37560714Y-75064285D01*
X37817857Y-75150000D01*
X37903571Y-75235714D01*
X39017857Y-75064285D02*
X39360714Y-75064285D01*
X39532142Y-75150000D01*
X39703571Y-75321428D01*
X39789285Y-75664285D01*
X39789285Y-76264285D01*
X39703571Y-76607142D01*
X39532142Y-76778571D01*
X39360714Y-76864285D01*
X39017857Y-76864285D01*
X38846428Y-76778571D01*
X38675000Y-76607142D01*
X38589285Y-76264285D01*
X38589285Y-75664285D01*
X38675000Y-75321428D01*
X38846428Y-75150000D01*
X39017857Y-75064285D01*
X40560714Y-76864285D02*
X40560714Y-75064285D01*
X41160714Y-76350000D01*
X41760714Y-75064285D01*
X41760714Y-76864285D01*
X43560714Y-76864285D02*
X42532142Y-76864285D01*
X43046428Y-76864285D02*
X43046428Y-75064285D01*
X42875000Y-75321428D01*
X42703571Y-75492857D01*
X42532142Y-75578571D01*
X96553571Y-54273571D02*
X96553571Y-53345000D01*
X97125000Y-53845000D01*
X97125000Y-53630714D01*
X97196428Y-53487857D01*
X97267857Y-53416428D01*
X97410714Y-53345000D01*
X97767857Y-53345000D01*
X97910714Y-53416428D01*
X97982142Y-53487857D01*
X98053571Y-53630714D01*
X98053571Y-54059285D01*
X97982142Y-54202142D01*
X97910714Y-54273571D01*
X96553571Y-52916428D02*
X98053571Y-52416428D01*
X96553571Y-51916428D01*
X98053571Y-49559285D02*
X98053571Y-50273571D01*
X96553571Y-50273571D01*
X98053571Y-49059285D02*
X97053571Y-49059285D01*
X96553571Y-49059285D02*
X96625000Y-49130714D01*
X96696428Y-49059285D01*
X96625000Y-48987857D01*
X96553571Y-49059285D01*
X96696428Y-49059285D01*
X97910714Y-46345000D02*
X97982142Y-46416428D01*
X98053571Y-46630714D01*
X98053571Y-46773571D01*
X97982142Y-46987857D01*
X97839285Y-47130714D01*
X97696428Y-47202142D01*
X97410714Y-47273571D01*
X97196428Y-47273571D01*
X96910714Y-47202142D01*
X96767857Y-47130714D01*
X96625000Y-46987857D01*
X96553571Y-46773571D01*
X96553571Y-46630714D01*
X96625000Y-46416428D01*
X96696428Y-46345000D01*
X98053571Y-44845000D02*
X97339285Y-45345000D01*
X98053571Y-45702142D02*
X96553571Y-45702142D01*
X96553571Y-45130714D01*
X96625000Y-44987857D01*
X96696428Y-44916428D01*
X96839285Y-44845000D01*
X97053571Y-44845000D01*
X97196428Y-44916428D01*
X97267857Y-44987857D01*
X97339285Y-45130714D01*
X97339285Y-45702142D01*
X98053571Y-43416428D02*
X98053571Y-44273571D01*
X98053571Y-43845000D02*
X96553571Y-43845000D01*
X96767857Y-43987857D01*
X96910714Y-44130714D01*
X96982142Y-44273571D01*
X96696428Y-42845000D02*
X96625000Y-42773571D01*
X96553571Y-42630714D01*
X96553571Y-42273571D01*
X96625000Y-42130714D01*
X96696428Y-42059285D01*
X96839285Y-41987857D01*
X96982142Y-41987857D01*
X97196428Y-42059285D01*
X98053571Y-42916428D01*
X98053571Y-41987857D01*
X96696428Y-41416428D02*
X96625000Y-41345000D01*
X96553571Y-41202142D01*
X96553571Y-40845000D01*
X96625000Y-40702142D01*
X96696428Y-40630714D01*
X96839285Y-40559285D01*
X96982142Y-40559285D01*
X97196428Y-40630714D01*
X98053571Y-41487857D01*
X98053571Y-40559285D01*
X96553571Y-39202142D02*
X96553571Y-39916428D01*
X97267857Y-39987857D01*
X97196428Y-39916428D01*
X97125000Y-39773571D01*
X97125000Y-39416428D01*
X97196428Y-39273571D01*
X97267857Y-39202142D01*
X97410714Y-39130714D01*
X97767857Y-39130714D01*
X97910714Y-39202142D01*
X97982142Y-39273571D01*
X98053571Y-39416428D01*
X98053571Y-39773571D01*
X97982142Y-39916428D01*
X97910714Y-39987857D01*
D14*
X83110714Y-49396428D02*
X81739285Y-49396428D01*
X86161904Y-56782142D02*
X84638095Y-56782142D01*
X85400000Y-56020238D02*
X85400000Y-57544047D01*
D15*
X65440000Y-70778733D02*
X65440000Y-71121267D01*
X66460000Y-70778733D02*
X66460000Y-71121267D01*
X51678733Y-67885000D02*
X52021267Y-67885000D01*
X51678733Y-66865000D02*
X52021267Y-66865000D01*
D10*
X70200000Y-44975000D02*
X70200000Y-46375000D01*
X75300000Y-44975000D02*
X75300000Y-40825000D01*
X70150000Y-44975000D02*
X70150000Y-40825000D01*
X75300000Y-44975000D02*
X75155000Y-44975000D01*
X75300000Y-40825000D02*
X75155000Y-40825000D01*
X70150000Y-40825000D02*
X70295000Y-40825000D01*
X70150000Y-44975000D02*
X70200000Y-44975000D01*
D15*
X46660000Y-45865000D02*
X46660000Y-46975000D01*
X45900000Y-45865000D02*
X46660000Y-45865000D01*
X45140000Y-47538471D02*
X45140000Y-48085000D01*
X45140000Y-45865000D02*
X45140000Y-46411529D01*
X45140000Y-48085000D02*
X42665000Y-48085000D01*
X45140000Y-45865000D02*
X42665000Y-45865000D01*
X42665000Y-47282530D02*
X42665000Y-48085000D01*
X42665000Y-45865000D02*
X42665000Y-46667470D01*
X78610000Y-47210000D02*
X77500000Y-47210000D01*
X78610000Y-46450000D02*
X78610000Y-47210000D01*
X76936529Y-45690000D02*
X76390000Y-45690000D01*
X78610000Y-45690000D02*
X78063471Y-45690000D01*
X76390000Y-45690000D02*
X76390000Y-44485000D01*
X78610000Y-45690000D02*
X78610000Y-44485000D01*
X77192470Y-44485000D02*
X76390000Y-44485000D01*
X78610000Y-44485000D02*
X77807530Y-44485000D01*
X81760000Y-47210000D02*
X80650000Y-47210000D01*
X81760000Y-46450000D02*
X81760000Y-47210000D01*
X80086529Y-45690000D02*
X79540000Y-45690000D01*
X81760000Y-45690000D02*
X81213471Y-45690000D01*
X79540000Y-45690000D02*
X79540000Y-44485000D01*
X81760000Y-45690000D02*
X81760000Y-44485000D01*
X80342470Y-44485000D02*
X79540000Y-44485000D01*
X81760000Y-44485000D02*
X80957530Y-44485000D01*
X63621267Y-74140000D02*
X63278733Y-74140000D01*
X63621267Y-75160000D02*
X63278733Y-75160000D01*
X47871267Y-75615000D02*
X47528733Y-75615000D01*
X47871267Y-76635000D02*
X47528733Y-76635000D01*
X65028733Y-76635000D02*
X65371267Y-76635000D01*
X65028733Y-75615000D02*
X65371267Y-75615000D01*
X51053733Y-76635000D02*
X51396267Y-76635000D01*
X51053733Y-75615000D02*
X51396267Y-75615000D01*
X57353733Y-76635000D02*
X57696267Y-76635000D01*
X57353733Y-75615000D02*
X57696267Y-75615000D01*
X39178733Y-80010000D02*
X39521267Y-80010000D01*
X39178733Y-78990000D02*
X39521267Y-78990000D01*
X55928733Y-73310000D02*
X56271267Y-73310000D01*
X55928733Y-72290000D02*
X56271267Y-72290000D01*
X39178733Y-78360000D02*
X39521267Y-78360000D01*
X39178733Y-77340000D02*
X39521267Y-77340000D01*
X68400000Y-47925000D02*
X68400000Y-46525000D01*
X69800000Y-47925000D02*
X68400000Y-47925000D01*
X69800000Y-46525000D02*
X69800000Y-47925000D01*
X68400000Y-46525000D02*
X69800000Y-46525000D01*
X63578733Y-44260000D02*
X63921267Y-44260000D01*
X63578733Y-43240000D02*
X63921267Y-43240000D01*
X48021267Y-42515000D02*
X47678733Y-42515000D01*
X48021267Y-43535000D02*
X47678733Y-43535000D01*
X51671267Y-42515000D02*
X51328733Y-42515000D01*
X51671267Y-43535000D02*
X51328733Y-43535000D01*
X63440000Y-59760000D02*
X67825000Y-59760000D01*
X63440000Y-56740000D02*
X63440000Y-59760000D01*
X67825000Y-56740000D02*
X63440000Y-56740000D01*
X78578733Y-43660000D02*
X78921267Y-43660000D01*
X78578733Y-42640000D02*
X78921267Y-42640000D01*
X78578733Y-41935000D02*
X78921267Y-41935000D01*
X78578733Y-40915000D02*
X78921267Y-40915000D01*
X78578733Y-40360000D02*
X78921267Y-40360000D01*
X78578733Y-39340000D02*
X78921267Y-39340000D01*
X83040000Y-41785000D02*
X83040000Y-40675000D01*
X83800000Y-41785000D02*
X83040000Y-41785000D01*
X84560000Y-40111529D02*
X84560000Y-39565000D01*
X84560000Y-41785000D02*
X84560000Y-41238471D01*
X84560000Y-39565000D02*
X85765000Y-39565000D01*
X84560000Y-41785000D02*
X85765000Y-41785000D01*
X85765000Y-40367470D02*
X85765000Y-39565000D01*
X85765000Y-41785000D02*
X85765000Y-40982530D01*
X68078733Y-44785000D02*
X68421267Y-44785000D01*
X68078733Y-43765000D02*
X68421267Y-43765000D01*
X92520000Y-62295000D02*
X93850000Y-62295000D01*
X92520000Y-63625000D02*
X92520000Y-62295000D01*
X95120000Y-62295000D02*
X97720000Y-62295000D01*
X95120000Y-64895000D02*
X95120000Y-62295000D01*
X92520000Y-64895000D02*
X95120000Y-64895000D01*
X97720000Y-62295000D02*
X97720000Y-80195000D01*
X92520000Y-64895000D02*
X92520000Y-80195000D01*
X92520000Y-80195000D02*
X97720000Y-80195000D01*
X68100000Y-51350000D02*
X68100000Y-49950000D01*
X69500000Y-51350000D02*
X68100000Y-51350000D01*
X69500000Y-49950000D02*
X69500000Y-51350000D01*
X68100000Y-49950000D02*
X69500000Y-49950000D01*
X90745000Y-85285000D02*
X89415000Y-85285000D01*
X90745000Y-83955000D02*
X90745000Y-85285000D01*
X88145000Y-85285000D02*
X85545000Y-85285000D01*
X88145000Y-82685000D02*
X88145000Y-85285000D01*
X90745000Y-82685000D02*
X88145000Y-82685000D01*
X85545000Y-85285000D02*
X85545000Y-75005000D01*
X90745000Y-82685000D02*
X90745000Y-75005000D01*
X90745000Y-75005000D02*
X85545000Y-75005000D01*
D16*
X94197607Y-52029098D02*
G75*
G02X93700000Y-54925000I-2297607J-1095902D01*
G01*
X94196458Y-47023306D02*
G75*
G03X93700000Y-44125000I-2296458J1098306D01*
G01*
X86750000Y-56075000D02*
X85100000Y-54425000D01*
X85100000Y-44625000D02*
X86750000Y-42975000D01*
X85100000Y-44625000D02*
X85100000Y-46525000D01*
X85100000Y-54425000D02*
X85100000Y-52525000D01*
X92350000Y-56075000D02*
X93700000Y-54925000D01*
X92350000Y-42975000D02*
X93700000Y-44125000D01*
D15*
X62450000Y-86730000D02*
X62450000Y-84190000D01*
X62450000Y-86730000D02*
X64990000Y-86730000D01*
X62700000Y-86480000D02*
X62700000Y-77130000D01*
X83560000Y-86480000D02*
X62700000Y-86480000D01*
X83560000Y-77130000D02*
X83560000Y-86480000D01*
X62700000Y-77130000D02*
X83560000Y-77130000D01*
X41010000Y-86730000D02*
X41010000Y-84190000D01*
X41010000Y-86730000D02*
X43550000Y-86730000D01*
X41260000Y-86480000D02*
X41260000Y-77130000D01*
X62120000Y-86480000D02*
X41260000Y-86480000D01*
X62120000Y-77130000D02*
X62120000Y-86480000D01*
X41260000Y-77130000D02*
X62120000Y-77130000D01*
D10*
X54375000Y-69800000D02*
X54375000Y-71400000D01*
X64450000Y-69800000D02*
X64450000Y-64050000D01*
X53800000Y-69800000D02*
X53800000Y-64050000D01*
X64450000Y-69800000D02*
X63800000Y-69800000D01*
X64450000Y-64050000D02*
X63800000Y-64050000D01*
X53800000Y-64050000D02*
X54450000Y-64050000D01*
X53800000Y-69800000D02*
X54375000Y-69800000D01*
X39675000Y-69800000D02*
X39675000Y-71400000D01*
X49750000Y-69800000D02*
X49750000Y-64050000D01*
X39100000Y-69800000D02*
X39100000Y-64050000D01*
X49750000Y-69800000D02*
X49100000Y-69800000D01*
X49750000Y-64050000D02*
X49100000Y-64050000D01*
X39100000Y-64050000D02*
X39750000Y-64050000D01*
X39100000Y-69800000D02*
X39675000Y-69800000D01*
D15*
X50275000Y-64400000D02*
X50275000Y-63000000D01*
X51675000Y-64400000D02*
X50275000Y-64400000D01*
X51675000Y-63000000D02*
X51675000Y-64400000D01*
X50275000Y-63000000D02*
X51675000Y-63000000D01*
X35575000Y-64400000D02*
X35575000Y-63000000D01*
X36975000Y-64400000D02*
X35575000Y-64400000D01*
X36975000Y-63000000D02*
X36975000Y-64400000D01*
X35575000Y-63000000D02*
X36975000Y-63000000D01*
X50275000Y-71000000D02*
X50275000Y-69600000D01*
X51675000Y-71000000D02*
X50275000Y-71000000D01*
X51675000Y-69600000D02*
X51675000Y-71000000D01*
X50275000Y-69600000D02*
X51675000Y-69600000D01*
X35575000Y-71000000D02*
X35575000Y-69600000D01*
X36975000Y-71000000D02*
X35575000Y-71000000D01*
X36975000Y-69600000D02*
X36975000Y-71000000D01*
X35575000Y-69600000D02*
X36975000Y-69600000D01*
X53310000Y-63871267D02*
X53310000Y-63528733D01*
X52290000Y-63871267D02*
X52290000Y-63528733D01*
X38610000Y-63871267D02*
X38610000Y-63528733D01*
X37590000Y-63871267D02*
X37590000Y-63528733D01*
X53310000Y-70471267D02*
X53310000Y-70128733D01*
X52290000Y-70471267D02*
X52290000Y-70128733D01*
X38610000Y-70471267D02*
X38610000Y-70128733D01*
X37590000Y-70471267D02*
X37590000Y-70128733D01*
D10*
X74575000Y-64050000D02*
X74575000Y-62450000D01*
X67275000Y-64050000D02*
X67275000Y-69800000D01*
X74925000Y-64050000D02*
X74925000Y-69800000D01*
X67275000Y-64050000D02*
X67725000Y-64050000D01*
X67275000Y-69800000D02*
X67725000Y-69800000D01*
X74925000Y-69800000D02*
X74475000Y-69800000D01*
X74925000Y-64050000D02*
X74575000Y-64050000D01*
D15*
X69103733Y-61285000D02*
X69446267Y-61285000D01*
X69103733Y-60265000D02*
X69446267Y-60265000D01*
X72408733Y-61285000D02*
X72751267Y-61285000D01*
X72408733Y-60265000D02*
X72751267Y-60265000D01*
X94315000Y-41653733D02*
X94315000Y-41996267D01*
X95335000Y-41653733D02*
X95335000Y-41996267D01*
X68321267Y-51990000D02*
X67978733Y-51990000D01*
X68321267Y-53010000D02*
X67978733Y-53010000D01*
X76040000Y-62503733D02*
X76040000Y-62846267D01*
X77060000Y-62503733D02*
X77060000Y-62846267D01*
D10*
X87920000Y-64050000D02*
X87920000Y-62450000D01*
X77845000Y-64050000D02*
X77845000Y-69800000D01*
X88495000Y-64050000D02*
X88495000Y-69800000D01*
X77845000Y-64050000D02*
X78495000Y-64050000D01*
X77845000Y-69800000D02*
X78495000Y-69800000D01*
X88495000Y-69800000D02*
X87845000Y-69800000D01*
X88495000Y-64050000D02*
X87920000Y-64050000D01*
D15*
X60290000Y-54013748D02*
X60290000Y-54536252D01*
X61710000Y-54013748D02*
X61710000Y-54536252D01*
X57890000Y-54103733D02*
X57890000Y-54446267D01*
X58910000Y-54103733D02*
X58910000Y-54446267D01*
X48310000Y-52546267D02*
X48310000Y-52203733D01*
X47290000Y-52546267D02*
X47290000Y-52203733D01*
X35915000Y-39915000D02*
X35915000Y-44300000D01*
X38935000Y-39915000D02*
X35915000Y-39915000D01*
X38935000Y-44300000D02*
X38935000Y-39915000D01*
X37481252Y-46315000D02*
X36958748Y-46315000D01*
X37481252Y-47735000D02*
X36958748Y-47735000D01*
X56810000Y-48740000D02*
X56810000Y-48265000D01*
X51590000Y-53485000D02*
X52065000Y-53485000D01*
X51590000Y-53010000D02*
X51590000Y-53485000D01*
X51590000Y-48265000D02*
X52065000Y-48265000D01*
X51590000Y-48740000D02*
X51590000Y-48265000D01*
X56810000Y-53485000D02*
X56335000Y-53485000D01*
X56810000Y-53010000D02*
X56810000Y-53485000D01*
X46600000Y-53395000D02*
X46840000Y-53395000D01*
X46600000Y-51595000D02*
X46600000Y-53395000D01*
X43000000Y-53395000D02*
X43000000Y-51595000D01*
X44400000Y-49795000D02*
X45200000Y-49795000D01*
X45200000Y-55195000D02*
X44400000Y-55195000D01*
X45200000Y-55595000D02*
X45200000Y-55195000D01*
X61453733Y-49985000D02*
X61796267Y-49985000D01*
X61453733Y-48965000D02*
X61796267Y-48965000D01*
X47290000Y-48303733D02*
X47290000Y-48646267D01*
X48310000Y-48303733D02*
X48310000Y-48646267D01*
X77085000Y-67096267D02*
X77085000Y-66753733D01*
X76065000Y-67096267D02*
X76065000Y-66753733D01*
X67835000Y-48071267D02*
X67835000Y-47728733D01*
X66815000Y-48071267D02*
X66815000Y-47728733D01*
X49871267Y-44390000D02*
X49528733Y-44390000D01*
X49871267Y-45410000D02*
X49528733Y-45410000D01*
D10*
X72025000Y-48100000D02*
X70500000Y-48100000D01*
X72025000Y-58475000D02*
X79775000Y-58475000D01*
X72025000Y-47825000D02*
X79775000Y-47825000D01*
X72025000Y-58475000D02*
X72025000Y-58120000D01*
X79775000Y-58475000D02*
X79775000Y-58120000D01*
X79775000Y-47825000D02*
X79775000Y-48180000D01*
X72025000Y-47825000D02*
X72025000Y-48100000D01*
G36*
X41000000Y-35065000D02*
G01*
X43540000Y-35065000D01*
X43540000Y-37605000D01*
X41000000Y-37605000D01*
X41000000Y-35065000D01*
G37*
X41000000Y-35065000D02*
X43540000Y-35065000D01*
X43540000Y-37605000D01*
X41000000Y-37605000D01*
X41000000Y-35065000D01*
X41000000Y-32525000D02*
X91800000Y-32525000D01*
X91800000Y-37605000D02*
X41000000Y-37605000D01*
X91800000Y-32525000D02*
X91800000Y-37605000D01*
X41000000Y-37605000D02*
X41000000Y-32525000D01*
X67360714Y-72460714D02*
X67322619Y-72498809D01*
X67208333Y-72536904D01*
X67132142Y-72536904D01*
X67017857Y-72498809D01*
X66941666Y-72422619D01*
X66903571Y-72346428D01*
X66865476Y-72194047D01*
X66865476Y-72079761D01*
X66903571Y-71927380D01*
X66941666Y-71851190D01*
X67017857Y-71775000D01*
X67132142Y-71736904D01*
X67208333Y-71736904D01*
X67322619Y-71775000D01*
X67360714Y-71813095D01*
X67665476Y-71813095D02*
X67703571Y-71775000D01*
X67779761Y-71736904D01*
X67970238Y-71736904D01*
X68046428Y-71775000D01*
X68084523Y-71813095D01*
X68122619Y-71889285D01*
X68122619Y-71965476D01*
X68084523Y-72079761D01*
X67627380Y-72536904D01*
X68122619Y-72536904D01*
X68389285Y-71736904D02*
X68922619Y-71736904D01*
X68579761Y-72536904D01*
X51960714Y-66510714D02*
X51922619Y-66548809D01*
X51808333Y-66586904D01*
X51732142Y-66586904D01*
X51617857Y-66548809D01*
X51541666Y-66472619D01*
X51503571Y-66396428D01*
X51465476Y-66244047D01*
X51465476Y-66129761D01*
X51503571Y-65977380D01*
X51541666Y-65901190D01*
X51617857Y-65825000D01*
X51732142Y-65786904D01*
X51808333Y-65786904D01*
X51922619Y-65825000D01*
X51960714Y-65863095D01*
X52265476Y-65863095D02*
X52303571Y-65825000D01*
X52379761Y-65786904D01*
X52570238Y-65786904D01*
X52646428Y-65825000D01*
X52684523Y-65863095D01*
X52722619Y-65939285D01*
X52722619Y-66015476D01*
X52684523Y-66129761D01*
X52227380Y-66586904D01*
X52722619Y-66586904D01*
X53408333Y-65786904D02*
X53255952Y-65786904D01*
X53179761Y-65825000D01*
X53141666Y-65863095D01*
X53065476Y-65977380D01*
X53027380Y-66129761D01*
X53027380Y-66434523D01*
X53065476Y-66510714D01*
X53103571Y-66548809D01*
X53179761Y-66586904D01*
X53332142Y-66586904D01*
X53408333Y-66548809D01*
X53446428Y-66510714D01*
X53484523Y-66434523D01*
X53484523Y-66244047D01*
X53446428Y-66167857D01*
X53408333Y-66129761D01*
X53332142Y-66091666D01*
X53179761Y-66091666D01*
X53103571Y-66129761D01*
X53065476Y-66167857D01*
X53027380Y-66244047D01*
X68288095Y-39502380D02*
X68288095Y-40311904D01*
X68335714Y-40407142D01*
X68383333Y-40454761D01*
X68478571Y-40502380D01*
X68669047Y-40502380D01*
X68764285Y-40454761D01*
X68811904Y-40407142D01*
X68859523Y-40311904D01*
X68859523Y-39502380D01*
X69240476Y-39502380D02*
X69907142Y-39502380D01*
X69478571Y-40502380D01*
X42616666Y-44227380D02*
X42616666Y-44941666D01*
X42569047Y-45084523D01*
X42473809Y-45179761D01*
X42330952Y-45227380D01*
X42235714Y-45227380D01*
X43235714Y-44655952D02*
X43140476Y-44608333D01*
X43092857Y-44560714D01*
X43045238Y-44465476D01*
X43045238Y-44417857D01*
X43092857Y-44322619D01*
X43140476Y-44275000D01*
X43235714Y-44227380D01*
X43426190Y-44227380D01*
X43521428Y-44275000D01*
X43569047Y-44322619D01*
X43616666Y-44417857D01*
X43616666Y-44465476D01*
X43569047Y-44560714D01*
X43521428Y-44608333D01*
X43426190Y-44655952D01*
X43235714Y-44655952D01*
X43140476Y-44703571D01*
X43092857Y-44751190D01*
X43045238Y-44846428D01*
X43045238Y-45036904D01*
X43092857Y-45132142D01*
X43140476Y-45179761D01*
X43235714Y-45227380D01*
X43426190Y-45227380D01*
X43521428Y-45179761D01*
X43569047Y-45132142D01*
X43616666Y-45036904D01*
X43616666Y-44846428D01*
X43569047Y-44751190D01*
X43521428Y-44703571D01*
X43426190Y-44655952D01*
X75866666Y-43327380D02*
X75866666Y-44041666D01*
X75819047Y-44184523D01*
X75723809Y-44279761D01*
X75580952Y-44327380D01*
X75485714Y-44327380D01*
X76247619Y-43327380D02*
X76914285Y-43327380D01*
X76485714Y-44327380D01*
X82291666Y-43327380D02*
X82291666Y-44041666D01*
X82244047Y-44184523D01*
X82148809Y-44279761D01*
X82005952Y-44327380D01*
X81910714Y-44327380D01*
X83196428Y-43327380D02*
X83005952Y-43327380D01*
X82910714Y-43375000D01*
X82863095Y-43422619D01*
X82767857Y-43565476D01*
X82720238Y-43755952D01*
X82720238Y-44136904D01*
X82767857Y-44232142D01*
X82815476Y-44279761D01*
X82910714Y-44327380D01*
X83101190Y-44327380D01*
X83196428Y-44279761D01*
X83244047Y-44232142D01*
X83291666Y-44136904D01*
X83291666Y-43898809D01*
X83244047Y-43803571D01*
X83196428Y-43755952D01*
X83101190Y-43708333D01*
X82910714Y-43708333D01*
X82815476Y-43755952D01*
X82767857Y-43803571D01*
X82720238Y-43898809D01*
X65760714Y-75135714D02*
X65722619Y-75173809D01*
X65608333Y-75211904D01*
X65532142Y-75211904D01*
X65417857Y-75173809D01*
X65341666Y-75097619D01*
X65303571Y-75021428D01*
X65265476Y-74869047D01*
X65265476Y-74754761D01*
X65303571Y-74602380D01*
X65341666Y-74526190D01*
X65417857Y-74450000D01*
X65532142Y-74411904D01*
X65608333Y-74411904D01*
X65722619Y-74450000D01*
X65760714Y-74488095D01*
X66065476Y-74488095D02*
X66103571Y-74450000D01*
X66179761Y-74411904D01*
X66370238Y-74411904D01*
X66446428Y-74450000D01*
X66484523Y-74488095D01*
X66522619Y-74564285D01*
X66522619Y-74640476D01*
X66484523Y-74754761D01*
X66027380Y-75211904D01*
X66522619Y-75211904D01*
X67246428Y-74411904D02*
X66865476Y-74411904D01*
X66827380Y-74792857D01*
X66865476Y-74754761D01*
X66941666Y-74716666D01*
X67132142Y-74716666D01*
X67208333Y-74754761D01*
X67246428Y-74792857D01*
X67284523Y-74869047D01*
X67284523Y-75059523D01*
X67246428Y-75135714D01*
X67208333Y-75173809D01*
X67132142Y-75211904D01*
X66941666Y-75211904D01*
X66865476Y-75173809D01*
X66827380Y-75135714D01*
X44310714Y-76710714D02*
X44272619Y-76748809D01*
X44158333Y-76786904D01*
X44082142Y-76786904D01*
X43967857Y-76748809D01*
X43891666Y-76672619D01*
X43853571Y-76596428D01*
X43815476Y-76444047D01*
X43815476Y-76329761D01*
X43853571Y-76177380D01*
X43891666Y-76101190D01*
X43967857Y-76025000D01*
X44082142Y-75986904D01*
X44158333Y-75986904D01*
X44272619Y-76025000D01*
X44310714Y-76063095D01*
X44615476Y-76063095D02*
X44653571Y-76025000D01*
X44729761Y-75986904D01*
X44920238Y-75986904D01*
X44996428Y-76025000D01*
X45034523Y-76063095D01*
X45072619Y-76139285D01*
X45072619Y-76215476D01*
X45034523Y-76329761D01*
X44577380Y-76786904D01*
X45072619Y-76786904D01*
X45758333Y-76253571D02*
X45758333Y-76786904D01*
X45567857Y-75948809D02*
X45377380Y-76520238D01*
X45872619Y-76520238D01*
X67360714Y-76710714D02*
X67322619Y-76748809D01*
X67208333Y-76786904D01*
X67132142Y-76786904D01*
X67017857Y-76748809D01*
X66941666Y-76672619D01*
X66903571Y-76596428D01*
X66865476Y-76444047D01*
X66865476Y-76329761D01*
X66903571Y-76177380D01*
X66941666Y-76101190D01*
X67017857Y-76025000D01*
X67132142Y-75986904D01*
X67208333Y-75986904D01*
X67322619Y-76025000D01*
X67360714Y-76063095D01*
X67665476Y-76063095D02*
X67703571Y-76025000D01*
X67779761Y-75986904D01*
X67970238Y-75986904D01*
X68046428Y-76025000D01*
X68084523Y-76063095D01*
X68122619Y-76139285D01*
X68122619Y-76215476D01*
X68084523Y-76329761D01*
X67627380Y-76786904D01*
X68122619Y-76786904D01*
X68389285Y-75986904D02*
X68884523Y-75986904D01*
X68617857Y-76291666D01*
X68732142Y-76291666D01*
X68808333Y-76329761D01*
X68846428Y-76367857D01*
X68884523Y-76444047D01*
X68884523Y-76634523D01*
X68846428Y-76710714D01*
X68808333Y-76748809D01*
X68732142Y-76786904D01*
X68503571Y-76786904D01*
X68427380Y-76748809D01*
X68389285Y-76710714D01*
X53435714Y-76710714D02*
X53397619Y-76748809D01*
X53283333Y-76786904D01*
X53207142Y-76786904D01*
X53092857Y-76748809D01*
X53016666Y-76672619D01*
X52978571Y-76596428D01*
X52940476Y-76444047D01*
X52940476Y-76329761D01*
X52978571Y-76177380D01*
X53016666Y-76101190D01*
X53092857Y-76025000D01*
X53207142Y-75986904D01*
X53283333Y-75986904D01*
X53397619Y-76025000D01*
X53435714Y-76063095D01*
X53740476Y-76063095D02*
X53778571Y-76025000D01*
X53854761Y-75986904D01*
X54045238Y-75986904D01*
X54121428Y-76025000D01*
X54159523Y-76063095D01*
X54197619Y-76139285D01*
X54197619Y-76215476D01*
X54159523Y-76329761D01*
X53702380Y-76786904D01*
X54197619Y-76786904D01*
X54502380Y-76063095D02*
X54540476Y-76025000D01*
X54616666Y-75986904D01*
X54807142Y-75986904D01*
X54883333Y-76025000D01*
X54921428Y-76063095D01*
X54959523Y-76139285D01*
X54959523Y-76215476D01*
X54921428Y-76329761D01*
X54464285Y-76786904D01*
X54959523Y-76786904D01*
X59735714Y-76735714D02*
X59697619Y-76773809D01*
X59583333Y-76811904D01*
X59507142Y-76811904D01*
X59392857Y-76773809D01*
X59316666Y-76697619D01*
X59278571Y-76621428D01*
X59240476Y-76469047D01*
X59240476Y-76354761D01*
X59278571Y-76202380D01*
X59316666Y-76126190D01*
X59392857Y-76050000D01*
X59507142Y-76011904D01*
X59583333Y-76011904D01*
X59697619Y-76050000D01*
X59735714Y-76088095D01*
X60040476Y-76088095D02*
X60078571Y-76050000D01*
X60154761Y-76011904D01*
X60345238Y-76011904D01*
X60421428Y-76050000D01*
X60459523Y-76088095D01*
X60497619Y-76164285D01*
X60497619Y-76240476D01*
X60459523Y-76354761D01*
X60002380Y-76811904D01*
X60497619Y-76811904D01*
X61259523Y-76811904D02*
X60802380Y-76811904D01*
X61030952Y-76811904D02*
X61030952Y-76011904D01*
X60954761Y-76126190D01*
X60878571Y-76202380D01*
X60802380Y-76240476D01*
X35735714Y-79785714D02*
X35697619Y-79823809D01*
X35583333Y-79861904D01*
X35507142Y-79861904D01*
X35392857Y-79823809D01*
X35316666Y-79747619D01*
X35278571Y-79671428D01*
X35240476Y-79519047D01*
X35240476Y-79404761D01*
X35278571Y-79252380D01*
X35316666Y-79176190D01*
X35392857Y-79100000D01*
X35507142Y-79061904D01*
X35583333Y-79061904D01*
X35697619Y-79100000D01*
X35735714Y-79138095D01*
X36040476Y-79138095D02*
X36078571Y-79100000D01*
X36154761Y-79061904D01*
X36345238Y-79061904D01*
X36421428Y-79100000D01*
X36459523Y-79138095D01*
X36497619Y-79214285D01*
X36497619Y-79290476D01*
X36459523Y-79404761D01*
X36002380Y-79861904D01*
X36497619Y-79861904D01*
X36992857Y-79061904D02*
X37069047Y-79061904D01*
X37145238Y-79100000D01*
X37183333Y-79138095D01*
X37221428Y-79214285D01*
X37259523Y-79366666D01*
X37259523Y-79557142D01*
X37221428Y-79709523D01*
X37183333Y-79785714D01*
X37145238Y-79823809D01*
X37069047Y-79861904D01*
X36992857Y-79861904D01*
X36916666Y-79823809D01*
X36878571Y-79785714D01*
X36840476Y-79709523D01*
X36802380Y-79557142D01*
X36802380Y-79366666D01*
X36840476Y-79214285D01*
X36878571Y-79138095D01*
X36916666Y-79100000D01*
X36992857Y-79061904D01*
X58660714Y-73085714D02*
X58622619Y-73123809D01*
X58508333Y-73161904D01*
X58432142Y-73161904D01*
X58317857Y-73123809D01*
X58241666Y-73047619D01*
X58203571Y-72971428D01*
X58165476Y-72819047D01*
X58165476Y-72704761D01*
X58203571Y-72552380D01*
X58241666Y-72476190D01*
X58317857Y-72400000D01*
X58432142Y-72361904D01*
X58508333Y-72361904D01*
X58622619Y-72400000D01*
X58660714Y-72438095D01*
X59422619Y-73161904D02*
X58965476Y-73161904D01*
X59194047Y-73161904D02*
X59194047Y-72361904D01*
X59117857Y-72476190D01*
X59041666Y-72552380D01*
X58965476Y-72590476D01*
X59803571Y-73161904D02*
X59955952Y-73161904D01*
X60032142Y-73123809D01*
X60070238Y-73085714D01*
X60146428Y-72971428D01*
X60184523Y-72819047D01*
X60184523Y-72514285D01*
X60146428Y-72438095D01*
X60108333Y-72400000D01*
X60032142Y-72361904D01*
X59879761Y-72361904D01*
X59803571Y-72400000D01*
X59765476Y-72438095D01*
X59727380Y-72514285D01*
X59727380Y-72704761D01*
X59765476Y-72780952D01*
X59803571Y-72819047D01*
X59879761Y-72857142D01*
X60032142Y-72857142D01*
X60108333Y-72819047D01*
X60146428Y-72780952D01*
X60184523Y-72704761D01*
X35710714Y-78110714D02*
X35672619Y-78148809D01*
X35558333Y-78186904D01*
X35482142Y-78186904D01*
X35367857Y-78148809D01*
X35291666Y-78072619D01*
X35253571Y-77996428D01*
X35215476Y-77844047D01*
X35215476Y-77729761D01*
X35253571Y-77577380D01*
X35291666Y-77501190D01*
X35367857Y-77425000D01*
X35482142Y-77386904D01*
X35558333Y-77386904D01*
X35672619Y-77425000D01*
X35710714Y-77463095D01*
X36472619Y-78186904D02*
X36015476Y-78186904D01*
X36244047Y-78186904D02*
X36244047Y-77386904D01*
X36167857Y-77501190D01*
X36091666Y-77577380D01*
X36015476Y-77615476D01*
X36929761Y-77729761D02*
X36853571Y-77691666D01*
X36815476Y-77653571D01*
X36777380Y-77577380D01*
X36777380Y-77539285D01*
X36815476Y-77463095D01*
X36853571Y-77425000D01*
X36929761Y-77386904D01*
X37082142Y-77386904D01*
X37158333Y-77425000D01*
X37196428Y-77463095D01*
X37234523Y-77539285D01*
X37234523Y-77577380D01*
X37196428Y-77653571D01*
X37158333Y-77691666D01*
X37082142Y-77729761D01*
X36929761Y-77729761D01*
X36853571Y-77767857D01*
X36815476Y-77805952D01*
X36777380Y-77882142D01*
X36777380Y-78034523D01*
X36815476Y-78110714D01*
X36853571Y-78148809D01*
X36929761Y-78186904D01*
X37082142Y-78186904D01*
X37158333Y-78148809D01*
X37196428Y-78110714D01*
X37234523Y-78034523D01*
X37234523Y-77882142D01*
X37196428Y-77805952D01*
X37158333Y-77767857D01*
X37082142Y-77729761D01*
X67263095Y-45277380D02*
X67834523Y-45277380D01*
X67548809Y-46277380D02*
X67548809Y-45277380D01*
X68167857Y-46277380D02*
X68167857Y-45277380D01*
X68548809Y-45277380D01*
X68644047Y-45325000D01*
X68691666Y-45372619D01*
X68739285Y-45467857D01*
X68739285Y-45610714D01*
X68691666Y-45705952D01*
X68644047Y-45753571D01*
X68548809Y-45801190D01*
X68167857Y-45801190D01*
X69596428Y-45277380D02*
X69405952Y-45277380D01*
X69310714Y-45325000D01*
X69263095Y-45372619D01*
X69167857Y-45515476D01*
X69120238Y-45705952D01*
X69120238Y-46086904D01*
X69167857Y-46182142D01*
X69215476Y-46229761D01*
X69310714Y-46277380D01*
X69501190Y-46277380D01*
X69596428Y-46229761D01*
X69644047Y-46182142D01*
X69691666Y-46086904D01*
X69691666Y-45848809D01*
X69644047Y-45753571D01*
X69596428Y-45705952D01*
X69501190Y-45658333D01*
X69310714Y-45658333D01*
X69215476Y-45705952D01*
X69167857Y-45753571D01*
X69120238Y-45848809D01*
X60110714Y-44161904D02*
X59844047Y-43780952D01*
X59653571Y-44161904D02*
X59653571Y-43361904D01*
X59958333Y-43361904D01*
X60034523Y-43400000D01*
X60072619Y-43438095D01*
X60110714Y-43514285D01*
X60110714Y-43628571D01*
X60072619Y-43704761D01*
X60034523Y-43742857D01*
X59958333Y-43780952D01*
X59653571Y-43780952D01*
X60872619Y-44161904D02*
X60415476Y-44161904D01*
X60644047Y-44161904D02*
X60644047Y-43361904D01*
X60567857Y-43476190D01*
X60491666Y-43552380D01*
X60415476Y-43590476D01*
X61367857Y-43361904D02*
X61444047Y-43361904D01*
X61520238Y-43400000D01*
X61558333Y-43438095D01*
X61596428Y-43514285D01*
X61634523Y-43666666D01*
X61634523Y-43857142D01*
X61596428Y-44009523D01*
X61558333Y-44085714D01*
X61520238Y-44123809D01*
X61444047Y-44161904D01*
X61367857Y-44161904D01*
X61291666Y-44123809D01*
X61253571Y-44085714D01*
X61215476Y-44009523D01*
X61177380Y-43857142D01*
X61177380Y-43666666D01*
X61215476Y-43514285D01*
X61253571Y-43438095D01*
X61291666Y-43400000D01*
X61367857Y-43361904D01*
X45016666Y-43386904D02*
X44750000Y-43005952D01*
X44559523Y-43386904D02*
X44559523Y-42586904D01*
X44864285Y-42586904D01*
X44940476Y-42625000D01*
X44978571Y-42663095D01*
X45016666Y-42739285D01*
X45016666Y-42853571D01*
X44978571Y-42929761D01*
X44940476Y-42967857D01*
X44864285Y-43005952D01*
X44559523Y-43005952D01*
X45397619Y-43386904D02*
X45550000Y-43386904D01*
X45626190Y-43348809D01*
X45664285Y-43310714D01*
X45740476Y-43196428D01*
X45778571Y-43044047D01*
X45778571Y-42739285D01*
X45740476Y-42663095D01*
X45702380Y-42625000D01*
X45626190Y-42586904D01*
X45473809Y-42586904D01*
X45397619Y-42625000D01*
X45359523Y-42663095D01*
X45321428Y-42739285D01*
X45321428Y-42929761D01*
X45359523Y-43005952D01*
X45397619Y-43044047D01*
X45473809Y-43082142D01*
X45626190Y-43082142D01*
X45702380Y-43044047D01*
X45740476Y-43005952D01*
X45778571Y-42929761D01*
X53941666Y-43386904D02*
X53675000Y-43005952D01*
X53484523Y-43386904D02*
X53484523Y-42586904D01*
X53789285Y-42586904D01*
X53865476Y-42625000D01*
X53903571Y-42663095D01*
X53941666Y-42739285D01*
X53941666Y-42853571D01*
X53903571Y-42929761D01*
X53865476Y-42967857D01*
X53789285Y-43005952D01*
X53484523Y-43005952D01*
X54398809Y-42929761D02*
X54322619Y-42891666D01*
X54284523Y-42853571D01*
X54246428Y-42777380D01*
X54246428Y-42739285D01*
X54284523Y-42663095D01*
X54322619Y-42625000D01*
X54398809Y-42586904D01*
X54551190Y-42586904D01*
X54627380Y-42625000D01*
X54665476Y-42663095D01*
X54703571Y-42739285D01*
X54703571Y-42777380D01*
X54665476Y-42853571D01*
X54627380Y-42891666D01*
X54551190Y-42929761D01*
X54398809Y-42929761D01*
X54322619Y-42967857D01*
X54284523Y-43005952D01*
X54246428Y-43082142D01*
X54246428Y-43234523D01*
X54284523Y-43310714D01*
X54322619Y-43348809D01*
X54398809Y-43386904D01*
X54551190Y-43386904D01*
X54627380Y-43348809D01*
X54665476Y-43310714D01*
X54703571Y-43234523D01*
X54703571Y-43082142D01*
X54665476Y-43005952D01*
X54627380Y-42967857D01*
X54551190Y-42929761D01*
X61460714Y-58510714D02*
X61422619Y-58548809D01*
X61308333Y-58586904D01*
X61232142Y-58586904D01*
X61117857Y-58548809D01*
X61041666Y-58472619D01*
X61003571Y-58396428D01*
X60965476Y-58244047D01*
X60965476Y-58129761D01*
X61003571Y-57977380D01*
X61041666Y-57901190D01*
X61117857Y-57825000D01*
X61232142Y-57786904D01*
X61308333Y-57786904D01*
X61422619Y-57825000D01*
X61460714Y-57863095D01*
X62222619Y-58586904D02*
X61765476Y-58586904D01*
X61994047Y-58586904D02*
X61994047Y-57786904D01*
X61917857Y-57901190D01*
X61841666Y-57977380D01*
X61765476Y-58015476D01*
X62489285Y-57786904D02*
X63022619Y-57786904D01*
X62679761Y-58586904D01*
X81141666Y-43361904D02*
X80875000Y-42980952D01*
X80684523Y-43361904D02*
X80684523Y-42561904D01*
X80989285Y-42561904D01*
X81065476Y-42600000D01*
X81103571Y-42638095D01*
X81141666Y-42714285D01*
X81141666Y-42828571D01*
X81103571Y-42904761D01*
X81065476Y-42942857D01*
X80989285Y-42980952D01*
X80684523Y-42980952D01*
X81408333Y-42561904D02*
X81941666Y-42561904D01*
X81598809Y-43361904D01*
X81141666Y-41861904D02*
X80875000Y-41480952D01*
X80684523Y-41861904D02*
X80684523Y-41061904D01*
X80989285Y-41061904D01*
X81065476Y-41100000D01*
X81103571Y-41138095D01*
X81141666Y-41214285D01*
X81141666Y-41328571D01*
X81103571Y-41404761D01*
X81065476Y-41442857D01*
X80989285Y-41480952D01*
X80684523Y-41480952D01*
X81827380Y-41061904D02*
X81675000Y-41061904D01*
X81598809Y-41100000D01*
X81560714Y-41138095D01*
X81484523Y-41252380D01*
X81446428Y-41404761D01*
X81446428Y-41709523D01*
X81484523Y-41785714D01*
X81522619Y-41823809D01*
X81598809Y-41861904D01*
X81751190Y-41861904D01*
X81827380Y-41823809D01*
X81865476Y-41785714D01*
X81903571Y-41709523D01*
X81903571Y-41519047D01*
X81865476Y-41442857D01*
X81827380Y-41404761D01*
X81751190Y-41366666D01*
X81598809Y-41366666D01*
X81522619Y-41404761D01*
X81484523Y-41442857D01*
X81446428Y-41519047D01*
X81141666Y-40211904D02*
X80875000Y-39830952D01*
X80684523Y-40211904D02*
X80684523Y-39411904D01*
X80989285Y-39411904D01*
X81065476Y-39450000D01*
X81103571Y-39488095D01*
X81141666Y-39564285D01*
X81141666Y-39678571D01*
X81103571Y-39754761D01*
X81065476Y-39792857D01*
X80989285Y-39830952D01*
X80684523Y-39830952D01*
X81865476Y-39411904D02*
X81484523Y-39411904D01*
X81446428Y-39792857D01*
X81484523Y-39754761D01*
X81560714Y-39716666D01*
X81751190Y-39716666D01*
X81827380Y-39754761D01*
X81865476Y-39792857D01*
X81903571Y-39869047D01*
X81903571Y-40059523D01*
X81865476Y-40135714D01*
X81827380Y-40173809D01*
X81751190Y-40211904D01*
X81560714Y-40211904D01*
X81484523Y-40173809D01*
X81446428Y-40135714D01*
X86791666Y-39002380D02*
X86791666Y-39716666D01*
X86744047Y-39859523D01*
X86648809Y-39954761D01*
X86505952Y-40002380D01*
X86410714Y-40002380D01*
X87744047Y-39002380D02*
X87267857Y-39002380D01*
X87220238Y-39478571D01*
X87267857Y-39430952D01*
X87363095Y-39383333D01*
X87601190Y-39383333D01*
X87696428Y-39430952D01*
X87744047Y-39478571D01*
X87791666Y-39573809D01*
X87791666Y-39811904D01*
X87744047Y-39907142D01*
X87696428Y-39954761D01*
X87601190Y-40002380D01*
X87363095Y-40002380D01*
X87267857Y-39954761D01*
X87220238Y-39907142D01*
X67735714Y-43130714D02*
X67697619Y-43168809D01*
X67583333Y-43206904D01*
X67507142Y-43206904D01*
X67392857Y-43168809D01*
X67316666Y-43092619D01*
X67278571Y-43016428D01*
X67240476Y-42864047D01*
X67240476Y-42749761D01*
X67278571Y-42597380D01*
X67316666Y-42521190D01*
X67392857Y-42445000D01*
X67507142Y-42406904D01*
X67583333Y-42406904D01*
X67697619Y-42445000D01*
X67735714Y-42483095D01*
X68497619Y-43206904D02*
X68040476Y-43206904D01*
X68269047Y-43206904D02*
X68269047Y-42406904D01*
X68192857Y-42521190D01*
X68116666Y-42597380D01*
X68040476Y-42635476D01*
X69183333Y-42406904D02*
X69030952Y-42406904D01*
X68954761Y-42445000D01*
X68916666Y-42483095D01*
X68840476Y-42597380D01*
X68802380Y-42749761D01*
X68802380Y-43054523D01*
X68840476Y-43130714D01*
X68878571Y-43168809D01*
X68954761Y-43206904D01*
X69107142Y-43206904D01*
X69183333Y-43168809D01*
X69221428Y-43130714D01*
X69259523Y-43054523D01*
X69259523Y-42864047D01*
X69221428Y-42787857D01*
X69183333Y-42749761D01*
X69107142Y-42711666D01*
X68954761Y-42711666D01*
X68878571Y-42749761D01*
X68840476Y-42787857D01*
X68802380Y-42864047D01*
X91291666Y-79177380D02*
X91291666Y-79891666D01*
X91244047Y-80034523D01*
X91148809Y-80129761D01*
X91005952Y-80177380D01*
X90910714Y-80177380D01*
X92291666Y-80177380D02*
X91720238Y-80177380D01*
X92005952Y-80177380D02*
X92005952Y-79177380D01*
X91910714Y-79320238D01*
X91815476Y-79415476D01*
X91720238Y-79463095D01*
X65438095Y-50127380D02*
X66009523Y-50127380D01*
X65723809Y-51127380D02*
X65723809Y-50127380D01*
X66342857Y-51127380D02*
X66342857Y-50127380D01*
X66723809Y-50127380D01*
X66819047Y-50175000D01*
X66866666Y-50222619D01*
X66914285Y-50317857D01*
X66914285Y-50460714D01*
X66866666Y-50555952D01*
X66819047Y-50603571D01*
X66723809Y-50651190D01*
X66342857Y-50651190D01*
X67819047Y-50127380D02*
X67342857Y-50127380D01*
X67295238Y-50603571D01*
X67342857Y-50555952D01*
X67438095Y-50508333D01*
X67676190Y-50508333D01*
X67771428Y-50555952D01*
X67819047Y-50603571D01*
X67866666Y-50698809D01*
X67866666Y-50936904D01*
X67819047Y-51032142D01*
X67771428Y-51079761D01*
X67676190Y-51127380D01*
X67438095Y-51127380D01*
X67342857Y-51079761D01*
X67295238Y-51032142D01*
X89666666Y-86302380D02*
X89666666Y-87016666D01*
X89619047Y-87159523D01*
X89523809Y-87254761D01*
X89380952Y-87302380D01*
X89285714Y-87302380D01*
X90571428Y-86635714D02*
X90571428Y-87302380D01*
X90333333Y-86254761D02*
X90095238Y-86969047D01*
X90714285Y-86969047D01*
X88764285Y-59603571D02*
X88907142Y-59651190D01*
X88954761Y-59698809D01*
X89002380Y-59794047D01*
X89002380Y-59936904D01*
X88954761Y-60032142D01*
X88907142Y-60079761D01*
X88811904Y-60127380D01*
X88430952Y-60127380D01*
X88430952Y-59127380D01*
X88764285Y-59127380D01*
X88859523Y-59175000D01*
X88907142Y-59222619D01*
X88954761Y-59317857D01*
X88954761Y-59413095D01*
X88907142Y-59508333D01*
X88859523Y-59555952D01*
X88764285Y-59603571D01*
X88430952Y-59603571D01*
X89288095Y-59127380D02*
X89859523Y-59127380D01*
X89573809Y-60127380D02*
X89573809Y-59127380D01*
X90716666Y-60127380D02*
X90145238Y-60127380D01*
X90430952Y-60127380D02*
X90430952Y-59127380D01*
X90335714Y-59270238D01*
X90240476Y-59365476D01*
X90145238Y-59413095D01*
X83016666Y-86302380D02*
X83016666Y-87016666D01*
X82969047Y-87159523D01*
X82873809Y-87254761D01*
X82730952Y-87302380D01*
X82635714Y-87302380D01*
X83397619Y-86302380D02*
X84016666Y-86302380D01*
X83683333Y-86683333D01*
X83826190Y-86683333D01*
X83921428Y-86730952D01*
X83969047Y-86778571D01*
X84016666Y-86873809D01*
X84016666Y-87111904D01*
X83969047Y-87207142D01*
X83921428Y-87254761D01*
X83826190Y-87302380D01*
X83540476Y-87302380D01*
X83445238Y-87254761D01*
X83397619Y-87207142D01*
X39816666Y-86277380D02*
X39816666Y-86991666D01*
X39769047Y-87134523D01*
X39673809Y-87229761D01*
X39530952Y-87277380D01*
X39435714Y-87277380D01*
X40245238Y-86372619D02*
X40292857Y-86325000D01*
X40388095Y-86277380D01*
X40626190Y-86277380D01*
X40721428Y-86325000D01*
X40769047Y-86372619D01*
X40816666Y-86467857D01*
X40816666Y-86563095D01*
X40769047Y-86705952D01*
X40197619Y-87277380D01*
X40816666Y-87277380D01*
X64113095Y-62202380D02*
X64113095Y-63011904D01*
X64160714Y-63107142D01*
X64208333Y-63154761D01*
X64303571Y-63202380D01*
X64494047Y-63202380D01*
X64589285Y-63154761D01*
X64636904Y-63107142D01*
X64684523Y-63011904D01*
X64684523Y-62202380D01*
X65636904Y-62202380D02*
X65160714Y-62202380D01*
X65113095Y-62678571D01*
X65160714Y-62630952D01*
X65255952Y-62583333D01*
X65494047Y-62583333D01*
X65589285Y-62630952D01*
X65636904Y-62678571D01*
X65684523Y-62773809D01*
X65684523Y-63011904D01*
X65636904Y-63107142D01*
X65589285Y-63154761D01*
X65494047Y-63202380D01*
X65255952Y-63202380D01*
X65160714Y-63154761D01*
X65113095Y-63107142D01*
X48288095Y-61002380D02*
X48288095Y-61811904D01*
X48335714Y-61907142D01*
X48383333Y-61954761D01*
X48478571Y-62002380D01*
X48669047Y-62002380D01*
X48764285Y-61954761D01*
X48811904Y-61907142D01*
X48859523Y-61811904D01*
X48859523Y-61002380D01*
X49764285Y-61335714D02*
X49764285Y-62002380D01*
X49526190Y-60954761D02*
X49288095Y-61669047D01*
X49907142Y-61669047D01*
X49915476Y-61961904D02*
X50372619Y-61961904D01*
X50144047Y-62761904D02*
X50144047Y-61961904D01*
X50639285Y-62761904D02*
X50639285Y-61961904D01*
X50944047Y-61961904D01*
X51020238Y-62000000D01*
X51058333Y-62038095D01*
X51096428Y-62114285D01*
X51096428Y-62228571D01*
X51058333Y-62304761D01*
X51020238Y-62342857D01*
X50944047Y-62380952D01*
X50639285Y-62380952D01*
X51782142Y-62228571D02*
X51782142Y-62761904D01*
X51591666Y-61923809D02*
X51401190Y-62495238D01*
X51896428Y-62495238D01*
X35165476Y-61936904D02*
X35622619Y-61936904D01*
X35394047Y-62736904D02*
X35394047Y-61936904D01*
X35889285Y-62736904D02*
X35889285Y-61936904D01*
X36194047Y-61936904D01*
X36270238Y-61975000D01*
X36308333Y-62013095D01*
X36346428Y-62089285D01*
X36346428Y-62203571D01*
X36308333Y-62279761D01*
X36270238Y-62317857D01*
X36194047Y-62355952D01*
X35889285Y-62355952D01*
X36613095Y-61936904D02*
X37108333Y-61936904D01*
X36841666Y-62241666D01*
X36955952Y-62241666D01*
X37032142Y-62279761D01*
X37070238Y-62317857D01*
X37108333Y-62394047D01*
X37108333Y-62584523D01*
X37070238Y-62660714D01*
X37032142Y-62698809D01*
X36955952Y-62736904D01*
X36727380Y-62736904D01*
X36651190Y-62698809D01*
X36613095Y-62660714D01*
X49965476Y-71336904D02*
X50422619Y-71336904D01*
X50194047Y-72136904D02*
X50194047Y-71336904D01*
X50689285Y-72136904D02*
X50689285Y-71336904D01*
X50994047Y-71336904D01*
X51070238Y-71375000D01*
X51108333Y-71413095D01*
X51146428Y-71489285D01*
X51146428Y-71603571D01*
X51108333Y-71679761D01*
X51070238Y-71717857D01*
X50994047Y-71755952D01*
X50689285Y-71755952D01*
X51451190Y-71413095D02*
X51489285Y-71375000D01*
X51565476Y-71336904D01*
X51755952Y-71336904D01*
X51832142Y-71375000D01*
X51870238Y-71413095D01*
X51908333Y-71489285D01*
X51908333Y-71565476D01*
X51870238Y-71679761D01*
X51413095Y-72136904D01*
X51908333Y-72136904D01*
X35165476Y-71311904D02*
X35622619Y-71311904D01*
X35394047Y-72111904D02*
X35394047Y-71311904D01*
X35889285Y-72111904D02*
X35889285Y-71311904D01*
X36194047Y-71311904D01*
X36270238Y-71350000D01*
X36308333Y-71388095D01*
X36346428Y-71464285D01*
X36346428Y-71578571D01*
X36308333Y-71654761D01*
X36270238Y-71692857D01*
X36194047Y-71730952D01*
X35889285Y-71730952D01*
X37108333Y-72111904D02*
X36651190Y-72111904D01*
X36879761Y-72111904D02*
X36879761Y-71311904D01*
X36803571Y-71426190D01*
X36727380Y-71502380D01*
X36651190Y-71540476D01*
X50485714Y-65510714D02*
X50447619Y-65548809D01*
X50333333Y-65586904D01*
X50257142Y-65586904D01*
X50142857Y-65548809D01*
X50066666Y-65472619D01*
X50028571Y-65396428D01*
X49990476Y-65244047D01*
X49990476Y-65129761D01*
X50028571Y-64977380D01*
X50066666Y-64901190D01*
X50142857Y-64825000D01*
X50257142Y-64786904D01*
X50333333Y-64786904D01*
X50447619Y-64825000D01*
X50485714Y-64863095D01*
X51247619Y-65586904D02*
X50790476Y-65586904D01*
X51019047Y-65586904D02*
X51019047Y-64786904D01*
X50942857Y-64901190D01*
X50866666Y-64977380D01*
X50790476Y-65015476D01*
X51971428Y-64786904D02*
X51590476Y-64786904D01*
X51552380Y-65167857D01*
X51590476Y-65129761D01*
X51666666Y-65091666D01*
X51857142Y-65091666D01*
X51933333Y-65129761D01*
X51971428Y-65167857D01*
X52009523Y-65244047D01*
X52009523Y-65434523D01*
X51971428Y-65510714D01*
X51933333Y-65548809D01*
X51857142Y-65586904D01*
X51666666Y-65586904D01*
X51590476Y-65548809D01*
X51552380Y-65510714D01*
X37135714Y-66185714D02*
X37097619Y-66223809D01*
X36983333Y-66261904D01*
X36907142Y-66261904D01*
X36792857Y-66223809D01*
X36716666Y-66147619D01*
X36678571Y-66071428D01*
X36640476Y-65919047D01*
X36640476Y-65804761D01*
X36678571Y-65652380D01*
X36716666Y-65576190D01*
X36792857Y-65500000D01*
X36907142Y-65461904D01*
X36983333Y-65461904D01*
X37097619Y-65500000D01*
X37135714Y-65538095D01*
X37897619Y-66261904D02*
X37440476Y-66261904D01*
X37669047Y-66261904D02*
X37669047Y-65461904D01*
X37592857Y-65576190D01*
X37516666Y-65652380D01*
X37440476Y-65690476D01*
X38583333Y-65728571D02*
X38583333Y-66261904D01*
X38392857Y-65423809D02*
X38202380Y-65995238D01*
X38697619Y-65995238D01*
X50510714Y-69035714D02*
X50472619Y-69073809D01*
X50358333Y-69111904D01*
X50282142Y-69111904D01*
X50167857Y-69073809D01*
X50091666Y-68997619D01*
X50053571Y-68921428D01*
X50015476Y-68769047D01*
X50015476Y-68654761D01*
X50053571Y-68502380D01*
X50091666Y-68426190D01*
X50167857Y-68350000D01*
X50282142Y-68311904D01*
X50358333Y-68311904D01*
X50472619Y-68350000D01*
X50510714Y-68388095D01*
X51272619Y-69111904D02*
X50815476Y-69111904D01*
X51044047Y-69111904D02*
X51044047Y-68311904D01*
X50967857Y-68426190D01*
X50891666Y-68502380D01*
X50815476Y-68540476D01*
X51577380Y-68388095D02*
X51615476Y-68350000D01*
X51691666Y-68311904D01*
X51882142Y-68311904D01*
X51958333Y-68350000D01*
X51996428Y-68388095D01*
X52034523Y-68464285D01*
X52034523Y-68540476D01*
X51996428Y-68654761D01*
X51539285Y-69111904D01*
X52034523Y-69111904D01*
X37310714Y-68485714D02*
X37272619Y-68523809D01*
X37158333Y-68561904D01*
X37082142Y-68561904D01*
X36967857Y-68523809D01*
X36891666Y-68447619D01*
X36853571Y-68371428D01*
X36815476Y-68219047D01*
X36815476Y-68104761D01*
X36853571Y-67952380D01*
X36891666Y-67876190D01*
X36967857Y-67800000D01*
X37082142Y-67761904D01*
X37158333Y-67761904D01*
X37272619Y-67800000D01*
X37310714Y-67838095D01*
X38072619Y-68561904D02*
X37615476Y-68561904D01*
X37844047Y-68561904D02*
X37844047Y-67761904D01*
X37767857Y-67876190D01*
X37691666Y-67952380D01*
X37615476Y-67990476D01*
X38834523Y-68561904D02*
X38377380Y-68561904D01*
X38605952Y-68561904D02*
X38605952Y-67761904D01*
X38529761Y-67876190D01*
X38453571Y-67952380D01*
X38377380Y-67990476D01*
X75263095Y-62252380D02*
X75263095Y-63061904D01*
X75310714Y-63157142D01*
X75358333Y-63204761D01*
X75453571Y-63252380D01*
X75644047Y-63252380D01*
X75739285Y-63204761D01*
X75786904Y-63157142D01*
X75834523Y-63061904D01*
X75834523Y-62252380D01*
X76739285Y-62252380D02*
X76548809Y-62252380D01*
X76453571Y-62300000D01*
X76405952Y-62347619D01*
X76310714Y-62490476D01*
X76263095Y-62680952D01*
X76263095Y-63061904D01*
X76310714Y-63157142D01*
X76358333Y-63204761D01*
X76453571Y-63252380D01*
X76644047Y-63252380D01*
X76739285Y-63204761D01*
X76786904Y-63157142D01*
X76834523Y-63061904D01*
X76834523Y-62823809D01*
X76786904Y-62728571D01*
X76739285Y-62680952D01*
X76644047Y-62633333D01*
X76453571Y-62633333D01*
X76358333Y-62680952D01*
X76310714Y-62728571D01*
X76263095Y-62823809D01*
X66516666Y-61136904D02*
X66250000Y-60755952D01*
X66059523Y-61136904D02*
X66059523Y-60336904D01*
X66364285Y-60336904D01*
X66440476Y-60375000D01*
X66478571Y-60413095D01*
X66516666Y-60489285D01*
X66516666Y-60603571D01*
X66478571Y-60679761D01*
X66440476Y-60717857D01*
X66364285Y-60755952D01*
X66059523Y-60755952D01*
X67202380Y-60603571D02*
X67202380Y-61136904D01*
X67011904Y-60298809D02*
X66821428Y-60870238D01*
X67316666Y-60870238D01*
X74996666Y-61186904D02*
X74730000Y-60805952D01*
X74539523Y-61186904D02*
X74539523Y-60386904D01*
X74844285Y-60386904D01*
X74920476Y-60425000D01*
X74958571Y-60463095D01*
X74996666Y-60539285D01*
X74996666Y-60653571D01*
X74958571Y-60729761D01*
X74920476Y-60767857D01*
X74844285Y-60805952D01*
X74539523Y-60805952D01*
X75263333Y-60386904D02*
X75758571Y-60386904D01*
X75491904Y-60691666D01*
X75606190Y-60691666D01*
X75682380Y-60729761D01*
X75720476Y-60767857D01*
X75758571Y-60844047D01*
X75758571Y-61034523D01*
X75720476Y-61110714D01*
X75682380Y-61148809D01*
X75606190Y-61186904D01*
X75377619Y-61186904D01*
X75301428Y-61148809D01*
X75263333Y-61110714D01*
X94616666Y-39785714D02*
X94578571Y-39823809D01*
X94464285Y-39861904D01*
X94388095Y-39861904D01*
X94273809Y-39823809D01*
X94197619Y-39747619D01*
X94159523Y-39671428D01*
X94121428Y-39519047D01*
X94121428Y-39404761D01*
X94159523Y-39252380D01*
X94197619Y-39176190D01*
X94273809Y-39100000D01*
X94388095Y-39061904D01*
X94464285Y-39061904D01*
X94578571Y-39100000D01*
X94616666Y-39138095D01*
X94883333Y-39061904D02*
X95378571Y-39061904D01*
X95111904Y-39366666D01*
X95226190Y-39366666D01*
X95302380Y-39404761D01*
X95340476Y-39442857D01*
X95378571Y-39519047D01*
X95378571Y-39709523D01*
X95340476Y-39785714D01*
X95302380Y-39823809D01*
X95226190Y-39861904D01*
X94997619Y-39861904D01*
X94921428Y-39823809D01*
X94883333Y-39785714D01*
X68086666Y-54261904D02*
X67820000Y-53880952D01*
X67629523Y-54261904D02*
X67629523Y-53461904D01*
X67934285Y-53461904D01*
X68010476Y-53500000D01*
X68048571Y-53538095D01*
X68086666Y-53614285D01*
X68086666Y-53728571D01*
X68048571Y-53804761D01*
X68010476Y-53842857D01*
X67934285Y-53880952D01*
X67629523Y-53880952D01*
X68391428Y-53538095D02*
X68429523Y-53500000D01*
X68505714Y-53461904D01*
X68696190Y-53461904D01*
X68772380Y-53500000D01*
X68810476Y-53538095D01*
X68848571Y-53614285D01*
X68848571Y-53690476D01*
X68810476Y-53804761D01*
X68353333Y-54261904D01*
X68848571Y-54261904D01*
X76766666Y-60760714D02*
X76728571Y-60798809D01*
X76614285Y-60836904D01*
X76538095Y-60836904D01*
X76423809Y-60798809D01*
X76347619Y-60722619D01*
X76309523Y-60646428D01*
X76271428Y-60494047D01*
X76271428Y-60379761D01*
X76309523Y-60227380D01*
X76347619Y-60151190D01*
X76423809Y-60075000D01*
X76538095Y-60036904D01*
X76614285Y-60036904D01*
X76728571Y-60075000D01*
X76766666Y-60113095D01*
X77452380Y-60303571D02*
X77452380Y-60836904D01*
X77261904Y-59998809D02*
X77071428Y-60570238D01*
X77566666Y-60570238D01*
X30515476Y-58352380D02*
X30515476Y-57352380D01*
X30848809Y-58066666D01*
X31182142Y-57352380D01*
X31182142Y-58352380D01*
X31658333Y-58352380D02*
X31658333Y-57352380D01*
X32229761Y-58352380D02*
X31801190Y-57780952D01*
X32229761Y-57352380D02*
X31658333Y-57923809D01*
X33086904Y-57352380D02*
X32896428Y-57352380D01*
X32801190Y-57400000D01*
X32753571Y-57447619D01*
X32658333Y-57590476D01*
X32610714Y-57780952D01*
X32610714Y-58161904D01*
X32658333Y-58257142D01*
X32705952Y-58304761D01*
X32801190Y-58352380D01*
X32991666Y-58352380D01*
X33086904Y-58304761D01*
X33134523Y-58257142D01*
X33182142Y-58161904D01*
X33182142Y-57923809D01*
X33134523Y-57828571D01*
X33086904Y-57780952D01*
X32991666Y-57733333D01*
X32801190Y-57733333D01*
X32705952Y-57780952D01*
X32658333Y-57828571D01*
X32610714Y-57923809D01*
X100565476Y-58352380D02*
X100565476Y-57352380D01*
X100898809Y-58066666D01*
X101232142Y-57352380D01*
X101232142Y-58352380D01*
X101708333Y-58352380D02*
X101708333Y-57352380D01*
X102279761Y-58352380D02*
X101851190Y-57780952D01*
X102279761Y-57352380D02*
X101708333Y-57923809D01*
X103184523Y-57352380D02*
X102708333Y-57352380D01*
X102660714Y-57828571D01*
X102708333Y-57780952D01*
X102803571Y-57733333D01*
X103041666Y-57733333D01*
X103136904Y-57780952D01*
X103184523Y-57828571D01*
X103232142Y-57923809D01*
X103232142Y-58161904D01*
X103184523Y-58257142D01*
X103136904Y-58304761D01*
X103041666Y-58352380D01*
X102803571Y-58352380D01*
X102708333Y-58304761D01*
X102660714Y-58257142D01*
X88838095Y-62252380D02*
X88838095Y-63061904D01*
X88885714Y-63157142D01*
X88933333Y-63204761D01*
X89028571Y-63252380D01*
X89219047Y-63252380D01*
X89314285Y-63204761D01*
X89361904Y-63157142D01*
X89409523Y-63061904D01*
X89409523Y-62252380D01*
X89790476Y-62252380D02*
X90409523Y-62252380D01*
X90076190Y-62633333D01*
X90219047Y-62633333D01*
X90314285Y-62680952D01*
X90361904Y-62728571D01*
X90409523Y-62823809D01*
X90409523Y-63061904D01*
X90361904Y-63157142D01*
X90314285Y-63204761D01*
X90219047Y-63252380D01*
X89933333Y-63252380D01*
X89838095Y-63204761D01*
X89790476Y-63157142D01*
X62785714Y-54860714D02*
X62747619Y-54898809D01*
X62633333Y-54936904D01*
X62557142Y-54936904D01*
X62442857Y-54898809D01*
X62366666Y-54822619D01*
X62328571Y-54746428D01*
X62290476Y-54594047D01*
X62290476Y-54479761D01*
X62328571Y-54327380D01*
X62366666Y-54251190D01*
X62442857Y-54175000D01*
X62557142Y-54136904D01*
X62633333Y-54136904D01*
X62747619Y-54175000D01*
X62785714Y-54213095D01*
X63547619Y-54936904D02*
X63090476Y-54936904D01*
X63319047Y-54936904D02*
X63319047Y-54136904D01*
X63242857Y-54251190D01*
X63166666Y-54327380D01*
X63090476Y-54365476D01*
X63814285Y-54136904D02*
X64309523Y-54136904D01*
X64042857Y-54441666D01*
X64157142Y-54441666D01*
X64233333Y-54479761D01*
X64271428Y-54517857D01*
X64309523Y-54594047D01*
X64309523Y-54784523D01*
X64271428Y-54860714D01*
X64233333Y-54898809D01*
X64157142Y-54936904D01*
X63928571Y-54936904D01*
X63852380Y-54898809D01*
X63814285Y-54860714D01*
X56591666Y-54810714D02*
X56553571Y-54848809D01*
X56439285Y-54886904D01*
X56363095Y-54886904D01*
X56248809Y-54848809D01*
X56172619Y-54772619D01*
X56134523Y-54696428D01*
X56096428Y-54544047D01*
X56096428Y-54429761D01*
X56134523Y-54277380D01*
X56172619Y-54201190D01*
X56248809Y-54125000D01*
X56363095Y-54086904D01*
X56439285Y-54086904D01*
X56553571Y-54125000D01*
X56591666Y-54163095D01*
X57048809Y-54429761D02*
X56972619Y-54391666D01*
X56934523Y-54353571D01*
X56896428Y-54277380D01*
X56896428Y-54239285D01*
X56934523Y-54163095D01*
X56972619Y-54125000D01*
X57048809Y-54086904D01*
X57201190Y-54086904D01*
X57277380Y-54125000D01*
X57315476Y-54163095D01*
X57353571Y-54239285D01*
X57353571Y-54277380D01*
X57315476Y-54353571D01*
X57277380Y-54391666D01*
X57201190Y-54429761D01*
X57048809Y-54429761D01*
X56972619Y-54467857D01*
X56934523Y-54505952D01*
X56896428Y-54582142D01*
X56896428Y-54734523D01*
X56934523Y-54810714D01*
X56972619Y-54848809D01*
X57048809Y-54886904D01*
X57201190Y-54886904D01*
X57277380Y-54848809D01*
X57315476Y-54810714D01*
X57353571Y-54734523D01*
X57353571Y-54582142D01*
X57315476Y-54505952D01*
X57277380Y-54467857D01*
X57201190Y-54429761D01*
X47716666Y-54985714D02*
X47678571Y-55023809D01*
X47564285Y-55061904D01*
X47488095Y-55061904D01*
X47373809Y-55023809D01*
X47297619Y-54947619D01*
X47259523Y-54871428D01*
X47221428Y-54719047D01*
X47221428Y-54604761D01*
X47259523Y-54452380D01*
X47297619Y-54376190D01*
X47373809Y-54300000D01*
X47488095Y-54261904D01*
X47564285Y-54261904D01*
X47678571Y-54300000D01*
X47716666Y-54338095D01*
X48478571Y-55061904D02*
X48021428Y-55061904D01*
X48250000Y-55061904D02*
X48250000Y-54261904D01*
X48173809Y-54376190D01*
X48097619Y-54452380D01*
X48021428Y-54490476D01*
X35460714Y-42633333D02*
X35498809Y-42671428D01*
X35536904Y-42785714D01*
X35536904Y-42861904D01*
X35498809Y-42976190D01*
X35422619Y-43052380D01*
X35346428Y-43090476D01*
X35194047Y-43128571D01*
X35079761Y-43128571D01*
X34927380Y-43090476D01*
X34851190Y-43052380D01*
X34775000Y-42976190D01*
X34736904Y-42861904D01*
X34736904Y-42785714D01*
X34775000Y-42671428D01*
X34813095Y-42633333D01*
X34736904Y-42366666D02*
X34736904Y-41833333D01*
X35536904Y-42176190D01*
X36986666Y-48910714D02*
X36948571Y-48948809D01*
X36834285Y-48986904D01*
X36758095Y-48986904D01*
X36643809Y-48948809D01*
X36567619Y-48872619D01*
X36529523Y-48796428D01*
X36491428Y-48644047D01*
X36491428Y-48529761D01*
X36529523Y-48377380D01*
X36567619Y-48301190D01*
X36643809Y-48225000D01*
X36758095Y-48186904D01*
X36834285Y-48186904D01*
X36948571Y-48225000D01*
X36986666Y-48263095D01*
X37672380Y-48186904D02*
X37520000Y-48186904D01*
X37443809Y-48225000D01*
X37405714Y-48263095D01*
X37329523Y-48377380D01*
X37291428Y-48529761D01*
X37291428Y-48834523D01*
X37329523Y-48910714D01*
X37367619Y-48948809D01*
X37443809Y-48986904D01*
X37596190Y-48986904D01*
X37672380Y-48948809D01*
X37710476Y-48910714D01*
X37748571Y-48834523D01*
X37748571Y-48644047D01*
X37710476Y-48567857D01*
X37672380Y-48529761D01*
X37596190Y-48491666D01*
X37443809Y-48491666D01*
X37367619Y-48529761D01*
X37329523Y-48567857D01*
X37291428Y-48644047D01*
X50313095Y-46627380D02*
X50313095Y-47436904D01*
X50360714Y-47532142D01*
X50408333Y-47579761D01*
X50503571Y-47627380D01*
X50694047Y-47627380D01*
X50789285Y-47579761D01*
X50836904Y-47532142D01*
X50884523Y-47436904D01*
X50884523Y-46627380D01*
X51313095Y-46722619D02*
X51360714Y-46675000D01*
X51455952Y-46627380D01*
X51694047Y-46627380D01*
X51789285Y-46675000D01*
X51836904Y-46722619D01*
X51884523Y-46817857D01*
X51884523Y-46913095D01*
X51836904Y-47055952D01*
X51265476Y-47627380D01*
X51884523Y-47627380D01*
X40066666Y-51827380D02*
X40733333Y-51827380D01*
X40066666Y-52827380D01*
X40733333Y-52827380D01*
X41780952Y-52922619D02*
X41685714Y-52875000D01*
X41590476Y-52779761D01*
X41447619Y-52636904D01*
X41352380Y-52589285D01*
X41257142Y-52589285D01*
X41304761Y-52827380D02*
X41209523Y-52779761D01*
X41114285Y-52684523D01*
X41066666Y-52494047D01*
X41066666Y-52160714D01*
X41114285Y-51970238D01*
X41209523Y-51875000D01*
X41304761Y-51827380D01*
X41495238Y-51827380D01*
X41590476Y-51875000D01*
X41685714Y-51970238D01*
X41733333Y-52160714D01*
X41733333Y-52494047D01*
X41685714Y-52684523D01*
X41590476Y-52779761D01*
X41495238Y-52827380D01*
X41304761Y-52827380D01*
X42685714Y-52827380D02*
X42114285Y-52827380D01*
X42400000Y-52827380D02*
X42400000Y-51827380D01*
X42304761Y-51970238D01*
X42209523Y-52065476D01*
X42114285Y-52113095D01*
X61135714Y-48335714D02*
X61097619Y-48373809D01*
X60983333Y-48411904D01*
X60907142Y-48411904D01*
X60792857Y-48373809D01*
X60716666Y-48297619D01*
X60678571Y-48221428D01*
X60640476Y-48069047D01*
X60640476Y-47954761D01*
X60678571Y-47802380D01*
X60716666Y-47726190D01*
X60792857Y-47650000D01*
X60907142Y-47611904D01*
X60983333Y-47611904D01*
X61097619Y-47650000D01*
X61135714Y-47688095D01*
X61897619Y-48411904D02*
X61440476Y-48411904D01*
X61669047Y-48411904D02*
X61669047Y-47611904D01*
X61592857Y-47726190D01*
X61516666Y-47802380D01*
X61440476Y-47840476D01*
X62392857Y-47611904D02*
X62469047Y-47611904D01*
X62545238Y-47650000D01*
X62583333Y-47688095D01*
X62621428Y-47764285D01*
X62659523Y-47916666D01*
X62659523Y-48107142D01*
X62621428Y-48259523D01*
X62583333Y-48335714D01*
X62545238Y-48373809D01*
X62469047Y-48411904D01*
X62392857Y-48411904D01*
X62316666Y-48373809D01*
X62278571Y-48335714D01*
X62240476Y-48259523D01*
X62202380Y-48107142D01*
X62202380Y-47916666D01*
X62240476Y-47764285D01*
X62278571Y-47688095D01*
X62316666Y-47650000D01*
X62392857Y-47611904D01*
X49316666Y-48760714D02*
X49278571Y-48798809D01*
X49164285Y-48836904D01*
X49088095Y-48836904D01*
X48973809Y-48798809D01*
X48897619Y-48722619D01*
X48859523Y-48646428D01*
X48821428Y-48494047D01*
X48821428Y-48379761D01*
X48859523Y-48227380D01*
X48897619Y-48151190D01*
X48973809Y-48075000D01*
X49088095Y-48036904D01*
X49164285Y-48036904D01*
X49278571Y-48075000D01*
X49316666Y-48113095D01*
X49697619Y-48836904D02*
X49850000Y-48836904D01*
X49926190Y-48798809D01*
X49964285Y-48760714D01*
X50040476Y-48646428D01*
X50078571Y-48494047D01*
X50078571Y-48189285D01*
X50040476Y-48113095D01*
X50002380Y-48075000D01*
X49926190Y-48036904D01*
X49773809Y-48036904D01*
X49697619Y-48075000D01*
X49659523Y-48113095D01*
X49621428Y-48189285D01*
X49621428Y-48379761D01*
X49659523Y-48455952D01*
X49697619Y-48494047D01*
X49773809Y-48532142D01*
X49926190Y-48532142D01*
X50002380Y-48494047D01*
X50040476Y-48455952D01*
X50078571Y-48379761D01*
X76441666Y-69660714D02*
X76403571Y-69698809D01*
X76289285Y-69736904D01*
X76213095Y-69736904D01*
X76098809Y-69698809D01*
X76022619Y-69622619D01*
X75984523Y-69546428D01*
X75946428Y-69394047D01*
X75946428Y-69279761D01*
X75984523Y-69127380D01*
X76022619Y-69051190D01*
X76098809Y-68975000D01*
X76213095Y-68936904D01*
X76289285Y-68936904D01*
X76403571Y-68975000D01*
X76441666Y-69013095D01*
X77165476Y-68936904D02*
X76784523Y-68936904D01*
X76746428Y-69317857D01*
X76784523Y-69279761D01*
X76860714Y-69241666D01*
X77051190Y-69241666D01*
X77127380Y-69279761D01*
X77165476Y-69317857D01*
X77203571Y-69394047D01*
X77203571Y-69584523D01*
X77165476Y-69660714D01*
X77127380Y-69698809D01*
X77051190Y-69736904D01*
X76860714Y-69736904D01*
X76784523Y-69698809D01*
X76746428Y-69660714D01*
X65491666Y-48110714D02*
X65453571Y-48148809D01*
X65339285Y-48186904D01*
X65263095Y-48186904D01*
X65148809Y-48148809D01*
X65072619Y-48072619D01*
X65034523Y-47996428D01*
X64996428Y-47844047D01*
X64996428Y-47729761D01*
X65034523Y-47577380D01*
X65072619Y-47501190D01*
X65148809Y-47425000D01*
X65263095Y-47386904D01*
X65339285Y-47386904D01*
X65453571Y-47425000D01*
X65491666Y-47463095D01*
X65796428Y-47463095D02*
X65834523Y-47425000D01*
X65910714Y-47386904D01*
X66101190Y-47386904D01*
X66177380Y-47425000D01*
X66215476Y-47463095D01*
X66253571Y-47539285D01*
X66253571Y-47615476D01*
X66215476Y-47729761D01*
X65758333Y-48186904D01*
X66253571Y-48186904D01*
X52083333Y-45452380D02*
X51750000Y-44976190D01*
X51511904Y-45452380D02*
X51511904Y-44452380D01*
X51892857Y-44452380D01*
X51988095Y-44500000D01*
X52035714Y-44547619D01*
X52083333Y-44642857D01*
X52083333Y-44785714D01*
X52035714Y-44880952D01*
X51988095Y-44928571D01*
X51892857Y-44976190D01*
X51511904Y-44976190D01*
X53035714Y-45452380D02*
X52464285Y-45452380D01*
X52750000Y-45452380D02*
X52750000Y-44452380D01*
X52654761Y-44595238D01*
X52559523Y-44690476D01*
X52464285Y-44738095D01*
X78288095Y-58752380D02*
X78288095Y-59561904D01*
X78335714Y-59657142D01*
X78383333Y-59704761D01*
X78478571Y-59752380D01*
X78669047Y-59752380D01*
X78764285Y-59704761D01*
X78811904Y-59657142D01*
X78859523Y-59561904D01*
X78859523Y-58752380D01*
X79859523Y-59752380D02*
X79288095Y-59752380D01*
X79573809Y-59752380D02*
X79573809Y-58752380D01*
X79478571Y-58895238D01*
X79383333Y-58990476D01*
X79288095Y-59038095D01*
X57550476Y-39187380D02*
X58217142Y-40187380D01*
X58217142Y-39187380D02*
X57550476Y-40187380D01*
X58598095Y-40187380D02*
X58598095Y-39187380D01*
X58979047Y-39187380D01*
X59074285Y-39235000D01*
X59121904Y-39282619D01*
X59169523Y-39377857D01*
X59169523Y-39520714D01*
X59121904Y-39615952D01*
X59074285Y-39663571D01*
X58979047Y-39711190D01*
X58598095Y-39711190D01*
X60121904Y-40187380D02*
X59550476Y-40187380D01*
X59836190Y-40187380D02*
X59836190Y-39187380D01*
X59740952Y-39330238D01*
X59645714Y-39425476D01*
X59550476Y-39473095D01*
X36090476Y-29777380D02*
X36090476Y-28777380D01*
X36423809Y-29491666D01*
X36757142Y-28777380D01*
X36757142Y-29777380D01*
X37233333Y-29777380D02*
X37233333Y-28777380D01*
X37804761Y-29777380D02*
X37376190Y-29205952D01*
X37804761Y-28777380D02*
X37233333Y-29348809D01*
X38757142Y-29777380D02*
X38185714Y-29777380D01*
X38471428Y-29777380D02*
X38471428Y-28777380D01*
X38376190Y-28920238D01*
X38280952Y-29015476D01*
X38185714Y-29063095D01*
X94090476Y-29777380D02*
X94090476Y-28777380D01*
X94423809Y-29491666D01*
X94757142Y-28777380D01*
X94757142Y-29777380D01*
X95233333Y-29777380D02*
X95233333Y-28777380D01*
X95804761Y-29777380D02*
X95376190Y-29205952D01*
X95804761Y-28777380D02*
X95233333Y-29348809D01*
X96185714Y-28872619D02*
X96233333Y-28825000D01*
X96328571Y-28777380D01*
X96566666Y-28777380D01*
X96661904Y-28825000D01*
X96709523Y-28872619D01*
X96757142Y-28967857D01*
X96757142Y-29063095D01*
X96709523Y-29205952D01*
X96138095Y-29777380D01*
X96757142Y-29777380D01*
X36090476Y-89277380D02*
X36090476Y-88277380D01*
X36423809Y-88991666D01*
X36757142Y-88277380D01*
X36757142Y-89277380D01*
X37233333Y-89277380D02*
X37233333Y-88277380D01*
X37804761Y-89277380D02*
X37376190Y-88705952D01*
X37804761Y-88277380D02*
X37233333Y-88848809D01*
X38138095Y-88277380D02*
X38757142Y-88277380D01*
X38423809Y-88658333D01*
X38566666Y-88658333D01*
X38661904Y-88705952D01*
X38709523Y-88753571D01*
X38757142Y-88848809D01*
X38757142Y-89086904D01*
X38709523Y-89182142D01*
X38661904Y-89229761D01*
X38566666Y-89277380D01*
X38280952Y-89277380D01*
X38185714Y-89229761D01*
X38138095Y-89182142D01*
X94090476Y-89277380D02*
X94090476Y-88277380D01*
X94423809Y-88991666D01*
X94757142Y-88277380D01*
X94757142Y-89277380D01*
X95233333Y-89277380D02*
X95233333Y-88277380D01*
X95804761Y-89277380D02*
X95376190Y-88705952D01*
X95804761Y-88277380D02*
X95233333Y-88848809D01*
X96661904Y-88610714D02*
X96661904Y-89277380D01*
X96423809Y-88229761D02*
X96185714Y-88944047D01*
X96804761Y-88944047D01*
M02*
