M48
; DRILL file {KiCad (5.1.0-rc1-139-g5a414a74d)} date Thursday, 28 March 2019 at 22:19:26
; FORMAT={3:3/ absolute / metric / suppress leading zeros}
; #@! TF.CreationDate,2019-03-28T22:19:26+00:00
; #@! TF.GenerationSoftware,Kicad,Pcbnew,(5.1.0-rc1-139-g5a414a74d)
FMAT,2
METRIC,TZ
T1C0.300
T2C0.650
T3C1.000
T4C1.016
T5C1.780
T6C2.750
%
G90
G05
T1
X35450Y-42400
X35470Y-45575
X35475Y-48825
X37025Y-78575
X40625Y-69125
X41700Y-58325
X41975Y-78875
X42300Y-58325
X42800Y-68450
X44100Y-61200
X45100Y-40675
X45475Y-61375
X45475Y-74750
X45900Y-45225
X46525Y-61200
X46775Y-58200
X46950Y-73325
X47975Y-61775
X48000Y-69100
X48275Y-54775
X48550Y-74725
X48800Y-39450
X49050Y-55375
X49450Y-58200
X49500Y-49475
X49500Y-50875
X49500Y-51925
X49500Y-52975
X50300Y-74725
X51200Y-55075
X51400Y-53275
X51500Y-41550
X52950Y-77925
X53000Y-49675
X53000Y-52075
X53500Y-41085
X53700Y-55475
X54100Y-73425
X54200Y-50875
X54800Y-57100
X55150Y-75900
X55250Y-69025
X55400Y-49675
X55400Y-52075
X55425Y-44675
X55425Y-46550
X55925Y-60800
X56350Y-46275
X56700Y-44675
X57050Y-60800
X57100Y-41725
X57500Y-68425
X57650Y-40925
X57700Y-57875
X57725Y-51300
X58000Y-49475
X58150Y-60800
X58300Y-58825
X58550Y-51525
X59050Y-46525
X59450Y-55325
X59600Y-49475
X60175Y-58975
X60225Y-73575
X60725Y-60800
X61975Y-60800
X62050Y-56250
X62700Y-69075
X62850Y-45000
X63275Y-60825
X63350Y-76125
X63500Y-72825
X63575Y-55875
X63600Y-49475
X64150Y-41325
X64150Y-42350
X65200Y-48700
X65275Y-55875
X66125Y-68000
X67100Y-72750
X67450Y-76825
X67475Y-75825
X68400Y-59675
X68425Y-45600
X68550Y-40800
X68825Y-64925
X69725Y-42125
X69800Y-55050
X69800Y-65975
X70550Y-78975
X70750Y-64700
X70775Y-59500
X71350Y-68675
X72000Y-66475
X72100Y-61875
X72450Y-51925
X73125Y-61900
X73375Y-57375
X73600Y-42625
X74025Y-73200
X74455Y-47450
X74500Y-59475
X74775Y-72150
X75400Y-45600
X75950Y-69950
X76075Y-43100
X76525Y-47450
X76525Y-59565
X76550Y-64875
X76625Y-69975
X78925Y-61475
X78950Y-72150
X79025Y-56325
X79625Y-60725
X80300Y-61500
X80800Y-69075
X80900Y-64975
X81225Y-61725
X81775Y-58825
X82025Y-74100
X82025Y-75350
X82800Y-59575
X82950Y-82350
X83675Y-60450
X84225Y-80700
X85550Y-60450
X86325Y-52700
X89500Y-49525
X92750Y-46275
T2
X43360Y-46975
X44630Y-46975
X45900Y-46975
X77500Y-45180
X77500Y-46450
X80650Y-45180
X80650Y-46450
X83800Y-40675
X85070Y-40675
T3
X93850Y-63625
X93850Y-66165
X93850Y-68705
X93850Y-71245
X93850Y-73785
X93850Y-76325
X93850Y-78865
X96390Y-63625
X96390Y-66165
X96390Y-68705
X96390Y-71245
X96390Y-73785
X96390Y-76325
X96390Y-78865
X86875Y-76335
X86875Y-78875
X86875Y-81415
X86875Y-83955
X89415Y-76335
X89415Y-78875
X89415Y-81415
X89415Y-83955
X42270Y-33795
X42270Y-36335
X44810Y-33795
X44810Y-36335
X47350Y-33795
X47350Y-36335
X49890Y-33795
X49890Y-36335
X52430Y-33795
X52430Y-36335
X54970Y-33795
X54970Y-36335
X57510Y-33795
X57510Y-36335
X60050Y-33795
X60050Y-36335
X62590Y-33795
X62590Y-36335
X65130Y-33795
X65130Y-36335
X67670Y-33795
X67670Y-36335
X70210Y-33795
X70210Y-36335
X72750Y-33795
X72750Y-36335
X75290Y-33795
X75290Y-36335
X77830Y-33795
X77830Y-36335
X80370Y-33795
X80370Y-36335
X82910Y-33795
X82910Y-36335
X85450Y-33795
X85450Y-36335
X87990Y-33795
X87990Y-36335
X90530Y-33795
X90530Y-36335
T4
X68050Y-80535
X68050Y-83075
X70590Y-80535
X70590Y-83075
X73130Y-80535
X73130Y-83075
X75670Y-80535
X75670Y-83075
X78210Y-80535
X78210Y-83075
X46610Y-80535
X46610Y-83075
X49150Y-80535
X49150Y-83075
X51690Y-80535
X51690Y-83075
X54230Y-80535
X54230Y-83075
X56770Y-80535
X56770Y-83075
T5
X43540Y-35065
X89260Y-35065
T6
X37400Y-35075
X95400Y-35075
X37400Y-84075
X95400Y-84075
X37400Y-58075
X95400Y-58075
T0
M30
