G04 #@! TF.GenerationSoftware,KiCad,Pcbnew,(5.1.0-rc1-139-g5a414a74d)*
G04 #@! TF.CreationDate,2019-03-28T22:17:59+00:00
G04 #@! TF.ProjectId,raspi-serial-hat,72617370-692d-4736-9572-69616c2d6861,3*
G04 #@! TF.SameCoordinates,Original*
G04 #@! TF.FileFunction,Soldermask,Top*
G04 #@! TF.FilePolarity,Negative*
%FSLAX46Y46*%
G04 Gerber Fmt 4.6, Leading zero omitted, Abs format (unit mm)*
G04 Created by KiCad (PCBNEW (5.1.0-rc1-139-g5a414a74d)) date 2019-03-28 22:17:59*
%MOMM*%
%LPD*%
G04 APERTURE LIST*
%ADD10C,0.100000*%
%ADD11C,1.350000*%
%ADD12R,1.000000X1.950000*%
%ADD13O,1.400000X1.400000*%
%ADD14R,1.400000X1.400000*%
%ADD15C,1.900000*%
%ADD16O,2.100000X2.100000*%
%ADD17R,2.100000X2.100000*%
%ADD18C,10.600000*%
%ADD19R,5.500000X2.900000*%
%ADD20O,2.127200X2.127200*%
%ADD21R,2.127200X2.127200*%
%ADD22R,0.850000X2.150000*%
%ADD23C,6.350000*%
%ADD24C,1.550000*%
%ADD25C,0.650000*%
%ADD26C,3.850000*%
%ADD27R,1.600000X2.200000*%
%ADD28R,1.900000X1.000000*%
%ADD29C,2.180000*%
%ADD30R,1.289000X2.080000*%
%ADD31C,2.100000*%
G04 APERTURE END LIST*
D10*
G36*
X66320581Y-71101625D02*
G01*
X66353343Y-71106485D01*
X66385471Y-71114533D01*
X66416656Y-71125691D01*
X66446596Y-71139852D01*
X66475005Y-71156879D01*
X66501608Y-71176609D01*
X66526149Y-71198851D01*
X66548391Y-71223392D01*
X66568121Y-71249995D01*
X66585148Y-71278404D01*
X66599309Y-71308344D01*
X66610467Y-71339529D01*
X66618515Y-71371657D01*
X66623375Y-71404419D01*
X66625000Y-71437500D01*
X66625000Y-72212500D01*
X66623375Y-72245581D01*
X66618515Y-72278343D01*
X66610467Y-72310471D01*
X66599309Y-72341656D01*
X66585148Y-72371596D01*
X66568121Y-72400005D01*
X66548391Y-72426608D01*
X66526149Y-72451149D01*
X66501608Y-72473391D01*
X66475005Y-72493121D01*
X66446596Y-72510148D01*
X66416656Y-72524309D01*
X66385471Y-72535467D01*
X66353343Y-72543515D01*
X66320581Y-72548375D01*
X66287500Y-72550000D01*
X65612500Y-72550000D01*
X65579419Y-72548375D01*
X65546657Y-72543515D01*
X65514529Y-72535467D01*
X65483344Y-72524309D01*
X65453404Y-72510148D01*
X65424995Y-72493121D01*
X65398392Y-72473391D01*
X65373851Y-72451149D01*
X65351609Y-72426608D01*
X65331879Y-72400005D01*
X65314852Y-72371596D01*
X65300691Y-72341656D01*
X65289533Y-72310471D01*
X65281485Y-72278343D01*
X65276625Y-72245581D01*
X65275000Y-72212500D01*
X65275000Y-71437500D01*
X65276625Y-71404419D01*
X65281485Y-71371657D01*
X65289533Y-71339529D01*
X65300691Y-71308344D01*
X65314852Y-71278404D01*
X65331879Y-71249995D01*
X65351609Y-71223392D01*
X65373851Y-71198851D01*
X65398392Y-71176609D01*
X65424995Y-71156879D01*
X65453404Y-71139852D01*
X65483344Y-71125691D01*
X65514529Y-71114533D01*
X65546657Y-71106485D01*
X65579419Y-71101625D01*
X65612500Y-71100000D01*
X66287500Y-71100000D01*
X66320581Y-71101625D01*
X66320581Y-71101625D01*
G37*
D11*
X65950000Y-71825000D03*
D10*
G36*
X66320581Y-69351625D02*
G01*
X66353343Y-69356485D01*
X66385471Y-69364533D01*
X66416656Y-69375691D01*
X66446596Y-69389852D01*
X66475005Y-69406879D01*
X66501608Y-69426609D01*
X66526149Y-69448851D01*
X66548391Y-69473392D01*
X66568121Y-69499995D01*
X66585148Y-69528404D01*
X66599309Y-69558344D01*
X66610467Y-69589529D01*
X66618515Y-69621657D01*
X66623375Y-69654419D01*
X66625000Y-69687500D01*
X66625000Y-70462500D01*
X66623375Y-70495581D01*
X66618515Y-70528343D01*
X66610467Y-70560471D01*
X66599309Y-70591656D01*
X66585148Y-70621596D01*
X66568121Y-70650005D01*
X66548391Y-70676608D01*
X66526149Y-70701149D01*
X66501608Y-70723391D01*
X66475005Y-70743121D01*
X66446596Y-70760148D01*
X66416656Y-70774309D01*
X66385471Y-70785467D01*
X66353343Y-70793515D01*
X66320581Y-70798375D01*
X66287500Y-70800000D01*
X65612500Y-70800000D01*
X65579419Y-70798375D01*
X65546657Y-70793515D01*
X65514529Y-70785467D01*
X65483344Y-70774309D01*
X65453404Y-70760148D01*
X65424995Y-70743121D01*
X65398392Y-70723391D01*
X65373851Y-70701149D01*
X65351609Y-70676608D01*
X65331879Y-70650005D01*
X65314852Y-70621596D01*
X65300691Y-70591656D01*
X65289533Y-70560471D01*
X65281485Y-70528343D01*
X65276625Y-70495581D01*
X65275000Y-70462500D01*
X65275000Y-69687500D01*
X65276625Y-69654419D01*
X65281485Y-69621657D01*
X65289533Y-69589529D01*
X65300691Y-69558344D01*
X65314852Y-69528404D01*
X65331879Y-69499995D01*
X65351609Y-69473392D01*
X65373851Y-69448851D01*
X65398392Y-69426609D01*
X65424995Y-69406879D01*
X65453404Y-69389852D01*
X65483344Y-69375691D01*
X65514529Y-69364533D01*
X65546657Y-69356485D01*
X65579419Y-69351625D01*
X65612500Y-69350000D01*
X66287500Y-69350000D01*
X66320581Y-69351625D01*
X66320581Y-69351625D01*
G37*
D11*
X65950000Y-70075000D03*
D10*
G36*
X53145581Y-66701625D02*
G01*
X53178343Y-66706485D01*
X53210471Y-66714533D01*
X53241656Y-66725691D01*
X53271596Y-66739852D01*
X53300005Y-66756879D01*
X53326608Y-66776609D01*
X53351149Y-66798851D01*
X53373391Y-66823392D01*
X53393121Y-66849995D01*
X53410148Y-66878404D01*
X53424309Y-66908344D01*
X53435467Y-66939529D01*
X53443515Y-66971657D01*
X53448375Y-67004419D01*
X53450000Y-67037500D01*
X53450000Y-67712500D01*
X53448375Y-67745581D01*
X53443515Y-67778343D01*
X53435467Y-67810471D01*
X53424309Y-67841656D01*
X53410148Y-67871596D01*
X53393121Y-67900005D01*
X53373391Y-67926608D01*
X53351149Y-67951149D01*
X53326608Y-67973391D01*
X53300005Y-67993121D01*
X53271596Y-68010148D01*
X53241656Y-68024309D01*
X53210471Y-68035467D01*
X53178343Y-68043515D01*
X53145581Y-68048375D01*
X53112500Y-68050000D01*
X52337500Y-68050000D01*
X52304419Y-68048375D01*
X52271657Y-68043515D01*
X52239529Y-68035467D01*
X52208344Y-68024309D01*
X52178404Y-68010148D01*
X52149995Y-67993121D01*
X52123392Y-67973391D01*
X52098851Y-67951149D01*
X52076609Y-67926608D01*
X52056879Y-67900005D01*
X52039852Y-67871596D01*
X52025691Y-67841656D01*
X52014533Y-67810471D01*
X52006485Y-67778343D01*
X52001625Y-67745581D01*
X52000000Y-67712500D01*
X52000000Y-67037500D01*
X52001625Y-67004419D01*
X52006485Y-66971657D01*
X52014533Y-66939529D01*
X52025691Y-66908344D01*
X52039852Y-66878404D01*
X52056879Y-66849995D01*
X52076609Y-66823392D01*
X52098851Y-66798851D01*
X52123392Y-66776609D01*
X52149995Y-66756879D01*
X52178404Y-66739852D01*
X52208344Y-66725691D01*
X52239529Y-66714533D01*
X52271657Y-66706485D01*
X52304419Y-66701625D01*
X52337500Y-66700000D01*
X53112500Y-66700000D01*
X53145581Y-66701625D01*
X53145581Y-66701625D01*
G37*
D11*
X52725000Y-67375000D03*
D10*
G36*
X51395581Y-66701625D02*
G01*
X51428343Y-66706485D01*
X51460471Y-66714533D01*
X51491656Y-66725691D01*
X51521596Y-66739852D01*
X51550005Y-66756879D01*
X51576608Y-66776609D01*
X51601149Y-66798851D01*
X51623391Y-66823392D01*
X51643121Y-66849995D01*
X51660148Y-66878404D01*
X51674309Y-66908344D01*
X51685467Y-66939529D01*
X51693515Y-66971657D01*
X51698375Y-67004419D01*
X51700000Y-67037500D01*
X51700000Y-67712500D01*
X51698375Y-67745581D01*
X51693515Y-67778343D01*
X51685467Y-67810471D01*
X51674309Y-67841656D01*
X51660148Y-67871596D01*
X51643121Y-67900005D01*
X51623391Y-67926608D01*
X51601149Y-67951149D01*
X51576608Y-67973391D01*
X51550005Y-67993121D01*
X51521596Y-68010148D01*
X51491656Y-68024309D01*
X51460471Y-68035467D01*
X51428343Y-68043515D01*
X51395581Y-68048375D01*
X51362500Y-68050000D01*
X50587500Y-68050000D01*
X50554419Y-68048375D01*
X50521657Y-68043515D01*
X50489529Y-68035467D01*
X50458344Y-68024309D01*
X50428404Y-68010148D01*
X50399995Y-67993121D01*
X50373392Y-67973391D01*
X50348851Y-67951149D01*
X50326609Y-67926608D01*
X50306879Y-67900005D01*
X50289852Y-67871596D01*
X50275691Y-67841656D01*
X50264533Y-67810471D01*
X50256485Y-67778343D01*
X50251625Y-67745581D01*
X50250000Y-67712500D01*
X50250000Y-67037500D01*
X50251625Y-67004419D01*
X50256485Y-66971657D01*
X50264533Y-66939529D01*
X50275691Y-66908344D01*
X50289852Y-66878404D01*
X50306879Y-66849995D01*
X50326609Y-66823392D01*
X50348851Y-66798851D01*
X50373392Y-66776609D01*
X50399995Y-66756879D01*
X50428404Y-66739852D01*
X50458344Y-66725691D01*
X50489529Y-66714533D01*
X50521657Y-66706485D01*
X50554419Y-66701625D01*
X50587500Y-66700000D01*
X51362500Y-66700000D01*
X51395581Y-66701625D01*
X51395581Y-66701625D01*
G37*
D11*
X50975000Y-67375000D03*
D12*
X70820000Y-40200000D03*
X72090000Y-40200000D03*
X73360000Y-40200000D03*
X74630000Y-40200000D03*
X74630000Y-45600000D03*
X73360000Y-45600000D03*
X72090000Y-45600000D03*
X70820000Y-45600000D03*
D13*
X43360000Y-46975000D03*
X44630000Y-46975000D03*
D14*
X45900000Y-46975000D03*
D13*
X77500000Y-45180000D03*
D14*
X77500000Y-46450000D03*
D13*
X80650000Y-45180000D03*
D14*
X80650000Y-46450000D03*
D10*
G36*
X62995581Y-73976625D02*
G01*
X63028343Y-73981485D01*
X63060471Y-73989533D01*
X63091656Y-74000691D01*
X63121596Y-74014852D01*
X63150005Y-74031879D01*
X63176608Y-74051609D01*
X63201149Y-74073851D01*
X63223391Y-74098392D01*
X63243121Y-74124995D01*
X63260148Y-74153404D01*
X63274309Y-74183344D01*
X63285467Y-74214529D01*
X63293515Y-74246657D01*
X63298375Y-74279419D01*
X63300000Y-74312500D01*
X63300000Y-74987500D01*
X63298375Y-75020581D01*
X63293515Y-75053343D01*
X63285467Y-75085471D01*
X63274309Y-75116656D01*
X63260148Y-75146596D01*
X63243121Y-75175005D01*
X63223391Y-75201608D01*
X63201149Y-75226149D01*
X63176608Y-75248391D01*
X63150005Y-75268121D01*
X63121596Y-75285148D01*
X63091656Y-75299309D01*
X63060471Y-75310467D01*
X63028343Y-75318515D01*
X62995581Y-75323375D01*
X62962500Y-75325000D01*
X62187500Y-75325000D01*
X62154419Y-75323375D01*
X62121657Y-75318515D01*
X62089529Y-75310467D01*
X62058344Y-75299309D01*
X62028404Y-75285148D01*
X61999995Y-75268121D01*
X61973392Y-75248391D01*
X61948851Y-75226149D01*
X61926609Y-75201608D01*
X61906879Y-75175005D01*
X61889852Y-75146596D01*
X61875691Y-75116656D01*
X61864533Y-75085471D01*
X61856485Y-75053343D01*
X61851625Y-75020581D01*
X61850000Y-74987500D01*
X61850000Y-74312500D01*
X61851625Y-74279419D01*
X61856485Y-74246657D01*
X61864533Y-74214529D01*
X61875691Y-74183344D01*
X61889852Y-74153404D01*
X61906879Y-74124995D01*
X61926609Y-74098392D01*
X61948851Y-74073851D01*
X61973392Y-74051609D01*
X61999995Y-74031879D01*
X62028404Y-74014852D01*
X62058344Y-74000691D01*
X62089529Y-73989533D01*
X62121657Y-73981485D01*
X62154419Y-73976625D01*
X62187500Y-73975000D01*
X62962500Y-73975000D01*
X62995581Y-73976625D01*
X62995581Y-73976625D01*
G37*
D11*
X62575000Y-74650000D03*
D10*
G36*
X64745581Y-73976625D02*
G01*
X64778343Y-73981485D01*
X64810471Y-73989533D01*
X64841656Y-74000691D01*
X64871596Y-74014852D01*
X64900005Y-74031879D01*
X64926608Y-74051609D01*
X64951149Y-74073851D01*
X64973391Y-74098392D01*
X64993121Y-74124995D01*
X65010148Y-74153404D01*
X65024309Y-74183344D01*
X65035467Y-74214529D01*
X65043515Y-74246657D01*
X65048375Y-74279419D01*
X65050000Y-74312500D01*
X65050000Y-74987500D01*
X65048375Y-75020581D01*
X65043515Y-75053343D01*
X65035467Y-75085471D01*
X65024309Y-75116656D01*
X65010148Y-75146596D01*
X64993121Y-75175005D01*
X64973391Y-75201608D01*
X64951149Y-75226149D01*
X64926608Y-75248391D01*
X64900005Y-75268121D01*
X64871596Y-75285148D01*
X64841656Y-75299309D01*
X64810471Y-75310467D01*
X64778343Y-75318515D01*
X64745581Y-75323375D01*
X64712500Y-75325000D01*
X63937500Y-75325000D01*
X63904419Y-75323375D01*
X63871657Y-75318515D01*
X63839529Y-75310467D01*
X63808344Y-75299309D01*
X63778404Y-75285148D01*
X63749995Y-75268121D01*
X63723392Y-75248391D01*
X63698851Y-75226149D01*
X63676609Y-75201608D01*
X63656879Y-75175005D01*
X63639852Y-75146596D01*
X63625691Y-75116656D01*
X63614533Y-75085471D01*
X63606485Y-75053343D01*
X63601625Y-75020581D01*
X63600000Y-74987500D01*
X63600000Y-74312500D01*
X63601625Y-74279419D01*
X63606485Y-74246657D01*
X63614533Y-74214529D01*
X63625691Y-74183344D01*
X63639852Y-74153404D01*
X63656879Y-74124995D01*
X63676609Y-74098392D01*
X63698851Y-74073851D01*
X63723392Y-74051609D01*
X63749995Y-74031879D01*
X63778404Y-74014852D01*
X63808344Y-74000691D01*
X63839529Y-73989533D01*
X63871657Y-73981485D01*
X63904419Y-73976625D01*
X63937500Y-73975000D01*
X64712500Y-73975000D01*
X64745581Y-73976625D01*
X64745581Y-73976625D01*
G37*
D11*
X64325000Y-74650000D03*
D10*
G36*
X47245581Y-75451625D02*
G01*
X47278343Y-75456485D01*
X47310471Y-75464533D01*
X47341656Y-75475691D01*
X47371596Y-75489852D01*
X47400005Y-75506879D01*
X47426608Y-75526609D01*
X47451149Y-75548851D01*
X47473391Y-75573392D01*
X47493121Y-75599995D01*
X47510148Y-75628404D01*
X47524309Y-75658344D01*
X47535467Y-75689529D01*
X47543515Y-75721657D01*
X47548375Y-75754419D01*
X47550000Y-75787500D01*
X47550000Y-76462500D01*
X47548375Y-76495581D01*
X47543515Y-76528343D01*
X47535467Y-76560471D01*
X47524309Y-76591656D01*
X47510148Y-76621596D01*
X47493121Y-76650005D01*
X47473391Y-76676608D01*
X47451149Y-76701149D01*
X47426608Y-76723391D01*
X47400005Y-76743121D01*
X47371596Y-76760148D01*
X47341656Y-76774309D01*
X47310471Y-76785467D01*
X47278343Y-76793515D01*
X47245581Y-76798375D01*
X47212500Y-76800000D01*
X46437500Y-76800000D01*
X46404419Y-76798375D01*
X46371657Y-76793515D01*
X46339529Y-76785467D01*
X46308344Y-76774309D01*
X46278404Y-76760148D01*
X46249995Y-76743121D01*
X46223392Y-76723391D01*
X46198851Y-76701149D01*
X46176609Y-76676608D01*
X46156879Y-76650005D01*
X46139852Y-76621596D01*
X46125691Y-76591656D01*
X46114533Y-76560471D01*
X46106485Y-76528343D01*
X46101625Y-76495581D01*
X46100000Y-76462500D01*
X46100000Y-75787500D01*
X46101625Y-75754419D01*
X46106485Y-75721657D01*
X46114533Y-75689529D01*
X46125691Y-75658344D01*
X46139852Y-75628404D01*
X46156879Y-75599995D01*
X46176609Y-75573392D01*
X46198851Y-75548851D01*
X46223392Y-75526609D01*
X46249995Y-75506879D01*
X46278404Y-75489852D01*
X46308344Y-75475691D01*
X46339529Y-75464533D01*
X46371657Y-75456485D01*
X46404419Y-75451625D01*
X46437500Y-75450000D01*
X47212500Y-75450000D01*
X47245581Y-75451625D01*
X47245581Y-75451625D01*
G37*
D11*
X46825000Y-76125000D03*
D10*
G36*
X48995581Y-75451625D02*
G01*
X49028343Y-75456485D01*
X49060471Y-75464533D01*
X49091656Y-75475691D01*
X49121596Y-75489852D01*
X49150005Y-75506879D01*
X49176608Y-75526609D01*
X49201149Y-75548851D01*
X49223391Y-75573392D01*
X49243121Y-75599995D01*
X49260148Y-75628404D01*
X49274309Y-75658344D01*
X49285467Y-75689529D01*
X49293515Y-75721657D01*
X49298375Y-75754419D01*
X49300000Y-75787500D01*
X49300000Y-76462500D01*
X49298375Y-76495581D01*
X49293515Y-76528343D01*
X49285467Y-76560471D01*
X49274309Y-76591656D01*
X49260148Y-76621596D01*
X49243121Y-76650005D01*
X49223391Y-76676608D01*
X49201149Y-76701149D01*
X49176608Y-76723391D01*
X49150005Y-76743121D01*
X49121596Y-76760148D01*
X49091656Y-76774309D01*
X49060471Y-76785467D01*
X49028343Y-76793515D01*
X48995581Y-76798375D01*
X48962500Y-76800000D01*
X48187500Y-76800000D01*
X48154419Y-76798375D01*
X48121657Y-76793515D01*
X48089529Y-76785467D01*
X48058344Y-76774309D01*
X48028404Y-76760148D01*
X47999995Y-76743121D01*
X47973392Y-76723391D01*
X47948851Y-76701149D01*
X47926609Y-76676608D01*
X47906879Y-76650005D01*
X47889852Y-76621596D01*
X47875691Y-76591656D01*
X47864533Y-76560471D01*
X47856485Y-76528343D01*
X47851625Y-76495581D01*
X47850000Y-76462500D01*
X47850000Y-75787500D01*
X47851625Y-75754419D01*
X47856485Y-75721657D01*
X47864533Y-75689529D01*
X47875691Y-75658344D01*
X47889852Y-75628404D01*
X47906879Y-75599995D01*
X47926609Y-75573392D01*
X47948851Y-75548851D01*
X47973392Y-75526609D01*
X47999995Y-75506879D01*
X48028404Y-75489852D01*
X48058344Y-75475691D01*
X48089529Y-75464533D01*
X48121657Y-75456485D01*
X48154419Y-75451625D01*
X48187500Y-75450000D01*
X48962500Y-75450000D01*
X48995581Y-75451625D01*
X48995581Y-75451625D01*
G37*
D11*
X48575000Y-76125000D03*
D10*
G36*
X66495581Y-75451625D02*
G01*
X66528343Y-75456485D01*
X66560471Y-75464533D01*
X66591656Y-75475691D01*
X66621596Y-75489852D01*
X66650005Y-75506879D01*
X66676608Y-75526609D01*
X66701149Y-75548851D01*
X66723391Y-75573392D01*
X66743121Y-75599995D01*
X66760148Y-75628404D01*
X66774309Y-75658344D01*
X66785467Y-75689529D01*
X66793515Y-75721657D01*
X66798375Y-75754419D01*
X66800000Y-75787500D01*
X66800000Y-76462500D01*
X66798375Y-76495581D01*
X66793515Y-76528343D01*
X66785467Y-76560471D01*
X66774309Y-76591656D01*
X66760148Y-76621596D01*
X66743121Y-76650005D01*
X66723391Y-76676608D01*
X66701149Y-76701149D01*
X66676608Y-76723391D01*
X66650005Y-76743121D01*
X66621596Y-76760148D01*
X66591656Y-76774309D01*
X66560471Y-76785467D01*
X66528343Y-76793515D01*
X66495581Y-76798375D01*
X66462500Y-76800000D01*
X65687500Y-76800000D01*
X65654419Y-76798375D01*
X65621657Y-76793515D01*
X65589529Y-76785467D01*
X65558344Y-76774309D01*
X65528404Y-76760148D01*
X65499995Y-76743121D01*
X65473392Y-76723391D01*
X65448851Y-76701149D01*
X65426609Y-76676608D01*
X65406879Y-76650005D01*
X65389852Y-76621596D01*
X65375691Y-76591656D01*
X65364533Y-76560471D01*
X65356485Y-76528343D01*
X65351625Y-76495581D01*
X65350000Y-76462500D01*
X65350000Y-75787500D01*
X65351625Y-75754419D01*
X65356485Y-75721657D01*
X65364533Y-75689529D01*
X65375691Y-75658344D01*
X65389852Y-75628404D01*
X65406879Y-75599995D01*
X65426609Y-75573392D01*
X65448851Y-75548851D01*
X65473392Y-75526609D01*
X65499995Y-75506879D01*
X65528404Y-75489852D01*
X65558344Y-75475691D01*
X65589529Y-75464533D01*
X65621657Y-75456485D01*
X65654419Y-75451625D01*
X65687500Y-75450000D01*
X66462500Y-75450000D01*
X66495581Y-75451625D01*
X66495581Y-75451625D01*
G37*
D11*
X66075000Y-76125000D03*
D10*
G36*
X64745581Y-75451625D02*
G01*
X64778343Y-75456485D01*
X64810471Y-75464533D01*
X64841656Y-75475691D01*
X64871596Y-75489852D01*
X64900005Y-75506879D01*
X64926608Y-75526609D01*
X64951149Y-75548851D01*
X64973391Y-75573392D01*
X64993121Y-75599995D01*
X65010148Y-75628404D01*
X65024309Y-75658344D01*
X65035467Y-75689529D01*
X65043515Y-75721657D01*
X65048375Y-75754419D01*
X65050000Y-75787500D01*
X65050000Y-76462500D01*
X65048375Y-76495581D01*
X65043515Y-76528343D01*
X65035467Y-76560471D01*
X65024309Y-76591656D01*
X65010148Y-76621596D01*
X64993121Y-76650005D01*
X64973391Y-76676608D01*
X64951149Y-76701149D01*
X64926608Y-76723391D01*
X64900005Y-76743121D01*
X64871596Y-76760148D01*
X64841656Y-76774309D01*
X64810471Y-76785467D01*
X64778343Y-76793515D01*
X64745581Y-76798375D01*
X64712500Y-76800000D01*
X63937500Y-76800000D01*
X63904419Y-76798375D01*
X63871657Y-76793515D01*
X63839529Y-76785467D01*
X63808344Y-76774309D01*
X63778404Y-76760148D01*
X63749995Y-76743121D01*
X63723392Y-76723391D01*
X63698851Y-76701149D01*
X63676609Y-76676608D01*
X63656879Y-76650005D01*
X63639852Y-76621596D01*
X63625691Y-76591656D01*
X63614533Y-76560471D01*
X63606485Y-76528343D01*
X63601625Y-76495581D01*
X63600000Y-76462500D01*
X63600000Y-75787500D01*
X63601625Y-75754419D01*
X63606485Y-75721657D01*
X63614533Y-75689529D01*
X63625691Y-75658344D01*
X63639852Y-75628404D01*
X63656879Y-75599995D01*
X63676609Y-75573392D01*
X63698851Y-75548851D01*
X63723392Y-75526609D01*
X63749995Y-75506879D01*
X63778404Y-75489852D01*
X63808344Y-75475691D01*
X63839529Y-75464533D01*
X63871657Y-75456485D01*
X63904419Y-75451625D01*
X63937500Y-75450000D01*
X64712500Y-75450000D01*
X64745581Y-75451625D01*
X64745581Y-75451625D01*
G37*
D11*
X64325000Y-76125000D03*
D10*
G36*
X52520581Y-75451625D02*
G01*
X52553343Y-75456485D01*
X52585471Y-75464533D01*
X52616656Y-75475691D01*
X52646596Y-75489852D01*
X52675005Y-75506879D01*
X52701608Y-75526609D01*
X52726149Y-75548851D01*
X52748391Y-75573392D01*
X52768121Y-75599995D01*
X52785148Y-75628404D01*
X52799309Y-75658344D01*
X52810467Y-75689529D01*
X52818515Y-75721657D01*
X52823375Y-75754419D01*
X52825000Y-75787500D01*
X52825000Y-76462500D01*
X52823375Y-76495581D01*
X52818515Y-76528343D01*
X52810467Y-76560471D01*
X52799309Y-76591656D01*
X52785148Y-76621596D01*
X52768121Y-76650005D01*
X52748391Y-76676608D01*
X52726149Y-76701149D01*
X52701608Y-76723391D01*
X52675005Y-76743121D01*
X52646596Y-76760148D01*
X52616656Y-76774309D01*
X52585471Y-76785467D01*
X52553343Y-76793515D01*
X52520581Y-76798375D01*
X52487500Y-76800000D01*
X51712500Y-76800000D01*
X51679419Y-76798375D01*
X51646657Y-76793515D01*
X51614529Y-76785467D01*
X51583344Y-76774309D01*
X51553404Y-76760148D01*
X51524995Y-76743121D01*
X51498392Y-76723391D01*
X51473851Y-76701149D01*
X51451609Y-76676608D01*
X51431879Y-76650005D01*
X51414852Y-76621596D01*
X51400691Y-76591656D01*
X51389533Y-76560471D01*
X51381485Y-76528343D01*
X51376625Y-76495581D01*
X51375000Y-76462500D01*
X51375000Y-75787500D01*
X51376625Y-75754419D01*
X51381485Y-75721657D01*
X51389533Y-75689529D01*
X51400691Y-75658344D01*
X51414852Y-75628404D01*
X51431879Y-75599995D01*
X51451609Y-75573392D01*
X51473851Y-75548851D01*
X51498392Y-75526609D01*
X51524995Y-75506879D01*
X51553404Y-75489852D01*
X51583344Y-75475691D01*
X51614529Y-75464533D01*
X51646657Y-75456485D01*
X51679419Y-75451625D01*
X51712500Y-75450000D01*
X52487500Y-75450000D01*
X52520581Y-75451625D01*
X52520581Y-75451625D01*
G37*
D11*
X52100000Y-76125000D03*
D10*
G36*
X50770581Y-75451625D02*
G01*
X50803343Y-75456485D01*
X50835471Y-75464533D01*
X50866656Y-75475691D01*
X50896596Y-75489852D01*
X50925005Y-75506879D01*
X50951608Y-75526609D01*
X50976149Y-75548851D01*
X50998391Y-75573392D01*
X51018121Y-75599995D01*
X51035148Y-75628404D01*
X51049309Y-75658344D01*
X51060467Y-75689529D01*
X51068515Y-75721657D01*
X51073375Y-75754419D01*
X51075000Y-75787500D01*
X51075000Y-76462500D01*
X51073375Y-76495581D01*
X51068515Y-76528343D01*
X51060467Y-76560471D01*
X51049309Y-76591656D01*
X51035148Y-76621596D01*
X51018121Y-76650005D01*
X50998391Y-76676608D01*
X50976149Y-76701149D01*
X50951608Y-76723391D01*
X50925005Y-76743121D01*
X50896596Y-76760148D01*
X50866656Y-76774309D01*
X50835471Y-76785467D01*
X50803343Y-76793515D01*
X50770581Y-76798375D01*
X50737500Y-76800000D01*
X49962500Y-76800000D01*
X49929419Y-76798375D01*
X49896657Y-76793515D01*
X49864529Y-76785467D01*
X49833344Y-76774309D01*
X49803404Y-76760148D01*
X49774995Y-76743121D01*
X49748392Y-76723391D01*
X49723851Y-76701149D01*
X49701609Y-76676608D01*
X49681879Y-76650005D01*
X49664852Y-76621596D01*
X49650691Y-76591656D01*
X49639533Y-76560471D01*
X49631485Y-76528343D01*
X49626625Y-76495581D01*
X49625000Y-76462500D01*
X49625000Y-75787500D01*
X49626625Y-75754419D01*
X49631485Y-75721657D01*
X49639533Y-75689529D01*
X49650691Y-75658344D01*
X49664852Y-75628404D01*
X49681879Y-75599995D01*
X49701609Y-75573392D01*
X49723851Y-75548851D01*
X49748392Y-75526609D01*
X49774995Y-75506879D01*
X49803404Y-75489852D01*
X49833344Y-75475691D01*
X49864529Y-75464533D01*
X49896657Y-75456485D01*
X49929419Y-75451625D01*
X49962500Y-75450000D01*
X50737500Y-75450000D01*
X50770581Y-75451625D01*
X50770581Y-75451625D01*
G37*
D11*
X50350000Y-76125000D03*
D10*
G36*
X58820581Y-75451625D02*
G01*
X58853343Y-75456485D01*
X58885471Y-75464533D01*
X58916656Y-75475691D01*
X58946596Y-75489852D01*
X58975005Y-75506879D01*
X59001608Y-75526609D01*
X59026149Y-75548851D01*
X59048391Y-75573392D01*
X59068121Y-75599995D01*
X59085148Y-75628404D01*
X59099309Y-75658344D01*
X59110467Y-75689529D01*
X59118515Y-75721657D01*
X59123375Y-75754419D01*
X59125000Y-75787500D01*
X59125000Y-76462500D01*
X59123375Y-76495581D01*
X59118515Y-76528343D01*
X59110467Y-76560471D01*
X59099309Y-76591656D01*
X59085148Y-76621596D01*
X59068121Y-76650005D01*
X59048391Y-76676608D01*
X59026149Y-76701149D01*
X59001608Y-76723391D01*
X58975005Y-76743121D01*
X58946596Y-76760148D01*
X58916656Y-76774309D01*
X58885471Y-76785467D01*
X58853343Y-76793515D01*
X58820581Y-76798375D01*
X58787500Y-76800000D01*
X58012500Y-76800000D01*
X57979419Y-76798375D01*
X57946657Y-76793515D01*
X57914529Y-76785467D01*
X57883344Y-76774309D01*
X57853404Y-76760148D01*
X57824995Y-76743121D01*
X57798392Y-76723391D01*
X57773851Y-76701149D01*
X57751609Y-76676608D01*
X57731879Y-76650005D01*
X57714852Y-76621596D01*
X57700691Y-76591656D01*
X57689533Y-76560471D01*
X57681485Y-76528343D01*
X57676625Y-76495581D01*
X57675000Y-76462500D01*
X57675000Y-75787500D01*
X57676625Y-75754419D01*
X57681485Y-75721657D01*
X57689533Y-75689529D01*
X57700691Y-75658344D01*
X57714852Y-75628404D01*
X57731879Y-75599995D01*
X57751609Y-75573392D01*
X57773851Y-75548851D01*
X57798392Y-75526609D01*
X57824995Y-75506879D01*
X57853404Y-75489852D01*
X57883344Y-75475691D01*
X57914529Y-75464533D01*
X57946657Y-75456485D01*
X57979419Y-75451625D01*
X58012500Y-75450000D01*
X58787500Y-75450000D01*
X58820581Y-75451625D01*
X58820581Y-75451625D01*
G37*
D11*
X58400000Y-76125000D03*
D10*
G36*
X57070581Y-75451625D02*
G01*
X57103343Y-75456485D01*
X57135471Y-75464533D01*
X57166656Y-75475691D01*
X57196596Y-75489852D01*
X57225005Y-75506879D01*
X57251608Y-75526609D01*
X57276149Y-75548851D01*
X57298391Y-75573392D01*
X57318121Y-75599995D01*
X57335148Y-75628404D01*
X57349309Y-75658344D01*
X57360467Y-75689529D01*
X57368515Y-75721657D01*
X57373375Y-75754419D01*
X57375000Y-75787500D01*
X57375000Y-76462500D01*
X57373375Y-76495581D01*
X57368515Y-76528343D01*
X57360467Y-76560471D01*
X57349309Y-76591656D01*
X57335148Y-76621596D01*
X57318121Y-76650005D01*
X57298391Y-76676608D01*
X57276149Y-76701149D01*
X57251608Y-76723391D01*
X57225005Y-76743121D01*
X57196596Y-76760148D01*
X57166656Y-76774309D01*
X57135471Y-76785467D01*
X57103343Y-76793515D01*
X57070581Y-76798375D01*
X57037500Y-76800000D01*
X56262500Y-76800000D01*
X56229419Y-76798375D01*
X56196657Y-76793515D01*
X56164529Y-76785467D01*
X56133344Y-76774309D01*
X56103404Y-76760148D01*
X56074995Y-76743121D01*
X56048392Y-76723391D01*
X56023851Y-76701149D01*
X56001609Y-76676608D01*
X55981879Y-76650005D01*
X55964852Y-76621596D01*
X55950691Y-76591656D01*
X55939533Y-76560471D01*
X55931485Y-76528343D01*
X55926625Y-76495581D01*
X55925000Y-76462500D01*
X55925000Y-75787500D01*
X55926625Y-75754419D01*
X55931485Y-75721657D01*
X55939533Y-75689529D01*
X55950691Y-75658344D01*
X55964852Y-75628404D01*
X55981879Y-75599995D01*
X56001609Y-75573392D01*
X56023851Y-75548851D01*
X56048392Y-75526609D01*
X56074995Y-75506879D01*
X56103404Y-75489852D01*
X56133344Y-75475691D01*
X56164529Y-75464533D01*
X56196657Y-75456485D01*
X56229419Y-75451625D01*
X56262500Y-75450000D01*
X57037500Y-75450000D01*
X57070581Y-75451625D01*
X57070581Y-75451625D01*
G37*
D11*
X56650000Y-76125000D03*
D10*
G36*
X40645581Y-78826625D02*
G01*
X40678343Y-78831485D01*
X40710471Y-78839533D01*
X40741656Y-78850691D01*
X40771596Y-78864852D01*
X40800005Y-78881879D01*
X40826608Y-78901609D01*
X40851149Y-78923851D01*
X40873391Y-78948392D01*
X40893121Y-78974995D01*
X40910148Y-79003404D01*
X40924309Y-79033344D01*
X40935467Y-79064529D01*
X40943515Y-79096657D01*
X40948375Y-79129419D01*
X40950000Y-79162500D01*
X40950000Y-79837500D01*
X40948375Y-79870581D01*
X40943515Y-79903343D01*
X40935467Y-79935471D01*
X40924309Y-79966656D01*
X40910148Y-79996596D01*
X40893121Y-80025005D01*
X40873391Y-80051608D01*
X40851149Y-80076149D01*
X40826608Y-80098391D01*
X40800005Y-80118121D01*
X40771596Y-80135148D01*
X40741656Y-80149309D01*
X40710471Y-80160467D01*
X40678343Y-80168515D01*
X40645581Y-80173375D01*
X40612500Y-80175000D01*
X39837500Y-80175000D01*
X39804419Y-80173375D01*
X39771657Y-80168515D01*
X39739529Y-80160467D01*
X39708344Y-80149309D01*
X39678404Y-80135148D01*
X39649995Y-80118121D01*
X39623392Y-80098391D01*
X39598851Y-80076149D01*
X39576609Y-80051608D01*
X39556879Y-80025005D01*
X39539852Y-79996596D01*
X39525691Y-79966656D01*
X39514533Y-79935471D01*
X39506485Y-79903343D01*
X39501625Y-79870581D01*
X39500000Y-79837500D01*
X39500000Y-79162500D01*
X39501625Y-79129419D01*
X39506485Y-79096657D01*
X39514533Y-79064529D01*
X39525691Y-79033344D01*
X39539852Y-79003404D01*
X39556879Y-78974995D01*
X39576609Y-78948392D01*
X39598851Y-78923851D01*
X39623392Y-78901609D01*
X39649995Y-78881879D01*
X39678404Y-78864852D01*
X39708344Y-78850691D01*
X39739529Y-78839533D01*
X39771657Y-78831485D01*
X39804419Y-78826625D01*
X39837500Y-78825000D01*
X40612500Y-78825000D01*
X40645581Y-78826625D01*
X40645581Y-78826625D01*
G37*
D11*
X40225000Y-79500000D03*
D10*
G36*
X38895581Y-78826625D02*
G01*
X38928343Y-78831485D01*
X38960471Y-78839533D01*
X38991656Y-78850691D01*
X39021596Y-78864852D01*
X39050005Y-78881879D01*
X39076608Y-78901609D01*
X39101149Y-78923851D01*
X39123391Y-78948392D01*
X39143121Y-78974995D01*
X39160148Y-79003404D01*
X39174309Y-79033344D01*
X39185467Y-79064529D01*
X39193515Y-79096657D01*
X39198375Y-79129419D01*
X39200000Y-79162500D01*
X39200000Y-79837500D01*
X39198375Y-79870581D01*
X39193515Y-79903343D01*
X39185467Y-79935471D01*
X39174309Y-79966656D01*
X39160148Y-79996596D01*
X39143121Y-80025005D01*
X39123391Y-80051608D01*
X39101149Y-80076149D01*
X39076608Y-80098391D01*
X39050005Y-80118121D01*
X39021596Y-80135148D01*
X38991656Y-80149309D01*
X38960471Y-80160467D01*
X38928343Y-80168515D01*
X38895581Y-80173375D01*
X38862500Y-80175000D01*
X38087500Y-80175000D01*
X38054419Y-80173375D01*
X38021657Y-80168515D01*
X37989529Y-80160467D01*
X37958344Y-80149309D01*
X37928404Y-80135148D01*
X37899995Y-80118121D01*
X37873392Y-80098391D01*
X37848851Y-80076149D01*
X37826609Y-80051608D01*
X37806879Y-80025005D01*
X37789852Y-79996596D01*
X37775691Y-79966656D01*
X37764533Y-79935471D01*
X37756485Y-79903343D01*
X37751625Y-79870581D01*
X37750000Y-79837500D01*
X37750000Y-79162500D01*
X37751625Y-79129419D01*
X37756485Y-79096657D01*
X37764533Y-79064529D01*
X37775691Y-79033344D01*
X37789852Y-79003404D01*
X37806879Y-78974995D01*
X37826609Y-78948392D01*
X37848851Y-78923851D01*
X37873392Y-78901609D01*
X37899995Y-78881879D01*
X37928404Y-78864852D01*
X37958344Y-78850691D01*
X37989529Y-78839533D01*
X38021657Y-78831485D01*
X38054419Y-78826625D01*
X38087500Y-78825000D01*
X38862500Y-78825000D01*
X38895581Y-78826625D01*
X38895581Y-78826625D01*
G37*
D11*
X38475000Y-79500000D03*
D10*
G36*
X57395581Y-72126625D02*
G01*
X57428343Y-72131485D01*
X57460471Y-72139533D01*
X57491656Y-72150691D01*
X57521596Y-72164852D01*
X57550005Y-72181879D01*
X57576608Y-72201609D01*
X57601149Y-72223851D01*
X57623391Y-72248392D01*
X57643121Y-72274995D01*
X57660148Y-72303404D01*
X57674309Y-72333344D01*
X57685467Y-72364529D01*
X57693515Y-72396657D01*
X57698375Y-72429419D01*
X57700000Y-72462500D01*
X57700000Y-73137500D01*
X57698375Y-73170581D01*
X57693515Y-73203343D01*
X57685467Y-73235471D01*
X57674309Y-73266656D01*
X57660148Y-73296596D01*
X57643121Y-73325005D01*
X57623391Y-73351608D01*
X57601149Y-73376149D01*
X57576608Y-73398391D01*
X57550005Y-73418121D01*
X57521596Y-73435148D01*
X57491656Y-73449309D01*
X57460471Y-73460467D01*
X57428343Y-73468515D01*
X57395581Y-73473375D01*
X57362500Y-73475000D01*
X56587500Y-73475000D01*
X56554419Y-73473375D01*
X56521657Y-73468515D01*
X56489529Y-73460467D01*
X56458344Y-73449309D01*
X56428404Y-73435148D01*
X56399995Y-73418121D01*
X56373392Y-73398391D01*
X56348851Y-73376149D01*
X56326609Y-73351608D01*
X56306879Y-73325005D01*
X56289852Y-73296596D01*
X56275691Y-73266656D01*
X56264533Y-73235471D01*
X56256485Y-73203343D01*
X56251625Y-73170581D01*
X56250000Y-73137500D01*
X56250000Y-72462500D01*
X56251625Y-72429419D01*
X56256485Y-72396657D01*
X56264533Y-72364529D01*
X56275691Y-72333344D01*
X56289852Y-72303404D01*
X56306879Y-72274995D01*
X56326609Y-72248392D01*
X56348851Y-72223851D01*
X56373392Y-72201609D01*
X56399995Y-72181879D01*
X56428404Y-72164852D01*
X56458344Y-72150691D01*
X56489529Y-72139533D01*
X56521657Y-72131485D01*
X56554419Y-72126625D01*
X56587500Y-72125000D01*
X57362500Y-72125000D01*
X57395581Y-72126625D01*
X57395581Y-72126625D01*
G37*
D11*
X56975000Y-72800000D03*
D10*
G36*
X55645581Y-72126625D02*
G01*
X55678343Y-72131485D01*
X55710471Y-72139533D01*
X55741656Y-72150691D01*
X55771596Y-72164852D01*
X55800005Y-72181879D01*
X55826608Y-72201609D01*
X55851149Y-72223851D01*
X55873391Y-72248392D01*
X55893121Y-72274995D01*
X55910148Y-72303404D01*
X55924309Y-72333344D01*
X55935467Y-72364529D01*
X55943515Y-72396657D01*
X55948375Y-72429419D01*
X55950000Y-72462500D01*
X55950000Y-73137500D01*
X55948375Y-73170581D01*
X55943515Y-73203343D01*
X55935467Y-73235471D01*
X55924309Y-73266656D01*
X55910148Y-73296596D01*
X55893121Y-73325005D01*
X55873391Y-73351608D01*
X55851149Y-73376149D01*
X55826608Y-73398391D01*
X55800005Y-73418121D01*
X55771596Y-73435148D01*
X55741656Y-73449309D01*
X55710471Y-73460467D01*
X55678343Y-73468515D01*
X55645581Y-73473375D01*
X55612500Y-73475000D01*
X54837500Y-73475000D01*
X54804419Y-73473375D01*
X54771657Y-73468515D01*
X54739529Y-73460467D01*
X54708344Y-73449309D01*
X54678404Y-73435148D01*
X54649995Y-73418121D01*
X54623392Y-73398391D01*
X54598851Y-73376149D01*
X54576609Y-73351608D01*
X54556879Y-73325005D01*
X54539852Y-73296596D01*
X54525691Y-73266656D01*
X54514533Y-73235471D01*
X54506485Y-73203343D01*
X54501625Y-73170581D01*
X54500000Y-73137500D01*
X54500000Y-72462500D01*
X54501625Y-72429419D01*
X54506485Y-72396657D01*
X54514533Y-72364529D01*
X54525691Y-72333344D01*
X54539852Y-72303404D01*
X54556879Y-72274995D01*
X54576609Y-72248392D01*
X54598851Y-72223851D01*
X54623392Y-72201609D01*
X54649995Y-72181879D01*
X54678404Y-72164852D01*
X54708344Y-72150691D01*
X54739529Y-72139533D01*
X54771657Y-72131485D01*
X54804419Y-72126625D01*
X54837500Y-72125000D01*
X55612500Y-72125000D01*
X55645581Y-72126625D01*
X55645581Y-72126625D01*
G37*
D11*
X55225000Y-72800000D03*
D10*
G36*
X40645581Y-77176625D02*
G01*
X40678343Y-77181485D01*
X40710471Y-77189533D01*
X40741656Y-77200691D01*
X40771596Y-77214852D01*
X40800005Y-77231879D01*
X40826608Y-77251609D01*
X40851149Y-77273851D01*
X40873391Y-77298392D01*
X40893121Y-77324995D01*
X40910148Y-77353404D01*
X40924309Y-77383344D01*
X40935467Y-77414529D01*
X40943515Y-77446657D01*
X40948375Y-77479419D01*
X40950000Y-77512500D01*
X40950000Y-78187500D01*
X40948375Y-78220581D01*
X40943515Y-78253343D01*
X40935467Y-78285471D01*
X40924309Y-78316656D01*
X40910148Y-78346596D01*
X40893121Y-78375005D01*
X40873391Y-78401608D01*
X40851149Y-78426149D01*
X40826608Y-78448391D01*
X40800005Y-78468121D01*
X40771596Y-78485148D01*
X40741656Y-78499309D01*
X40710471Y-78510467D01*
X40678343Y-78518515D01*
X40645581Y-78523375D01*
X40612500Y-78525000D01*
X39837500Y-78525000D01*
X39804419Y-78523375D01*
X39771657Y-78518515D01*
X39739529Y-78510467D01*
X39708344Y-78499309D01*
X39678404Y-78485148D01*
X39649995Y-78468121D01*
X39623392Y-78448391D01*
X39598851Y-78426149D01*
X39576609Y-78401608D01*
X39556879Y-78375005D01*
X39539852Y-78346596D01*
X39525691Y-78316656D01*
X39514533Y-78285471D01*
X39506485Y-78253343D01*
X39501625Y-78220581D01*
X39500000Y-78187500D01*
X39500000Y-77512500D01*
X39501625Y-77479419D01*
X39506485Y-77446657D01*
X39514533Y-77414529D01*
X39525691Y-77383344D01*
X39539852Y-77353404D01*
X39556879Y-77324995D01*
X39576609Y-77298392D01*
X39598851Y-77273851D01*
X39623392Y-77251609D01*
X39649995Y-77231879D01*
X39678404Y-77214852D01*
X39708344Y-77200691D01*
X39739529Y-77189533D01*
X39771657Y-77181485D01*
X39804419Y-77176625D01*
X39837500Y-77175000D01*
X40612500Y-77175000D01*
X40645581Y-77176625D01*
X40645581Y-77176625D01*
G37*
D11*
X40225000Y-77850000D03*
D10*
G36*
X38895581Y-77176625D02*
G01*
X38928343Y-77181485D01*
X38960471Y-77189533D01*
X38991656Y-77200691D01*
X39021596Y-77214852D01*
X39050005Y-77231879D01*
X39076608Y-77251609D01*
X39101149Y-77273851D01*
X39123391Y-77298392D01*
X39143121Y-77324995D01*
X39160148Y-77353404D01*
X39174309Y-77383344D01*
X39185467Y-77414529D01*
X39193515Y-77446657D01*
X39198375Y-77479419D01*
X39200000Y-77512500D01*
X39200000Y-78187500D01*
X39198375Y-78220581D01*
X39193515Y-78253343D01*
X39185467Y-78285471D01*
X39174309Y-78316656D01*
X39160148Y-78346596D01*
X39143121Y-78375005D01*
X39123391Y-78401608D01*
X39101149Y-78426149D01*
X39076608Y-78448391D01*
X39050005Y-78468121D01*
X39021596Y-78485148D01*
X38991656Y-78499309D01*
X38960471Y-78510467D01*
X38928343Y-78518515D01*
X38895581Y-78523375D01*
X38862500Y-78525000D01*
X38087500Y-78525000D01*
X38054419Y-78523375D01*
X38021657Y-78518515D01*
X37989529Y-78510467D01*
X37958344Y-78499309D01*
X37928404Y-78485148D01*
X37899995Y-78468121D01*
X37873392Y-78448391D01*
X37848851Y-78426149D01*
X37826609Y-78401608D01*
X37806879Y-78375005D01*
X37789852Y-78346596D01*
X37775691Y-78316656D01*
X37764533Y-78285471D01*
X37756485Y-78253343D01*
X37751625Y-78220581D01*
X37750000Y-78187500D01*
X37750000Y-77512500D01*
X37751625Y-77479419D01*
X37756485Y-77446657D01*
X37764533Y-77414529D01*
X37775691Y-77383344D01*
X37789852Y-77353404D01*
X37806879Y-77324995D01*
X37826609Y-77298392D01*
X37848851Y-77273851D01*
X37873392Y-77251609D01*
X37899995Y-77231879D01*
X37928404Y-77214852D01*
X37958344Y-77200691D01*
X37989529Y-77189533D01*
X38021657Y-77181485D01*
X38054419Y-77176625D01*
X38087500Y-77175000D01*
X38862500Y-77175000D01*
X38895581Y-77176625D01*
X38895581Y-77176625D01*
G37*
D11*
X38475000Y-77850000D03*
D14*
X69100000Y-47225000D03*
D10*
G36*
X65045581Y-43076625D02*
G01*
X65078343Y-43081485D01*
X65110471Y-43089533D01*
X65141656Y-43100691D01*
X65171596Y-43114852D01*
X65200005Y-43131879D01*
X65226608Y-43151609D01*
X65251149Y-43173851D01*
X65273391Y-43198392D01*
X65293121Y-43224995D01*
X65310148Y-43253404D01*
X65324309Y-43283344D01*
X65335467Y-43314529D01*
X65343515Y-43346657D01*
X65348375Y-43379419D01*
X65350000Y-43412500D01*
X65350000Y-44087500D01*
X65348375Y-44120581D01*
X65343515Y-44153343D01*
X65335467Y-44185471D01*
X65324309Y-44216656D01*
X65310148Y-44246596D01*
X65293121Y-44275005D01*
X65273391Y-44301608D01*
X65251149Y-44326149D01*
X65226608Y-44348391D01*
X65200005Y-44368121D01*
X65171596Y-44385148D01*
X65141656Y-44399309D01*
X65110471Y-44410467D01*
X65078343Y-44418515D01*
X65045581Y-44423375D01*
X65012500Y-44425000D01*
X64237500Y-44425000D01*
X64204419Y-44423375D01*
X64171657Y-44418515D01*
X64139529Y-44410467D01*
X64108344Y-44399309D01*
X64078404Y-44385148D01*
X64049995Y-44368121D01*
X64023392Y-44348391D01*
X63998851Y-44326149D01*
X63976609Y-44301608D01*
X63956879Y-44275005D01*
X63939852Y-44246596D01*
X63925691Y-44216656D01*
X63914533Y-44185471D01*
X63906485Y-44153343D01*
X63901625Y-44120581D01*
X63900000Y-44087500D01*
X63900000Y-43412500D01*
X63901625Y-43379419D01*
X63906485Y-43346657D01*
X63914533Y-43314529D01*
X63925691Y-43283344D01*
X63939852Y-43253404D01*
X63956879Y-43224995D01*
X63976609Y-43198392D01*
X63998851Y-43173851D01*
X64023392Y-43151609D01*
X64049995Y-43131879D01*
X64078404Y-43114852D01*
X64108344Y-43100691D01*
X64139529Y-43089533D01*
X64171657Y-43081485D01*
X64204419Y-43076625D01*
X64237500Y-43075000D01*
X65012500Y-43075000D01*
X65045581Y-43076625D01*
X65045581Y-43076625D01*
G37*
D11*
X64625000Y-43750000D03*
D10*
G36*
X63295581Y-43076625D02*
G01*
X63328343Y-43081485D01*
X63360471Y-43089533D01*
X63391656Y-43100691D01*
X63421596Y-43114852D01*
X63450005Y-43131879D01*
X63476608Y-43151609D01*
X63501149Y-43173851D01*
X63523391Y-43198392D01*
X63543121Y-43224995D01*
X63560148Y-43253404D01*
X63574309Y-43283344D01*
X63585467Y-43314529D01*
X63593515Y-43346657D01*
X63598375Y-43379419D01*
X63600000Y-43412500D01*
X63600000Y-44087500D01*
X63598375Y-44120581D01*
X63593515Y-44153343D01*
X63585467Y-44185471D01*
X63574309Y-44216656D01*
X63560148Y-44246596D01*
X63543121Y-44275005D01*
X63523391Y-44301608D01*
X63501149Y-44326149D01*
X63476608Y-44348391D01*
X63450005Y-44368121D01*
X63421596Y-44385148D01*
X63391656Y-44399309D01*
X63360471Y-44410467D01*
X63328343Y-44418515D01*
X63295581Y-44423375D01*
X63262500Y-44425000D01*
X62487500Y-44425000D01*
X62454419Y-44423375D01*
X62421657Y-44418515D01*
X62389529Y-44410467D01*
X62358344Y-44399309D01*
X62328404Y-44385148D01*
X62299995Y-44368121D01*
X62273392Y-44348391D01*
X62248851Y-44326149D01*
X62226609Y-44301608D01*
X62206879Y-44275005D01*
X62189852Y-44246596D01*
X62175691Y-44216656D01*
X62164533Y-44185471D01*
X62156485Y-44153343D01*
X62151625Y-44120581D01*
X62150000Y-44087500D01*
X62150000Y-43412500D01*
X62151625Y-43379419D01*
X62156485Y-43346657D01*
X62164533Y-43314529D01*
X62175691Y-43283344D01*
X62189852Y-43253404D01*
X62206879Y-43224995D01*
X62226609Y-43198392D01*
X62248851Y-43173851D01*
X62273392Y-43151609D01*
X62299995Y-43131879D01*
X62328404Y-43114852D01*
X62358344Y-43100691D01*
X62389529Y-43089533D01*
X62421657Y-43081485D01*
X62454419Y-43076625D01*
X62487500Y-43075000D01*
X63262500Y-43075000D01*
X63295581Y-43076625D01*
X63295581Y-43076625D01*
G37*
D11*
X62875000Y-43750000D03*
D10*
G36*
X47395581Y-42351625D02*
G01*
X47428343Y-42356485D01*
X47460471Y-42364533D01*
X47491656Y-42375691D01*
X47521596Y-42389852D01*
X47550005Y-42406879D01*
X47576608Y-42426609D01*
X47601149Y-42448851D01*
X47623391Y-42473392D01*
X47643121Y-42499995D01*
X47660148Y-42528404D01*
X47674309Y-42558344D01*
X47685467Y-42589529D01*
X47693515Y-42621657D01*
X47698375Y-42654419D01*
X47700000Y-42687500D01*
X47700000Y-43362500D01*
X47698375Y-43395581D01*
X47693515Y-43428343D01*
X47685467Y-43460471D01*
X47674309Y-43491656D01*
X47660148Y-43521596D01*
X47643121Y-43550005D01*
X47623391Y-43576608D01*
X47601149Y-43601149D01*
X47576608Y-43623391D01*
X47550005Y-43643121D01*
X47521596Y-43660148D01*
X47491656Y-43674309D01*
X47460471Y-43685467D01*
X47428343Y-43693515D01*
X47395581Y-43698375D01*
X47362500Y-43700000D01*
X46587500Y-43700000D01*
X46554419Y-43698375D01*
X46521657Y-43693515D01*
X46489529Y-43685467D01*
X46458344Y-43674309D01*
X46428404Y-43660148D01*
X46399995Y-43643121D01*
X46373392Y-43623391D01*
X46348851Y-43601149D01*
X46326609Y-43576608D01*
X46306879Y-43550005D01*
X46289852Y-43521596D01*
X46275691Y-43491656D01*
X46264533Y-43460471D01*
X46256485Y-43428343D01*
X46251625Y-43395581D01*
X46250000Y-43362500D01*
X46250000Y-42687500D01*
X46251625Y-42654419D01*
X46256485Y-42621657D01*
X46264533Y-42589529D01*
X46275691Y-42558344D01*
X46289852Y-42528404D01*
X46306879Y-42499995D01*
X46326609Y-42473392D01*
X46348851Y-42448851D01*
X46373392Y-42426609D01*
X46399995Y-42406879D01*
X46428404Y-42389852D01*
X46458344Y-42375691D01*
X46489529Y-42364533D01*
X46521657Y-42356485D01*
X46554419Y-42351625D01*
X46587500Y-42350000D01*
X47362500Y-42350000D01*
X47395581Y-42351625D01*
X47395581Y-42351625D01*
G37*
D11*
X46975000Y-43025000D03*
D10*
G36*
X49145581Y-42351625D02*
G01*
X49178343Y-42356485D01*
X49210471Y-42364533D01*
X49241656Y-42375691D01*
X49271596Y-42389852D01*
X49300005Y-42406879D01*
X49326608Y-42426609D01*
X49351149Y-42448851D01*
X49373391Y-42473392D01*
X49393121Y-42499995D01*
X49410148Y-42528404D01*
X49424309Y-42558344D01*
X49435467Y-42589529D01*
X49443515Y-42621657D01*
X49448375Y-42654419D01*
X49450000Y-42687500D01*
X49450000Y-43362500D01*
X49448375Y-43395581D01*
X49443515Y-43428343D01*
X49435467Y-43460471D01*
X49424309Y-43491656D01*
X49410148Y-43521596D01*
X49393121Y-43550005D01*
X49373391Y-43576608D01*
X49351149Y-43601149D01*
X49326608Y-43623391D01*
X49300005Y-43643121D01*
X49271596Y-43660148D01*
X49241656Y-43674309D01*
X49210471Y-43685467D01*
X49178343Y-43693515D01*
X49145581Y-43698375D01*
X49112500Y-43700000D01*
X48337500Y-43700000D01*
X48304419Y-43698375D01*
X48271657Y-43693515D01*
X48239529Y-43685467D01*
X48208344Y-43674309D01*
X48178404Y-43660148D01*
X48149995Y-43643121D01*
X48123392Y-43623391D01*
X48098851Y-43601149D01*
X48076609Y-43576608D01*
X48056879Y-43550005D01*
X48039852Y-43521596D01*
X48025691Y-43491656D01*
X48014533Y-43460471D01*
X48006485Y-43428343D01*
X48001625Y-43395581D01*
X48000000Y-43362500D01*
X48000000Y-42687500D01*
X48001625Y-42654419D01*
X48006485Y-42621657D01*
X48014533Y-42589529D01*
X48025691Y-42558344D01*
X48039852Y-42528404D01*
X48056879Y-42499995D01*
X48076609Y-42473392D01*
X48098851Y-42448851D01*
X48123392Y-42426609D01*
X48149995Y-42406879D01*
X48178404Y-42389852D01*
X48208344Y-42375691D01*
X48239529Y-42364533D01*
X48271657Y-42356485D01*
X48304419Y-42351625D01*
X48337500Y-42350000D01*
X49112500Y-42350000D01*
X49145581Y-42351625D01*
X49145581Y-42351625D01*
G37*
D11*
X48725000Y-43025000D03*
D10*
G36*
X51045581Y-42351625D02*
G01*
X51078343Y-42356485D01*
X51110471Y-42364533D01*
X51141656Y-42375691D01*
X51171596Y-42389852D01*
X51200005Y-42406879D01*
X51226608Y-42426609D01*
X51251149Y-42448851D01*
X51273391Y-42473392D01*
X51293121Y-42499995D01*
X51310148Y-42528404D01*
X51324309Y-42558344D01*
X51335467Y-42589529D01*
X51343515Y-42621657D01*
X51348375Y-42654419D01*
X51350000Y-42687500D01*
X51350000Y-43362500D01*
X51348375Y-43395581D01*
X51343515Y-43428343D01*
X51335467Y-43460471D01*
X51324309Y-43491656D01*
X51310148Y-43521596D01*
X51293121Y-43550005D01*
X51273391Y-43576608D01*
X51251149Y-43601149D01*
X51226608Y-43623391D01*
X51200005Y-43643121D01*
X51171596Y-43660148D01*
X51141656Y-43674309D01*
X51110471Y-43685467D01*
X51078343Y-43693515D01*
X51045581Y-43698375D01*
X51012500Y-43700000D01*
X50237500Y-43700000D01*
X50204419Y-43698375D01*
X50171657Y-43693515D01*
X50139529Y-43685467D01*
X50108344Y-43674309D01*
X50078404Y-43660148D01*
X50049995Y-43643121D01*
X50023392Y-43623391D01*
X49998851Y-43601149D01*
X49976609Y-43576608D01*
X49956879Y-43550005D01*
X49939852Y-43521596D01*
X49925691Y-43491656D01*
X49914533Y-43460471D01*
X49906485Y-43428343D01*
X49901625Y-43395581D01*
X49900000Y-43362500D01*
X49900000Y-42687500D01*
X49901625Y-42654419D01*
X49906485Y-42621657D01*
X49914533Y-42589529D01*
X49925691Y-42558344D01*
X49939852Y-42528404D01*
X49956879Y-42499995D01*
X49976609Y-42473392D01*
X49998851Y-42448851D01*
X50023392Y-42426609D01*
X50049995Y-42406879D01*
X50078404Y-42389852D01*
X50108344Y-42375691D01*
X50139529Y-42364533D01*
X50171657Y-42356485D01*
X50204419Y-42351625D01*
X50237500Y-42350000D01*
X51012500Y-42350000D01*
X51045581Y-42351625D01*
X51045581Y-42351625D01*
G37*
D11*
X50625000Y-43025000D03*
D10*
G36*
X52795581Y-42351625D02*
G01*
X52828343Y-42356485D01*
X52860471Y-42364533D01*
X52891656Y-42375691D01*
X52921596Y-42389852D01*
X52950005Y-42406879D01*
X52976608Y-42426609D01*
X53001149Y-42448851D01*
X53023391Y-42473392D01*
X53043121Y-42499995D01*
X53060148Y-42528404D01*
X53074309Y-42558344D01*
X53085467Y-42589529D01*
X53093515Y-42621657D01*
X53098375Y-42654419D01*
X53100000Y-42687500D01*
X53100000Y-43362500D01*
X53098375Y-43395581D01*
X53093515Y-43428343D01*
X53085467Y-43460471D01*
X53074309Y-43491656D01*
X53060148Y-43521596D01*
X53043121Y-43550005D01*
X53023391Y-43576608D01*
X53001149Y-43601149D01*
X52976608Y-43623391D01*
X52950005Y-43643121D01*
X52921596Y-43660148D01*
X52891656Y-43674309D01*
X52860471Y-43685467D01*
X52828343Y-43693515D01*
X52795581Y-43698375D01*
X52762500Y-43700000D01*
X51987500Y-43700000D01*
X51954419Y-43698375D01*
X51921657Y-43693515D01*
X51889529Y-43685467D01*
X51858344Y-43674309D01*
X51828404Y-43660148D01*
X51799995Y-43643121D01*
X51773392Y-43623391D01*
X51748851Y-43601149D01*
X51726609Y-43576608D01*
X51706879Y-43550005D01*
X51689852Y-43521596D01*
X51675691Y-43491656D01*
X51664533Y-43460471D01*
X51656485Y-43428343D01*
X51651625Y-43395581D01*
X51650000Y-43362500D01*
X51650000Y-42687500D01*
X51651625Y-42654419D01*
X51656485Y-42621657D01*
X51664533Y-42589529D01*
X51675691Y-42558344D01*
X51689852Y-42528404D01*
X51706879Y-42499995D01*
X51726609Y-42473392D01*
X51748851Y-42448851D01*
X51773392Y-42426609D01*
X51799995Y-42406879D01*
X51828404Y-42389852D01*
X51858344Y-42375691D01*
X51889529Y-42364533D01*
X51921657Y-42356485D01*
X51954419Y-42351625D01*
X51987500Y-42350000D01*
X52762500Y-42350000D01*
X52795581Y-42351625D01*
X52795581Y-42351625D01*
G37*
D11*
X52375000Y-43025000D03*
D10*
G36*
X68364372Y-56876525D02*
G01*
X68395112Y-56881085D01*
X68425257Y-56888636D01*
X68454516Y-56899105D01*
X68482609Y-56912392D01*
X68509264Y-56928368D01*
X68534224Y-56946880D01*
X68557250Y-56967750D01*
X68578120Y-56990776D01*
X68596632Y-57015736D01*
X68612608Y-57042391D01*
X68625895Y-57070484D01*
X68636364Y-57099743D01*
X68643915Y-57129888D01*
X68648475Y-57160628D01*
X68650000Y-57191667D01*
X68650000Y-59308333D01*
X68648475Y-59339372D01*
X68643915Y-59370112D01*
X68636364Y-59400257D01*
X68625895Y-59429516D01*
X68612608Y-59457609D01*
X68596632Y-59484264D01*
X68578120Y-59509224D01*
X68557250Y-59532250D01*
X68534224Y-59553120D01*
X68509264Y-59571632D01*
X68482609Y-59587608D01*
X68454516Y-59600895D01*
X68425257Y-59611364D01*
X68395112Y-59618915D01*
X68364372Y-59623475D01*
X68333333Y-59625000D01*
X67066667Y-59625000D01*
X67035628Y-59623475D01*
X67004888Y-59618915D01*
X66974743Y-59611364D01*
X66945484Y-59600895D01*
X66917391Y-59587608D01*
X66890736Y-59571632D01*
X66865776Y-59553120D01*
X66842750Y-59532250D01*
X66821880Y-59509224D01*
X66803368Y-59484264D01*
X66787392Y-59457609D01*
X66774105Y-59429516D01*
X66763636Y-59400257D01*
X66756085Y-59370112D01*
X66751525Y-59339372D01*
X66750000Y-59308333D01*
X66750000Y-57191667D01*
X66751525Y-57160628D01*
X66756085Y-57129888D01*
X66763636Y-57099743D01*
X66774105Y-57070484D01*
X66787392Y-57042391D01*
X66803368Y-57015736D01*
X66821880Y-56990776D01*
X66842750Y-56967750D01*
X66865776Y-56946880D01*
X66890736Y-56928368D01*
X66917391Y-56912392D01*
X66945484Y-56899105D01*
X66974743Y-56888636D01*
X67004888Y-56881085D01*
X67035628Y-56876525D01*
X67066667Y-56875000D01*
X68333333Y-56875000D01*
X68364372Y-56876525D01*
X68364372Y-56876525D01*
G37*
D15*
X67700000Y-58250000D03*
D10*
G36*
X65114372Y-56876525D02*
G01*
X65145112Y-56881085D01*
X65175257Y-56888636D01*
X65204516Y-56899105D01*
X65232609Y-56912392D01*
X65259264Y-56928368D01*
X65284224Y-56946880D01*
X65307250Y-56967750D01*
X65328120Y-56990776D01*
X65346632Y-57015736D01*
X65362608Y-57042391D01*
X65375895Y-57070484D01*
X65386364Y-57099743D01*
X65393915Y-57129888D01*
X65398475Y-57160628D01*
X65400000Y-57191667D01*
X65400000Y-59308333D01*
X65398475Y-59339372D01*
X65393915Y-59370112D01*
X65386364Y-59400257D01*
X65375895Y-59429516D01*
X65362608Y-59457609D01*
X65346632Y-59484264D01*
X65328120Y-59509224D01*
X65307250Y-59532250D01*
X65284224Y-59553120D01*
X65259264Y-59571632D01*
X65232609Y-59587608D01*
X65204516Y-59600895D01*
X65175257Y-59611364D01*
X65145112Y-59618915D01*
X65114372Y-59623475D01*
X65083333Y-59625000D01*
X63816667Y-59625000D01*
X63785628Y-59623475D01*
X63754888Y-59618915D01*
X63724743Y-59611364D01*
X63695484Y-59600895D01*
X63667391Y-59587608D01*
X63640736Y-59571632D01*
X63615776Y-59553120D01*
X63592750Y-59532250D01*
X63571880Y-59509224D01*
X63553368Y-59484264D01*
X63537392Y-59457609D01*
X63524105Y-59429516D01*
X63513636Y-59400257D01*
X63506085Y-59370112D01*
X63501525Y-59339372D01*
X63500000Y-59308333D01*
X63500000Y-57191667D01*
X63501525Y-57160628D01*
X63506085Y-57129888D01*
X63513636Y-57099743D01*
X63524105Y-57070484D01*
X63537392Y-57042391D01*
X63553368Y-57015736D01*
X63571880Y-56990776D01*
X63592750Y-56967750D01*
X63615776Y-56946880D01*
X63640736Y-56928368D01*
X63667391Y-56912392D01*
X63695484Y-56899105D01*
X63724743Y-56888636D01*
X63754888Y-56881085D01*
X63785628Y-56876525D01*
X63816667Y-56875000D01*
X65083333Y-56875000D01*
X65114372Y-56876525D01*
X65114372Y-56876525D01*
G37*
D15*
X64450000Y-58250000D03*
D10*
G36*
X80045581Y-42476625D02*
G01*
X80078343Y-42481485D01*
X80110471Y-42489533D01*
X80141656Y-42500691D01*
X80171596Y-42514852D01*
X80200005Y-42531879D01*
X80226608Y-42551609D01*
X80251149Y-42573851D01*
X80273391Y-42598392D01*
X80293121Y-42624995D01*
X80310148Y-42653404D01*
X80324309Y-42683344D01*
X80335467Y-42714529D01*
X80343515Y-42746657D01*
X80348375Y-42779419D01*
X80350000Y-42812500D01*
X80350000Y-43487500D01*
X80348375Y-43520581D01*
X80343515Y-43553343D01*
X80335467Y-43585471D01*
X80324309Y-43616656D01*
X80310148Y-43646596D01*
X80293121Y-43675005D01*
X80273391Y-43701608D01*
X80251149Y-43726149D01*
X80226608Y-43748391D01*
X80200005Y-43768121D01*
X80171596Y-43785148D01*
X80141656Y-43799309D01*
X80110471Y-43810467D01*
X80078343Y-43818515D01*
X80045581Y-43823375D01*
X80012500Y-43825000D01*
X79237500Y-43825000D01*
X79204419Y-43823375D01*
X79171657Y-43818515D01*
X79139529Y-43810467D01*
X79108344Y-43799309D01*
X79078404Y-43785148D01*
X79049995Y-43768121D01*
X79023392Y-43748391D01*
X78998851Y-43726149D01*
X78976609Y-43701608D01*
X78956879Y-43675005D01*
X78939852Y-43646596D01*
X78925691Y-43616656D01*
X78914533Y-43585471D01*
X78906485Y-43553343D01*
X78901625Y-43520581D01*
X78900000Y-43487500D01*
X78900000Y-42812500D01*
X78901625Y-42779419D01*
X78906485Y-42746657D01*
X78914533Y-42714529D01*
X78925691Y-42683344D01*
X78939852Y-42653404D01*
X78956879Y-42624995D01*
X78976609Y-42598392D01*
X78998851Y-42573851D01*
X79023392Y-42551609D01*
X79049995Y-42531879D01*
X79078404Y-42514852D01*
X79108344Y-42500691D01*
X79139529Y-42489533D01*
X79171657Y-42481485D01*
X79204419Y-42476625D01*
X79237500Y-42475000D01*
X80012500Y-42475000D01*
X80045581Y-42476625D01*
X80045581Y-42476625D01*
G37*
D11*
X79625000Y-43150000D03*
D10*
G36*
X78295581Y-42476625D02*
G01*
X78328343Y-42481485D01*
X78360471Y-42489533D01*
X78391656Y-42500691D01*
X78421596Y-42514852D01*
X78450005Y-42531879D01*
X78476608Y-42551609D01*
X78501149Y-42573851D01*
X78523391Y-42598392D01*
X78543121Y-42624995D01*
X78560148Y-42653404D01*
X78574309Y-42683344D01*
X78585467Y-42714529D01*
X78593515Y-42746657D01*
X78598375Y-42779419D01*
X78600000Y-42812500D01*
X78600000Y-43487500D01*
X78598375Y-43520581D01*
X78593515Y-43553343D01*
X78585467Y-43585471D01*
X78574309Y-43616656D01*
X78560148Y-43646596D01*
X78543121Y-43675005D01*
X78523391Y-43701608D01*
X78501149Y-43726149D01*
X78476608Y-43748391D01*
X78450005Y-43768121D01*
X78421596Y-43785148D01*
X78391656Y-43799309D01*
X78360471Y-43810467D01*
X78328343Y-43818515D01*
X78295581Y-43823375D01*
X78262500Y-43825000D01*
X77487500Y-43825000D01*
X77454419Y-43823375D01*
X77421657Y-43818515D01*
X77389529Y-43810467D01*
X77358344Y-43799309D01*
X77328404Y-43785148D01*
X77299995Y-43768121D01*
X77273392Y-43748391D01*
X77248851Y-43726149D01*
X77226609Y-43701608D01*
X77206879Y-43675005D01*
X77189852Y-43646596D01*
X77175691Y-43616656D01*
X77164533Y-43585471D01*
X77156485Y-43553343D01*
X77151625Y-43520581D01*
X77150000Y-43487500D01*
X77150000Y-42812500D01*
X77151625Y-42779419D01*
X77156485Y-42746657D01*
X77164533Y-42714529D01*
X77175691Y-42683344D01*
X77189852Y-42653404D01*
X77206879Y-42624995D01*
X77226609Y-42598392D01*
X77248851Y-42573851D01*
X77273392Y-42551609D01*
X77299995Y-42531879D01*
X77328404Y-42514852D01*
X77358344Y-42500691D01*
X77389529Y-42489533D01*
X77421657Y-42481485D01*
X77454419Y-42476625D01*
X77487500Y-42475000D01*
X78262500Y-42475000D01*
X78295581Y-42476625D01*
X78295581Y-42476625D01*
G37*
D11*
X77875000Y-43150000D03*
D10*
G36*
X80045581Y-40751625D02*
G01*
X80078343Y-40756485D01*
X80110471Y-40764533D01*
X80141656Y-40775691D01*
X80171596Y-40789852D01*
X80200005Y-40806879D01*
X80226608Y-40826609D01*
X80251149Y-40848851D01*
X80273391Y-40873392D01*
X80293121Y-40899995D01*
X80310148Y-40928404D01*
X80324309Y-40958344D01*
X80335467Y-40989529D01*
X80343515Y-41021657D01*
X80348375Y-41054419D01*
X80350000Y-41087500D01*
X80350000Y-41762500D01*
X80348375Y-41795581D01*
X80343515Y-41828343D01*
X80335467Y-41860471D01*
X80324309Y-41891656D01*
X80310148Y-41921596D01*
X80293121Y-41950005D01*
X80273391Y-41976608D01*
X80251149Y-42001149D01*
X80226608Y-42023391D01*
X80200005Y-42043121D01*
X80171596Y-42060148D01*
X80141656Y-42074309D01*
X80110471Y-42085467D01*
X80078343Y-42093515D01*
X80045581Y-42098375D01*
X80012500Y-42100000D01*
X79237500Y-42100000D01*
X79204419Y-42098375D01*
X79171657Y-42093515D01*
X79139529Y-42085467D01*
X79108344Y-42074309D01*
X79078404Y-42060148D01*
X79049995Y-42043121D01*
X79023392Y-42023391D01*
X78998851Y-42001149D01*
X78976609Y-41976608D01*
X78956879Y-41950005D01*
X78939852Y-41921596D01*
X78925691Y-41891656D01*
X78914533Y-41860471D01*
X78906485Y-41828343D01*
X78901625Y-41795581D01*
X78900000Y-41762500D01*
X78900000Y-41087500D01*
X78901625Y-41054419D01*
X78906485Y-41021657D01*
X78914533Y-40989529D01*
X78925691Y-40958344D01*
X78939852Y-40928404D01*
X78956879Y-40899995D01*
X78976609Y-40873392D01*
X78998851Y-40848851D01*
X79023392Y-40826609D01*
X79049995Y-40806879D01*
X79078404Y-40789852D01*
X79108344Y-40775691D01*
X79139529Y-40764533D01*
X79171657Y-40756485D01*
X79204419Y-40751625D01*
X79237500Y-40750000D01*
X80012500Y-40750000D01*
X80045581Y-40751625D01*
X80045581Y-40751625D01*
G37*
D11*
X79625000Y-41425000D03*
D10*
G36*
X78295581Y-40751625D02*
G01*
X78328343Y-40756485D01*
X78360471Y-40764533D01*
X78391656Y-40775691D01*
X78421596Y-40789852D01*
X78450005Y-40806879D01*
X78476608Y-40826609D01*
X78501149Y-40848851D01*
X78523391Y-40873392D01*
X78543121Y-40899995D01*
X78560148Y-40928404D01*
X78574309Y-40958344D01*
X78585467Y-40989529D01*
X78593515Y-41021657D01*
X78598375Y-41054419D01*
X78600000Y-41087500D01*
X78600000Y-41762500D01*
X78598375Y-41795581D01*
X78593515Y-41828343D01*
X78585467Y-41860471D01*
X78574309Y-41891656D01*
X78560148Y-41921596D01*
X78543121Y-41950005D01*
X78523391Y-41976608D01*
X78501149Y-42001149D01*
X78476608Y-42023391D01*
X78450005Y-42043121D01*
X78421596Y-42060148D01*
X78391656Y-42074309D01*
X78360471Y-42085467D01*
X78328343Y-42093515D01*
X78295581Y-42098375D01*
X78262500Y-42100000D01*
X77487500Y-42100000D01*
X77454419Y-42098375D01*
X77421657Y-42093515D01*
X77389529Y-42085467D01*
X77358344Y-42074309D01*
X77328404Y-42060148D01*
X77299995Y-42043121D01*
X77273392Y-42023391D01*
X77248851Y-42001149D01*
X77226609Y-41976608D01*
X77206879Y-41950005D01*
X77189852Y-41921596D01*
X77175691Y-41891656D01*
X77164533Y-41860471D01*
X77156485Y-41828343D01*
X77151625Y-41795581D01*
X77150000Y-41762500D01*
X77150000Y-41087500D01*
X77151625Y-41054419D01*
X77156485Y-41021657D01*
X77164533Y-40989529D01*
X77175691Y-40958344D01*
X77189852Y-40928404D01*
X77206879Y-40899995D01*
X77226609Y-40873392D01*
X77248851Y-40848851D01*
X77273392Y-40826609D01*
X77299995Y-40806879D01*
X77328404Y-40789852D01*
X77358344Y-40775691D01*
X77389529Y-40764533D01*
X77421657Y-40756485D01*
X77454419Y-40751625D01*
X77487500Y-40750000D01*
X78262500Y-40750000D01*
X78295581Y-40751625D01*
X78295581Y-40751625D01*
G37*
D11*
X77875000Y-41425000D03*
D10*
G36*
X80045581Y-39176625D02*
G01*
X80078343Y-39181485D01*
X80110471Y-39189533D01*
X80141656Y-39200691D01*
X80171596Y-39214852D01*
X80200005Y-39231879D01*
X80226608Y-39251609D01*
X80251149Y-39273851D01*
X80273391Y-39298392D01*
X80293121Y-39324995D01*
X80310148Y-39353404D01*
X80324309Y-39383344D01*
X80335467Y-39414529D01*
X80343515Y-39446657D01*
X80348375Y-39479419D01*
X80350000Y-39512500D01*
X80350000Y-40187500D01*
X80348375Y-40220581D01*
X80343515Y-40253343D01*
X80335467Y-40285471D01*
X80324309Y-40316656D01*
X80310148Y-40346596D01*
X80293121Y-40375005D01*
X80273391Y-40401608D01*
X80251149Y-40426149D01*
X80226608Y-40448391D01*
X80200005Y-40468121D01*
X80171596Y-40485148D01*
X80141656Y-40499309D01*
X80110471Y-40510467D01*
X80078343Y-40518515D01*
X80045581Y-40523375D01*
X80012500Y-40525000D01*
X79237500Y-40525000D01*
X79204419Y-40523375D01*
X79171657Y-40518515D01*
X79139529Y-40510467D01*
X79108344Y-40499309D01*
X79078404Y-40485148D01*
X79049995Y-40468121D01*
X79023392Y-40448391D01*
X78998851Y-40426149D01*
X78976609Y-40401608D01*
X78956879Y-40375005D01*
X78939852Y-40346596D01*
X78925691Y-40316656D01*
X78914533Y-40285471D01*
X78906485Y-40253343D01*
X78901625Y-40220581D01*
X78900000Y-40187500D01*
X78900000Y-39512500D01*
X78901625Y-39479419D01*
X78906485Y-39446657D01*
X78914533Y-39414529D01*
X78925691Y-39383344D01*
X78939852Y-39353404D01*
X78956879Y-39324995D01*
X78976609Y-39298392D01*
X78998851Y-39273851D01*
X79023392Y-39251609D01*
X79049995Y-39231879D01*
X79078404Y-39214852D01*
X79108344Y-39200691D01*
X79139529Y-39189533D01*
X79171657Y-39181485D01*
X79204419Y-39176625D01*
X79237500Y-39175000D01*
X80012500Y-39175000D01*
X80045581Y-39176625D01*
X80045581Y-39176625D01*
G37*
D11*
X79625000Y-39850000D03*
D10*
G36*
X78295581Y-39176625D02*
G01*
X78328343Y-39181485D01*
X78360471Y-39189533D01*
X78391656Y-39200691D01*
X78421596Y-39214852D01*
X78450005Y-39231879D01*
X78476608Y-39251609D01*
X78501149Y-39273851D01*
X78523391Y-39298392D01*
X78543121Y-39324995D01*
X78560148Y-39353404D01*
X78574309Y-39383344D01*
X78585467Y-39414529D01*
X78593515Y-39446657D01*
X78598375Y-39479419D01*
X78600000Y-39512500D01*
X78600000Y-40187500D01*
X78598375Y-40220581D01*
X78593515Y-40253343D01*
X78585467Y-40285471D01*
X78574309Y-40316656D01*
X78560148Y-40346596D01*
X78543121Y-40375005D01*
X78523391Y-40401608D01*
X78501149Y-40426149D01*
X78476608Y-40448391D01*
X78450005Y-40468121D01*
X78421596Y-40485148D01*
X78391656Y-40499309D01*
X78360471Y-40510467D01*
X78328343Y-40518515D01*
X78295581Y-40523375D01*
X78262500Y-40525000D01*
X77487500Y-40525000D01*
X77454419Y-40523375D01*
X77421657Y-40518515D01*
X77389529Y-40510467D01*
X77358344Y-40499309D01*
X77328404Y-40485148D01*
X77299995Y-40468121D01*
X77273392Y-40448391D01*
X77248851Y-40426149D01*
X77226609Y-40401608D01*
X77206879Y-40375005D01*
X77189852Y-40346596D01*
X77175691Y-40316656D01*
X77164533Y-40285471D01*
X77156485Y-40253343D01*
X77151625Y-40220581D01*
X77150000Y-40187500D01*
X77150000Y-39512500D01*
X77151625Y-39479419D01*
X77156485Y-39446657D01*
X77164533Y-39414529D01*
X77175691Y-39383344D01*
X77189852Y-39353404D01*
X77206879Y-39324995D01*
X77226609Y-39298392D01*
X77248851Y-39273851D01*
X77273392Y-39251609D01*
X77299995Y-39231879D01*
X77328404Y-39214852D01*
X77358344Y-39200691D01*
X77389529Y-39189533D01*
X77421657Y-39181485D01*
X77454419Y-39176625D01*
X77487500Y-39175000D01*
X78262500Y-39175000D01*
X78295581Y-39176625D01*
X78295581Y-39176625D01*
G37*
D11*
X77875000Y-39850000D03*
D13*
X85070000Y-40675000D03*
D14*
X83800000Y-40675000D03*
D10*
G36*
X69545581Y-43601625D02*
G01*
X69578343Y-43606485D01*
X69610471Y-43614533D01*
X69641656Y-43625691D01*
X69671596Y-43639852D01*
X69700005Y-43656879D01*
X69726608Y-43676609D01*
X69751149Y-43698851D01*
X69773391Y-43723392D01*
X69793121Y-43749995D01*
X69810148Y-43778404D01*
X69824309Y-43808344D01*
X69835467Y-43839529D01*
X69843515Y-43871657D01*
X69848375Y-43904419D01*
X69850000Y-43937500D01*
X69850000Y-44612500D01*
X69848375Y-44645581D01*
X69843515Y-44678343D01*
X69835467Y-44710471D01*
X69824309Y-44741656D01*
X69810148Y-44771596D01*
X69793121Y-44800005D01*
X69773391Y-44826608D01*
X69751149Y-44851149D01*
X69726608Y-44873391D01*
X69700005Y-44893121D01*
X69671596Y-44910148D01*
X69641656Y-44924309D01*
X69610471Y-44935467D01*
X69578343Y-44943515D01*
X69545581Y-44948375D01*
X69512500Y-44950000D01*
X68737500Y-44950000D01*
X68704419Y-44948375D01*
X68671657Y-44943515D01*
X68639529Y-44935467D01*
X68608344Y-44924309D01*
X68578404Y-44910148D01*
X68549995Y-44893121D01*
X68523392Y-44873391D01*
X68498851Y-44851149D01*
X68476609Y-44826608D01*
X68456879Y-44800005D01*
X68439852Y-44771596D01*
X68425691Y-44741656D01*
X68414533Y-44710471D01*
X68406485Y-44678343D01*
X68401625Y-44645581D01*
X68400000Y-44612500D01*
X68400000Y-43937500D01*
X68401625Y-43904419D01*
X68406485Y-43871657D01*
X68414533Y-43839529D01*
X68425691Y-43808344D01*
X68439852Y-43778404D01*
X68456879Y-43749995D01*
X68476609Y-43723392D01*
X68498851Y-43698851D01*
X68523392Y-43676609D01*
X68549995Y-43656879D01*
X68578404Y-43639852D01*
X68608344Y-43625691D01*
X68639529Y-43614533D01*
X68671657Y-43606485D01*
X68704419Y-43601625D01*
X68737500Y-43600000D01*
X69512500Y-43600000D01*
X69545581Y-43601625D01*
X69545581Y-43601625D01*
G37*
D11*
X69125000Y-44275000D03*
D10*
G36*
X67795581Y-43601625D02*
G01*
X67828343Y-43606485D01*
X67860471Y-43614533D01*
X67891656Y-43625691D01*
X67921596Y-43639852D01*
X67950005Y-43656879D01*
X67976608Y-43676609D01*
X68001149Y-43698851D01*
X68023391Y-43723392D01*
X68043121Y-43749995D01*
X68060148Y-43778404D01*
X68074309Y-43808344D01*
X68085467Y-43839529D01*
X68093515Y-43871657D01*
X68098375Y-43904419D01*
X68100000Y-43937500D01*
X68100000Y-44612500D01*
X68098375Y-44645581D01*
X68093515Y-44678343D01*
X68085467Y-44710471D01*
X68074309Y-44741656D01*
X68060148Y-44771596D01*
X68043121Y-44800005D01*
X68023391Y-44826608D01*
X68001149Y-44851149D01*
X67976608Y-44873391D01*
X67950005Y-44893121D01*
X67921596Y-44910148D01*
X67891656Y-44924309D01*
X67860471Y-44935467D01*
X67828343Y-44943515D01*
X67795581Y-44948375D01*
X67762500Y-44950000D01*
X66987500Y-44950000D01*
X66954419Y-44948375D01*
X66921657Y-44943515D01*
X66889529Y-44935467D01*
X66858344Y-44924309D01*
X66828404Y-44910148D01*
X66799995Y-44893121D01*
X66773392Y-44873391D01*
X66748851Y-44851149D01*
X66726609Y-44826608D01*
X66706879Y-44800005D01*
X66689852Y-44771596D01*
X66675691Y-44741656D01*
X66664533Y-44710471D01*
X66656485Y-44678343D01*
X66651625Y-44645581D01*
X66650000Y-44612500D01*
X66650000Y-43937500D01*
X66651625Y-43904419D01*
X66656485Y-43871657D01*
X66664533Y-43839529D01*
X66675691Y-43808344D01*
X66689852Y-43778404D01*
X66706879Y-43749995D01*
X66726609Y-43723392D01*
X66748851Y-43698851D01*
X66773392Y-43676609D01*
X66799995Y-43656879D01*
X66828404Y-43639852D01*
X66858344Y-43625691D01*
X66889529Y-43614533D01*
X66921657Y-43606485D01*
X66954419Y-43601625D01*
X66987500Y-43600000D01*
X67762500Y-43600000D01*
X67795581Y-43601625D01*
X67795581Y-43601625D01*
G37*
D11*
X67375000Y-44275000D03*
D16*
X96390000Y-78865000D03*
X93850000Y-78865000D03*
X96390000Y-76325000D03*
X93850000Y-76325000D03*
X96390000Y-73785000D03*
X93850000Y-73785000D03*
X96390000Y-71245000D03*
X93850000Y-71245000D03*
X96390000Y-68705000D03*
X93850000Y-68705000D03*
X96390000Y-66165000D03*
X93850000Y-66165000D03*
X96390000Y-63625000D03*
D17*
X93850000Y-63625000D03*
D14*
X68800000Y-50650000D03*
D16*
X86875000Y-76335000D03*
X89415000Y-76335000D03*
X86875000Y-78875000D03*
X89415000Y-78875000D03*
X86875000Y-81415000D03*
X89415000Y-81415000D03*
X86875000Y-83955000D03*
D17*
X89415000Y-83955000D03*
D18*
X89500000Y-49525000D03*
D19*
X89500000Y-41925000D03*
X89500000Y-57125000D03*
D20*
X78210000Y-80535000D03*
X78210000Y-83075000D03*
X75670000Y-80535000D03*
X75670000Y-83075000D03*
X73130000Y-80535000D03*
X73130000Y-83075000D03*
X70590000Y-80535000D03*
X70590000Y-83075000D03*
X68050000Y-80535000D03*
D21*
X68050000Y-83075000D03*
D20*
X56770000Y-80535000D03*
X56770000Y-83075000D03*
X54230000Y-80535000D03*
X54230000Y-83075000D03*
X51690000Y-80535000D03*
X51690000Y-83075000D03*
X49150000Y-80535000D03*
X49150000Y-83075000D03*
X46610000Y-80535000D03*
D21*
X46610000Y-83075000D03*
D22*
X54900000Y-63325000D03*
X55550000Y-63325000D03*
X56200000Y-63325000D03*
X56850000Y-63325000D03*
X57500000Y-63325000D03*
X58150000Y-63325000D03*
X58800000Y-63325000D03*
X59450000Y-63325000D03*
X60100000Y-63325000D03*
X60750000Y-63325000D03*
X61400000Y-63325000D03*
X62050000Y-63325000D03*
X62700000Y-63325000D03*
X63350000Y-63325000D03*
X63350000Y-70525000D03*
X62700000Y-70525000D03*
X62050000Y-70525000D03*
X61400000Y-70525000D03*
X60750000Y-70525000D03*
X60100000Y-70525000D03*
X59450000Y-70525000D03*
X58800000Y-70525000D03*
X58150000Y-70525000D03*
X57500000Y-70525000D03*
X56850000Y-70525000D03*
X56200000Y-70525000D03*
X55550000Y-70525000D03*
X54900000Y-70525000D03*
X40200000Y-63325000D03*
X40850000Y-63325000D03*
X41500000Y-63325000D03*
X42150000Y-63325000D03*
X42800000Y-63325000D03*
X43450000Y-63325000D03*
X44100000Y-63325000D03*
X44750000Y-63325000D03*
X45400000Y-63325000D03*
X46050000Y-63325000D03*
X46700000Y-63325000D03*
X47350000Y-63325000D03*
X48000000Y-63325000D03*
X48650000Y-63325000D03*
X48650000Y-70525000D03*
X48000000Y-70525000D03*
X47350000Y-70525000D03*
X46700000Y-70525000D03*
X46050000Y-70525000D03*
X45400000Y-70525000D03*
X44750000Y-70525000D03*
X44100000Y-70525000D03*
X43450000Y-70525000D03*
X42800000Y-70525000D03*
X42150000Y-70525000D03*
X41500000Y-70525000D03*
X40850000Y-70525000D03*
X40200000Y-70525000D03*
D14*
X50975000Y-63700000D03*
X36275000Y-63700000D03*
X50975000Y-70300000D03*
X36275000Y-70300000D03*
D10*
G36*
X53170581Y-62101625D02*
G01*
X53203343Y-62106485D01*
X53235471Y-62114533D01*
X53266656Y-62125691D01*
X53296596Y-62139852D01*
X53325005Y-62156879D01*
X53351608Y-62176609D01*
X53376149Y-62198851D01*
X53398391Y-62223392D01*
X53418121Y-62249995D01*
X53435148Y-62278404D01*
X53449309Y-62308344D01*
X53460467Y-62339529D01*
X53468515Y-62371657D01*
X53473375Y-62404419D01*
X53475000Y-62437500D01*
X53475000Y-63212500D01*
X53473375Y-63245581D01*
X53468515Y-63278343D01*
X53460467Y-63310471D01*
X53449309Y-63341656D01*
X53435148Y-63371596D01*
X53418121Y-63400005D01*
X53398391Y-63426608D01*
X53376149Y-63451149D01*
X53351608Y-63473391D01*
X53325005Y-63493121D01*
X53296596Y-63510148D01*
X53266656Y-63524309D01*
X53235471Y-63535467D01*
X53203343Y-63543515D01*
X53170581Y-63548375D01*
X53137500Y-63550000D01*
X52462500Y-63550000D01*
X52429419Y-63548375D01*
X52396657Y-63543515D01*
X52364529Y-63535467D01*
X52333344Y-63524309D01*
X52303404Y-63510148D01*
X52274995Y-63493121D01*
X52248392Y-63473391D01*
X52223851Y-63451149D01*
X52201609Y-63426608D01*
X52181879Y-63400005D01*
X52164852Y-63371596D01*
X52150691Y-63341656D01*
X52139533Y-63310471D01*
X52131485Y-63278343D01*
X52126625Y-63245581D01*
X52125000Y-63212500D01*
X52125000Y-62437500D01*
X52126625Y-62404419D01*
X52131485Y-62371657D01*
X52139533Y-62339529D01*
X52150691Y-62308344D01*
X52164852Y-62278404D01*
X52181879Y-62249995D01*
X52201609Y-62223392D01*
X52223851Y-62198851D01*
X52248392Y-62176609D01*
X52274995Y-62156879D01*
X52303404Y-62139852D01*
X52333344Y-62125691D01*
X52364529Y-62114533D01*
X52396657Y-62106485D01*
X52429419Y-62101625D01*
X52462500Y-62100000D01*
X53137500Y-62100000D01*
X53170581Y-62101625D01*
X53170581Y-62101625D01*
G37*
D11*
X52800000Y-62825000D03*
D10*
G36*
X53170581Y-63851625D02*
G01*
X53203343Y-63856485D01*
X53235471Y-63864533D01*
X53266656Y-63875691D01*
X53296596Y-63889852D01*
X53325005Y-63906879D01*
X53351608Y-63926609D01*
X53376149Y-63948851D01*
X53398391Y-63973392D01*
X53418121Y-63999995D01*
X53435148Y-64028404D01*
X53449309Y-64058344D01*
X53460467Y-64089529D01*
X53468515Y-64121657D01*
X53473375Y-64154419D01*
X53475000Y-64187500D01*
X53475000Y-64962500D01*
X53473375Y-64995581D01*
X53468515Y-65028343D01*
X53460467Y-65060471D01*
X53449309Y-65091656D01*
X53435148Y-65121596D01*
X53418121Y-65150005D01*
X53398391Y-65176608D01*
X53376149Y-65201149D01*
X53351608Y-65223391D01*
X53325005Y-65243121D01*
X53296596Y-65260148D01*
X53266656Y-65274309D01*
X53235471Y-65285467D01*
X53203343Y-65293515D01*
X53170581Y-65298375D01*
X53137500Y-65300000D01*
X52462500Y-65300000D01*
X52429419Y-65298375D01*
X52396657Y-65293515D01*
X52364529Y-65285467D01*
X52333344Y-65274309D01*
X52303404Y-65260148D01*
X52274995Y-65243121D01*
X52248392Y-65223391D01*
X52223851Y-65201149D01*
X52201609Y-65176608D01*
X52181879Y-65150005D01*
X52164852Y-65121596D01*
X52150691Y-65091656D01*
X52139533Y-65060471D01*
X52131485Y-65028343D01*
X52126625Y-64995581D01*
X52125000Y-64962500D01*
X52125000Y-64187500D01*
X52126625Y-64154419D01*
X52131485Y-64121657D01*
X52139533Y-64089529D01*
X52150691Y-64058344D01*
X52164852Y-64028404D01*
X52181879Y-63999995D01*
X52201609Y-63973392D01*
X52223851Y-63948851D01*
X52248392Y-63926609D01*
X52274995Y-63906879D01*
X52303404Y-63889852D01*
X52333344Y-63875691D01*
X52364529Y-63864533D01*
X52396657Y-63856485D01*
X52429419Y-63851625D01*
X52462500Y-63850000D01*
X53137500Y-63850000D01*
X53170581Y-63851625D01*
X53170581Y-63851625D01*
G37*
D11*
X52800000Y-64575000D03*
D10*
G36*
X38470581Y-62101625D02*
G01*
X38503343Y-62106485D01*
X38535471Y-62114533D01*
X38566656Y-62125691D01*
X38596596Y-62139852D01*
X38625005Y-62156879D01*
X38651608Y-62176609D01*
X38676149Y-62198851D01*
X38698391Y-62223392D01*
X38718121Y-62249995D01*
X38735148Y-62278404D01*
X38749309Y-62308344D01*
X38760467Y-62339529D01*
X38768515Y-62371657D01*
X38773375Y-62404419D01*
X38775000Y-62437500D01*
X38775000Y-63212500D01*
X38773375Y-63245581D01*
X38768515Y-63278343D01*
X38760467Y-63310471D01*
X38749309Y-63341656D01*
X38735148Y-63371596D01*
X38718121Y-63400005D01*
X38698391Y-63426608D01*
X38676149Y-63451149D01*
X38651608Y-63473391D01*
X38625005Y-63493121D01*
X38596596Y-63510148D01*
X38566656Y-63524309D01*
X38535471Y-63535467D01*
X38503343Y-63543515D01*
X38470581Y-63548375D01*
X38437500Y-63550000D01*
X37762500Y-63550000D01*
X37729419Y-63548375D01*
X37696657Y-63543515D01*
X37664529Y-63535467D01*
X37633344Y-63524309D01*
X37603404Y-63510148D01*
X37574995Y-63493121D01*
X37548392Y-63473391D01*
X37523851Y-63451149D01*
X37501609Y-63426608D01*
X37481879Y-63400005D01*
X37464852Y-63371596D01*
X37450691Y-63341656D01*
X37439533Y-63310471D01*
X37431485Y-63278343D01*
X37426625Y-63245581D01*
X37425000Y-63212500D01*
X37425000Y-62437500D01*
X37426625Y-62404419D01*
X37431485Y-62371657D01*
X37439533Y-62339529D01*
X37450691Y-62308344D01*
X37464852Y-62278404D01*
X37481879Y-62249995D01*
X37501609Y-62223392D01*
X37523851Y-62198851D01*
X37548392Y-62176609D01*
X37574995Y-62156879D01*
X37603404Y-62139852D01*
X37633344Y-62125691D01*
X37664529Y-62114533D01*
X37696657Y-62106485D01*
X37729419Y-62101625D01*
X37762500Y-62100000D01*
X38437500Y-62100000D01*
X38470581Y-62101625D01*
X38470581Y-62101625D01*
G37*
D11*
X38100000Y-62825000D03*
D10*
G36*
X38470581Y-63851625D02*
G01*
X38503343Y-63856485D01*
X38535471Y-63864533D01*
X38566656Y-63875691D01*
X38596596Y-63889852D01*
X38625005Y-63906879D01*
X38651608Y-63926609D01*
X38676149Y-63948851D01*
X38698391Y-63973392D01*
X38718121Y-63999995D01*
X38735148Y-64028404D01*
X38749309Y-64058344D01*
X38760467Y-64089529D01*
X38768515Y-64121657D01*
X38773375Y-64154419D01*
X38775000Y-64187500D01*
X38775000Y-64962500D01*
X38773375Y-64995581D01*
X38768515Y-65028343D01*
X38760467Y-65060471D01*
X38749309Y-65091656D01*
X38735148Y-65121596D01*
X38718121Y-65150005D01*
X38698391Y-65176608D01*
X38676149Y-65201149D01*
X38651608Y-65223391D01*
X38625005Y-65243121D01*
X38596596Y-65260148D01*
X38566656Y-65274309D01*
X38535471Y-65285467D01*
X38503343Y-65293515D01*
X38470581Y-65298375D01*
X38437500Y-65300000D01*
X37762500Y-65300000D01*
X37729419Y-65298375D01*
X37696657Y-65293515D01*
X37664529Y-65285467D01*
X37633344Y-65274309D01*
X37603404Y-65260148D01*
X37574995Y-65243121D01*
X37548392Y-65223391D01*
X37523851Y-65201149D01*
X37501609Y-65176608D01*
X37481879Y-65150005D01*
X37464852Y-65121596D01*
X37450691Y-65091656D01*
X37439533Y-65060471D01*
X37431485Y-65028343D01*
X37426625Y-64995581D01*
X37425000Y-64962500D01*
X37425000Y-64187500D01*
X37426625Y-64154419D01*
X37431485Y-64121657D01*
X37439533Y-64089529D01*
X37450691Y-64058344D01*
X37464852Y-64028404D01*
X37481879Y-63999995D01*
X37501609Y-63973392D01*
X37523851Y-63948851D01*
X37548392Y-63926609D01*
X37574995Y-63906879D01*
X37603404Y-63889852D01*
X37633344Y-63875691D01*
X37664529Y-63864533D01*
X37696657Y-63856485D01*
X37729419Y-63851625D01*
X37762500Y-63850000D01*
X38437500Y-63850000D01*
X38470581Y-63851625D01*
X38470581Y-63851625D01*
G37*
D11*
X38100000Y-64575000D03*
D10*
G36*
X53170581Y-68701625D02*
G01*
X53203343Y-68706485D01*
X53235471Y-68714533D01*
X53266656Y-68725691D01*
X53296596Y-68739852D01*
X53325005Y-68756879D01*
X53351608Y-68776609D01*
X53376149Y-68798851D01*
X53398391Y-68823392D01*
X53418121Y-68849995D01*
X53435148Y-68878404D01*
X53449309Y-68908344D01*
X53460467Y-68939529D01*
X53468515Y-68971657D01*
X53473375Y-69004419D01*
X53475000Y-69037500D01*
X53475000Y-69812500D01*
X53473375Y-69845581D01*
X53468515Y-69878343D01*
X53460467Y-69910471D01*
X53449309Y-69941656D01*
X53435148Y-69971596D01*
X53418121Y-70000005D01*
X53398391Y-70026608D01*
X53376149Y-70051149D01*
X53351608Y-70073391D01*
X53325005Y-70093121D01*
X53296596Y-70110148D01*
X53266656Y-70124309D01*
X53235471Y-70135467D01*
X53203343Y-70143515D01*
X53170581Y-70148375D01*
X53137500Y-70150000D01*
X52462500Y-70150000D01*
X52429419Y-70148375D01*
X52396657Y-70143515D01*
X52364529Y-70135467D01*
X52333344Y-70124309D01*
X52303404Y-70110148D01*
X52274995Y-70093121D01*
X52248392Y-70073391D01*
X52223851Y-70051149D01*
X52201609Y-70026608D01*
X52181879Y-70000005D01*
X52164852Y-69971596D01*
X52150691Y-69941656D01*
X52139533Y-69910471D01*
X52131485Y-69878343D01*
X52126625Y-69845581D01*
X52125000Y-69812500D01*
X52125000Y-69037500D01*
X52126625Y-69004419D01*
X52131485Y-68971657D01*
X52139533Y-68939529D01*
X52150691Y-68908344D01*
X52164852Y-68878404D01*
X52181879Y-68849995D01*
X52201609Y-68823392D01*
X52223851Y-68798851D01*
X52248392Y-68776609D01*
X52274995Y-68756879D01*
X52303404Y-68739852D01*
X52333344Y-68725691D01*
X52364529Y-68714533D01*
X52396657Y-68706485D01*
X52429419Y-68701625D01*
X52462500Y-68700000D01*
X53137500Y-68700000D01*
X53170581Y-68701625D01*
X53170581Y-68701625D01*
G37*
D11*
X52800000Y-69425000D03*
D10*
G36*
X53170581Y-70451625D02*
G01*
X53203343Y-70456485D01*
X53235471Y-70464533D01*
X53266656Y-70475691D01*
X53296596Y-70489852D01*
X53325005Y-70506879D01*
X53351608Y-70526609D01*
X53376149Y-70548851D01*
X53398391Y-70573392D01*
X53418121Y-70599995D01*
X53435148Y-70628404D01*
X53449309Y-70658344D01*
X53460467Y-70689529D01*
X53468515Y-70721657D01*
X53473375Y-70754419D01*
X53475000Y-70787500D01*
X53475000Y-71562500D01*
X53473375Y-71595581D01*
X53468515Y-71628343D01*
X53460467Y-71660471D01*
X53449309Y-71691656D01*
X53435148Y-71721596D01*
X53418121Y-71750005D01*
X53398391Y-71776608D01*
X53376149Y-71801149D01*
X53351608Y-71823391D01*
X53325005Y-71843121D01*
X53296596Y-71860148D01*
X53266656Y-71874309D01*
X53235471Y-71885467D01*
X53203343Y-71893515D01*
X53170581Y-71898375D01*
X53137500Y-71900000D01*
X52462500Y-71900000D01*
X52429419Y-71898375D01*
X52396657Y-71893515D01*
X52364529Y-71885467D01*
X52333344Y-71874309D01*
X52303404Y-71860148D01*
X52274995Y-71843121D01*
X52248392Y-71823391D01*
X52223851Y-71801149D01*
X52201609Y-71776608D01*
X52181879Y-71750005D01*
X52164852Y-71721596D01*
X52150691Y-71691656D01*
X52139533Y-71660471D01*
X52131485Y-71628343D01*
X52126625Y-71595581D01*
X52125000Y-71562500D01*
X52125000Y-70787500D01*
X52126625Y-70754419D01*
X52131485Y-70721657D01*
X52139533Y-70689529D01*
X52150691Y-70658344D01*
X52164852Y-70628404D01*
X52181879Y-70599995D01*
X52201609Y-70573392D01*
X52223851Y-70548851D01*
X52248392Y-70526609D01*
X52274995Y-70506879D01*
X52303404Y-70489852D01*
X52333344Y-70475691D01*
X52364529Y-70464533D01*
X52396657Y-70456485D01*
X52429419Y-70451625D01*
X52462500Y-70450000D01*
X53137500Y-70450000D01*
X53170581Y-70451625D01*
X53170581Y-70451625D01*
G37*
D11*
X52800000Y-71175000D03*
D10*
G36*
X38470581Y-68701625D02*
G01*
X38503343Y-68706485D01*
X38535471Y-68714533D01*
X38566656Y-68725691D01*
X38596596Y-68739852D01*
X38625005Y-68756879D01*
X38651608Y-68776609D01*
X38676149Y-68798851D01*
X38698391Y-68823392D01*
X38718121Y-68849995D01*
X38735148Y-68878404D01*
X38749309Y-68908344D01*
X38760467Y-68939529D01*
X38768515Y-68971657D01*
X38773375Y-69004419D01*
X38775000Y-69037500D01*
X38775000Y-69812500D01*
X38773375Y-69845581D01*
X38768515Y-69878343D01*
X38760467Y-69910471D01*
X38749309Y-69941656D01*
X38735148Y-69971596D01*
X38718121Y-70000005D01*
X38698391Y-70026608D01*
X38676149Y-70051149D01*
X38651608Y-70073391D01*
X38625005Y-70093121D01*
X38596596Y-70110148D01*
X38566656Y-70124309D01*
X38535471Y-70135467D01*
X38503343Y-70143515D01*
X38470581Y-70148375D01*
X38437500Y-70150000D01*
X37762500Y-70150000D01*
X37729419Y-70148375D01*
X37696657Y-70143515D01*
X37664529Y-70135467D01*
X37633344Y-70124309D01*
X37603404Y-70110148D01*
X37574995Y-70093121D01*
X37548392Y-70073391D01*
X37523851Y-70051149D01*
X37501609Y-70026608D01*
X37481879Y-70000005D01*
X37464852Y-69971596D01*
X37450691Y-69941656D01*
X37439533Y-69910471D01*
X37431485Y-69878343D01*
X37426625Y-69845581D01*
X37425000Y-69812500D01*
X37425000Y-69037500D01*
X37426625Y-69004419D01*
X37431485Y-68971657D01*
X37439533Y-68939529D01*
X37450691Y-68908344D01*
X37464852Y-68878404D01*
X37481879Y-68849995D01*
X37501609Y-68823392D01*
X37523851Y-68798851D01*
X37548392Y-68776609D01*
X37574995Y-68756879D01*
X37603404Y-68739852D01*
X37633344Y-68725691D01*
X37664529Y-68714533D01*
X37696657Y-68706485D01*
X37729419Y-68701625D01*
X37762500Y-68700000D01*
X38437500Y-68700000D01*
X38470581Y-68701625D01*
X38470581Y-68701625D01*
G37*
D11*
X38100000Y-69425000D03*
D10*
G36*
X38470581Y-70451625D02*
G01*
X38503343Y-70456485D01*
X38535471Y-70464533D01*
X38566656Y-70475691D01*
X38596596Y-70489852D01*
X38625005Y-70506879D01*
X38651608Y-70526609D01*
X38676149Y-70548851D01*
X38698391Y-70573392D01*
X38718121Y-70599995D01*
X38735148Y-70628404D01*
X38749309Y-70658344D01*
X38760467Y-70689529D01*
X38768515Y-70721657D01*
X38773375Y-70754419D01*
X38775000Y-70787500D01*
X38775000Y-71562500D01*
X38773375Y-71595581D01*
X38768515Y-71628343D01*
X38760467Y-71660471D01*
X38749309Y-71691656D01*
X38735148Y-71721596D01*
X38718121Y-71750005D01*
X38698391Y-71776608D01*
X38676149Y-71801149D01*
X38651608Y-71823391D01*
X38625005Y-71843121D01*
X38596596Y-71860148D01*
X38566656Y-71874309D01*
X38535471Y-71885467D01*
X38503343Y-71893515D01*
X38470581Y-71898375D01*
X38437500Y-71900000D01*
X37762500Y-71900000D01*
X37729419Y-71898375D01*
X37696657Y-71893515D01*
X37664529Y-71885467D01*
X37633344Y-71874309D01*
X37603404Y-71860148D01*
X37574995Y-71843121D01*
X37548392Y-71823391D01*
X37523851Y-71801149D01*
X37501609Y-71776608D01*
X37481879Y-71750005D01*
X37464852Y-71721596D01*
X37450691Y-71691656D01*
X37439533Y-71660471D01*
X37431485Y-71628343D01*
X37426625Y-71595581D01*
X37425000Y-71562500D01*
X37425000Y-70787500D01*
X37426625Y-70754419D01*
X37431485Y-70721657D01*
X37439533Y-70689529D01*
X37450691Y-70658344D01*
X37464852Y-70628404D01*
X37481879Y-70599995D01*
X37501609Y-70573392D01*
X37523851Y-70548851D01*
X37548392Y-70526609D01*
X37574995Y-70506879D01*
X37603404Y-70489852D01*
X37633344Y-70475691D01*
X37664529Y-70464533D01*
X37696657Y-70456485D01*
X37729419Y-70451625D01*
X37762500Y-70450000D01*
X38437500Y-70450000D01*
X38470581Y-70451625D01*
X38470581Y-70451625D01*
G37*
D11*
X38100000Y-71175000D03*
D22*
X74025000Y-70525000D03*
X73375000Y-70525000D03*
X72725000Y-70525000D03*
X72075000Y-70525000D03*
X71425000Y-70525000D03*
X70775000Y-70525000D03*
X70125000Y-70525000D03*
X69475000Y-70525000D03*
X68825000Y-70525000D03*
X68175000Y-70525000D03*
X68175000Y-63325000D03*
X68825000Y-63325000D03*
X69475000Y-63325000D03*
X70125000Y-63325000D03*
X70775000Y-63325000D03*
X71425000Y-63325000D03*
X72075000Y-63325000D03*
X72725000Y-63325000D03*
X73375000Y-63325000D03*
X74025000Y-63325000D03*
D10*
G36*
X70570581Y-60101625D02*
G01*
X70603343Y-60106485D01*
X70635471Y-60114533D01*
X70666656Y-60125691D01*
X70696596Y-60139852D01*
X70725005Y-60156879D01*
X70751608Y-60176609D01*
X70776149Y-60198851D01*
X70798391Y-60223392D01*
X70818121Y-60249995D01*
X70835148Y-60278404D01*
X70849309Y-60308344D01*
X70860467Y-60339529D01*
X70868515Y-60371657D01*
X70873375Y-60404419D01*
X70875000Y-60437500D01*
X70875000Y-61112500D01*
X70873375Y-61145581D01*
X70868515Y-61178343D01*
X70860467Y-61210471D01*
X70849309Y-61241656D01*
X70835148Y-61271596D01*
X70818121Y-61300005D01*
X70798391Y-61326608D01*
X70776149Y-61351149D01*
X70751608Y-61373391D01*
X70725005Y-61393121D01*
X70696596Y-61410148D01*
X70666656Y-61424309D01*
X70635471Y-61435467D01*
X70603343Y-61443515D01*
X70570581Y-61448375D01*
X70537500Y-61450000D01*
X69762500Y-61450000D01*
X69729419Y-61448375D01*
X69696657Y-61443515D01*
X69664529Y-61435467D01*
X69633344Y-61424309D01*
X69603404Y-61410148D01*
X69574995Y-61393121D01*
X69548392Y-61373391D01*
X69523851Y-61351149D01*
X69501609Y-61326608D01*
X69481879Y-61300005D01*
X69464852Y-61271596D01*
X69450691Y-61241656D01*
X69439533Y-61210471D01*
X69431485Y-61178343D01*
X69426625Y-61145581D01*
X69425000Y-61112500D01*
X69425000Y-60437500D01*
X69426625Y-60404419D01*
X69431485Y-60371657D01*
X69439533Y-60339529D01*
X69450691Y-60308344D01*
X69464852Y-60278404D01*
X69481879Y-60249995D01*
X69501609Y-60223392D01*
X69523851Y-60198851D01*
X69548392Y-60176609D01*
X69574995Y-60156879D01*
X69603404Y-60139852D01*
X69633344Y-60125691D01*
X69664529Y-60114533D01*
X69696657Y-60106485D01*
X69729419Y-60101625D01*
X69762500Y-60100000D01*
X70537500Y-60100000D01*
X70570581Y-60101625D01*
X70570581Y-60101625D01*
G37*
D11*
X70150000Y-60775000D03*
D10*
G36*
X68820581Y-60101625D02*
G01*
X68853343Y-60106485D01*
X68885471Y-60114533D01*
X68916656Y-60125691D01*
X68946596Y-60139852D01*
X68975005Y-60156879D01*
X69001608Y-60176609D01*
X69026149Y-60198851D01*
X69048391Y-60223392D01*
X69068121Y-60249995D01*
X69085148Y-60278404D01*
X69099309Y-60308344D01*
X69110467Y-60339529D01*
X69118515Y-60371657D01*
X69123375Y-60404419D01*
X69125000Y-60437500D01*
X69125000Y-61112500D01*
X69123375Y-61145581D01*
X69118515Y-61178343D01*
X69110467Y-61210471D01*
X69099309Y-61241656D01*
X69085148Y-61271596D01*
X69068121Y-61300005D01*
X69048391Y-61326608D01*
X69026149Y-61351149D01*
X69001608Y-61373391D01*
X68975005Y-61393121D01*
X68946596Y-61410148D01*
X68916656Y-61424309D01*
X68885471Y-61435467D01*
X68853343Y-61443515D01*
X68820581Y-61448375D01*
X68787500Y-61450000D01*
X68012500Y-61450000D01*
X67979419Y-61448375D01*
X67946657Y-61443515D01*
X67914529Y-61435467D01*
X67883344Y-61424309D01*
X67853404Y-61410148D01*
X67824995Y-61393121D01*
X67798392Y-61373391D01*
X67773851Y-61351149D01*
X67751609Y-61326608D01*
X67731879Y-61300005D01*
X67714852Y-61271596D01*
X67700691Y-61241656D01*
X67689533Y-61210471D01*
X67681485Y-61178343D01*
X67676625Y-61145581D01*
X67675000Y-61112500D01*
X67675000Y-60437500D01*
X67676625Y-60404419D01*
X67681485Y-60371657D01*
X67689533Y-60339529D01*
X67700691Y-60308344D01*
X67714852Y-60278404D01*
X67731879Y-60249995D01*
X67751609Y-60223392D01*
X67773851Y-60198851D01*
X67798392Y-60176609D01*
X67824995Y-60156879D01*
X67853404Y-60139852D01*
X67883344Y-60125691D01*
X67914529Y-60114533D01*
X67946657Y-60106485D01*
X67979419Y-60101625D01*
X68012500Y-60100000D01*
X68787500Y-60100000D01*
X68820581Y-60101625D01*
X68820581Y-60101625D01*
G37*
D11*
X68400000Y-60775000D03*
D10*
G36*
X73875581Y-60101625D02*
G01*
X73908343Y-60106485D01*
X73940471Y-60114533D01*
X73971656Y-60125691D01*
X74001596Y-60139852D01*
X74030005Y-60156879D01*
X74056608Y-60176609D01*
X74081149Y-60198851D01*
X74103391Y-60223392D01*
X74123121Y-60249995D01*
X74140148Y-60278404D01*
X74154309Y-60308344D01*
X74165467Y-60339529D01*
X74173515Y-60371657D01*
X74178375Y-60404419D01*
X74180000Y-60437500D01*
X74180000Y-61112500D01*
X74178375Y-61145581D01*
X74173515Y-61178343D01*
X74165467Y-61210471D01*
X74154309Y-61241656D01*
X74140148Y-61271596D01*
X74123121Y-61300005D01*
X74103391Y-61326608D01*
X74081149Y-61351149D01*
X74056608Y-61373391D01*
X74030005Y-61393121D01*
X74001596Y-61410148D01*
X73971656Y-61424309D01*
X73940471Y-61435467D01*
X73908343Y-61443515D01*
X73875581Y-61448375D01*
X73842500Y-61450000D01*
X73067500Y-61450000D01*
X73034419Y-61448375D01*
X73001657Y-61443515D01*
X72969529Y-61435467D01*
X72938344Y-61424309D01*
X72908404Y-61410148D01*
X72879995Y-61393121D01*
X72853392Y-61373391D01*
X72828851Y-61351149D01*
X72806609Y-61326608D01*
X72786879Y-61300005D01*
X72769852Y-61271596D01*
X72755691Y-61241656D01*
X72744533Y-61210471D01*
X72736485Y-61178343D01*
X72731625Y-61145581D01*
X72730000Y-61112500D01*
X72730000Y-60437500D01*
X72731625Y-60404419D01*
X72736485Y-60371657D01*
X72744533Y-60339529D01*
X72755691Y-60308344D01*
X72769852Y-60278404D01*
X72786879Y-60249995D01*
X72806609Y-60223392D01*
X72828851Y-60198851D01*
X72853392Y-60176609D01*
X72879995Y-60156879D01*
X72908404Y-60139852D01*
X72938344Y-60125691D01*
X72969529Y-60114533D01*
X73001657Y-60106485D01*
X73034419Y-60101625D01*
X73067500Y-60100000D01*
X73842500Y-60100000D01*
X73875581Y-60101625D01*
X73875581Y-60101625D01*
G37*
D11*
X73455000Y-60775000D03*
D10*
G36*
X72125581Y-60101625D02*
G01*
X72158343Y-60106485D01*
X72190471Y-60114533D01*
X72221656Y-60125691D01*
X72251596Y-60139852D01*
X72280005Y-60156879D01*
X72306608Y-60176609D01*
X72331149Y-60198851D01*
X72353391Y-60223392D01*
X72373121Y-60249995D01*
X72390148Y-60278404D01*
X72404309Y-60308344D01*
X72415467Y-60339529D01*
X72423515Y-60371657D01*
X72428375Y-60404419D01*
X72430000Y-60437500D01*
X72430000Y-61112500D01*
X72428375Y-61145581D01*
X72423515Y-61178343D01*
X72415467Y-61210471D01*
X72404309Y-61241656D01*
X72390148Y-61271596D01*
X72373121Y-61300005D01*
X72353391Y-61326608D01*
X72331149Y-61351149D01*
X72306608Y-61373391D01*
X72280005Y-61393121D01*
X72251596Y-61410148D01*
X72221656Y-61424309D01*
X72190471Y-61435467D01*
X72158343Y-61443515D01*
X72125581Y-61448375D01*
X72092500Y-61450000D01*
X71317500Y-61450000D01*
X71284419Y-61448375D01*
X71251657Y-61443515D01*
X71219529Y-61435467D01*
X71188344Y-61424309D01*
X71158404Y-61410148D01*
X71129995Y-61393121D01*
X71103392Y-61373391D01*
X71078851Y-61351149D01*
X71056609Y-61326608D01*
X71036879Y-61300005D01*
X71019852Y-61271596D01*
X71005691Y-61241656D01*
X70994533Y-61210471D01*
X70986485Y-61178343D01*
X70981625Y-61145581D01*
X70980000Y-61112500D01*
X70980000Y-60437500D01*
X70981625Y-60404419D01*
X70986485Y-60371657D01*
X70994533Y-60339529D01*
X71005691Y-60308344D01*
X71019852Y-60278404D01*
X71036879Y-60249995D01*
X71056609Y-60223392D01*
X71078851Y-60198851D01*
X71103392Y-60176609D01*
X71129995Y-60156879D01*
X71158404Y-60139852D01*
X71188344Y-60125691D01*
X71219529Y-60114533D01*
X71251657Y-60106485D01*
X71284419Y-60101625D01*
X71317500Y-60100000D01*
X72092500Y-60100000D01*
X72125581Y-60101625D01*
X72125581Y-60101625D01*
G37*
D11*
X71705000Y-60775000D03*
D10*
G36*
X95195581Y-41976625D02*
G01*
X95228343Y-41981485D01*
X95260471Y-41989533D01*
X95291656Y-42000691D01*
X95321596Y-42014852D01*
X95350005Y-42031879D01*
X95376608Y-42051609D01*
X95401149Y-42073851D01*
X95423391Y-42098392D01*
X95443121Y-42124995D01*
X95460148Y-42153404D01*
X95474309Y-42183344D01*
X95485467Y-42214529D01*
X95493515Y-42246657D01*
X95498375Y-42279419D01*
X95500000Y-42312500D01*
X95500000Y-43087500D01*
X95498375Y-43120581D01*
X95493515Y-43153343D01*
X95485467Y-43185471D01*
X95474309Y-43216656D01*
X95460148Y-43246596D01*
X95443121Y-43275005D01*
X95423391Y-43301608D01*
X95401149Y-43326149D01*
X95376608Y-43348391D01*
X95350005Y-43368121D01*
X95321596Y-43385148D01*
X95291656Y-43399309D01*
X95260471Y-43410467D01*
X95228343Y-43418515D01*
X95195581Y-43423375D01*
X95162500Y-43425000D01*
X94487500Y-43425000D01*
X94454419Y-43423375D01*
X94421657Y-43418515D01*
X94389529Y-43410467D01*
X94358344Y-43399309D01*
X94328404Y-43385148D01*
X94299995Y-43368121D01*
X94273392Y-43348391D01*
X94248851Y-43326149D01*
X94226609Y-43301608D01*
X94206879Y-43275005D01*
X94189852Y-43246596D01*
X94175691Y-43216656D01*
X94164533Y-43185471D01*
X94156485Y-43153343D01*
X94151625Y-43120581D01*
X94150000Y-43087500D01*
X94150000Y-42312500D01*
X94151625Y-42279419D01*
X94156485Y-42246657D01*
X94164533Y-42214529D01*
X94175691Y-42183344D01*
X94189852Y-42153404D01*
X94206879Y-42124995D01*
X94226609Y-42098392D01*
X94248851Y-42073851D01*
X94273392Y-42051609D01*
X94299995Y-42031879D01*
X94328404Y-42014852D01*
X94358344Y-42000691D01*
X94389529Y-41989533D01*
X94421657Y-41981485D01*
X94454419Y-41976625D01*
X94487500Y-41975000D01*
X95162500Y-41975000D01*
X95195581Y-41976625D01*
X95195581Y-41976625D01*
G37*
D11*
X94825000Y-42700000D03*
D10*
G36*
X95195581Y-40226625D02*
G01*
X95228343Y-40231485D01*
X95260471Y-40239533D01*
X95291656Y-40250691D01*
X95321596Y-40264852D01*
X95350005Y-40281879D01*
X95376608Y-40301609D01*
X95401149Y-40323851D01*
X95423391Y-40348392D01*
X95443121Y-40374995D01*
X95460148Y-40403404D01*
X95474309Y-40433344D01*
X95485467Y-40464529D01*
X95493515Y-40496657D01*
X95498375Y-40529419D01*
X95500000Y-40562500D01*
X95500000Y-41337500D01*
X95498375Y-41370581D01*
X95493515Y-41403343D01*
X95485467Y-41435471D01*
X95474309Y-41466656D01*
X95460148Y-41496596D01*
X95443121Y-41525005D01*
X95423391Y-41551608D01*
X95401149Y-41576149D01*
X95376608Y-41598391D01*
X95350005Y-41618121D01*
X95321596Y-41635148D01*
X95291656Y-41649309D01*
X95260471Y-41660467D01*
X95228343Y-41668515D01*
X95195581Y-41673375D01*
X95162500Y-41675000D01*
X94487500Y-41675000D01*
X94454419Y-41673375D01*
X94421657Y-41668515D01*
X94389529Y-41660467D01*
X94358344Y-41649309D01*
X94328404Y-41635148D01*
X94299995Y-41618121D01*
X94273392Y-41598391D01*
X94248851Y-41576149D01*
X94226609Y-41551608D01*
X94206879Y-41525005D01*
X94189852Y-41496596D01*
X94175691Y-41466656D01*
X94164533Y-41435471D01*
X94156485Y-41403343D01*
X94151625Y-41370581D01*
X94150000Y-41337500D01*
X94150000Y-40562500D01*
X94151625Y-40529419D01*
X94156485Y-40496657D01*
X94164533Y-40464529D01*
X94175691Y-40433344D01*
X94189852Y-40403404D01*
X94206879Y-40374995D01*
X94226609Y-40348392D01*
X94248851Y-40323851D01*
X94273392Y-40301609D01*
X94299995Y-40281879D01*
X94328404Y-40264852D01*
X94358344Y-40250691D01*
X94389529Y-40239533D01*
X94421657Y-40231485D01*
X94454419Y-40226625D01*
X94487500Y-40225000D01*
X95162500Y-40225000D01*
X95195581Y-40226625D01*
X95195581Y-40226625D01*
G37*
D11*
X94825000Y-40950000D03*
D10*
G36*
X67695581Y-51826625D02*
G01*
X67728343Y-51831485D01*
X67760471Y-51839533D01*
X67791656Y-51850691D01*
X67821596Y-51864852D01*
X67850005Y-51881879D01*
X67876608Y-51901609D01*
X67901149Y-51923851D01*
X67923391Y-51948392D01*
X67943121Y-51974995D01*
X67960148Y-52003404D01*
X67974309Y-52033344D01*
X67985467Y-52064529D01*
X67993515Y-52096657D01*
X67998375Y-52129419D01*
X68000000Y-52162500D01*
X68000000Y-52837500D01*
X67998375Y-52870581D01*
X67993515Y-52903343D01*
X67985467Y-52935471D01*
X67974309Y-52966656D01*
X67960148Y-52996596D01*
X67943121Y-53025005D01*
X67923391Y-53051608D01*
X67901149Y-53076149D01*
X67876608Y-53098391D01*
X67850005Y-53118121D01*
X67821596Y-53135148D01*
X67791656Y-53149309D01*
X67760471Y-53160467D01*
X67728343Y-53168515D01*
X67695581Y-53173375D01*
X67662500Y-53175000D01*
X66887500Y-53175000D01*
X66854419Y-53173375D01*
X66821657Y-53168515D01*
X66789529Y-53160467D01*
X66758344Y-53149309D01*
X66728404Y-53135148D01*
X66699995Y-53118121D01*
X66673392Y-53098391D01*
X66648851Y-53076149D01*
X66626609Y-53051608D01*
X66606879Y-53025005D01*
X66589852Y-52996596D01*
X66575691Y-52966656D01*
X66564533Y-52935471D01*
X66556485Y-52903343D01*
X66551625Y-52870581D01*
X66550000Y-52837500D01*
X66550000Y-52162500D01*
X66551625Y-52129419D01*
X66556485Y-52096657D01*
X66564533Y-52064529D01*
X66575691Y-52033344D01*
X66589852Y-52003404D01*
X66606879Y-51974995D01*
X66626609Y-51948392D01*
X66648851Y-51923851D01*
X66673392Y-51901609D01*
X66699995Y-51881879D01*
X66728404Y-51864852D01*
X66758344Y-51850691D01*
X66789529Y-51839533D01*
X66821657Y-51831485D01*
X66854419Y-51826625D01*
X66887500Y-51825000D01*
X67662500Y-51825000D01*
X67695581Y-51826625D01*
X67695581Y-51826625D01*
G37*
D11*
X67275000Y-52500000D03*
D10*
G36*
X69445581Y-51826625D02*
G01*
X69478343Y-51831485D01*
X69510471Y-51839533D01*
X69541656Y-51850691D01*
X69571596Y-51864852D01*
X69600005Y-51881879D01*
X69626608Y-51901609D01*
X69651149Y-51923851D01*
X69673391Y-51948392D01*
X69693121Y-51974995D01*
X69710148Y-52003404D01*
X69724309Y-52033344D01*
X69735467Y-52064529D01*
X69743515Y-52096657D01*
X69748375Y-52129419D01*
X69750000Y-52162500D01*
X69750000Y-52837500D01*
X69748375Y-52870581D01*
X69743515Y-52903343D01*
X69735467Y-52935471D01*
X69724309Y-52966656D01*
X69710148Y-52996596D01*
X69693121Y-53025005D01*
X69673391Y-53051608D01*
X69651149Y-53076149D01*
X69626608Y-53098391D01*
X69600005Y-53118121D01*
X69571596Y-53135148D01*
X69541656Y-53149309D01*
X69510471Y-53160467D01*
X69478343Y-53168515D01*
X69445581Y-53173375D01*
X69412500Y-53175000D01*
X68637500Y-53175000D01*
X68604419Y-53173375D01*
X68571657Y-53168515D01*
X68539529Y-53160467D01*
X68508344Y-53149309D01*
X68478404Y-53135148D01*
X68449995Y-53118121D01*
X68423392Y-53098391D01*
X68398851Y-53076149D01*
X68376609Y-53051608D01*
X68356879Y-53025005D01*
X68339852Y-52996596D01*
X68325691Y-52966656D01*
X68314533Y-52935471D01*
X68306485Y-52903343D01*
X68301625Y-52870581D01*
X68300000Y-52837500D01*
X68300000Y-52162500D01*
X68301625Y-52129419D01*
X68306485Y-52096657D01*
X68314533Y-52064529D01*
X68325691Y-52033344D01*
X68339852Y-52003404D01*
X68356879Y-51974995D01*
X68376609Y-51948392D01*
X68398851Y-51923851D01*
X68423392Y-51901609D01*
X68449995Y-51881879D01*
X68478404Y-51864852D01*
X68508344Y-51850691D01*
X68539529Y-51839533D01*
X68571657Y-51831485D01*
X68604419Y-51826625D01*
X68637500Y-51825000D01*
X69412500Y-51825000D01*
X69445581Y-51826625D01*
X69445581Y-51826625D01*
G37*
D11*
X69025000Y-52500000D03*
D10*
G36*
X76920581Y-62826625D02*
G01*
X76953343Y-62831485D01*
X76985471Y-62839533D01*
X77016656Y-62850691D01*
X77046596Y-62864852D01*
X77075005Y-62881879D01*
X77101608Y-62901609D01*
X77126149Y-62923851D01*
X77148391Y-62948392D01*
X77168121Y-62974995D01*
X77185148Y-63003404D01*
X77199309Y-63033344D01*
X77210467Y-63064529D01*
X77218515Y-63096657D01*
X77223375Y-63129419D01*
X77225000Y-63162500D01*
X77225000Y-63937500D01*
X77223375Y-63970581D01*
X77218515Y-64003343D01*
X77210467Y-64035471D01*
X77199309Y-64066656D01*
X77185148Y-64096596D01*
X77168121Y-64125005D01*
X77148391Y-64151608D01*
X77126149Y-64176149D01*
X77101608Y-64198391D01*
X77075005Y-64218121D01*
X77046596Y-64235148D01*
X77016656Y-64249309D01*
X76985471Y-64260467D01*
X76953343Y-64268515D01*
X76920581Y-64273375D01*
X76887500Y-64275000D01*
X76212500Y-64275000D01*
X76179419Y-64273375D01*
X76146657Y-64268515D01*
X76114529Y-64260467D01*
X76083344Y-64249309D01*
X76053404Y-64235148D01*
X76024995Y-64218121D01*
X75998392Y-64198391D01*
X75973851Y-64176149D01*
X75951609Y-64151608D01*
X75931879Y-64125005D01*
X75914852Y-64096596D01*
X75900691Y-64066656D01*
X75889533Y-64035471D01*
X75881485Y-64003343D01*
X75876625Y-63970581D01*
X75875000Y-63937500D01*
X75875000Y-63162500D01*
X75876625Y-63129419D01*
X75881485Y-63096657D01*
X75889533Y-63064529D01*
X75900691Y-63033344D01*
X75914852Y-63003404D01*
X75931879Y-62974995D01*
X75951609Y-62948392D01*
X75973851Y-62923851D01*
X75998392Y-62901609D01*
X76024995Y-62881879D01*
X76053404Y-62864852D01*
X76083344Y-62850691D01*
X76114529Y-62839533D01*
X76146657Y-62831485D01*
X76179419Y-62826625D01*
X76212500Y-62825000D01*
X76887500Y-62825000D01*
X76920581Y-62826625D01*
X76920581Y-62826625D01*
G37*
D11*
X76550000Y-63550000D03*
D10*
G36*
X76920581Y-61076625D02*
G01*
X76953343Y-61081485D01*
X76985471Y-61089533D01*
X77016656Y-61100691D01*
X77046596Y-61114852D01*
X77075005Y-61131879D01*
X77101608Y-61151609D01*
X77126149Y-61173851D01*
X77148391Y-61198392D01*
X77168121Y-61224995D01*
X77185148Y-61253404D01*
X77199309Y-61283344D01*
X77210467Y-61314529D01*
X77218515Y-61346657D01*
X77223375Y-61379419D01*
X77225000Y-61412500D01*
X77225000Y-62187500D01*
X77223375Y-62220581D01*
X77218515Y-62253343D01*
X77210467Y-62285471D01*
X77199309Y-62316656D01*
X77185148Y-62346596D01*
X77168121Y-62375005D01*
X77148391Y-62401608D01*
X77126149Y-62426149D01*
X77101608Y-62448391D01*
X77075005Y-62468121D01*
X77046596Y-62485148D01*
X77016656Y-62499309D01*
X76985471Y-62510467D01*
X76953343Y-62518515D01*
X76920581Y-62523375D01*
X76887500Y-62525000D01*
X76212500Y-62525000D01*
X76179419Y-62523375D01*
X76146657Y-62518515D01*
X76114529Y-62510467D01*
X76083344Y-62499309D01*
X76053404Y-62485148D01*
X76024995Y-62468121D01*
X75998392Y-62448391D01*
X75973851Y-62426149D01*
X75951609Y-62401608D01*
X75931879Y-62375005D01*
X75914852Y-62346596D01*
X75900691Y-62316656D01*
X75889533Y-62285471D01*
X75881485Y-62253343D01*
X75876625Y-62220581D01*
X75875000Y-62187500D01*
X75875000Y-61412500D01*
X75876625Y-61379419D01*
X75881485Y-61346657D01*
X75889533Y-61314529D01*
X75900691Y-61283344D01*
X75914852Y-61253404D01*
X75931879Y-61224995D01*
X75951609Y-61198392D01*
X75973851Y-61173851D01*
X75998392Y-61151609D01*
X76024995Y-61131879D01*
X76053404Y-61114852D01*
X76083344Y-61100691D01*
X76114529Y-61089533D01*
X76146657Y-61081485D01*
X76179419Y-61076625D01*
X76212500Y-61075000D01*
X76887500Y-61075000D01*
X76920581Y-61076625D01*
X76920581Y-61076625D01*
G37*
D11*
X76550000Y-61800000D03*
D23*
X37400000Y-58075000D03*
X95400000Y-58075000D03*
D22*
X87395000Y-70525000D03*
X86745000Y-70525000D03*
X86095000Y-70525000D03*
X85445000Y-70525000D03*
X84795000Y-70525000D03*
X84145000Y-70525000D03*
X83495000Y-70525000D03*
X82845000Y-70525000D03*
X82195000Y-70525000D03*
X81545000Y-70525000D03*
X80895000Y-70525000D03*
X80245000Y-70525000D03*
X79595000Y-70525000D03*
X78945000Y-70525000D03*
X78945000Y-63325000D03*
X79595000Y-63325000D03*
X80245000Y-63325000D03*
X80895000Y-63325000D03*
X81545000Y-63325000D03*
X82195000Y-63325000D03*
X82845000Y-63325000D03*
X83495000Y-63325000D03*
X84145000Y-63325000D03*
X84795000Y-63325000D03*
X85445000Y-63325000D03*
X86095000Y-63325000D03*
X86745000Y-63325000D03*
X87395000Y-63325000D03*
D10*
G36*
X61596071Y-54526623D02*
G01*
X61628781Y-54531475D01*
X61660857Y-54539509D01*
X61691991Y-54550649D01*
X61721884Y-54564787D01*
X61750247Y-54581787D01*
X61776807Y-54601485D01*
X61801308Y-54623692D01*
X61823515Y-54648193D01*
X61843213Y-54674753D01*
X61860213Y-54703116D01*
X61874351Y-54733009D01*
X61885491Y-54764143D01*
X61893525Y-54796219D01*
X61898377Y-54828929D01*
X61900000Y-54861956D01*
X61900000Y-55738044D01*
X61898377Y-55771071D01*
X61893525Y-55803781D01*
X61885491Y-55835857D01*
X61874351Y-55866991D01*
X61860213Y-55896884D01*
X61843213Y-55925247D01*
X61823515Y-55951807D01*
X61801308Y-55976308D01*
X61776807Y-55998515D01*
X61750247Y-56018213D01*
X61721884Y-56035213D01*
X61691991Y-56049351D01*
X61660857Y-56060491D01*
X61628781Y-56068525D01*
X61596071Y-56073377D01*
X61563044Y-56075000D01*
X60436956Y-56075000D01*
X60403929Y-56073377D01*
X60371219Y-56068525D01*
X60339143Y-56060491D01*
X60308009Y-56049351D01*
X60278116Y-56035213D01*
X60249753Y-56018213D01*
X60223193Y-55998515D01*
X60198692Y-55976308D01*
X60176485Y-55951807D01*
X60156787Y-55925247D01*
X60139787Y-55896884D01*
X60125649Y-55866991D01*
X60114509Y-55835857D01*
X60106475Y-55803781D01*
X60101623Y-55771071D01*
X60100000Y-55738044D01*
X60100000Y-54861956D01*
X60101623Y-54828929D01*
X60106475Y-54796219D01*
X60114509Y-54764143D01*
X60125649Y-54733009D01*
X60139787Y-54703116D01*
X60156787Y-54674753D01*
X60176485Y-54648193D01*
X60198692Y-54623692D01*
X60223193Y-54601485D01*
X60249753Y-54581787D01*
X60278116Y-54564787D01*
X60308009Y-54550649D01*
X60339143Y-54539509D01*
X60371219Y-54531475D01*
X60403929Y-54526623D01*
X60436956Y-54525000D01*
X61563044Y-54525000D01*
X61596071Y-54526623D01*
X61596071Y-54526623D01*
G37*
D24*
X61000000Y-55300000D03*
D10*
G36*
X61596071Y-52476623D02*
G01*
X61628781Y-52481475D01*
X61660857Y-52489509D01*
X61691991Y-52500649D01*
X61721884Y-52514787D01*
X61750247Y-52531787D01*
X61776807Y-52551485D01*
X61801308Y-52573692D01*
X61823515Y-52598193D01*
X61843213Y-52624753D01*
X61860213Y-52653116D01*
X61874351Y-52683009D01*
X61885491Y-52714143D01*
X61893525Y-52746219D01*
X61898377Y-52778929D01*
X61900000Y-52811956D01*
X61900000Y-53688044D01*
X61898377Y-53721071D01*
X61893525Y-53753781D01*
X61885491Y-53785857D01*
X61874351Y-53816991D01*
X61860213Y-53846884D01*
X61843213Y-53875247D01*
X61823515Y-53901807D01*
X61801308Y-53926308D01*
X61776807Y-53948515D01*
X61750247Y-53968213D01*
X61721884Y-53985213D01*
X61691991Y-53999351D01*
X61660857Y-54010491D01*
X61628781Y-54018525D01*
X61596071Y-54023377D01*
X61563044Y-54025000D01*
X60436956Y-54025000D01*
X60403929Y-54023377D01*
X60371219Y-54018525D01*
X60339143Y-54010491D01*
X60308009Y-53999351D01*
X60278116Y-53985213D01*
X60249753Y-53968213D01*
X60223193Y-53948515D01*
X60198692Y-53926308D01*
X60176485Y-53901807D01*
X60156787Y-53875247D01*
X60139787Y-53846884D01*
X60125649Y-53816991D01*
X60114509Y-53785857D01*
X60106475Y-53753781D01*
X60101623Y-53721071D01*
X60100000Y-53688044D01*
X60100000Y-52811956D01*
X60101623Y-52778929D01*
X60106475Y-52746219D01*
X60114509Y-52714143D01*
X60125649Y-52683009D01*
X60139787Y-52653116D01*
X60156787Y-52624753D01*
X60176485Y-52598193D01*
X60198692Y-52573692D01*
X60223193Y-52551485D01*
X60249753Y-52531787D01*
X60278116Y-52514787D01*
X60308009Y-52500649D01*
X60339143Y-52489509D01*
X60371219Y-52481475D01*
X60403929Y-52476623D01*
X60436956Y-52475000D01*
X61563044Y-52475000D01*
X61596071Y-52476623D01*
X61596071Y-52476623D01*
G37*
D24*
X61000000Y-53250000D03*
D10*
G36*
X58770581Y-54426625D02*
G01*
X58803343Y-54431485D01*
X58835471Y-54439533D01*
X58866656Y-54450691D01*
X58896596Y-54464852D01*
X58925005Y-54481879D01*
X58951608Y-54501609D01*
X58976149Y-54523851D01*
X58998391Y-54548392D01*
X59018121Y-54574995D01*
X59035148Y-54603404D01*
X59049309Y-54633344D01*
X59060467Y-54664529D01*
X59068515Y-54696657D01*
X59073375Y-54729419D01*
X59075000Y-54762500D01*
X59075000Y-55537500D01*
X59073375Y-55570581D01*
X59068515Y-55603343D01*
X59060467Y-55635471D01*
X59049309Y-55666656D01*
X59035148Y-55696596D01*
X59018121Y-55725005D01*
X58998391Y-55751608D01*
X58976149Y-55776149D01*
X58951608Y-55798391D01*
X58925005Y-55818121D01*
X58896596Y-55835148D01*
X58866656Y-55849309D01*
X58835471Y-55860467D01*
X58803343Y-55868515D01*
X58770581Y-55873375D01*
X58737500Y-55875000D01*
X58062500Y-55875000D01*
X58029419Y-55873375D01*
X57996657Y-55868515D01*
X57964529Y-55860467D01*
X57933344Y-55849309D01*
X57903404Y-55835148D01*
X57874995Y-55818121D01*
X57848392Y-55798391D01*
X57823851Y-55776149D01*
X57801609Y-55751608D01*
X57781879Y-55725005D01*
X57764852Y-55696596D01*
X57750691Y-55666656D01*
X57739533Y-55635471D01*
X57731485Y-55603343D01*
X57726625Y-55570581D01*
X57725000Y-55537500D01*
X57725000Y-54762500D01*
X57726625Y-54729419D01*
X57731485Y-54696657D01*
X57739533Y-54664529D01*
X57750691Y-54633344D01*
X57764852Y-54603404D01*
X57781879Y-54574995D01*
X57801609Y-54548392D01*
X57823851Y-54523851D01*
X57848392Y-54501609D01*
X57874995Y-54481879D01*
X57903404Y-54464852D01*
X57933344Y-54450691D01*
X57964529Y-54439533D01*
X57996657Y-54431485D01*
X58029419Y-54426625D01*
X58062500Y-54425000D01*
X58737500Y-54425000D01*
X58770581Y-54426625D01*
X58770581Y-54426625D01*
G37*
D11*
X58400000Y-55150000D03*
D10*
G36*
X58770581Y-52676625D02*
G01*
X58803343Y-52681485D01*
X58835471Y-52689533D01*
X58866656Y-52700691D01*
X58896596Y-52714852D01*
X58925005Y-52731879D01*
X58951608Y-52751609D01*
X58976149Y-52773851D01*
X58998391Y-52798392D01*
X59018121Y-52824995D01*
X59035148Y-52853404D01*
X59049309Y-52883344D01*
X59060467Y-52914529D01*
X59068515Y-52946657D01*
X59073375Y-52979419D01*
X59075000Y-53012500D01*
X59075000Y-53787500D01*
X59073375Y-53820581D01*
X59068515Y-53853343D01*
X59060467Y-53885471D01*
X59049309Y-53916656D01*
X59035148Y-53946596D01*
X59018121Y-53975005D01*
X58998391Y-54001608D01*
X58976149Y-54026149D01*
X58951608Y-54048391D01*
X58925005Y-54068121D01*
X58896596Y-54085148D01*
X58866656Y-54099309D01*
X58835471Y-54110467D01*
X58803343Y-54118515D01*
X58770581Y-54123375D01*
X58737500Y-54125000D01*
X58062500Y-54125000D01*
X58029419Y-54123375D01*
X57996657Y-54118515D01*
X57964529Y-54110467D01*
X57933344Y-54099309D01*
X57903404Y-54085148D01*
X57874995Y-54068121D01*
X57848392Y-54048391D01*
X57823851Y-54026149D01*
X57801609Y-54001608D01*
X57781879Y-53975005D01*
X57764852Y-53946596D01*
X57750691Y-53916656D01*
X57739533Y-53885471D01*
X57731485Y-53853343D01*
X57726625Y-53820581D01*
X57725000Y-53787500D01*
X57725000Y-53012500D01*
X57726625Y-52979419D01*
X57731485Y-52946657D01*
X57739533Y-52914529D01*
X57750691Y-52883344D01*
X57764852Y-52853404D01*
X57781879Y-52824995D01*
X57801609Y-52798392D01*
X57823851Y-52773851D01*
X57848392Y-52751609D01*
X57874995Y-52731879D01*
X57903404Y-52714852D01*
X57933344Y-52700691D01*
X57964529Y-52689533D01*
X57996657Y-52681485D01*
X58029419Y-52676625D01*
X58062500Y-52675000D01*
X58737500Y-52675000D01*
X58770581Y-52676625D01*
X58770581Y-52676625D01*
G37*
D11*
X58400000Y-53400000D03*
D10*
G36*
X48170581Y-50776625D02*
G01*
X48203343Y-50781485D01*
X48235471Y-50789533D01*
X48266656Y-50800691D01*
X48296596Y-50814852D01*
X48325005Y-50831879D01*
X48351608Y-50851609D01*
X48376149Y-50873851D01*
X48398391Y-50898392D01*
X48418121Y-50924995D01*
X48435148Y-50953404D01*
X48449309Y-50983344D01*
X48460467Y-51014529D01*
X48468515Y-51046657D01*
X48473375Y-51079419D01*
X48475000Y-51112500D01*
X48475000Y-51887500D01*
X48473375Y-51920581D01*
X48468515Y-51953343D01*
X48460467Y-51985471D01*
X48449309Y-52016656D01*
X48435148Y-52046596D01*
X48418121Y-52075005D01*
X48398391Y-52101608D01*
X48376149Y-52126149D01*
X48351608Y-52148391D01*
X48325005Y-52168121D01*
X48296596Y-52185148D01*
X48266656Y-52199309D01*
X48235471Y-52210467D01*
X48203343Y-52218515D01*
X48170581Y-52223375D01*
X48137500Y-52225000D01*
X47462500Y-52225000D01*
X47429419Y-52223375D01*
X47396657Y-52218515D01*
X47364529Y-52210467D01*
X47333344Y-52199309D01*
X47303404Y-52185148D01*
X47274995Y-52168121D01*
X47248392Y-52148391D01*
X47223851Y-52126149D01*
X47201609Y-52101608D01*
X47181879Y-52075005D01*
X47164852Y-52046596D01*
X47150691Y-52016656D01*
X47139533Y-51985471D01*
X47131485Y-51953343D01*
X47126625Y-51920581D01*
X47125000Y-51887500D01*
X47125000Y-51112500D01*
X47126625Y-51079419D01*
X47131485Y-51046657D01*
X47139533Y-51014529D01*
X47150691Y-50983344D01*
X47164852Y-50953404D01*
X47181879Y-50924995D01*
X47201609Y-50898392D01*
X47223851Y-50873851D01*
X47248392Y-50851609D01*
X47274995Y-50831879D01*
X47303404Y-50814852D01*
X47333344Y-50800691D01*
X47364529Y-50789533D01*
X47396657Y-50781485D01*
X47429419Y-50776625D01*
X47462500Y-50775000D01*
X48137500Y-50775000D01*
X48170581Y-50776625D01*
X48170581Y-50776625D01*
G37*
D11*
X47800000Y-51500000D03*
D10*
G36*
X48170581Y-52526625D02*
G01*
X48203343Y-52531485D01*
X48235471Y-52539533D01*
X48266656Y-52550691D01*
X48296596Y-52564852D01*
X48325005Y-52581879D01*
X48351608Y-52601609D01*
X48376149Y-52623851D01*
X48398391Y-52648392D01*
X48418121Y-52674995D01*
X48435148Y-52703404D01*
X48449309Y-52733344D01*
X48460467Y-52764529D01*
X48468515Y-52796657D01*
X48473375Y-52829419D01*
X48475000Y-52862500D01*
X48475000Y-53637500D01*
X48473375Y-53670581D01*
X48468515Y-53703343D01*
X48460467Y-53735471D01*
X48449309Y-53766656D01*
X48435148Y-53796596D01*
X48418121Y-53825005D01*
X48398391Y-53851608D01*
X48376149Y-53876149D01*
X48351608Y-53898391D01*
X48325005Y-53918121D01*
X48296596Y-53935148D01*
X48266656Y-53949309D01*
X48235471Y-53960467D01*
X48203343Y-53968515D01*
X48170581Y-53973375D01*
X48137500Y-53975000D01*
X47462500Y-53975000D01*
X47429419Y-53973375D01*
X47396657Y-53968515D01*
X47364529Y-53960467D01*
X47333344Y-53949309D01*
X47303404Y-53935148D01*
X47274995Y-53918121D01*
X47248392Y-53898391D01*
X47223851Y-53876149D01*
X47201609Y-53851608D01*
X47181879Y-53825005D01*
X47164852Y-53796596D01*
X47150691Y-53766656D01*
X47139533Y-53735471D01*
X47131485Y-53703343D01*
X47126625Y-53670581D01*
X47125000Y-53637500D01*
X47125000Y-52862500D01*
X47126625Y-52829419D01*
X47131485Y-52796657D01*
X47139533Y-52764529D01*
X47150691Y-52733344D01*
X47164852Y-52703404D01*
X47181879Y-52674995D01*
X47201609Y-52648392D01*
X47223851Y-52623851D01*
X47248392Y-52601609D01*
X47274995Y-52581879D01*
X47303404Y-52564852D01*
X47333344Y-52550691D01*
X47364529Y-52539533D01*
X47396657Y-52531485D01*
X47429419Y-52526625D01*
X47462500Y-52525000D01*
X48137500Y-52525000D01*
X48170581Y-52526625D01*
X48170581Y-52526625D01*
G37*
D11*
X47800000Y-53250000D03*
D10*
G36*
X38514372Y-43226525D02*
G01*
X38545112Y-43231085D01*
X38575257Y-43238636D01*
X38604516Y-43249105D01*
X38632609Y-43262392D01*
X38659264Y-43278368D01*
X38684224Y-43296880D01*
X38707250Y-43317750D01*
X38728120Y-43340776D01*
X38746632Y-43365736D01*
X38762608Y-43392391D01*
X38775895Y-43420484D01*
X38786364Y-43449743D01*
X38793915Y-43479888D01*
X38798475Y-43510628D01*
X38800000Y-43541667D01*
X38800000Y-44808333D01*
X38798475Y-44839372D01*
X38793915Y-44870112D01*
X38786364Y-44900257D01*
X38775895Y-44929516D01*
X38762608Y-44957609D01*
X38746632Y-44984264D01*
X38728120Y-45009224D01*
X38707250Y-45032250D01*
X38684224Y-45053120D01*
X38659264Y-45071632D01*
X38632609Y-45087608D01*
X38604516Y-45100895D01*
X38575257Y-45111364D01*
X38545112Y-45118915D01*
X38514372Y-45123475D01*
X38483333Y-45125000D01*
X36366667Y-45125000D01*
X36335628Y-45123475D01*
X36304888Y-45118915D01*
X36274743Y-45111364D01*
X36245484Y-45100895D01*
X36217391Y-45087608D01*
X36190736Y-45071632D01*
X36165776Y-45053120D01*
X36142750Y-45032250D01*
X36121880Y-45009224D01*
X36103368Y-44984264D01*
X36087392Y-44957609D01*
X36074105Y-44929516D01*
X36063636Y-44900257D01*
X36056085Y-44870112D01*
X36051525Y-44839372D01*
X36050000Y-44808333D01*
X36050000Y-43541667D01*
X36051525Y-43510628D01*
X36056085Y-43479888D01*
X36063636Y-43449743D01*
X36074105Y-43420484D01*
X36087392Y-43392391D01*
X36103368Y-43365736D01*
X36121880Y-43340776D01*
X36142750Y-43317750D01*
X36165776Y-43296880D01*
X36190736Y-43278368D01*
X36217391Y-43262392D01*
X36245484Y-43249105D01*
X36274743Y-43238636D01*
X36304888Y-43231085D01*
X36335628Y-43226525D01*
X36366667Y-43225000D01*
X38483333Y-43225000D01*
X38514372Y-43226525D01*
X38514372Y-43226525D01*
G37*
D15*
X37425000Y-44175000D03*
D10*
G36*
X38514372Y-39976525D02*
G01*
X38545112Y-39981085D01*
X38575257Y-39988636D01*
X38604516Y-39999105D01*
X38632609Y-40012392D01*
X38659264Y-40028368D01*
X38684224Y-40046880D01*
X38707250Y-40067750D01*
X38728120Y-40090776D01*
X38746632Y-40115736D01*
X38762608Y-40142391D01*
X38775895Y-40170484D01*
X38786364Y-40199743D01*
X38793915Y-40229888D01*
X38798475Y-40260628D01*
X38800000Y-40291667D01*
X38800000Y-41558333D01*
X38798475Y-41589372D01*
X38793915Y-41620112D01*
X38786364Y-41650257D01*
X38775895Y-41679516D01*
X38762608Y-41707609D01*
X38746632Y-41734264D01*
X38728120Y-41759224D01*
X38707250Y-41782250D01*
X38684224Y-41803120D01*
X38659264Y-41821632D01*
X38632609Y-41837608D01*
X38604516Y-41850895D01*
X38575257Y-41861364D01*
X38545112Y-41868915D01*
X38514372Y-41873475D01*
X38483333Y-41875000D01*
X36366667Y-41875000D01*
X36335628Y-41873475D01*
X36304888Y-41868915D01*
X36274743Y-41861364D01*
X36245484Y-41850895D01*
X36217391Y-41837608D01*
X36190736Y-41821632D01*
X36165776Y-41803120D01*
X36142750Y-41782250D01*
X36121880Y-41759224D01*
X36103368Y-41734264D01*
X36087392Y-41707609D01*
X36074105Y-41679516D01*
X36063636Y-41650257D01*
X36056085Y-41620112D01*
X36051525Y-41589372D01*
X36050000Y-41558333D01*
X36050000Y-40291667D01*
X36051525Y-40260628D01*
X36056085Y-40229888D01*
X36063636Y-40199743D01*
X36074105Y-40170484D01*
X36087392Y-40142391D01*
X36103368Y-40115736D01*
X36121880Y-40090776D01*
X36142750Y-40067750D01*
X36165776Y-40046880D01*
X36190736Y-40028368D01*
X36217391Y-40012392D01*
X36245484Y-39999105D01*
X36274743Y-39988636D01*
X36304888Y-39981085D01*
X36335628Y-39976525D01*
X36366667Y-39975000D01*
X38483333Y-39975000D01*
X38514372Y-39976525D01*
X38514372Y-39976525D01*
G37*
D15*
X37425000Y-40925000D03*
D10*
G36*
X36666071Y-46126623D02*
G01*
X36698781Y-46131475D01*
X36730857Y-46139509D01*
X36761991Y-46150649D01*
X36791884Y-46164787D01*
X36820247Y-46181787D01*
X36846807Y-46201485D01*
X36871308Y-46223692D01*
X36893515Y-46248193D01*
X36913213Y-46274753D01*
X36930213Y-46303116D01*
X36944351Y-46333009D01*
X36955491Y-46364143D01*
X36963525Y-46396219D01*
X36968377Y-46428929D01*
X36970000Y-46461956D01*
X36970000Y-47588044D01*
X36968377Y-47621071D01*
X36963525Y-47653781D01*
X36955491Y-47685857D01*
X36944351Y-47716991D01*
X36930213Y-47746884D01*
X36913213Y-47775247D01*
X36893515Y-47801807D01*
X36871308Y-47826308D01*
X36846807Y-47848515D01*
X36820247Y-47868213D01*
X36791884Y-47885213D01*
X36761991Y-47899351D01*
X36730857Y-47910491D01*
X36698781Y-47918525D01*
X36666071Y-47923377D01*
X36633044Y-47925000D01*
X35756956Y-47925000D01*
X35723929Y-47923377D01*
X35691219Y-47918525D01*
X35659143Y-47910491D01*
X35628009Y-47899351D01*
X35598116Y-47885213D01*
X35569753Y-47868213D01*
X35543193Y-47848515D01*
X35518692Y-47826308D01*
X35496485Y-47801807D01*
X35476787Y-47775247D01*
X35459787Y-47746884D01*
X35445649Y-47716991D01*
X35434509Y-47685857D01*
X35426475Y-47653781D01*
X35421623Y-47621071D01*
X35420000Y-47588044D01*
X35420000Y-46461956D01*
X35421623Y-46428929D01*
X35426475Y-46396219D01*
X35434509Y-46364143D01*
X35445649Y-46333009D01*
X35459787Y-46303116D01*
X35476787Y-46274753D01*
X35496485Y-46248193D01*
X35518692Y-46223692D01*
X35543193Y-46201485D01*
X35569753Y-46181787D01*
X35598116Y-46164787D01*
X35628009Y-46150649D01*
X35659143Y-46139509D01*
X35691219Y-46131475D01*
X35723929Y-46126623D01*
X35756956Y-46125000D01*
X36633044Y-46125000D01*
X36666071Y-46126623D01*
X36666071Y-46126623D01*
G37*
D24*
X36195000Y-47025000D03*
D10*
G36*
X38716071Y-46126623D02*
G01*
X38748781Y-46131475D01*
X38780857Y-46139509D01*
X38811991Y-46150649D01*
X38841884Y-46164787D01*
X38870247Y-46181787D01*
X38896807Y-46201485D01*
X38921308Y-46223692D01*
X38943515Y-46248193D01*
X38963213Y-46274753D01*
X38980213Y-46303116D01*
X38994351Y-46333009D01*
X39005491Y-46364143D01*
X39013525Y-46396219D01*
X39018377Y-46428929D01*
X39020000Y-46461956D01*
X39020000Y-47588044D01*
X39018377Y-47621071D01*
X39013525Y-47653781D01*
X39005491Y-47685857D01*
X38994351Y-47716991D01*
X38980213Y-47746884D01*
X38963213Y-47775247D01*
X38943515Y-47801807D01*
X38921308Y-47826308D01*
X38896807Y-47848515D01*
X38870247Y-47868213D01*
X38841884Y-47885213D01*
X38811991Y-47899351D01*
X38780857Y-47910491D01*
X38748781Y-47918525D01*
X38716071Y-47923377D01*
X38683044Y-47925000D01*
X37806956Y-47925000D01*
X37773929Y-47923377D01*
X37741219Y-47918525D01*
X37709143Y-47910491D01*
X37678009Y-47899351D01*
X37648116Y-47885213D01*
X37619753Y-47868213D01*
X37593193Y-47848515D01*
X37568692Y-47826308D01*
X37546485Y-47801807D01*
X37526787Y-47775247D01*
X37509787Y-47746884D01*
X37495649Y-47716991D01*
X37484509Y-47685857D01*
X37476475Y-47653781D01*
X37471623Y-47621071D01*
X37470000Y-47588044D01*
X37470000Y-46461956D01*
X37471623Y-46428929D01*
X37476475Y-46396219D01*
X37484509Y-46364143D01*
X37495649Y-46333009D01*
X37509787Y-46303116D01*
X37526787Y-46274753D01*
X37546485Y-46248193D01*
X37568692Y-46223692D01*
X37593193Y-46201485D01*
X37619753Y-46181787D01*
X37648116Y-46164787D01*
X37678009Y-46150649D01*
X37709143Y-46139509D01*
X37741219Y-46131475D01*
X37773929Y-46126623D01*
X37806956Y-46125000D01*
X38683044Y-46125000D01*
X38716071Y-46126623D01*
X38716071Y-46126623D01*
G37*
D24*
X38245000Y-47025000D03*
D10*
G36*
X57128428Y-48800782D02*
G01*
X57144202Y-48803122D01*
X57159671Y-48806997D01*
X57174686Y-48812370D01*
X57189102Y-48819188D01*
X57202780Y-48827386D01*
X57215589Y-48836886D01*
X57227405Y-48847595D01*
X57238114Y-48859411D01*
X57247614Y-48872220D01*
X57255812Y-48885898D01*
X57262630Y-48900314D01*
X57268003Y-48915329D01*
X57271878Y-48930798D01*
X57274218Y-48946572D01*
X57275000Y-48962500D01*
X57275000Y-49287500D01*
X57274218Y-49303428D01*
X57271878Y-49319202D01*
X57268003Y-49334671D01*
X57262630Y-49349686D01*
X57255812Y-49364102D01*
X57247614Y-49377780D01*
X57238114Y-49390589D01*
X57227405Y-49402405D01*
X57215589Y-49413114D01*
X57202780Y-49422614D01*
X57189102Y-49430812D01*
X57174686Y-49437630D01*
X57159671Y-49443003D01*
X57144202Y-49446878D01*
X57128428Y-49449218D01*
X57112500Y-49450000D01*
X56162500Y-49450000D01*
X56146572Y-49449218D01*
X56130798Y-49446878D01*
X56115329Y-49443003D01*
X56100314Y-49437630D01*
X56085898Y-49430812D01*
X56072220Y-49422614D01*
X56059411Y-49413114D01*
X56047595Y-49402405D01*
X56036886Y-49390589D01*
X56027386Y-49377780D01*
X56019188Y-49364102D01*
X56012370Y-49349686D01*
X56006997Y-49334671D01*
X56003122Y-49319202D01*
X56000782Y-49303428D01*
X56000000Y-49287500D01*
X56000000Y-48962500D01*
X56000782Y-48946572D01*
X56003122Y-48930798D01*
X56006997Y-48915329D01*
X56012370Y-48900314D01*
X56019188Y-48885898D01*
X56027386Y-48872220D01*
X56036886Y-48859411D01*
X56047595Y-48847595D01*
X56059411Y-48836886D01*
X56072220Y-48827386D01*
X56085898Y-48819188D01*
X56100314Y-48812370D01*
X56115329Y-48806997D01*
X56130798Y-48803122D01*
X56146572Y-48800782D01*
X56162500Y-48800000D01*
X57112500Y-48800000D01*
X57128428Y-48800782D01*
X57128428Y-48800782D01*
G37*
D25*
X56637500Y-49125000D03*
D10*
G36*
X57128428Y-49300782D02*
G01*
X57144202Y-49303122D01*
X57159671Y-49306997D01*
X57174686Y-49312370D01*
X57189102Y-49319188D01*
X57202780Y-49327386D01*
X57215589Y-49336886D01*
X57227405Y-49347595D01*
X57238114Y-49359411D01*
X57247614Y-49372220D01*
X57255812Y-49385898D01*
X57262630Y-49400314D01*
X57268003Y-49415329D01*
X57271878Y-49430798D01*
X57274218Y-49446572D01*
X57275000Y-49462500D01*
X57275000Y-49787500D01*
X57274218Y-49803428D01*
X57271878Y-49819202D01*
X57268003Y-49834671D01*
X57262630Y-49849686D01*
X57255812Y-49864102D01*
X57247614Y-49877780D01*
X57238114Y-49890589D01*
X57227405Y-49902405D01*
X57215589Y-49913114D01*
X57202780Y-49922614D01*
X57189102Y-49930812D01*
X57174686Y-49937630D01*
X57159671Y-49943003D01*
X57144202Y-49946878D01*
X57128428Y-49949218D01*
X57112500Y-49950000D01*
X56162500Y-49950000D01*
X56146572Y-49949218D01*
X56130798Y-49946878D01*
X56115329Y-49943003D01*
X56100314Y-49937630D01*
X56085898Y-49930812D01*
X56072220Y-49922614D01*
X56059411Y-49913114D01*
X56047595Y-49902405D01*
X56036886Y-49890589D01*
X56027386Y-49877780D01*
X56019188Y-49864102D01*
X56012370Y-49849686D01*
X56006997Y-49834671D01*
X56003122Y-49819202D01*
X56000782Y-49803428D01*
X56000000Y-49787500D01*
X56000000Y-49462500D01*
X56000782Y-49446572D01*
X56003122Y-49430798D01*
X56006997Y-49415329D01*
X56012370Y-49400314D01*
X56019188Y-49385898D01*
X56027386Y-49372220D01*
X56036886Y-49359411D01*
X56047595Y-49347595D01*
X56059411Y-49336886D01*
X56072220Y-49327386D01*
X56085898Y-49319188D01*
X56100314Y-49312370D01*
X56115329Y-49306997D01*
X56130798Y-49303122D01*
X56146572Y-49300782D01*
X56162500Y-49300000D01*
X57112500Y-49300000D01*
X57128428Y-49300782D01*
X57128428Y-49300782D01*
G37*
D25*
X56637500Y-49625000D03*
D10*
G36*
X57128428Y-49800782D02*
G01*
X57144202Y-49803122D01*
X57159671Y-49806997D01*
X57174686Y-49812370D01*
X57189102Y-49819188D01*
X57202780Y-49827386D01*
X57215589Y-49836886D01*
X57227405Y-49847595D01*
X57238114Y-49859411D01*
X57247614Y-49872220D01*
X57255812Y-49885898D01*
X57262630Y-49900314D01*
X57268003Y-49915329D01*
X57271878Y-49930798D01*
X57274218Y-49946572D01*
X57275000Y-49962500D01*
X57275000Y-50287500D01*
X57274218Y-50303428D01*
X57271878Y-50319202D01*
X57268003Y-50334671D01*
X57262630Y-50349686D01*
X57255812Y-50364102D01*
X57247614Y-50377780D01*
X57238114Y-50390589D01*
X57227405Y-50402405D01*
X57215589Y-50413114D01*
X57202780Y-50422614D01*
X57189102Y-50430812D01*
X57174686Y-50437630D01*
X57159671Y-50443003D01*
X57144202Y-50446878D01*
X57128428Y-50449218D01*
X57112500Y-50450000D01*
X56162500Y-50450000D01*
X56146572Y-50449218D01*
X56130798Y-50446878D01*
X56115329Y-50443003D01*
X56100314Y-50437630D01*
X56085898Y-50430812D01*
X56072220Y-50422614D01*
X56059411Y-50413114D01*
X56047595Y-50402405D01*
X56036886Y-50390589D01*
X56027386Y-50377780D01*
X56019188Y-50364102D01*
X56012370Y-50349686D01*
X56006997Y-50334671D01*
X56003122Y-50319202D01*
X56000782Y-50303428D01*
X56000000Y-50287500D01*
X56000000Y-49962500D01*
X56000782Y-49946572D01*
X56003122Y-49930798D01*
X56006997Y-49915329D01*
X56012370Y-49900314D01*
X56019188Y-49885898D01*
X56027386Y-49872220D01*
X56036886Y-49859411D01*
X56047595Y-49847595D01*
X56059411Y-49836886D01*
X56072220Y-49827386D01*
X56085898Y-49819188D01*
X56100314Y-49812370D01*
X56115329Y-49806997D01*
X56130798Y-49803122D01*
X56146572Y-49800782D01*
X56162500Y-49800000D01*
X57112500Y-49800000D01*
X57128428Y-49800782D01*
X57128428Y-49800782D01*
G37*
D25*
X56637500Y-50125000D03*
D10*
G36*
X57128428Y-50300782D02*
G01*
X57144202Y-50303122D01*
X57159671Y-50306997D01*
X57174686Y-50312370D01*
X57189102Y-50319188D01*
X57202780Y-50327386D01*
X57215589Y-50336886D01*
X57227405Y-50347595D01*
X57238114Y-50359411D01*
X57247614Y-50372220D01*
X57255812Y-50385898D01*
X57262630Y-50400314D01*
X57268003Y-50415329D01*
X57271878Y-50430798D01*
X57274218Y-50446572D01*
X57275000Y-50462500D01*
X57275000Y-50787500D01*
X57274218Y-50803428D01*
X57271878Y-50819202D01*
X57268003Y-50834671D01*
X57262630Y-50849686D01*
X57255812Y-50864102D01*
X57247614Y-50877780D01*
X57238114Y-50890589D01*
X57227405Y-50902405D01*
X57215589Y-50913114D01*
X57202780Y-50922614D01*
X57189102Y-50930812D01*
X57174686Y-50937630D01*
X57159671Y-50943003D01*
X57144202Y-50946878D01*
X57128428Y-50949218D01*
X57112500Y-50950000D01*
X56162500Y-50950000D01*
X56146572Y-50949218D01*
X56130798Y-50946878D01*
X56115329Y-50943003D01*
X56100314Y-50937630D01*
X56085898Y-50930812D01*
X56072220Y-50922614D01*
X56059411Y-50913114D01*
X56047595Y-50902405D01*
X56036886Y-50890589D01*
X56027386Y-50877780D01*
X56019188Y-50864102D01*
X56012370Y-50849686D01*
X56006997Y-50834671D01*
X56003122Y-50819202D01*
X56000782Y-50803428D01*
X56000000Y-50787500D01*
X56000000Y-50462500D01*
X56000782Y-50446572D01*
X56003122Y-50430798D01*
X56006997Y-50415329D01*
X56012370Y-50400314D01*
X56019188Y-50385898D01*
X56027386Y-50372220D01*
X56036886Y-50359411D01*
X56047595Y-50347595D01*
X56059411Y-50336886D01*
X56072220Y-50327386D01*
X56085898Y-50319188D01*
X56100314Y-50312370D01*
X56115329Y-50306997D01*
X56130798Y-50303122D01*
X56146572Y-50300782D01*
X56162500Y-50300000D01*
X57112500Y-50300000D01*
X57128428Y-50300782D01*
X57128428Y-50300782D01*
G37*
D25*
X56637500Y-50625000D03*
D10*
G36*
X57128428Y-50800782D02*
G01*
X57144202Y-50803122D01*
X57159671Y-50806997D01*
X57174686Y-50812370D01*
X57189102Y-50819188D01*
X57202780Y-50827386D01*
X57215589Y-50836886D01*
X57227405Y-50847595D01*
X57238114Y-50859411D01*
X57247614Y-50872220D01*
X57255812Y-50885898D01*
X57262630Y-50900314D01*
X57268003Y-50915329D01*
X57271878Y-50930798D01*
X57274218Y-50946572D01*
X57275000Y-50962500D01*
X57275000Y-51287500D01*
X57274218Y-51303428D01*
X57271878Y-51319202D01*
X57268003Y-51334671D01*
X57262630Y-51349686D01*
X57255812Y-51364102D01*
X57247614Y-51377780D01*
X57238114Y-51390589D01*
X57227405Y-51402405D01*
X57215589Y-51413114D01*
X57202780Y-51422614D01*
X57189102Y-51430812D01*
X57174686Y-51437630D01*
X57159671Y-51443003D01*
X57144202Y-51446878D01*
X57128428Y-51449218D01*
X57112500Y-51450000D01*
X56162500Y-51450000D01*
X56146572Y-51449218D01*
X56130798Y-51446878D01*
X56115329Y-51443003D01*
X56100314Y-51437630D01*
X56085898Y-51430812D01*
X56072220Y-51422614D01*
X56059411Y-51413114D01*
X56047595Y-51402405D01*
X56036886Y-51390589D01*
X56027386Y-51377780D01*
X56019188Y-51364102D01*
X56012370Y-51349686D01*
X56006997Y-51334671D01*
X56003122Y-51319202D01*
X56000782Y-51303428D01*
X56000000Y-51287500D01*
X56000000Y-50962500D01*
X56000782Y-50946572D01*
X56003122Y-50930798D01*
X56006997Y-50915329D01*
X56012370Y-50900314D01*
X56019188Y-50885898D01*
X56027386Y-50872220D01*
X56036886Y-50859411D01*
X56047595Y-50847595D01*
X56059411Y-50836886D01*
X56072220Y-50827386D01*
X56085898Y-50819188D01*
X56100314Y-50812370D01*
X56115329Y-50806997D01*
X56130798Y-50803122D01*
X56146572Y-50800782D01*
X56162500Y-50800000D01*
X57112500Y-50800000D01*
X57128428Y-50800782D01*
X57128428Y-50800782D01*
G37*
D25*
X56637500Y-51125000D03*
D10*
G36*
X57128428Y-51300782D02*
G01*
X57144202Y-51303122D01*
X57159671Y-51306997D01*
X57174686Y-51312370D01*
X57189102Y-51319188D01*
X57202780Y-51327386D01*
X57215589Y-51336886D01*
X57227405Y-51347595D01*
X57238114Y-51359411D01*
X57247614Y-51372220D01*
X57255812Y-51385898D01*
X57262630Y-51400314D01*
X57268003Y-51415329D01*
X57271878Y-51430798D01*
X57274218Y-51446572D01*
X57275000Y-51462500D01*
X57275000Y-51787500D01*
X57274218Y-51803428D01*
X57271878Y-51819202D01*
X57268003Y-51834671D01*
X57262630Y-51849686D01*
X57255812Y-51864102D01*
X57247614Y-51877780D01*
X57238114Y-51890589D01*
X57227405Y-51902405D01*
X57215589Y-51913114D01*
X57202780Y-51922614D01*
X57189102Y-51930812D01*
X57174686Y-51937630D01*
X57159671Y-51943003D01*
X57144202Y-51946878D01*
X57128428Y-51949218D01*
X57112500Y-51950000D01*
X56162500Y-51950000D01*
X56146572Y-51949218D01*
X56130798Y-51946878D01*
X56115329Y-51943003D01*
X56100314Y-51937630D01*
X56085898Y-51930812D01*
X56072220Y-51922614D01*
X56059411Y-51913114D01*
X56047595Y-51902405D01*
X56036886Y-51890589D01*
X56027386Y-51877780D01*
X56019188Y-51864102D01*
X56012370Y-51849686D01*
X56006997Y-51834671D01*
X56003122Y-51819202D01*
X56000782Y-51803428D01*
X56000000Y-51787500D01*
X56000000Y-51462500D01*
X56000782Y-51446572D01*
X56003122Y-51430798D01*
X56006997Y-51415329D01*
X56012370Y-51400314D01*
X56019188Y-51385898D01*
X56027386Y-51372220D01*
X56036886Y-51359411D01*
X56047595Y-51347595D01*
X56059411Y-51336886D01*
X56072220Y-51327386D01*
X56085898Y-51319188D01*
X56100314Y-51312370D01*
X56115329Y-51306997D01*
X56130798Y-51303122D01*
X56146572Y-51300782D01*
X56162500Y-51300000D01*
X57112500Y-51300000D01*
X57128428Y-51300782D01*
X57128428Y-51300782D01*
G37*
D25*
X56637500Y-51625000D03*
D10*
G36*
X57128428Y-51800782D02*
G01*
X57144202Y-51803122D01*
X57159671Y-51806997D01*
X57174686Y-51812370D01*
X57189102Y-51819188D01*
X57202780Y-51827386D01*
X57215589Y-51836886D01*
X57227405Y-51847595D01*
X57238114Y-51859411D01*
X57247614Y-51872220D01*
X57255812Y-51885898D01*
X57262630Y-51900314D01*
X57268003Y-51915329D01*
X57271878Y-51930798D01*
X57274218Y-51946572D01*
X57275000Y-51962500D01*
X57275000Y-52287500D01*
X57274218Y-52303428D01*
X57271878Y-52319202D01*
X57268003Y-52334671D01*
X57262630Y-52349686D01*
X57255812Y-52364102D01*
X57247614Y-52377780D01*
X57238114Y-52390589D01*
X57227405Y-52402405D01*
X57215589Y-52413114D01*
X57202780Y-52422614D01*
X57189102Y-52430812D01*
X57174686Y-52437630D01*
X57159671Y-52443003D01*
X57144202Y-52446878D01*
X57128428Y-52449218D01*
X57112500Y-52450000D01*
X56162500Y-52450000D01*
X56146572Y-52449218D01*
X56130798Y-52446878D01*
X56115329Y-52443003D01*
X56100314Y-52437630D01*
X56085898Y-52430812D01*
X56072220Y-52422614D01*
X56059411Y-52413114D01*
X56047595Y-52402405D01*
X56036886Y-52390589D01*
X56027386Y-52377780D01*
X56019188Y-52364102D01*
X56012370Y-52349686D01*
X56006997Y-52334671D01*
X56003122Y-52319202D01*
X56000782Y-52303428D01*
X56000000Y-52287500D01*
X56000000Y-51962500D01*
X56000782Y-51946572D01*
X56003122Y-51930798D01*
X56006997Y-51915329D01*
X56012370Y-51900314D01*
X56019188Y-51885898D01*
X56027386Y-51872220D01*
X56036886Y-51859411D01*
X56047595Y-51847595D01*
X56059411Y-51836886D01*
X56072220Y-51827386D01*
X56085898Y-51819188D01*
X56100314Y-51812370D01*
X56115329Y-51806997D01*
X56130798Y-51803122D01*
X56146572Y-51800782D01*
X56162500Y-51800000D01*
X57112500Y-51800000D01*
X57128428Y-51800782D01*
X57128428Y-51800782D01*
G37*
D25*
X56637500Y-52125000D03*
D10*
G36*
X57128428Y-52300782D02*
G01*
X57144202Y-52303122D01*
X57159671Y-52306997D01*
X57174686Y-52312370D01*
X57189102Y-52319188D01*
X57202780Y-52327386D01*
X57215589Y-52336886D01*
X57227405Y-52347595D01*
X57238114Y-52359411D01*
X57247614Y-52372220D01*
X57255812Y-52385898D01*
X57262630Y-52400314D01*
X57268003Y-52415329D01*
X57271878Y-52430798D01*
X57274218Y-52446572D01*
X57275000Y-52462500D01*
X57275000Y-52787500D01*
X57274218Y-52803428D01*
X57271878Y-52819202D01*
X57268003Y-52834671D01*
X57262630Y-52849686D01*
X57255812Y-52864102D01*
X57247614Y-52877780D01*
X57238114Y-52890589D01*
X57227405Y-52902405D01*
X57215589Y-52913114D01*
X57202780Y-52922614D01*
X57189102Y-52930812D01*
X57174686Y-52937630D01*
X57159671Y-52943003D01*
X57144202Y-52946878D01*
X57128428Y-52949218D01*
X57112500Y-52950000D01*
X56162500Y-52950000D01*
X56146572Y-52949218D01*
X56130798Y-52946878D01*
X56115329Y-52943003D01*
X56100314Y-52937630D01*
X56085898Y-52930812D01*
X56072220Y-52922614D01*
X56059411Y-52913114D01*
X56047595Y-52902405D01*
X56036886Y-52890589D01*
X56027386Y-52877780D01*
X56019188Y-52864102D01*
X56012370Y-52849686D01*
X56006997Y-52834671D01*
X56003122Y-52819202D01*
X56000782Y-52803428D01*
X56000000Y-52787500D01*
X56000000Y-52462500D01*
X56000782Y-52446572D01*
X56003122Y-52430798D01*
X56006997Y-52415329D01*
X56012370Y-52400314D01*
X56019188Y-52385898D01*
X56027386Y-52372220D01*
X56036886Y-52359411D01*
X56047595Y-52347595D01*
X56059411Y-52336886D01*
X56072220Y-52327386D01*
X56085898Y-52319188D01*
X56100314Y-52312370D01*
X56115329Y-52306997D01*
X56130798Y-52303122D01*
X56146572Y-52300782D01*
X56162500Y-52300000D01*
X57112500Y-52300000D01*
X57128428Y-52300782D01*
X57128428Y-52300782D01*
G37*
D25*
X56637500Y-52625000D03*
D10*
G36*
X56128428Y-52675782D02*
G01*
X56144202Y-52678122D01*
X56159671Y-52681997D01*
X56174686Y-52687370D01*
X56189102Y-52694188D01*
X56202780Y-52702386D01*
X56215589Y-52711886D01*
X56227405Y-52722595D01*
X56238114Y-52734411D01*
X56247614Y-52747220D01*
X56255812Y-52760898D01*
X56262630Y-52775314D01*
X56268003Y-52790329D01*
X56271878Y-52805798D01*
X56274218Y-52821572D01*
X56275000Y-52837500D01*
X56275000Y-53787500D01*
X56274218Y-53803428D01*
X56271878Y-53819202D01*
X56268003Y-53834671D01*
X56262630Y-53849686D01*
X56255812Y-53864102D01*
X56247614Y-53877780D01*
X56238114Y-53890589D01*
X56227405Y-53902405D01*
X56215589Y-53913114D01*
X56202780Y-53922614D01*
X56189102Y-53930812D01*
X56174686Y-53937630D01*
X56159671Y-53943003D01*
X56144202Y-53946878D01*
X56128428Y-53949218D01*
X56112500Y-53950000D01*
X55787500Y-53950000D01*
X55771572Y-53949218D01*
X55755798Y-53946878D01*
X55740329Y-53943003D01*
X55725314Y-53937630D01*
X55710898Y-53930812D01*
X55697220Y-53922614D01*
X55684411Y-53913114D01*
X55672595Y-53902405D01*
X55661886Y-53890589D01*
X55652386Y-53877780D01*
X55644188Y-53864102D01*
X55637370Y-53849686D01*
X55631997Y-53834671D01*
X55628122Y-53819202D01*
X55625782Y-53803428D01*
X55625000Y-53787500D01*
X55625000Y-52837500D01*
X55625782Y-52821572D01*
X55628122Y-52805798D01*
X55631997Y-52790329D01*
X55637370Y-52775314D01*
X55644188Y-52760898D01*
X55652386Y-52747220D01*
X55661886Y-52734411D01*
X55672595Y-52722595D01*
X55684411Y-52711886D01*
X55697220Y-52702386D01*
X55710898Y-52694188D01*
X55725314Y-52687370D01*
X55740329Y-52681997D01*
X55755798Y-52678122D01*
X55771572Y-52675782D01*
X55787500Y-52675000D01*
X56112500Y-52675000D01*
X56128428Y-52675782D01*
X56128428Y-52675782D01*
G37*
D25*
X55950000Y-53312500D03*
D10*
G36*
X55628428Y-52675782D02*
G01*
X55644202Y-52678122D01*
X55659671Y-52681997D01*
X55674686Y-52687370D01*
X55689102Y-52694188D01*
X55702780Y-52702386D01*
X55715589Y-52711886D01*
X55727405Y-52722595D01*
X55738114Y-52734411D01*
X55747614Y-52747220D01*
X55755812Y-52760898D01*
X55762630Y-52775314D01*
X55768003Y-52790329D01*
X55771878Y-52805798D01*
X55774218Y-52821572D01*
X55775000Y-52837500D01*
X55775000Y-53787500D01*
X55774218Y-53803428D01*
X55771878Y-53819202D01*
X55768003Y-53834671D01*
X55762630Y-53849686D01*
X55755812Y-53864102D01*
X55747614Y-53877780D01*
X55738114Y-53890589D01*
X55727405Y-53902405D01*
X55715589Y-53913114D01*
X55702780Y-53922614D01*
X55689102Y-53930812D01*
X55674686Y-53937630D01*
X55659671Y-53943003D01*
X55644202Y-53946878D01*
X55628428Y-53949218D01*
X55612500Y-53950000D01*
X55287500Y-53950000D01*
X55271572Y-53949218D01*
X55255798Y-53946878D01*
X55240329Y-53943003D01*
X55225314Y-53937630D01*
X55210898Y-53930812D01*
X55197220Y-53922614D01*
X55184411Y-53913114D01*
X55172595Y-53902405D01*
X55161886Y-53890589D01*
X55152386Y-53877780D01*
X55144188Y-53864102D01*
X55137370Y-53849686D01*
X55131997Y-53834671D01*
X55128122Y-53819202D01*
X55125782Y-53803428D01*
X55125000Y-53787500D01*
X55125000Y-52837500D01*
X55125782Y-52821572D01*
X55128122Y-52805798D01*
X55131997Y-52790329D01*
X55137370Y-52775314D01*
X55144188Y-52760898D01*
X55152386Y-52747220D01*
X55161886Y-52734411D01*
X55172595Y-52722595D01*
X55184411Y-52711886D01*
X55197220Y-52702386D01*
X55210898Y-52694188D01*
X55225314Y-52687370D01*
X55240329Y-52681997D01*
X55255798Y-52678122D01*
X55271572Y-52675782D01*
X55287500Y-52675000D01*
X55612500Y-52675000D01*
X55628428Y-52675782D01*
X55628428Y-52675782D01*
G37*
D25*
X55450000Y-53312500D03*
D10*
G36*
X55128428Y-52675782D02*
G01*
X55144202Y-52678122D01*
X55159671Y-52681997D01*
X55174686Y-52687370D01*
X55189102Y-52694188D01*
X55202780Y-52702386D01*
X55215589Y-52711886D01*
X55227405Y-52722595D01*
X55238114Y-52734411D01*
X55247614Y-52747220D01*
X55255812Y-52760898D01*
X55262630Y-52775314D01*
X55268003Y-52790329D01*
X55271878Y-52805798D01*
X55274218Y-52821572D01*
X55275000Y-52837500D01*
X55275000Y-53787500D01*
X55274218Y-53803428D01*
X55271878Y-53819202D01*
X55268003Y-53834671D01*
X55262630Y-53849686D01*
X55255812Y-53864102D01*
X55247614Y-53877780D01*
X55238114Y-53890589D01*
X55227405Y-53902405D01*
X55215589Y-53913114D01*
X55202780Y-53922614D01*
X55189102Y-53930812D01*
X55174686Y-53937630D01*
X55159671Y-53943003D01*
X55144202Y-53946878D01*
X55128428Y-53949218D01*
X55112500Y-53950000D01*
X54787500Y-53950000D01*
X54771572Y-53949218D01*
X54755798Y-53946878D01*
X54740329Y-53943003D01*
X54725314Y-53937630D01*
X54710898Y-53930812D01*
X54697220Y-53922614D01*
X54684411Y-53913114D01*
X54672595Y-53902405D01*
X54661886Y-53890589D01*
X54652386Y-53877780D01*
X54644188Y-53864102D01*
X54637370Y-53849686D01*
X54631997Y-53834671D01*
X54628122Y-53819202D01*
X54625782Y-53803428D01*
X54625000Y-53787500D01*
X54625000Y-52837500D01*
X54625782Y-52821572D01*
X54628122Y-52805798D01*
X54631997Y-52790329D01*
X54637370Y-52775314D01*
X54644188Y-52760898D01*
X54652386Y-52747220D01*
X54661886Y-52734411D01*
X54672595Y-52722595D01*
X54684411Y-52711886D01*
X54697220Y-52702386D01*
X54710898Y-52694188D01*
X54725314Y-52687370D01*
X54740329Y-52681997D01*
X54755798Y-52678122D01*
X54771572Y-52675782D01*
X54787500Y-52675000D01*
X55112500Y-52675000D01*
X55128428Y-52675782D01*
X55128428Y-52675782D01*
G37*
D25*
X54950000Y-53312500D03*
D10*
G36*
X54628428Y-52675782D02*
G01*
X54644202Y-52678122D01*
X54659671Y-52681997D01*
X54674686Y-52687370D01*
X54689102Y-52694188D01*
X54702780Y-52702386D01*
X54715589Y-52711886D01*
X54727405Y-52722595D01*
X54738114Y-52734411D01*
X54747614Y-52747220D01*
X54755812Y-52760898D01*
X54762630Y-52775314D01*
X54768003Y-52790329D01*
X54771878Y-52805798D01*
X54774218Y-52821572D01*
X54775000Y-52837500D01*
X54775000Y-53787500D01*
X54774218Y-53803428D01*
X54771878Y-53819202D01*
X54768003Y-53834671D01*
X54762630Y-53849686D01*
X54755812Y-53864102D01*
X54747614Y-53877780D01*
X54738114Y-53890589D01*
X54727405Y-53902405D01*
X54715589Y-53913114D01*
X54702780Y-53922614D01*
X54689102Y-53930812D01*
X54674686Y-53937630D01*
X54659671Y-53943003D01*
X54644202Y-53946878D01*
X54628428Y-53949218D01*
X54612500Y-53950000D01*
X54287500Y-53950000D01*
X54271572Y-53949218D01*
X54255798Y-53946878D01*
X54240329Y-53943003D01*
X54225314Y-53937630D01*
X54210898Y-53930812D01*
X54197220Y-53922614D01*
X54184411Y-53913114D01*
X54172595Y-53902405D01*
X54161886Y-53890589D01*
X54152386Y-53877780D01*
X54144188Y-53864102D01*
X54137370Y-53849686D01*
X54131997Y-53834671D01*
X54128122Y-53819202D01*
X54125782Y-53803428D01*
X54125000Y-53787500D01*
X54125000Y-52837500D01*
X54125782Y-52821572D01*
X54128122Y-52805798D01*
X54131997Y-52790329D01*
X54137370Y-52775314D01*
X54144188Y-52760898D01*
X54152386Y-52747220D01*
X54161886Y-52734411D01*
X54172595Y-52722595D01*
X54184411Y-52711886D01*
X54197220Y-52702386D01*
X54210898Y-52694188D01*
X54225314Y-52687370D01*
X54240329Y-52681997D01*
X54255798Y-52678122D01*
X54271572Y-52675782D01*
X54287500Y-52675000D01*
X54612500Y-52675000D01*
X54628428Y-52675782D01*
X54628428Y-52675782D01*
G37*
D25*
X54450000Y-53312500D03*
D10*
G36*
X54128428Y-52675782D02*
G01*
X54144202Y-52678122D01*
X54159671Y-52681997D01*
X54174686Y-52687370D01*
X54189102Y-52694188D01*
X54202780Y-52702386D01*
X54215589Y-52711886D01*
X54227405Y-52722595D01*
X54238114Y-52734411D01*
X54247614Y-52747220D01*
X54255812Y-52760898D01*
X54262630Y-52775314D01*
X54268003Y-52790329D01*
X54271878Y-52805798D01*
X54274218Y-52821572D01*
X54275000Y-52837500D01*
X54275000Y-53787500D01*
X54274218Y-53803428D01*
X54271878Y-53819202D01*
X54268003Y-53834671D01*
X54262630Y-53849686D01*
X54255812Y-53864102D01*
X54247614Y-53877780D01*
X54238114Y-53890589D01*
X54227405Y-53902405D01*
X54215589Y-53913114D01*
X54202780Y-53922614D01*
X54189102Y-53930812D01*
X54174686Y-53937630D01*
X54159671Y-53943003D01*
X54144202Y-53946878D01*
X54128428Y-53949218D01*
X54112500Y-53950000D01*
X53787500Y-53950000D01*
X53771572Y-53949218D01*
X53755798Y-53946878D01*
X53740329Y-53943003D01*
X53725314Y-53937630D01*
X53710898Y-53930812D01*
X53697220Y-53922614D01*
X53684411Y-53913114D01*
X53672595Y-53902405D01*
X53661886Y-53890589D01*
X53652386Y-53877780D01*
X53644188Y-53864102D01*
X53637370Y-53849686D01*
X53631997Y-53834671D01*
X53628122Y-53819202D01*
X53625782Y-53803428D01*
X53625000Y-53787500D01*
X53625000Y-52837500D01*
X53625782Y-52821572D01*
X53628122Y-52805798D01*
X53631997Y-52790329D01*
X53637370Y-52775314D01*
X53644188Y-52760898D01*
X53652386Y-52747220D01*
X53661886Y-52734411D01*
X53672595Y-52722595D01*
X53684411Y-52711886D01*
X53697220Y-52702386D01*
X53710898Y-52694188D01*
X53725314Y-52687370D01*
X53740329Y-52681997D01*
X53755798Y-52678122D01*
X53771572Y-52675782D01*
X53787500Y-52675000D01*
X54112500Y-52675000D01*
X54128428Y-52675782D01*
X54128428Y-52675782D01*
G37*
D25*
X53950000Y-53312500D03*
D10*
G36*
X53628428Y-52675782D02*
G01*
X53644202Y-52678122D01*
X53659671Y-52681997D01*
X53674686Y-52687370D01*
X53689102Y-52694188D01*
X53702780Y-52702386D01*
X53715589Y-52711886D01*
X53727405Y-52722595D01*
X53738114Y-52734411D01*
X53747614Y-52747220D01*
X53755812Y-52760898D01*
X53762630Y-52775314D01*
X53768003Y-52790329D01*
X53771878Y-52805798D01*
X53774218Y-52821572D01*
X53775000Y-52837500D01*
X53775000Y-53787500D01*
X53774218Y-53803428D01*
X53771878Y-53819202D01*
X53768003Y-53834671D01*
X53762630Y-53849686D01*
X53755812Y-53864102D01*
X53747614Y-53877780D01*
X53738114Y-53890589D01*
X53727405Y-53902405D01*
X53715589Y-53913114D01*
X53702780Y-53922614D01*
X53689102Y-53930812D01*
X53674686Y-53937630D01*
X53659671Y-53943003D01*
X53644202Y-53946878D01*
X53628428Y-53949218D01*
X53612500Y-53950000D01*
X53287500Y-53950000D01*
X53271572Y-53949218D01*
X53255798Y-53946878D01*
X53240329Y-53943003D01*
X53225314Y-53937630D01*
X53210898Y-53930812D01*
X53197220Y-53922614D01*
X53184411Y-53913114D01*
X53172595Y-53902405D01*
X53161886Y-53890589D01*
X53152386Y-53877780D01*
X53144188Y-53864102D01*
X53137370Y-53849686D01*
X53131997Y-53834671D01*
X53128122Y-53819202D01*
X53125782Y-53803428D01*
X53125000Y-53787500D01*
X53125000Y-52837500D01*
X53125782Y-52821572D01*
X53128122Y-52805798D01*
X53131997Y-52790329D01*
X53137370Y-52775314D01*
X53144188Y-52760898D01*
X53152386Y-52747220D01*
X53161886Y-52734411D01*
X53172595Y-52722595D01*
X53184411Y-52711886D01*
X53197220Y-52702386D01*
X53210898Y-52694188D01*
X53225314Y-52687370D01*
X53240329Y-52681997D01*
X53255798Y-52678122D01*
X53271572Y-52675782D01*
X53287500Y-52675000D01*
X53612500Y-52675000D01*
X53628428Y-52675782D01*
X53628428Y-52675782D01*
G37*
D25*
X53450000Y-53312500D03*
D10*
G36*
X53128428Y-52675782D02*
G01*
X53144202Y-52678122D01*
X53159671Y-52681997D01*
X53174686Y-52687370D01*
X53189102Y-52694188D01*
X53202780Y-52702386D01*
X53215589Y-52711886D01*
X53227405Y-52722595D01*
X53238114Y-52734411D01*
X53247614Y-52747220D01*
X53255812Y-52760898D01*
X53262630Y-52775314D01*
X53268003Y-52790329D01*
X53271878Y-52805798D01*
X53274218Y-52821572D01*
X53275000Y-52837500D01*
X53275000Y-53787500D01*
X53274218Y-53803428D01*
X53271878Y-53819202D01*
X53268003Y-53834671D01*
X53262630Y-53849686D01*
X53255812Y-53864102D01*
X53247614Y-53877780D01*
X53238114Y-53890589D01*
X53227405Y-53902405D01*
X53215589Y-53913114D01*
X53202780Y-53922614D01*
X53189102Y-53930812D01*
X53174686Y-53937630D01*
X53159671Y-53943003D01*
X53144202Y-53946878D01*
X53128428Y-53949218D01*
X53112500Y-53950000D01*
X52787500Y-53950000D01*
X52771572Y-53949218D01*
X52755798Y-53946878D01*
X52740329Y-53943003D01*
X52725314Y-53937630D01*
X52710898Y-53930812D01*
X52697220Y-53922614D01*
X52684411Y-53913114D01*
X52672595Y-53902405D01*
X52661886Y-53890589D01*
X52652386Y-53877780D01*
X52644188Y-53864102D01*
X52637370Y-53849686D01*
X52631997Y-53834671D01*
X52628122Y-53819202D01*
X52625782Y-53803428D01*
X52625000Y-53787500D01*
X52625000Y-52837500D01*
X52625782Y-52821572D01*
X52628122Y-52805798D01*
X52631997Y-52790329D01*
X52637370Y-52775314D01*
X52644188Y-52760898D01*
X52652386Y-52747220D01*
X52661886Y-52734411D01*
X52672595Y-52722595D01*
X52684411Y-52711886D01*
X52697220Y-52702386D01*
X52710898Y-52694188D01*
X52725314Y-52687370D01*
X52740329Y-52681997D01*
X52755798Y-52678122D01*
X52771572Y-52675782D01*
X52787500Y-52675000D01*
X53112500Y-52675000D01*
X53128428Y-52675782D01*
X53128428Y-52675782D01*
G37*
D25*
X52950000Y-53312500D03*
D10*
G36*
X52628428Y-52675782D02*
G01*
X52644202Y-52678122D01*
X52659671Y-52681997D01*
X52674686Y-52687370D01*
X52689102Y-52694188D01*
X52702780Y-52702386D01*
X52715589Y-52711886D01*
X52727405Y-52722595D01*
X52738114Y-52734411D01*
X52747614Y-52747220D01*
X52755812Y-52760898D01*
X52762630Y-52775314D01*
X52768003Y-52790329D01*
X52771878Y-52805798D01*
X52774218Y-52821572D01*
X52775000Y-52837500D01*
X52775000Y-53787500D01*
X52774218Y-53803428D01*
X52771878Y-53819202D01*
X52768003Y-53834671D01*
X52762630Y-53849686D01*
X52755812Y-53864102D01*
X52747614Y-53877780D01*
X52738114Y-53890589D01*
X52727405Y-53902405D01*
X52715589Y-53913114D01*
X52702780Y-53922614D01*
X52689102Y-53930812D01*
X52674686Y-53937630D01*
X52659671Y-53943003D01*
X52644202Y-53946878D01*
X52628428Y-53949218D01*
X52612500Y-53950000D01*
X52287500Y-53950000D01*
X52271572Y-53949218D01*
X52255798Y-53946878D01*
X52240329Y-53943003D01*
X52225314Y-53937630D01*
X52210898Y-53930812D01*
X52197220Y-53922614D01*
X52184411Y-53913114D01*
X52172595Y-53902405D01*
X52161886Y-53890589D01*
X52152386Y-53877780D01*
X52144188Y-53864102D01*
X52137370Y-53849686D01*
X52131997Y-53834671D01*
X52128122Y-53819202D01*
X52125782Y-53803428D01*
X52125000Y-53787500D01*
X52125000Y-52837500D01*
X52125782Y-52821572D01*
X52128122Y-52805798D01*
X52131997Y-52790329D01*
X52137370Y-52775314D01*
X52144188Y-52760898D01*
X52152386Y-52747220D01*
X52161886Y-52734411D01*
X52172595Y-52722595D01*
X52184411Y-52711886D01*
X52197220Y-52702386D01*
X52210898Y-52694188D01*
X52225314Y-52687370D01*
X52240329Y-52681997D01*
X52255798Y-52678122D01*
X52271572Y-52675782D01*
X52287500Y-52675000D01*
X52612500Y-52675000D01*
X52628428Y-52675782D01*
X52628428Y-52675782D01*
G37*
D25*
X52450000Y-53312500D03*
D10*
G36*
X52253428Y-52300782D02*
G01*
X52269202Y-52303122D01*
X52284671Y-52306997D01*
X52299686Y-52312370D01*
X52314102Y-52319188D01*
X52327780Y-52327386D01*
X52340589Y-52336886D01*
X52352405Y-52347595D01*
X52363114Y-52359411D01*
X52372614Y-52372220D01*
X52380812Y-52385898D01*
X52387630Y-52400314D01*
X52393003Y-52415329D01*
X52396878Y-52430798D01*
X52399218Y-52446572D01*
X52400000Y-52462500D01*
X52400000Y-52787500D01*
X52399218Y-52803428D01*
X52396878Y-52819202D01*
X52393003Y-52834671D01*
X52387630Y-52849686D01*
X52380812Y-52864102D01*
X52372614Y-52877780D01*
X52363114Y-52890589D01*
X52352405Y-52902405D01*
X52340589Y-52913114D01*
X52327780Y-52922614D01*
X52314102Y-52930812D01*
X52299686Y-52937630D01*
X52284671Y-52943003D01*
X52269202Y-52946878D01*
X52253428Y-52949218D01*
X52237500Y-52950000D01*
X51287500Y-52950000D01*
X51271572Y-52949218D01*
X51255798Y-52946878D01*
X51240329Y-52943003D01*
X51225314Y-52937630D01*
X51210898Y-52930812D01*
X51197220Y-52922614D01*
X51184411Y-52913114D01*
X51172595Y-52902405D01*
X51161886Y-52890589D01*
X51152386Y-52877780D01*
X51144188Y-52864102D01*
X51137370Y-52849686D01*
X51131997Y-52834671D01*
X51128122Y-52819202D01*
X51125782Y-52803428D01*
X51125000Y-52787500D01*
X51125000Y-52462500D01*
X51125782Y-52446572D01*
X51128122Y-52430798D01*
X51131997Y-52415329D01*
X51137370Y-52400314D01*
X51144188Y-52385898D01*
X51152386Y-52372220D01*
X51161886Y-52359411D01*
X51172595Y-52347595D01*
X51184411Y-52336886D01*
X51197220Y-52327386D01*
X51210898Y-52319188D01*
X51225314Y-52312370D01*
X51240329Y-52306997D01*
X51255798Y-52303122D01*
X51271572Y-52300782D01*
X51287500Y-52300000D01*
X52237500Y-52300000D01*
X52253428Y-52300782D01*
X52253428Y-52300782D01*
G37*
D25*
X51762500Y-52625000D03*
D10*
G36*
X52253428Y-51800782D02*
G01*
X52269202Y-51803122D01*
X52284671Y-51806997D01*
X52299686Y-51812370D01*
X52314102Y-51819188D01*
X52327780Y-51827386D01*
X52340589Y-51836886D01*
X52352405Y-51847595D01*
X52363114Y-51859411D01*
X52372614Y-51872220D01*
X52380812Y-51885898D01*
X52387630Y-51900314D01*
X52393003Y-51915329D01*
X52396878Y-51930798D01*
X52399218Y-51946572D01*
X52400000Y-51962500D01*
X52400000Y-52287500D01*
X52399218Y-52303428D01*
X52396878Y-52319202D01*
X52393003Y-52334671D01*
X52387630Y-52349686D01*
X52380812Y-52364102D01*
X52372614Y-52377780D01*
X52363114Y-52390589D01*
X52352405Y-52402405D01*
X52340589Y-52413114D01*
X52327780Y-52422614D01*
X52314102Y-52430812D01*
X52299686Y-52437630D01*
X52284671Y-52443003D01*
X52269202Y-52446878D01*
X52253428Y-52449218D01*
X52237500Y-52450000D01*
X51287500Y-52450000D01*
X51271572Y-52449218D01*
X51255798Y-52446878D01*
X51240329Y-52443003D01*
X51225314Y-52437630D01*
X51210898Y-52430812D01*
X51197220Y-52422614D01*
X51184411Y-52413114D01*
X51172595Y-52402405D01*
X51161886Y-52390589D01*
X51152386Y-52377780D01*
X51144188Y-52364102D01*
X51137370Y-52349686D01*
X51131997Y-52334671D01*
X51128122Y-52319202D01*
X51125782Y-52303428D01*
X51125000Y-52287500D01*
X51125000Y-51962500D01*
X51125782Y-51946572D01*
X51128122Y-51930798D01*
X51131997Y-51915329D01*
X51137370Y-51900314D01*
X51144188Y-51885898D01*
X51152386Y-51872220D01*
X51161886Y-51859411D01*
X51172595Y-51847595D01*
X51184411Y-51836886D01*
X51197220Y-51827386D01*
X51210898Y-51819188D01*
X51225314Y-51812370D01*
X51240329Y-51806997D01*
X51255798Y-51803122D01*
X51271572Y-51800782D01*
X51287500Y-51800000D01*
X52237500Y-51800000D01*
X52253428Y-51800782D01*
X52253428Y-51800782D01*
G37*
D25*
X51762500Y-52125000D03*
D10*
G36*
X52253428Y-51300782D02*
G01*
X52269202Y-51303122D01*
X52284671Y-51306997D01*
X52299686Y-51312370D01*
X52314102Y-51319188D01*
X52327780Y-51327386D01*
X52340589Y-51336886D01*
X52352405Y-51347595D01*
X52363114Y-51359411D01*
X52372614Y-51372220D01*
X52380812Y-51385898D01*
X52387630Y-51400314D01*
X52393003Y-51415329D01*
X52396878Y-51430798D01*
X52399218Y-51446572D01*
X52400000Y-51462500D01*
X52400000Y-51787500D01*
X52399218Y-51803428D01*
X52396878Y-51819202D01*
X52393003Y-51834671D01*
X52387630Y-51849686D01*
X52380812Y-51864102D01*
X52372614Y-51877780D01*
X52363114Y-51890589D01*
X52352405Y-51902405D01*
X52340589Y-51913114D01*
X52327780Y-51922614D01*
X52314102Y-51930812D01*
X52299686Y-51937630D01*
X52284671Y-51943003D01*
X52269202Y-51946878D01*
X52253428Y-51949218D01*
X52237500Y-51950000D01*
X51287500Y-51950000D01*
X51271572Y-51949218D01*
X51255798Y-51946878D01*
X51240329Y-51943003D01*
X51225314Y-51937630D01*
X51210898Y-51930812D01*
X51197220Y-51922614D01*
X51184411Y-51913114D01*
X51172595Y-51902405D01*
X51161886Y-51890589D01*
X51152386Y-51877780D01*
X51144188Y-51864102D01*
X51137370Y-51849686D01*
X51131997Y-51834671D01*
X51128122Y-51819202D01*
X51125782Y-51803428D01*
X51125000Y-51787500D01*
X51125000Y-51462500D01*
X51125782Y-51446572D01*
X51128122Y-51430798D01*
X51131997Y-51415329D01*
X51137370Y-51400314D01*
X51144188Y-51385898D01*
X51152386Y-51372220D01*
X51161886Y-51359411D01*
X51172595Y-51347595D01*
X51184411Y-51336886D01*
X51197220Y-51327386D01*
X51210898Y-51319188D01*
X51225314Y-51312370D01*
X51240329Y-51306997D01*
X51255798Y-51303122D01*
X51271572Y-51300782D01*
X51287500Y-51300000D01*
X52237500Y-51300000D01*
X52253428Y-51300782D01*
X52253428Y-51300782D01*
G37*
D25*
X51762500Y-51625000D03*
D10*
G36*
X52253428Y-50800782D02*
G01*
X52269202Y-50803122D01*
X52284671Y-50806997D01*
X52299686Y-50812370D01*
X52314102Y-50819188D01*
X52327780Y-50827386D01*
X52340589Y-50836886D01*
X52352405Y-50847595D01*
X52363114Y-50859411D01*
X52372614Y-50872220D01*
X52380812Y-50885898D01*
X52387630Y-50900314D01*
X52393003Y-50915329D01*
X52396878Y-50930798D01*
X52399218Y-50946572D01*
X52400000Y-50962500D01*
X52400000Y-51287500D01*
X52399218Y-51303428D01*
X52396878Y-51319202D01*
X52393003Y-51334671D01*
X52387630Y-51349686D01*
X52380812Y-51364102D01*
X52372614Y-51377780D01*
X52363114Y-51390589D01*
X52352405Y-51402405D01*
X52340589Y-51413114D01*
X52327780Y-51422614D01*
X52314102Y-51430812D01*
X52299686Y-51437630D01*
X52284671Y-51443003D01*
X52269202Y-51446878D01*
X52253428Y-51449218D01*
X52237500Y-51450000D01*
X51287500Y-51450000D01*
X51271572Y-51449218D01*
X51255798Y-51446878D01*
X51240329Y-51443003D01*
X51225314Y-51437630D01*
X51210898Y-51430812D01*
X51197220Y-51422614D01*
X51184411Y-51413114D01*
X51172595Y-51402405D01*
X51161886Y-51390589D01*
X51152386Y-51377780D01*
X51144188Y-51364102D01*
X51137370Y-51349686D01*
X51131997Y-51334671D01*
X51128122Y-51319202D01*
X51125782Y-51303428D01*
X51125000Y-51287500D01*
X51125000Y-50962500D01*
X51125782Y-50946572D01*
X51128122Y-50930798D01*
X51131997Y-50915329D01*
X51137370Y-50900314D01*
X51144188Y-50885898D01*
X51152386Y-50872220D01*
X51161886Y-50859411D01*
X51172595Y-50847595D01*
X51184411Y-50836886D01*
X51197220Y-50827386D01*
X51210898Y-50819188D01*
X51225314Y-50812370D01*
X51240329Y-50806997D01*
X51255798Y-50803122D01*
X51271572Y-50800782D01*
X51287500Y-50800000D01*
X52237500Y-50800000D01*
X52253428Y-50800782D01*
X52253428Y-50800782D01*
G37*
D25*
X51762500Y-51125000D03*
D10*
G36*
X52253428Y-50300782D02*
G01*
X52269202Y-50303122D01*
X52284671Y-50306997D01*
X52299686Y-50312370D01*
X52314102Y-50319188D01*
X52327780Y-50327386D01*
X52340589Y-50336886D01*
X52352405Y-50347595D01*
X52363114Y-50359411D01*
X52372614Y-50372220D01*
X52380812Y-50385898D01*
X52387630Y-50400314D01*
X52393003Y-50415329D01*
X52396878Y-50430798D01*
X52399218Y-50446572D01*
X52400000Y-50462500D01*
X52400000Y-50787500D01*
X52399218Y-50803428D01*
X52396878Y-50819202D01*
X52393003Y-50834671D01*
X52387630Y-50849686D01*
X52380812Y-50864102D01*
X52372614Y-50877780D01*
X52363114Y-50890589D01*
X52352405Y-50902405D01*
X52340589Y-50913114D01*
X52327780Y-50922614D01*
X52314102Y-50930812D01*
X52299686Y-50937630D01*
X52284671Y-50943003D01*
X52269202Y-50946878D01*
X52253428Y-50949218D01*
X52237500Y-50950000D01*
X51287500Y-50950000D01*
X51271572Y-50949218D01*
X51255798Y-50946878D01*
X51240329Y-50943003D01*
X51225314Y-50937630D01*
X51210898Y-50930812D01*
X51197220Y-50922614D01*
X51184411Y-50913114D01*
X51172595Y-50902405D01*
X51161886Y-50890589D01*
X51152386Y-50877780D01*
X51144188Y-50864102D01*
X51137370Y-50849686D01*
X51131997Y-50834671D01*
X51128122Y-50819202D01*
X51125782Y-50803428D01*
X51125000Y-50787500D01*
X51125000Y-50462500D01*
X51125782Y-50446572D01*
X51128122Y-50430798D01*
X51131997Y-50415329D01*
X51137370Y-50400314D01*
X51144188Y-50385898D01*
X51152386Y-50372220D01*
X51161886Y-50359411D01*
X51172595Y-50347595D01*
X51184411Y-50336886D01*
X51197220Y-50327386D01*
X51210898Y-50319188D01*
X51225314Y-50312370D01*
X51240329Y-50306997D01*
X51255798Y-50303122D01*
X51271572Y-50300782D01*
X51287500Y-50300000D01*
X52237500Y-50300000D01*
X52253428Y-50300782D01*
X52253428Y-50300782D01*
G37*
D25*
X51762500Y-50625000D03*
D10*
G36*
X52253428Y-49800782D02*
G01*
X52269202Y-49803122D01*
X52284671Y-49806997D01*
X52299686Y-49812370D01*
X52314102Y-49819188D01*
X52327780Y-49827386D01*
X52340589Y-49836886D01*
X52352405Y-49847595D01*
X52363114Y-49859411D01*
X52372614Y-49872220D01*
X52380812Y-49885898D01*
X52387630Y-49900314D01*
X52393003Y-49915329D01*
X52396878Y-49930798D01*
X52399218Y-49946572D01*
X52400000Y-49962500D01*
X52400000Y-50287500D01*
X52399218Y-50303428D01*
X52396878Y-50319202D01*
X52393003Y-50334671D01*
X52387630Y-50349686D01*
X52380812Y-50364102D01*
X52372614Y-50377780D01*
X52363114Y-50390589D01*
X52352405Y-50402405D01*
X52340589Y-50413114D01*
X52327780Y-50422614D01*
X52314102Y-50430812D01*
X52299686Y-50437630D01*
X52284671Y-50443003D01*
X52269202Y-50446878D01*
X52253428Y-50449218D01*
X52237500Y-50450000D01*
X51287500Y-50450000D01*
X51271572Y-50449218D01*
X51255798Y-50446878D01*
X51240329Y-50443003D01*
X51225314Y-50437630D01*
X51210898Y-50430812D01*
X51197220Y-50422614D01*
X51184411Y-50413114D01*
X51172595Y-50402405D01*
X51161886Y-50390589D01*
X51152386Y-50377780D01*
X51144188Y-50364102D01*
X51137370Y-50349686D01*
X51131997Y-50334671D01*
X51128122Y-50319202D01*
X51125782Y-50303428D01*
X51125000Y-50287500D01*
X51125000Y-49962500D01*
X51125782Y-49946572D01*
X51128122Y-49930798D01*
X51131997Y-49915329D01*
X51137370Y-49900314D01*
X51144188Y-49885898D01*
X51152386Y-49872220D01*
X51161886Y-49859411D01*
X51172595Y-49847595D01*
X51184411Y-49836886D01*
X51197220Y-49827386D01*
X51210898Y-49819188D01*
X51225314Y-49812370D01*
X51240329Y-49806997D01*
X51255798Y-49803122D01*
X51271572Y-49800782D01*
X51287500Y-49800000D01*
X52237500Y-49800000D01*
X52253428Y-49800782D01*
X52253428Y-49800782D01*
G37*
D25*
X51762500Y-50125000D03*
D10*
G36*
X52253428Y-49300782D02*
G01*
X52269202Y-49303122D01*
X52284671Y-49306997D01*
X52299686Y-49312370D01*
X52314102Y-49319188D01*
X52327780Y-49327386D01*
X52340589Y-49336886D01*
X52352405Y-49347595D01*
X52363114Y-49359411D01*
X52372614Y-49372220D01*
X52380812Y-49385898D01*
X52387630Y-49400314D01*
X52393003Y-49415329D01*
X52396878Y-49430798D01*
X52399218Y-49446572D01*
X52400000Y-49462500D01*
X52400000Y-49787500D01*
X52399218Y-49803428D01*
X52396878Y-49819202D01*
X52393003Y-49834671D01*
X52387630Y-49849686D01*
X52380812Y-49864102D01*
X52372614Y-49877780D01*
X52363114Y-49890589D01*
X52352405Y-49902405D01*
X52340589Y-49913114D01*
X52327780Y-49922614D01*
X52314102Y-49930812D01*
X52299686Y-49937630D01*
X52284671Y-49943003D01*
X52269202Y-49946878D01*
X52253428Y-49949218D01*
X52237500Y-49950000D01*
X51287500Y-49950000D01*
X51271572Y-49949218D01*
X51255798Y-49946878D01*
X51240329Y-49943003D01*
X51225314Y-49937630D01*
X51210898Y-49930812D01*
X51197220Y-49922614D01*
X51184411Y-49913114D01*
X51172595Y-49902405D01*
X51161886Y-49890589D01*
X51152386Y-49877780D01*
X51144188Y-49864102D01*
X51137370Y-49849686D01*
X51131997Y-49834671D01*
X51128122Y-49819202D01*
X51125782Y-49803428D01*
X51125000Y-49787500D01*
X51125000Y-49462500D01*
X51125782Y-49446572D01*
X51128122Y-49430798D01*
X51131997Y-49415329D01*
X51137370Y-49400314D01*
X51144188Y-49385898D01*
X51152386Y-49372220D01*
X51161886Y-49359411D01*
X51172595Y-49347595D01*
X51184411Y-49336886D01*
X51197220Y-49327386D01*
X51210898Y-49319188D01*
X51225314Y-49312370D01*
X51240329Y-49306997D01*
X51255798Y-49303122D01*
X51271572Y-49300782D01*
X51287500Y-49300000D01*
X52237500Y-49300000D01*
X52253428Y-49300782D01*
X52253428Y-49300782D01*
G37*
D25*
X51762500Y-49625000D03*
D10*
G36*
X52253428Y-48800782D02*
G01*
X52269202Y-48803122D01*
X52284671Y-48806997D01*
X52299686Y-48812370D01*
X52314102Y-48819188D01*
X52327780Y-48827386D01*
X52340589Y-48836886D01*
X52352405Y-48847595D01*
X52363114Y-48859411D01*
X52372614Y-48872220D01*
X52380812Y-48885898D01*
X52387630Y-48900314D01*
X52393003Y-48915329D01*
X52396878Y-48930798D01*
X52399218Y-48946572D01*
X52400000Y-48962500D01*
X52400000Y-49287500D01*
X52399218Y-49303428D01*
X52396878Y-49319202D01*
X52393003Y-49334671D01*
X52387630Y-49349686D01*
X52380812Y-49364102D01*
X52372614Y-49377780D01*
X52363114Y-49390589D01*
X52352405Y-49402405D01*
X52340589Y-49413114D01*
X52327780Y-49422614D01*
X52314102Y-49430812D01*
X52299686Y-49437630D01*
X52284671Y-49443003D01*
X52269202Y-49446878D01*
X52253428Y-49449218D01*
X52237500Y-49450000D01*
X51287500Y-49450000D01*
X51271572Y-49449218D01*
X51255798Y-49446878D01*
X51240329Y-49443003D01*
X51225314Y-49437630D01*
X51210898Y-49430812D01*
X51197220Y-49422614D01*
X51184411Y-49413114D01*
X51172595Y-49402405D01*
X51161886Y-49390589D01*
X51152386Y-49377780D01*
X51144188Y-49364102D01*
X51137370Y-49349686D01*
X51131997Y-49334671D01*
X51128122Y-49319202D01*
X51125782Y-49303428D01*
X51125000Y-49287500D01*
X51125000Y-48962500D01*
X51125782Y-48946572D01*
X51128122Y-48930798D01*
X51131997Y-48915329D01*
X51137370Y-48900314D01*
X51144188Y-48885898D01*
X51152386Y-48872220D01*
X51161886Y-48859411D01*
X51172595Y-48847595D01*
X51184411Y-48836886D01*
X51197220Y-48827386D01*
X51210898Y-48819188D01*
X51225314Y-48812370D01*
X51240329Y-48806997D01*
X51255798Y-48803122D01*
X51271572Y-48800782D01*
X51287500Y-48800000D01*
X52237500Y-48800000D01*
X52253428Y-48800782D01*
X52253428Y-48800782D01*
G37*
D25*
X51762500Y-49125000D03*
D10*
G36*
X52628428Y-47800782D02*
G01*
X52644202Y-47803122D01*
X52659671Y-47806997D01*
X52674686Y-47812370D01*
X52689102Y-47819188D01*
X52702780Y-47827386D01*
X52715589Y-47836886D01*
X52727405Y-47847595D01*
X52738114Y-47859411D01*
X52747614Y-47872220D01*
X52755812Y-47885898D01*
X52762630Y-47900314D01*
X52768003Y-47915329D01*
X52771878Y-47930798D01*
X52774218Y-47946572D01*
X52775000Y-47962500D01*
X52775000Y-48912500D01*
X52774218Y-48928428D01*
X52771878Y-48944202D01*
X52768003Y-48959671D01*
X52762630Y-48974686D01*
X52755812Y-48989102D01*
X52747614Y-49002780D01*
X52738114Y-49015589D01*
X52727405Y-49027405D01*
X52715589Y-49038114D01*
X52702780Y-49047614D01*
X52689102Y-49055812D01*
X52674686Y-49062630D01*
X52659671Y-49068003D01*
X52644202Y-49071878D01*
X52628428Y-49074218D01*
X52612500Y-49075000D01*
X52287500Y-49075000D01*
X52271572Y-49074218D01*
X52255798Y-49071878D01*
X52240329Y-49068003D01*
X52225314Y-49062630D01*
X52210898Y-49055812D01*
X52197220Y-49047614D01*
X52184411Y-49038114D01*
X52172595Y-49027405D01*
X52161886Y-49015589D01*
X52152386Y-49002780D01*
X52144188Y-48989102D01*
X52137370Y-48974686D01*
X52131997Y-48959671D01*
X52128122Y-48944202D01*
X52125782Y-48928428D01*
X52125000Y-48912500D01*
X52125000Y-47962500D01*
X52125782Y-47946572D01*
X52128122Y-47930798D01*
X52131997Y-47915329D01*
X52137370Y-47900314D01*
X52144188Y-47885898D01*
X52152386Y-47872220D01*
X52161886Y-47859411D01*
X52172595Y-47847595D01*
X52184411Y-47836886D01*
X52197220Y-47827386D01*
X52210898Y-47819188D01*
X52225314Y-47812370D01*
X52240329Y-47806997D01*
X52255798Y-47803122D01*
X52271572Y-47800782D01*
X52287500Y-47800000D01*
X52612500Y-47800000D01*
X52628428Y-47800782D01*
X52628428Y-47800782D01*
G37*
D25*
X52450000Y-48437500D03*
D10*
G36*
X53128428Y-47800782D02*
G01*
X53144202Y-47803122D01*
X53159671Y-47806997D01*
X53174686Y-47812370D01*
X53189102Y-47819188D01*
X53202780Y-47827386D01*
X53215589Y-47836886D01*
X53227405Y-47847595D01*
X53238114Y-47859411D01*
X53247614Y-47872220D01*
X53255812Y-47885898D01*
X53262630Y-47900314D01*
X53268003Y-47915329D01*
X53271878Y-47930798D01*
X53274218Y-47946572D01*
X53275000Y-47962500D01*
X53275000Y-48912500D01*
X53274218Y-48928428D01*
X53271878Y-48944202D01*
X53268003Y-48959671D01*
X53262630Y-48974686D01*
X53255812Y-48989102D01*
X53247614Y-49002780D01*
X53238114Y-49015589D01*
X53227405Y-49027405D01*
X53215589Y-49038114D01*
X53202780Y-49047614D01*
X53189102Y-49055812D01*
X53174686Y-49062630D01*
X53159671Y-49068003D01*
X53144202Y-49071878D01*
X53128428Y-49074218D01*
X53112500Y-49075000D01*
X52787500Y-49075000D01*
X52771572Y-49074218D01*
X52755798Y-49071878D01*
X52740329Y-49068003D01*
X52725314Y-49062630D01*
X52710898Y-49055812D01*
X52697220Y-49047614D01*
X52684411Y-49038114D01*
X52672595Y-49027405D01*
X52661886Y-49015589D01*
X52652386Y-49002780D01*
X52644188Y-48989102D01*
X52637370Y-48974686D01*
X52631997Y-48959671D01*
X52628122Y-48944202D01*
X52625782Y-48928428D01*
X52625000Y-48912500D01*
X52625000Y-47962500D01*
X52625782Y-47946572D01*
X52628122Y-47930798D01*
X52631997Y-47915329D01*
X52637370Y-47900314D01*
X52644188Y-47885898D01*
X52652386Y-47872220D01*
X52661886Y-47859411D01*
X52672595Y-47847595D01*
X52684411Y-47836886D01*
X52697220Y-47827386D01*
X52710898Y-47819188D01*
X52725314Y-47812370D01*
X52740329Y-47806997D01*
X52755798Y-47803122D01*
X52771572Y-47800782D01*
X52787500Y-47800000D01*
X53112500Y-47800000D01*
X53128428Y-47800782D01*
X53128428Y-47800782D01*
G37*
D25*
X52950000Y-48437500D03*
D10*
G36*
X53628428Y-47800782D02*
G01*
X53644202Y-47803122D01*
X53659671Y-47806997D01*
X53674686Y-47812370D01*
X53689102Y-47819188D01*
X53702780Y-47827386D01*
X53715589Y-47836886D01*
X53727405Y-47847595D01*
X53738114Y-47859411D01*
X53747614Y-47872220D01*
X53755812Y-47885898D01*
X53762630Y-47900314D01*
X53768003Y-47915329D01*
X53771878Y-47930798D01*
X53774218Y-47946572D01*
X53775000Y-47962500D01*
X53775000Y-48912500D01*
X53774218Y-48928428D01*
X53771878Y-48944202D01*
X53768003Y-48959671D01*
X53762630Y-48974686D01*
X53755812Y-48989102D01*
X53747614Y-49002780D01*
X53738114Y-49015589D01*
X53727405Y-49027405D01*
X53715589Y-49038114D01*
X53702780Y-49047614D01*
X53689102Y-49055812D01*
X53674686Y-49062630D01*
X53659671Y-49068003D01*
X53644202Y-49071878D01*
X53628428Y-49074218D01*
X53612500Y-49075000D01*
X53287500Y-49075000D01*
X53271572Y-49074218D01*
X53255798Y-49071878D01*
X53240329Y-49068003D01*
X53225314Y-49062630D01*
X53210898Y-49055812D01*
X53197220Y-49047614D01*
X53184411Y-49038114D01*
X53172595Y-49027405D01*
X53161886Y-49015589D01*
X53152386Y-49002780D01*
X53144188Y-48989102D01*
X53137370Y-48974686D01*
X53131997Y-48959671D01*
X53128122Y-48944202D01*
X53125782Y-48928428D01*
X53125000Y-48912500D01*
X53125000Y-47962500D01*
X53125782Y-47946572D01*
X53128122Y-47930798D01*
X53131997Y-47915329D01*
X53137370Y-47900314D01*
X53144188Y-47885898D01*
X53152386Y-47872220D01*
X53161886Y-47859411D01*
X53172595Y-47847595D01*
X53184411Y-47836886D01*
X53197220Y-47827386D01*
X53210898Y-47819188D01*
X53225314Y-47812370D01*
X53240329Y-47806997D01*
X53255798Y-47803122D01*
X53271572Y-47800782D01*
X53287500Y-47800000D01*
X53612500Y-47800000D01*
X53628428Y-47800782D01*
X53628428Y-47800782D01*
G37*
D25*
X53450000Y-48437500D03*
D10*
G36*
X54128428Y-47800782D02*
G01*
X54144202Y-47803122D01*
X54159671Y-47806997D01*
X54174686Y-47812370D01*
X54189102Y-47819188D01*
X54202780Y-47827386D01*
X54215589Y-47836886D01*
X54227405Y-47847595D01*
X54238114Y-47859411D01*
X54247614Y-47872220D01*
X54255812Y-47885898D01*
X54262630Y-47900314D01*
X54268003Y-47915329D01*
X54271878Y-47930798D01*
X54274218Y-47946572D01*
X54275000Y-47962500D01*
X54275000Y-48912500D01*
X54274218Y-48928428D01*
X54271878Y-48944202D01*
X54268003Y-48959671D01*
X54262630Y-48974686D01*
X54255812Y-48989102D01*
X54247614Y-49002780D01*
X54238114Y-49015589D01*
X54227405Y-49027405D01*
X54215589Y-49038114D01*
X54202780Y-49047614D01*
X54189102Y-49055812D01*
X54174686Y-49062630D01*
X54159671Y-49068003D01*
X54144202Y-49071878D01*
X54128428Y-49074218D01*
X54112500Y-49075000D01*
X53787500Y-49075000D01*
X53771572Y-49074218D01*
X53755798Y-49071878D01*
X53740329Y-49068003D01*
X53725314Y-49062630D01*
X53710898Y-49055812D01*
X53697220Y-49047614D01*
X53684411Y-49038114D01*
X53672595Y-49027405D01*
X53661886Y-49015589D01*
X53652386Y-49002780D01*
X53644188Y-48989102D01*
X53637370Y-48974686D01*
X53631997Y-48959671D01*
X53628122Y-48944202D01*
X53625782Y-48928428D01*
X53625000Y-48912500D01*
X53625000Y-47962500D01*
X53625782Y-47946572D01*
X53628122Y-47930798D01*
X53631997Y-47915329D01*
X53637370Y-47900314D01*
X53644188Y-47885898D01*
X53652386Y-47872220D01*
X53661886Y-47859411D01*
X53672595Y-47847595D01*
X53684411Y-47836886D01*
X53697220Y-47827386D01*
X53710898Y-47819188D01*
X53725314Y-47812370D01*
X53740329Y-47806997D01*
X53755798Y-47803122D01*
X53771572Y-47800782D01*
X53787500Y-47800000D01*
X54112500Y-47800000D01*
X54128428Y-47800782D01*
X54128428Y-47800782D01*
G37*
D25*
X53950000Y-48437500D03*
D10*
G36*
X54628428Y-47800782D02*
G01*
X54644202Y-47803122D01*
X54659671Y-47806997D01*
X54674686Y-47812370D01*
X54689102Y-47819188D01*
X54702780Y-47827386D01*
X54715589Y-47836886D01*
X54727405Y-47847595D01*
X54738114Y-47859411D01*
X54747614Y-47872220D01*
X54755812Y-47885898D01*
X54762630Y-47900314D01*
X54768003Y-47915329D01*
X54771878Y-47930798D01*
X54774218Y-47946572D01*
X54775000Y-47962500D01*
X54775000Y-48912500D01*
X54774218Y-48928428D01*
X54771878Y-48944202D01*
X54768003Y-48959671D01*
X54762630Y-48974686D01*
X54755812Y-48989102D01*
X54747614Y-49002780D01*
X54738114Y-49015589D01*
X54727405Y-49027405D01*
X54715589Y-49038114D01*
X54702780Y-49047614D01*
X54689102Y-49055812D01*
X54674686Y-49062630D01*
X54659671Y-49068003D01*
X54644202Y-49071878D01*
X54628428Y-49074218D01*
X54612500Y-49075000D01*
X54287500Y-49075000D01*
X54271572Y-49074218D01*
X54255798Y-49071878D01*
X54240329Y-49068003D01*
X54225314Y-49062630D01*
X54210898Y-49055812D01*
X54197220Y-49047614D01*
X54184411Y-49038114D01*
X54172595Y-49027405D01*
X54161886Y-49015589D01*
X54152386Y-49002780D01*
X54144188Y-48989102D01*
X54137370Y-48974686D01*
X54131997Y-48959671D01*
X54128122Y-48944202D01*
X54125782Y-48928428D01*
X54125000Y-48912500D01*
X54125000Y-47962500D01*
X54125782Y-47946572D01*
X54128122Y-47930798D01*
X54131997Y-47915329D01*
X54137370Y-47900314D01*
X54144188Y-47885898D01*
X54152386Y-47872220D01*
X54161886Y-47859411D01*
X54172595Y-47847595D01*
X54184411Y-47836886D01*
X54197220Y-47827386D01*
X54210898Y-47819188D01*
X54225314Y-47812370D01*
X54240329Y-47806997D01*
X54255798Y-47803122D01*
X54271572Y-47800782D01*
X54287500Y-47800000D01*
X54612500Y-47800000D01*
X54628428Y-47800782D01*
X54628428Y-47800782D01*
G37*
D25*
X54450000Y-48437500D03*
D10*
G36*
X55128428Y-47800782D02*
G01*
X55144202Y-47803122D01*
X55159671Y-47806997D01*
X55174686Y-47812370D01*
X55189102Y-47819188D01*
X55202780Y-47827386D01*
X55215589Y-47836886D01*
X55227405Y-47847595D01*
X55238114Y-47859411D01*
X55247614Y-47872220D01*
X55255812Y-47885898D01*
X55262630Y-47900314D01*
X55268003Y-47915329D01*
X55271878Y-47930798D01*
X55274218Y-47946572D01*
X55275000Y-47962500D01*
X55275000Y-48912500D01*
X55274218Y-48928428D01*
X55271878Y-48944202D01*
X55268003Y-48959671D01*
X55262630Y-48974686D01*
X55255812Y-48989102D01*
X55247614Y-49002780D01*
X55238114Y-49015589D01*
X55227405Y-49027405D01*
X55215589Y-49038114D01*
X55202780Y-49047614D01*
X55189102Y-49055812D01*
X55174686Y-49062630D01*
X55159671Y-49068003D01*
X55144202Y-49071878D01*
X55128428Y-49074218D01*
X55112500Y-49075000D01*
X54787500Y-49075000D01*
X54771572Y-49074218D01*
X54755798Y-49071878D01*
X54740329Y-49068003D01*
X54725314Y-49062630D01*
X54710898Y-49055812D01*
X54697220Y-49047614D01*
X54684411Y-49038114D01*
X54672595Y-49027405D01*
X54661886Y-49015589D01*
X54652386Y-49002780D01*
X54644188Y-48989102D01*
X54637370Y-48974686D01*
X54631997Y-48959671D01*
X54628122Y-48944202D01*
X54625782Y-48928428D01*
X54625000Y-48912500D01*
X54625000Y-47962500D01*
X54625782Y-47946572D01*
X54628122Y-47930798D01*
X54631997Y-47915329D01*
X54637370Y-47900314D01*
X54644188Y-47885898D01*
X54652386Y-47872220D01*
X54661886Y-47859411D01*
X54672595Y-47847595D01*
X54684411Y-47836886D01*
X54697220Y-47827386D01*
X54710898Y-47819188D01*
X54725314Y-47812370D01*
X54740329Y-47806997D01*
X54755798Y-47803122D01*
X54771572Y-47800782D01*
X54787500Y-47800000D01*
X55112500Y-47800000D01*
X55128428Y-47800782D01*
X55128428Y-47800782D01*
G37*
D25*
X54950000Y-48437500D03*
D10*
G36*
X55628428Y-47800782D02*
G01*
X55644202Y-47803122D01*
X55659671Y-47806997D01*
X55674686Y-47812370D01*
X55689102Y-47819188D01*
X55702780Y-47827386D01*
X55715589Y-47836886D01*
X55727405Y-47847595D01*
X55738114Y-47859411D01*
X55747614Y-47872220D01*
X55755812Y-47885898D01*
X55762630Y-47900314D01*
X55768003Y-47915329D01*
X55771878Y-47930798D01*
X55774218Y-47946572D01*
X55775000Y-47962500D01*
X55775000Y-48912500D01*
X55774218Y-48928428D01*
X55771878Y-48944202D01*
X55768003Y-48959671D01*
X55762630Y-48974686D01*
X55755812Y-48989102D01*
X55747614Y-49002780D01*
X55738114Y-49015589D01*
X55727405Y-49027405D01*
X55715589Y-49038114D01*
X55702780Y-49047614D01*
X55689102Y-49055812D01*
X55674686Y-49062630D01*
X55659671Y-49068003D01*
X55644202Y-49071878D01*
X55628428Y-49074218D01*
X55612500Y-49075000D01*
X55287500Y-49075000D01*
X55271572Y-49074218D01*
X55255798Y-49071878D01*
X55240329Y-49068003D01*
X55225314Y-49062630D01*
X55210898Y-49055812D01*
X55197220Y-49047614D01*
X55184411Y-49038114D01*
X55172595Y-49027405D01*
X55161886Y-49015589D01*
X55152386Y-49002780D01*
X55144188Y-48989102D01*
X55137370Y-48974686D01*
X55131997Y-48959671D01*
X55128122Y-48944202D01*
X55125782Y-48928428D01*
X55125000Y-48912500D01*
X55125000Y-47962500D01*
X55125782Y-47946572D01*
X55128122Y-47930798D01*
X55131997Y-47915329D01*
X55137370Y-47900314D01*
X55144188Y-47885898D01*
X55152386Y-47872220D01*
X55161886Y-47859411D01*
X55172595Y-47847595D01*
X55184411Y-47836886D01*
X55197220Y-47827386D01*
X55210898Y-47819188D01*
X55225314Y-47812370D01*
X55240329Y-47806997D01*
X55255798Y-47803122D01*
X55271572Y-47800782D01*
X55287500Y-47800000D01*
X55612500Y-47800000D01*
X55628428Y-47800782D01*
X55628428Y-47800782D01*
G37*
D25*
X55450000Y-48437500D03*
D10*
G36*
X56128428Y-47800782D02*
G01*
X56144202Y-47803122D01*
X56159671Y-47806997D01*
X56174686Y-47812370D01*
X56189102Y-47819188D01*
X56202780Y-47827386D01*
X56215589Y-47836886D01*
X56227405Y-47847595D01*
X56238114Y-47859411D01*
X56247614Y-47872220D01*
X56255812Y-47885898D01*
X56262630Y-47900314D01*
X56268003Y-47915329D01*
X56271878Y-47930798D01*
X56274218Y-47946572D01*
X56275000Y-47962500D01*
X56275000Y-48912500D01*
X56274218Y-48928428D01*
X56271878Y-48944202D01*
X56268003Y-48959671D01*
X56262630Y-48974686D01*
X56255812Y-48989102D01*
X56247614Y-49002780D01*
X56238114Y-49015589D01*
X56227405Y-49027405D01*
X56215589Y-49038114D01*
X56202780Y-49047614D01*
X56189102Y-49055812D01*
X56174686Y-49062630D01*
X56159671Y-49068003D01*
X56144202Y-49071878D01*
X56128428Y-49074218D01*
X56112500Y-49075000D01*
X55787500Y-49075000D01*
X55771572Y-49074218D01*
X55755798Y-49071878D01*
X55740329Y-49068003D01*
X55725314Y-49062630D01*
X55710898Y-49055812D01*
X55697220Y-49047614D01*
X55684411Y-49038114D01*
X55672595Y-49027405D01*
X55661886Y-49015589D01*
X55652386Y-49002780D01*
X55644188Y-48989102D01*
X55637370Y-48974686D01*
X55631997Y-48959671D01*
X55628122Y-48944202D01*
X55625782Y-48928428D01*
X55625000Y-48912500D01*
X55625000Y-47962500D01*
X55625782Y-47946572D01*
X55628122Y-47930798D01*
X55631997Y-47915329D01*
X55637370Y-47900314D01*
X55644188Y-47885898D01*
X55652386Y-47872220D01*
X55661886Y-47859411D01*
X55672595Y-47847595D01*
X55684411Y-47836886D01*
X55697220Y-47827386D01*
X55710898Y-47819188D01*
X55725314Y-47812370D01*
X55740329Y-47806997D01*
X55755798Y-47803122D01*
X55771572Y-47800782D01*
X55787500Y-47800000D01*
X56112500Y-47800000D01*
X56128428Y-47800782D01*
X56128428Y-47800782D01*
G37*
D25*
X55950000Y-48437500D03*
D10*
G36*
X55873359Y-48951343D02*
G01*
X55900441Y-48955361D01*
X55926999Y-48962013D01*
X55952777Y-48971237D01*
X55977527Y-48982942D01*
X56001010Y-48997018D01*
X56023001Y-49013327D01*
X56043287Y-49031713D01*
X56061673Y-49051999D01*
X56077982Y-49073990D01*
X56092058Y-49097473D01*
X56103763Y-49122223D01*
X56112987Y-49148001D01*
X56119639Y-49174559D01*
X56123657Y-49201641D01*
X56125000Y-49228986D01*
X56125000Y-52521014D01*
X56123657Y-52548359D01*
X56119639Y-52575441D01*
X56112987Y-52601999D01*
X56103763Y-52627777D01*
X56092058Y-52652527D01*
X56077982Y-52676010D01*
X56061673Y-52698001D01*
X56043287Y-52718287D01*
X56023001Y-52736673D01*
X56001010Y-52752982D01*
X55977527Y-52767058D01*
X55952777Y-52778763D01*
X55926999Y-52787987D01*
X55900441Y-52794639D01*
X55873359Y-52798657D01*
X55846014Y-52800000D01*
X52553986Y-52800000D01*
X52526641Y-52798657D01*
X52499559Y-52794639D01*
X52473001Y-52787987D01*
X52447223Y-52778763D01*
X52422473Y-52767058D01*
X52398990Y-52752982D01*
X52376999Y-52736673D01*
X52356713Y-52718287D01*
X52338327Y-52698001D01*
X52322018Y-52676010D01*
X52307942Y-52652527D01*
X52296237Y-52627777D01*
X52287013Y-52601999D01*
X52280361Y-52575441D01*
X52276343Y-52548359D01*
X52275000Y-52521014D01*
X52275000Y-49228986D01*
X52276343Y-49201641D01*
X52280361Y-49174559D01*
X52287013Y-49148001D01*
X52296237Y-49122223D01*
X52307942Y-49097473D01*
X52322018Y-49073990D01*
X52338327Y-49051999D01*
X52356713Y-49031713D01*
X52376999Y-49013327D01*
X52398990Y-48997018D01*
X52422473Y-48982942D01*
X52447223Y-48971237D01*
X52473001Y-48962013D01*
X52499559Y-48955361D01*
X52526641Y-48951343D01*
X52553986Y-48950000D01*
X55846014Y-48950000D01*
X55873359Y-48951343D01*
X55873359Y-48951343D01*
G37*
D26*
X54200000Y-50875000D03*
D27*
X43600000Y-54495000D03*
X43600000Y-50495000D03*
X46000000Y-50495000D03*
X46000000Y-54495000D03*
D10*
G36*
X62920581Y-48801625D02*
G01*
X62953343Y-48806485D01*
X62985471Y-48814533D01*
X63016656Y-48825691D01*
X63046596Y-48839852D01*
X63075005Y-48856879D01*
X63101608Y-48876609D01*
X63126149Y-48898851D01*
X63148391Y-48923392D01*
X63168121Y-48949995D01*
X63185148Y-48978404D01*
X63199309Y-49008344D01*
X63210467Y-49039529D01*
X63218515Y-49071657D01*
X63223375Y-49104419D01*
X63225000Y-49137500D01*
X63225000Y-49812500D01*
X63223375Y-49845581D01*
X63218515Y-49878343D01*
X63210467Y-49910471D01*
X63199309Y-49941656D01*
X63185148Y-49971596D01*
X63168121Y-50000005D01*
X63148391Y-50026608D01*
X63126149Y-50051149D01*
X63101608Y-50073391D01*
X63075005Y-50093121D01*
X63046596Y-50110148D01*
X63016656Y-50124309D01*
X62985471Y-50135467D01*
X62953343Y-50143515D01*
X62920581Y-50148375D01*
X62887500Y-50150000D01*
X62112500Y-50150000D01*
X62079419Y-50148375D01*
X62046657Y-50143515D01*
X62014529Y-50135467D01*
X61983344Y-50124309D01*
X61953404Y-50110148D01*
X61924995Y-50093121D01*
X61898392Y-50073391D01*
X61873851Y-50051149D01*
X61851609Y-50026608D01*
X61831879Y-50000005D01*
X61814852Y-49971596D01*
X61800691Y-49941656D01*
X61789533Y-49910471D01*
X61781485Y-49878343D01*
X61776625Y-49845581D01*
X61775000Y-49812500D01*
X61775000Y-49137500D01*
X61776625Y-49104419D01*
X61781485Y-49071657D01*
X61789533Y-49039529D01*
X61800691Y-49008344D01*
X61814852Y-48978404D01*
X61831879Y-48949995D01*
X61851609Y-48923392D01*
X61873851Y-48898851D01*
X61898392Y-48876609D01*
X61924995Y-48856879D01*
X61953404Y-48839852D01*
X61983344Y-48825691D01*
X62014529Y-48814533D01*
X62046657Y-48806485D01*
X62079419Y-48801625D01*
X62112500Y-48800000D01*
X62887500Y-48800000D01*
X62920581Y-48801625D01*
X62920581Y-48801625D01*
G37*
D11*
X62500000Y-49475000D03*
D10*
G36*
X61170581Y-48801625D02*
G01*
X61203343Y-48806485D01*
X61235471Y-48814533D01*
X61266656Y-48825691D01*
X61296596Y-48839852D01*
X61325005Y-48856879D01*
X61351608Y-48876609D01*
X61376149Y-48898851D01*
X61398391Y-48923392D01*
X61418121Y-48949995D01*
X61435148Y-48978404D01*
X61449309Y-49008344D01*
X61460467Y-49039529D01*
X61468515Y-49071657D01*
X61473375Y-49104419D01*
X61475000Y-49137500D01*
X61475000Y-49812500D01*
X61473375Y-49845581D01*
X61468515Y-49878343D01*
X61460467Y-49910471D01*
X61449309Y-49941656D01*
X61435148Y-49971596D01*
X61418121Y-50000005D01*
X61398391Y-50026608D01*
X61376149Y-50051149D01*
X61351608Y-50073391D01*
X61325005Y-50093121D01*
X61296596Y-50110148D01*
X61266656Y-50124309D01*
X61235471Y-50135467D01*
X61203343Y-50143515D01*
X61170581Y-50148375D01*
X61137500Y-50150000D01*
X60362500Y-50150000D01*
X60329419Y-50148375D01*
X60296657Y-50143515D01*
X60264529Y-50135467D01*
X60233344Y-50124309D01*
X60203404Y-50110148D01*
X60174995Y-50093121D01*
X60148392Y-50073391D01*
X60123851Y-50051149D01*
X60101609Y-50026608D01*
X60081879Y-50000005D01*
X60064852Y-49971596D01*
X60050691Y-49941656D01*
X60039533Y-49910471D01*
X60031485Y-49878343D01*
X60026625Y-49845581D01*
X60025000Y-49812500D01*
X60025000Y-49137500D01*
X60026625Y-49104419D01*
X60031485Y-49071657D01*
X60039533Y-49039529D01*
X60050691Y-49008344D01*
X60064852Y-48978404D01*
X60081879Y-48949995D01*
X60101609Y-48923392D01*
X60123851Y-48898851D01*
X60148392Y-48876609D01*
X60174995Y-48856879D01*
X60203404Y-48839852D01*
X60233344Y-48825691D01*
X60264529Y-48814533D01*
X60296657Y-48806485D01*
X60329419Y-48801625D01*
X60362500Y-48800000D01*
X61137500Y-48800000D01*
X61170581Y-48801625D01*
X61170581Y-48801625D01*
G37*
D11*
X60750000Y-49475000D03*
D10*
G36*
X48170581Y-48626625D02*
G01*
X48203343Y-48631485D01*
X48235471Y-48639533D01*
X48266656Y-48650691D01*
X48296596Y-48664852D01*
X48325005Y-48681879D01*
X48351608Y-48701609D01*
X48376149Y-48723851D01*
X48398391Y-48748392D01*
X48418121Y-48774995D01*
X48435148Y-48803404D01*
X48449309Y-48833344D01*
X48460467Y-48864529D01*
X48468515Y-48896657D01*
X48473375Y-48929419D01*
X48475000Y-48962500D01*
X48475000Y-49737500D01*
X48473375Y-49770581D01*
X48468515Y-49803343D01*
X48460467Y-49835471D01*
X48449309Y-49866656D01*
X48435148Y-49896596D01*
X48418121Y-49925005D01*
X48398391Y-49951608D01*
X48376149Y-49976149D01*
X48351608Y-49998391D01*
X48325005Y-50018121D01*
X48296596Y-50035148D01*
X48266656Y-50049309D01*
X48235471Y-50060467D01*
X48203343Y-50068515D01*
X48170581Y-50073375D01*
X48137500Y-50075000D01*
X47462500Y-50075000D01*
X47429419Y-50073375D01*
X47396657Y-50068515D01*
X47364529Y-50060467D01*
X47333344Y-50049309D01*
X47303404Y-50035148D01*
X47274995Y-50018121D01*
X47248392Y-49998391D01*
X47223851Y-49976149D01*
X47201609Y-49951608D01*
X47181879Y-49925005D01*
X47164852Y-49896596D01*
X47150691Y-49866656D01*
X47139533Y-49835471D01*
X47131485Y-49803343D01*
X47126625Y-49770581D01*
X47125000Y-49737500D01*
X47125000Y-48962500D01*
X47126625Y-48929419D01*
X47131485Y-48896657D01*
X47139533Y-48864529D01*
X47150691Y-48833344D01*
X47164852Y-48803404D01*
X47181879Y-48774995D01*
X47201609Y-48748392D01*
X47223851Y-48723851D01*
X47248392Y-48701609D01*
X47274995Y-48681879D01*
X47303404Y-48664852D01*
X47333344Y-48650691D01*
X47364529Y-48639533D01*
X47396657Y-48631485D01*
X47429419Y-48626625D01*
X47462500Y-48625000D01*
X48137500Y-48625000D01*
X48170581Y-48626625D01*
X48170581Y-48626625D01*
G37*
D11*
X47800000Y-49350000D03*
D10*
G36*
X48170581Y-46876625D02*
G01*
X48203343Y-46881485D01*
X48235471Y-46889533D01*
X48266656Y-46900691D01*
X48296596Y-46914852D01*
X48325005Y-46931879D01*
X48351608Y-46951609D01*
X48376149Y-46973851D01*
X48398391Y-46998392D01*
X48418121Y-47024995D01*
X48435148Y-47053404D01*
X48449309Y-47083344D01*
X48460467Y-47114529D01*
X48468515Y-47146657D01*
X48473375Y-47179419D01*
X48475000Y-47212500D01*
X48475000Y-47987500D01*
X48473375Y-48020581D01*
X48468515Y-48053343D01*
X48460467Y-48085471D01*
X48449309Y-48116656D01*
X48435148Y-48146596D01*
X48418121Y-48175005D01*
X48398391Y-48201608D01*
X48376149Y-48226149D01*
X48351608Y-48248391D01*
X48325005Y-48268121D01*
X48296596Y-48285148D01*
X48266656Y-48299309D01*
X48235471Y-48310467D01*
X48203343Y-48318515D01*
X48170581Y-48323375D01*
X48137500Y-48325000D01*
X47462500Y-48325000D01*
X47429419Y-48323375D01*
X47396657Y-48318515D01*
X47364529Y-48310467D01*
X47333344Y-48299309D01*
X47303404Y-48285148D01*
X47274995Y-48268121D01*
X47248392Y-48248391D01*
X47223851Y-48226149D01*
X47201609Y-48201608D01*
X47181879Y-48175005D01*
X47164852Y-48146596D01*
X47150691Y-48116656D01*
X47139533Y-48085471D01*
X47131485Y-48053343D01*
X47126625Y-48020581D01*
X47125000Y-47987500D01*
X47125000Y-47212500D01*
X47126625Y-47179419D01*
X47131485Y-47146657D01*
X47139533Y-47114529D01*
X47150691Y-47083344D01*
X47164852Y-47053404D01*
X47181879Y-47024995D01*
X47201609Y-46998392D01*
X47223851Y-46973851D01*
X47248392Y-46951609D01*
X47274995Y-46931879D01*
X47303404Y-46914852D01*
X47333344Y-46900691D01*
X47364529Y-46889533D01*
X47396657Y-46881485D01*
X47429419Y-46876625D01*
X47462500Y-46875000D01*
X48137500Y-46875000D01*
X48170581Y-46876625D01*
X48170581Y-46876625D01*
G37*
D11*
X47800000Y-47600000D03*
D10*
G36*
X76945581Y-65326625D02*
G01*
X76978343Y-65331485D01*
X77010471Y-65339533D01*
X77041656Y-65350691D01*
X77071596Y-65364852D01*
X77100005Y-65381879D01*
X77126608Y-65401609D01*
X77151149Y-65423851D01*
X77173391Y-65448392D01*
X77193121Y-65474995D01*
X77210148Y-65503404D01*
X77224309Y-65533344D01*
X77235467Y-65564529D01*
X77243515Y-65596657D01*
X77248375Y-65629419D01*
X77250000Y-65662500D01*
X77250000Y-66437500D01*
X77248375Y-66470581D01*
X77243515Y-66503343D01*
X77235467Y-66535471D01*
X77224309Y-66566656D01*
X77210148Y-66596596D01*
X77193121Y-66625005D01*
X77173391Y-66651608D01*
X77151149Y-66676149D01*
X77126608Y-66698391D01*
X77100005Y-66718121D01*
X77071596Y-66735148D01*
X77041656Y-66749309D01*
X77010471Y-66760467D01*
X76978343Y-66768515D01*
X76945581Y-66773375D01*
X76912500Y-66775000D01*
X76237500Y-66775000D01*
X76204419Y-66773375D01*
X76171657Y-66768515D01*
X76139529Y-66760467D01*
X76108344Y-66749309D01*
X76078404Y-66735148D01*
X76049995Y-66718121D01*
X76023392Y-66698391D01*
X75998851Y-66676149D01*
X75976609Y-66651608D01*
X75956879Y-66625005D01*
X75939852Y-66596596D01*
X75925691Y-66566656D01*
X75914533Y-66535471D01*
X75906485Y-66503343D01*
X75901625Y-66470581D01*
X75900000Y-66437500D01*
X75900000Y-65662500D01*
X75901625Y-65629419D01*
X75906485Y-65596657D01*
X75914533Y-65564529D01*
X75925691Y-65533344D01*
X75939852Y-65503404D01*
X75956879Y-65474995D01*
X75976609Y-65448392D01*
X75998851Y-65423851D01*
X76023392Y-65401609D01*
X76049995Y-65381879D01*
X76078404Y-65364852D01*
X76108344Y-65350691D01*
X76139529Y-65339533D01*
X76171657Y-65331485D01*
X76204419Y-65326625D01*
X76237500Y-65325000D01*
X76912500Y-65325000D01*
X76945581Y-65326625D01*
X76945581Y-65326625D01*
G37*
D11*
X76575000Y-66050000D03*
D10*
G36*
X76945581Y-67076625D02*
G01*
X76978343Y-67081485D01*
X77010471Y-67089533D01*
X77041656Y-67100691D01*
X77071596Y-67114852D01*
X77100005Y-67131879D01*
X77126608Y-67151609D01*
X77151149Y-67173851D01*
X77173391Y-67198392D01*
X77193121Y-67224995D01*
X77210148Y-67253404D01*
X77224309Y-67283344D01*
X77235467Y-67314529D01*
X77243515Y-67346657D01*
X77248375Y-67379419D01*
X77250000Y-67412500D01*
X77250000Y-68187500D01*
X77248375Y-68220581D01*
X77243515Y-68253343D01*
X77235467Y-68285471D01*
X77224309Y-68316656D01*
X77210148Y-68346596D01*
X77193121Y-68375005D01*
X77173391Y-68401608D01*
X77151149Y-68426149D01*
X77126608Y-68448391D01*
X77100005Y-68468121D01*
X77071596Y-68485148D01*
X77041656Y-68499309D01*
X77010471Y-68510467D01*
X76978343Y-68518515D01*
X76945581Y-68523375D01*
X76912500Y-68525000D01*
X76237500Y-68525000D01*
X76204419Y-68523375D01*
X76171657Y-68518515D01*
X76139529Y-68510467D01*
X76108344Y-68499309D01*
X76078404Y-68485148D01*
X76049995Y-68468121D01*
X76023392Y-68448391D01*
X75998851Y-68426149D01*
X75976609Y-68401608D01*
X75956879Y-68375005D01*
X75939852Y-68346596D01*
X75925691Y-68316656D01*
X75914533Y-68285471D01*
X75906485Y-68253343D01*
X75901625Y-68220581D01*
X75900000Y-68187500D01*
X75900000Y-67412500D01*
X75901625Y-67379419D01*
X75906485Y-67346657D01*
X75914533Y-67314529D01*
X75925691Y-67283344D01*
X75939852Y-67253404D01*
X75956879Y-67224995D01*
X75976609Y-67198392D01*
X75998851Y-67173851D01*
X76023392Y-67151609D01*
X76049995Y-67131879D01*
X76078404Y-67114852D01*
X76108344Y-67100691D01*
X76139529Y-67089533D01*
X76171657Y-67081485D01*
X76204419Y-67076625D01*
X76237500Y-67075000D01*
X76912500Y-67075000D01*
X76945581Y-67076625D01*
X76945581Y-67076625D01*
G37*
D11*
X76575000Y-67800000D03*
D10*
G36*
X67695581Y-46301625D02*
G01*
X67728343Y-46306485D01*
X67760471Y-46314533D01*
X67791656Y-46325691D01*
X67821596Y-46339852D01*
X67850005Y-46356879D01*
X67876608Y-46376609D01*
X67901149Y-46398851D01*
X67923391Y-46423392D01*
X67943121Y-46449995D01*
X67960148Y-46478404D01*
X67974309Y-46508344D01*
X67985467Y-46539529D01*
X67993515Y-46571657D01*
X67998375Y-46604419D01*
X68000000Y-46637500D01*
X68000000Y-47412500D01*
X67998375Y-47445581D01*
X67993515Y-47478343D01*
X67985467Y-47510471D01*
X67974309Y-47541656D01*
X67960148Y-47571596D01*
X67943121Y-47600005D01*
X67923391Y-47626608D01*
X67901149Y-47651149D01*
X67876608Y-47673391D01*
X67850005Y-47693121D01*
X67821596Y-47710148D01*
X67791656Y-47724309D01*
X67760471Y-47735467D01*
X67728343Y-47743515D01*
X67695581Y-47748375D01*
X67662500Y-47750000D01*
X66987500Y-47750000D01*
X66954419Y-47748375D01*
X66921657Y-47743515D01*
X66889529Y-47735467D01*
X66858344Y-47724309D01*
X66828404Y-47710148D01*
X66799995Y-47693121D01*
X66773392Y-47673391D01*
X66748851Y-47651149D01*
X66726609Y-47626608D01*
X66706879Y-47600005D01*
X66689852Y-47571596D01*
X66675691Y-47541656D01*
X66664533Y-47510471D01*
X66656485Y-47478343D01*
X66651625Y-47445581D01*
X66650000Y-47412500D01*
X66650000Y-46637500D01*
X66651625Y-46604419D01*
X66656485Y-46571657D01*
X66664533Y-46539529D01*
X66675691Y-46508344D01*
X66689852Y-46478404D01*
X66706879Y-46449995D01*
X66726609Y-46423392D01*
X66748851Y-46398851D01*
X66773392Y-46376609D01*
X66799995Y-46356879D01*
X66828404Y-46339852D01*
X66858344Y-46325691D01*
X66889529Y-46314533D01*
X66921657Y-46306485D01*
X66954419Y-46301625D01*
X66987500Y-46300000D01*
X67662500Y-46300000D01*
X67695581Y-46301625D01*
X67695581Y-46301625D01*
G37*
D11*
X67325000Y-47025000D03*
D10*
G36*
X67695581Y-48051625D02*
G01*
X67728343Y-48056485D01*
X67760471Y-48064533D01*
X67791656Y-48075691D01*
X67821596Y-48089852D01*
X67850005Y-48106879D01*
X67876608Y-48126609D01*
X67901149Y-48148851D01*
X67923391Y-48173392D01*
X67943121Y-48199995D01*
X67960148Y-48228404D01*
X67974309Y-48258344D01*
X67985467Y-48289529D01*
X67993515Y-48321657D01*
X67998375Y-48354419D01*
X68000000Y-48387500D01*
X68000000Y-49162500D01*
X67998375Y-49195581D01*
X67993515Y-49228343D01*
X67985467Y-49260471D01*
X67974309Y-49291656D01*
X67960148Y-49321596D01*
X67943121Y-49350005D01*
X67923391Y-49376608D01*
X67901149Y-49401149D01*
X67876608Y-49423391D01*
X67850005Y-49443121D01*
X67821596Y-49460148D01*
X67791656Y-49474309D01*
X67760471Y-49485467D01*
X67728343Y-49493515D01*
X67695581Y-49498375D01*
X67662500Y-49500000D01*
X66987500Y-49500000D01*
X66954419Y-49498375D01*
X66921657Y-49493515D01*
X66889529Y-49485467D01*
X66858344Y-49474309D01*
X66828404Y-49460148D01*
X66799995Y-49443121D01*
X66773392Y-49423391D01*
X66748851Y-49401149D01*
X66726609Y-49376608D01*
X66706879Y-49350005D01*
X66689852Y-49321596D01*
X66675691Y-49291656D01*
X66664533Y-49260471D01*
X66656485Y-49228343D01*
X66651625Y-49195581D01*
X66650000Y-49162500D01*
X66650000Y-48387500D01*
X66651625Y-48354419D01*
X66656485Y-48321657D01*
X66664533Y-48289529D01*
X66675691Y-48258344D01*
X66689852Y-48228404D01*
X66706879Y-48199995D01*
X66726609Y-48173392D01*
X66748851Y-48148851D01*
X66773392Y-48126609D01*
X66799995Y-48106879D01*
X66828404Y-48089852D01*
X66858344Y-48075691D01*
X66889529Y-48064533D01*
X66921657Y-48056485D01*
X66954419Y-48051625D01*
X66987500Y-48050000D01*
X67662500Y-48050000D01*
X67695581Y-48051625D01*
X67695581Y-48051625D01*
G37*
D11*
X67325000Y-48775000D03*
D10*
G36*
X49245581Y-44226625D02*
G01*
X49278343Y-44231485D01*
X49310471Y-44239533D01*
X49341656Y-44250691D01*
X49371596Y-44264852D01*
X49400005Y-44281879D01*
X49426608Y-44301609D01*
X49451149Y-44323851D01*
X49473391Y-44348392D01*
X49493121Y-44374995D01*
X49510148Y-44403404D01*
X49524309Y-44433344D01*
X49535467Y-44464529D01*
X49543515Y-44496657D01*
X49548375Y-44529419D01*
X49550000Y-44562500D01*
X49550000Y-45237500D01*
X49548375Y-45270581D01*
X49543515Y-45303343D01*
X49535467Y-45335471D01*
X49524309Y-45366656D01*
X49510148Y-45396596D01*
X49493121Y-45425005D01*
X49473391Y-45451608D01*
X49451149Y-45476149D01*
X49426608Y-45498391D01*
X49400005Y-45518121D01*
X49371596Y-45535148D01*
X49341656Y-45549309D01*
X49310471Y-45560467D01*
X49278343Y-45568515D01*
X49245581Y-45573375D01*
X49212500Y-45575000D01*
X48437500Y-45575000D01*
X48404419Y-45573375D01*
X48371657Y-45568515D01*
X48339529Y-45560467D01*
X48308344Y-45549309D01*
X48278404Y-45535148D01*
X48249995Y-45518121D01*
X48223392Y-45498391D01*
X48198851Y-45476149D01*
X48176609Y-45451608D01*
X48156879Y-45425005D01*
X48139852Y-45396596D01*
X48125691Y-45366656D01*
X48114533Y-45335471D01*
X48106485Y-45303343D01*
X48101625Y-45270581D01*
X48100000Y-45237500D01*
X48100000Y-44562500D01*
X48101625Y-44529419D01*
X48106485Y-44496657D01*
X48114533Y-44464529D01*
X48125691Y-44433344D01*
X48139852Y-44403404D01*
X48156879Y-44374995D01*
X48176609Y-44348392D01*
X48198851Y-44323851D01*
X48223392Y-44301609D01*
X48249995Y-44281879D01*
X48278404Y-44264852D01*
X48308344Y-44250691D01*
X48339529Y-44239533D01*
X48371657Y-44231485D01*
X48404419Y-44226625D01*
X48437500Y-44225000D01*
X49212500Y-44225000D01*
X49245581Y-44226625D01*
X49245581Y-44226625D01*
G37*
D11*
X48825000Y-44900000D03*
D10*
G36*
X50995581Y-44226625D02*
G01*
X51028343Y-44231485D01*
X51060471Y-44239533D01*
X51091656Y-44250691D01*
X51121596Y-44264852D01*
X51150005Y-44281879D01*
X51176608Y-44301609D01*
X51201149Y-44323851D01*
X51223391Y-44348392D01*
X51243121Y-44374995D01*
X51260148Y-44403404D01*
X51274309Y-44433344D01*
X51285467Y-44464529D01*
X51293515Y-44496657D01*
X51298375Y-44529419D01*
X51300000Y-44562500D01*
X51300000Y-45237500D01*
X51298375Y-45270581D01*
X51293515Y-45303343D01*
X51285467Y-45335471D01*
X51274309Y-45366656D01*
X51260148Y-45396596D01*
X51243121Y-45425005D01*
X51223391Y-45451608D01*
X51201149Y-45476149D01*
X51176608Y-45498391D01*
X51150005Y-45518121D01*
X51121596Y-45535148D01*
X51091656Y-45549309D01*
X51060471Y-45560467D01*
X51028343Y-45568515D01*
X50995581Y-45573375D01*
X50962500Y-45575000D01*
X50187500Y-45575000D01*
X50154419Y-45573375D01*
X50121657Y-45568515D01*
X50089529Y-45560467D01*
X50058344Y-45549309D01*
X50028404Y-45535148D01*
X49999995Y-45518121D01*
X49973392Y-45498391D01*
X49948851Y-45476149D01*
X49926609Y-45451608D01*
X49906879Y-45425005D01*
X49889852Y-45396596D01*
X49875691Y-45366656D01*
X49864533Y-45335471D01*
X49856485Y-45303343D01*
X49851625Y-45270581D01*
X49850000Y-45237500D01*
X49850000Y-44562500D01*
X49851625Y-44529419D01*
X49856485Y-44496657D01*
X49864533Y-44464529D01*
X49875691Y-44433344D01*
X49889852Y-44403404D01*
X49906879Y-44374995D01*
X49926609Y-44348392D01*
X49948851Y-44323851D01*
X49973392Y-44301609D01*
X49999995Y-44281879D01*
X50028404Y-44264852D01*
X50058344Y-44250691D01*
X50089529Y-44239533D01*
X50121657Y-44231485D01*
X50154419Y-44226625D01*
X50187500Y-44225000D01*
X50962500Y-44225000D01*
X50995581Y-44226625D01*
X50995581Y-44226625D01*
G37*
D11*
X50575000Y-44900000D03*
D28*
X80550000Y-48705000D03*
X80550000Y-49975000D03*
X80550000Y-51245000D03*
X80550000Y-52515000D03*
X80550000Y-53785000D03*
X80550000Y-55055000D03*
X80550000Y-56325000D03*
X80550000Y-57595000D03*
X71250000Y-57595000D03*
X71250000Y-56325000D03*
X71250000Y-55055000D03*
X71250000Y-53785000D03*
X71250000Y-52515000D03*
X71250000Y-51245000D03*
X71250000Y-49975000D03*
X71250000Y-48705000D03*
D29*
X89260000Y-35065000D03*
X43540000Y-35065000D03*
D30*
X90530000Y-32345000D03*
X90530000Y-37785000D03*
X87990000Y-32345000D03*
X87990000Y-37785000D03*
X85450000Y-32345000D03*
X85450000Y-37785000D03*
X82910000Y-32345000D03*
X82910000Y-37785000D03*
X80370000Y-32345000D03*
X80370000Y-37785000D03*
X77830000Y-32345000D03*
X77830000Y-37785000D03*
X75290000Y-32345000D03*
X75290000Y-37785000D03*
X72750000Y-32345000D03*
X72750000Y-37785000D03*
X70210000Y-32345000D03*
X70210000Y-37785000D03*
X67670000Y-32345000D03*
X67670000Y-37785000D03*
X65130000Y-32345000D03*
X65130000Y-37785000D03*
X62590000Y-32345000D03*
X62590000Y-37785000D03*
X60050000Y-32345000D03*
X60050000Y-37785000D03*
X57510000Y-32345000D03*
X57510000Y-37785000D03*
X54970000Y-32345000D03*
X54970000Y-37785000D03*
X52430000Y-32345000D03*
X52430000Y-37785000D03*
X49890000Y-32345000D03*
X49890000Y-37785000D03*
X47350000Y-32345000D03*
X47350000Y-37785000D03*
X44810000Y-32345000D03*
X44810000Y-37785000D03*
X42270000Y-32345000D03*
X42270000Y-37785000D03*
D31*
X90530000Y-33795000D03*
X90530000Y-36335000D03*
X87990000Y-33795000D03*
X87990000Y-36335000D03*
X85450000Y-33795000D03*
X85450000Y-36335000D03*
X82910000Y-33795000D03*
X82910000Y-36335000D03*
X80370000Y-33795000D03*
X80370000Y-36335000D03*
X77830000Y-33795000D03*
X77830000Y-36335000D03*
X75290000Y-33795000D03*
X75290000Y-36335000D03*
X72750000Y-33795000D03*
X72750000Y-36335000D03*
X70210000Y-33795000D03*
X70210000Y-36335000D03*
X67670000Y-33795000D03*
X67670000Y-36335000D03*
X65130000Y-33795000D03*
X65130000Y-36335000D03*
X62590000Y-33795000D03*
X62590000Y-36335000D03*
X60050000Y-33795000D03*
X60050000Y-36335000D03*
X57510000Y-33795000D03*
X57510000Y-36335000D03*
X54970000Y-33795000D03*
X54970000Y-36335000D03*
X52430000Y-33795000D03*
X52430000Y-36335000D03*
X49890000Y-33795000D03*
X49890000Y-36335000D03*
X47350000Y-33795000D03*
X47350000Y-36335000D03*
X44810000Y-33795000D03*
X44810000Y-36335000D03*
X42270000Y-33795000D03*
X42270000Y-36335000D03*
D23*
X37400000Y-35075000D03*
X95400000Y-35075000D03*
X37400000Y-84075000D03*
X95400000Y-84075000D03*
M02*
