M48
; DRILL file {KiCad (5.1.4-0)} date Tuesday, 15 October 2019 at 22:26:52
; FORMAT={3:3/ absolute / metric / suppress leading zeros}
; #@! TF.CreationDate,2019-10-15T22:26:52+01:00
; #@! TF.GenerationSoftware,Kicad,Pcbnew,(5.1.4-0)
FMAT,2
METRIC,TZ
T1C0.300
T2C0.650
T3C1.000
T4C1.016
T5C1.020
T6C1.780
T7C2.750
%
G90
G05
T1
X35575Y-46275
X35595Y-49450
X35600Y-52700
X37025Y-78575
X40850Y-69050
X41100Y-60100
X41325Y-59125
X41975Y-78875
X42800Y-68450
X43925Y-48500
X44100Y-61200
X45100Y-40675
X45325Y-45525
X45475Y-74750
X45575Y-61200
X46325Y-39450
X46525Y-61200
X46775Y-58200
X46950Y-73325
X48000Y-69100
X48375Y-61200
X48550Y-74725
X48600Y-54950
X48750Y-49350
X48800Y-39450
X49225Y-54125
X49400Y-58200
X49575Y-52025
X49588Y-50787
X50300Y-74725
X50325Y-51400
X51375Y-58200
X51400Y-53275
X51450Y-55125
X51500Y-41550
X51975Y-46850
X52950Y-77925
X53000Y-49675
X53000Y-52075
X53175Y-40725
X53450Y-55725
X54100Y-73425
X54200Y-50875
X54775Y-45050
X54800Y-56850
X55150Y-75900
X55400Y-49675
X55400Y-52075
X55425Y-46550
X55550Y-69050
X55925Y-60800
X56650Y-46200
X56775Y-44575
X56975Y-41600
X57050Y-60800
X57375Y-57550
X57400Y-40700
X57500Y-68425
X58000Y-51700
X58050Y-48475
X58150Y-60800
X58300Y-58825
X58463Y-49438
X58775Y-51125
X59050Y-46525
X59750Y-55250
X60000Y-49475
X60225Y-58825
X60225Y-73575
X60725Y-60800
X60975Y-46525
X61225Y-60125
X62025Y-61425
X62175Y-55250
X62700Y-69075
X62875Y-50150
X63350Y-76125
X63500Y-72825
X63525Y-44400
X63575Y-54050
X63600Y-46125
X64125Y-42350
X64475Y-41425
X64475Y-43400
X65275Y-54050
X65325Y-47800
X66950Y-54500
X67100Y-72450
X67125Y-64900
X67125Y-67000
X67325Y-59675
X67475Y-75825
X67475Y-76850
X67525Y-61325
X68425Y-45600
X68525Y-61875
X68550Y-40800
X68825Y-64925
X69225Y-41575
X70275Y-55050
X70550Y-78975
X70775Y-59525
X70775Y-64800
X71000Y-66900
X71350Y-68675
X72075Y-61525
X72550Y-66900
X73375Y-57375
X73925Y-42600
X74025Y-61525
X74050Y-48325
X74050Y-72350
X75075Y-70525
X75150Y-58850
X75400Y-45600
X75950Y-69875
X76450Y-43100
X76500Y-47500
X76525Y-58850
X76550Y-64875
X76625Y-69900
X77025Y-70950
X78075Y-70525
X78550Y-74950
X78925Y-61475
X79025Y-56325
X79500Y-77800
X79600Y-47500
X79625Y-60725
X80300Y-61500
X80800Y-69100
X80900Y-64975
X80975Y-74225
X81000Y-75750
X81150Y-47500
X81225Y-61725
X81575Y-77800
X81775Y-58825
X82400Y-66700
X82800Y-59575
X83675Y-60450
X85550Y-60450
X86425Y-55000
T2
X67380Y-52030
X67380Y-53300
X68650Y-52030
X68650Y-53300
X37550Y-40905
X37550Y-42175
X78575Y-45205
X78575Y-46475
X63855Y-59230
X63855Y-60500
X65125Y-59230
X65125Y-60500
X42785Y-46475
X44055Y-46475
X45325Y-46475
X82400Y-40275
X82400Y-41545
T3
X86180Y-73760
X42270Y-33795
X42270Y-36335
X44810Y-33795
X44810Y-36335
X86180Y-76300
X86180Y-78840
X86180Y-81380
X86180Y-83920
X88720Y-76300
X88720Y-78840
X88720Y-81380
X88720Y-83920
X47350Y-33795
X47350Y-36335
X49890Y-33795
X49890Y-36335
X52430Y-33795
X52430Y-36335
X54970Y-33795
X54970Y-36335
X57510Y-33795
X57510Y-36335
X60050Y-33795
X60050Y-36335
X62590Y-33795
X62590Y-36335
X65130Y-33795
X65130Y-36335
X67670Y-33795
X67670Y-36335
X70210Y-33795
X88720Y-73760
X70210Y-36335
X72750Y-33795
X72750Y-36335
X75290Y-33795
X75290Y-36335
X77830Y-33795
X77830Y-36335
X80370Y-33795
X80370Y-36335
X82910Y-33795
X82910Y-36335
X85450Y-33795
X85450Y-36335
X87990Y-33795
X87990Y-36335
X90530Y-33795
X90530Y-36335
X93800Y-63600
X93800Y-66140
X93800Y-68680
X93800Y-71220
X93800Y-73760
X93800Y-76300
X93800Y-78840
X96340Y-63600
X96340Y-66140
X96340Y-68680
X96340Y-71220
X96340Y-73760
X96340Y-76300
X96340Y-78840
T4
X46610Y-80535
X46610Y-83075
X49150Y-80535
X49150Y-83075
X51690Y-80535
X51690Y-83075
X54230Y-80535
X54230Y-83075
X56770Y-80535
X56770Y-83075
X68050Y-80535
X68050Y-83075
X70590Y-80535
X70590Y-83075
X73130Y-80535
X73130Y-83075
X75670Y-80535
X75670Y-83075
X78210Y-80535
X78210Y-83075
T5
X89125Y-57125
X90992Y-47780
T6
X43540Y-35065
X89260Y-35065
T7
X37400Y-58075
X95400Y-58075
X37400Y-35075
X95400Y-35075
X37400Y-84075
X95400Y-84075
T0
M30
