G04 #@! TF.GenerationSoftware,KiCad,Pcbnew,(5.1.4-0)*
G04 #@! TF.CreationDate,2019-10-15T22:26:56+01:00*
G04 #@! TF.ProjectId,raspi-serial-hat,72617370-692d-4736-9572-69616c2d6861,3*
G04 #@! TF.SameCoordinates,Original*
G04 #@! TF.FileFunction,Legend,Top*
G04 #@! TF.FilePolarity,Positive*
%FSLAX46Y46*%
G04 Gerber Fmt 4.6, Leading zero omitted, Abs format (unit mm)*
G04 Created by KiCad (PCBNEW (5.1.4-0)) date 2019-10-15 22:26:56*
%MOMM*%
%LPD*%
G04 APERTURE LIST*
%ADD10C,0.120000*%
%ADD11C,0.200000*%
%ADD12C,0.300000*%
%ADD13C,0.150000*%
G04 APERTURE END LIST*
D10*
X76595238Y-72907142D02*
X77204761Y-72907142D01*
X76900000Y-73211904D02*
X76900000Y-72602380D01*
X35445238Y-43582142D02*
X36054761Y-43582142D01*
X35750000Y-43886904D02*
X35750000Y-43277380D01*
X62570238Y-56357142D02*
X63179761Y-56357142D01*
X62875000Y-56661904D02*
X62875000Y-56052380D01*
X62045238Y-52482142D02*
X62654761Y-52482142D01*
X62350000Y-52786904D02*
X62350000Y-52177380D01*
X91520238Y-59257142D02*
X92129761Y-59257142D01*
X91825000Y-59561904D02*
X91825000Y-58952380D01*
D11*
X88605000Y-62575000D02*
G75*
G03X88605000Y-62575000I-330000J0D01*
G01*
X75255000Y-62600000D02*
G75*
G03X75255000Y-62600000I-330000J0D01*
G01*
X39630000Y-71275000D02*
G75*
G03X39630000Y-71275000I-330000J0D01*
G01*
X54330000Y-71300000D02*
G75*
G03X54330000Y-71300000I-330000J0D01*
G01*
X46530000Y-55450000D02*
G75*
G03X46530000Y-55450000I-330000J0D01*
G01*
X57480000Y-48050000D02*
G75*
G03X57480000Y-48050000I-330000J0D01*
G01*
X70180000Y-46250000D02*
G75*
G03X70180000Y-46250000I-330000J0D01*
G01*
X70780000Y-47750000D02*
G75*
G03X70780000Y-47750000I-330000J0D01*
G01*
D12*
X90450000Y-72375000D02*
X90364285Y-72546428D01*
X90364285Y-72803571D01*
X90450000Y-73060714D01*
X90621428Y-73232142D01*
X90792857Y-73317857D01*
X91135714Y-73403571D01*
X91392857Y-73403571D01*
X91735714Y-73317857D01*
X91907142Y-73232142D01*
X92078571Y-73060714D01*
X92164285Y-72803571D01*
X92164285Y-72632142D01*
X92078571Y-72375000D01*
X91992857Y-72289285D01*
X91392857Y-72289285D01*
X91392857Y-72632142D01*
X92164285Y-71517857D02*
X90364285Y-71517857D01*
X90364285Y-70832142D01*
X90450000Y-70660714D01*
X90535714Y-70575000D01*
X90707142Y-70489285D01*
X90964285Y-70489285D01*
X91135714Y-70575000D01*
X91221428Y-70660714D01*
X91307142Y-70832142D01*
X91307142Y-71517857D01*
X92164285Y-69717857D02*
X90364285Y-69717857D01*
X90364285Y-68517857D02*
X90364285Y-68175000D01*
X90450000Y-68003571D01*
X90621428Y-67832142D01*
X90964285Y-67746428D01*
X91564285Y-67746428D01*
X91907142Y-67832142D01*
X92078571Y-68003571D01*
X92164285Y-68175000D01*
X92164285Y-68517857D01*
X92078571Y-68689285D01*
X91907142Y-68860714D01*
X91564285Y-68946428D01*
X90964285Y-68946428D01*
X90621428Y-68860714D01*
X90450000Y-68689285D01*
X90364285Y-68517857D01*
X70853571Y-76592857D02*
X70767857Y-76678571D01*
X70510714Y-76764285D01*
X70339285Y-76764285D01*
X70082142Y-76678571D01*
X69910714Y-76507142D01*
X69825000Y-76335714D01*
X69739285Y-75992857D01*
X69739285Y-75735714D01*
X69825000Y-75392857D01*
X69910714Y-75221428D01*
X70082142Y-75050000D01*
X70339285Y-74964285D01*
X70510714Y-74964285D01*
X70767857Y-75050000D01*
X70853571Y-75135714D01*
X71967857Y-74964285D02*
X72310714Y-74964285D01*
X72482142Y-75050000D01*
X72653571Y-75221428D01*
X72739285Y-75564285D01*
X72739285Y-76164285D01*
X72653571Y-76507142D01*
X72482142Y-76678571D01*
X72310714Y-76764285D01*
X71967857Y-76764285D01*
X71796428Y-76678571D01*
X71625000Y-76507142D01*
X71539285Y-76164285D01*
X71539285Y-75564285D01*
X71625000Y-75221428D01*
X71796428Y-75050000D01*
X71967857Y-74964285D01*
X73510714Y-76764285D02*
X73510714Y-74964285D01*
X74110714Y-76250000D01*
X74710714Y-74964285D01*
X74710714Y-76764285D01*
X75482142Y-75135714D02*
X75567857Y-75050000D01*
X75739285Y-74964285D01*
X76167857Y-74964285D01*
X76339285Y-75050000D01*
X76425000Y-75135714D01*
X76510714Y-75307142D01*
X76510714Y-75478571D01*
X76425000Y-75735714D01*
X75396428Y-76764285D01*
X76510714Y-76764285D01*
X40053571Y-76592857D02*
X39967857Y-76678571D01*
X39710714Y-76764285D01*
X39539285Y-76764285D01*
X39282142Y-76678571D01*
X39110714Y-76507142D01*
X39025000Y-76335714D01*
X38939285Y-75992857D01*
X38939285Y-75735714D01*
X39025000Y-75392857D01*
X39110714Y-75221428D01*
X39282142Y-75050000D01*
X39539285Y-74964285D01*
X39710714Y-74964285D01*
X39967857Y-75050000D01*
X40053571Y-75135714D01*
X41167857Y-74964285D02*
X41510714Y-74964285D01*
X41682142Y-75050000D01*
X41853571Y-75221428D01*
X41939285Y-75564285D01*
X41939285Y-76164285D01*
X41853571Y-76507142D01*
X41682142Y-76678571D01*
X41510714Y-76764285D01*
X41167857Y-76764285D01*
X40996428Y-76678571D01*
X40825000Y-76507142D01*
X40739285Y-76164285D01*
X40739285Y-75564285D01*
X40825000Y-75221428D01*
X40996428Y-75050000D01*
X41167857Y-74964285D01*
X42710714Y-76764285D02*
X42710714Y-74964285D01*
X43310714Y-76250000D01*
X43910714Y-74964285D01*
X43910714Y-76764285D01*
X45710714Y-76764285D02*
X44682142Y-76764285D01*
X45196428Y-76764285D02*
X45196428Y-74964285D01*
X45025000Y-75221428D01*
X44853571Y-75392857D01*
X44682142Y-75478571D01*
D11*
X95777380Y-41111904D02*
X95777380Y-40492857D01*
X96158333Y-40826190D01*
X96158333Y-40683333D01*
X96205952Y-40588095D01*
X96253571Y-40540476D01*
X96348809Y-40492857D01*
X96586904Y-40492857D01*
X96682142Y-40540476D01*
X96729761Y-40588095D01*
X96777380Y-40683333D01*
X96777380Y-40969047D01*
X96729761Y-41064285D01*
X96682142Y-41111904D01*
X95777380Y-40207142D02*
X96777380Y-39873809D01*
X95777380Y-39540476D01*
X98382142Y-42445238D02*
X98429761Y-42492857D01*
X98477380Y-42635714D01*
X98477380Y-42730952D01*
X98429761Y-42873809D01*
X98334523Y-42969047D01*
X98239285Y-43016666D01*
X98048809Y-43064285D01*
X97905952Y-43064285D01*
X97715476Y-43016666D01*
X97620238Y-42969047D01*
X97525000Y-42873809D01*
X97477380Y-42730952D01*
X97477380Y-42635714D01*
X97525000Y-42492857D01*
X97572619Y-42445238D01*
X98477380Y-41445238D02*
X98001190Y-41778571D01*
X98477380Y-42016666D02*
X97477380Y-42016666D01*
X97477380Y-41635714D01*
X97525000Y-41540476D01*
X97572619Y-41492857D01*
X97667857Y-41445238D01*
X97810714Y-41445238D01*
X97905952Y-41492857D01*
X97953571Y-41540476D01*
X98001190Y-41635714D01*
X98001190Y-42016666D01*
X98477380Y-40492857D02*
X98477380Y-41064285D01*
X98477380Y-40778571D02*
X97477380Y-40778571D01*
X97620238Y-40873809D01*
X97715476Y-40969047D01*
X97763095Y-41064285D01*
X97572619Y-40111904D02*
X97525000Y-40064285D01*
X97477380Y-39969047D01*
X97477380Y-39730952D01*
X97525000Y-39635714D01*
X97572619Y-39588095D01*
X97667857Y-39540476D01*
X97763095Y-39540476D01*
X97905952Y-39588095D01*
X98477380Y-40159523D01*
X98477380Y-39540476D01*
X97572619Y-39159523D02*
X97525000Y-39111904D01*
X97477380Y-39016666D01*
X97477380Y-38778571D01*
X97525000Y-38683333D01*
X97572619Y-38635714D01*
X97667857Y-38588095D01*
X97763095Y-38588095D01*
X97905952Y-38635714D01*
X98477380Y-39207142D01*
X98477380Y-38588095D01*
X97477380Y-37683333D02*
X97477380Y-38159523D01*
X97953571Y-38207142D01*
X97905952Y-38159523D01*
X97858333Y-38064285D01*
X97858333Y-37826190D01*
X97905952Y-37730952D01*
X97953571Y-37683333D01*
X98048809Y-37635714D01*
X98286904Y-37635714D01*
X98382142Y-37683333D01*
X98429761Y-37730952D01*
X98477380Y-37826190D01*
X98477380Y-38064285D01*
X98429761Y-38159523D01*
X98382142Y-38207142D01*
D10*
X61203733Y-40260000D02*
X61546267Y-40260000D01*
X61203733Y-39240000D02*
X61546267Y-39240000D01*
X69780000Y-54060000D02*
X68650000Y-54060000D01*
X69780000Y-53300000D02*
X69780000Y-54060000D01*
X67072470Y-53995000D02*
X66250000Y-53995000D01*
X67890000Y-53995000D02*
X67687530Y-53995000D01*
X67890000Y-53863471D02*
X67890000Y-53995000D01*
X67890000Y-52593471D02*
X67890000Y-52736529D01*
X68086529Y-52540000D02*
X67943471Y-52540000D01*
X69780000Y-52540000D02*
X69213471Y-52540000D01*
X66250000Y-53995000D02*
X66250000Y-51335000D01*
X69780000Y-52540000D02*
X69780000Y-51335000D01*
X68342470Y-51335000D02*
X67687530Y-51335000D01*
X67072470Y-51335000D02*
X66250000Y-51335000D01*
X69780000Y-51335000D02*
X68957530Y-51335000D01*
X66255000Y-61260000D02*
X65125000Y-61260000D01*
X66255000Y-60500000D02*
X66255000Y-61260000D01*
X63547470Y-61195000D02*
X62725000Y-61195000D01*
X64365000Y-61195000D02*
X64162530Y-61195000D01*
X64365000Y-61063471D02*
X64365000Y-61195000D01*
X64365000Y-59793471D02*
X64365000Y-59936529D01*
X64561529Y-59740000D02*
X64418471Y-59740000D01*
X66255000Y-59740000D02*
X65688471Y-59740000D01*
X62725000Y-61195000D02*
X62725000Y-58535000D01*
X66255000Y-59740000D02*
X66255000Y-58535000D01*
X64817470Y-58535000D02*
X64162530Y-58535000D01*
X63547470Y-58535000D02*
X62725000Y-58535000D01*
X66255000Y-58535000D02*
X65432530Y-58535000D01*
X90050000Y-85250000D02*
X88720000Y-85250000D01*
X90050000Y-83920000D02*
X90050000Y-85250000D01*
X87450000Y-85250000D02*
X84850000Y-85250000D01*
X87450000Y-82650000D02*
X87450000Y-85250000D01*
X90050000Y-82650000D02*
X87450000Y-82650000D01*
X84850000Y-85250000D02*
X84850000Y-72430000D01*
X90050000Y-82650000D02*
X90050000Y-72430000D01*
X90050000Y-72430000D02*
X84850000Y-72430000D01*
X84128733Y-55460000D02*
X84471267Y-55460000D01*
X84128733Y-54440000D02*
X84471267Y-54440000D01*
X92169396Y-55343776D02*
G75*
G03X87031956Y-54330708I-1177029J7564034D01*
G01*
X86267722Y-57900154D02*
X86982926Y-54320911D01*
X87327025Y-59488511D02*
X86267722Y-57900154D01*
X89876623Y-59997971D02*
X87327025Y-59488511D01*
X91464980Y-58938669D02*
X89876623Y-59997971D01*
X92180183Y-55359425D02*
X91464980Y-58938669D01*
X34600000Y-67850000D02*
X34600000Y-66450000D01*
X36000000Y-67850000D02*
X34600000Y-67850000D01*
X36000000Y-66450000D02*
X36000000Y-67850000D01*
X34600000Y-66450000D02*
X36000000Y-66450000D01*
X41875000Y-57925000D02*
X41875000Y-56525000D01*
X43275000Y-57925000D02*
X41875000Y-57925000D01*
X43275000Y-56525000D02*
X43275000Y-57925000D01*
X41875000Y-56525000D02*
X43275000Y-56525000D01*
X74978733Y-74410000D02*
X75321267Y-74410000D01*
X74978733Y-73390000D02*
X75321267Y-73390000D01*
X66585000Y-63996267D02*
X66585000Y-63653733D01*
X65565000Y-63996267D02*
X65565000Y-63653733D01*
X66585000Y-67646267D02*
X66585000Y-67303733D01*
X65565000Y-67646267D02*
X65565000Y-67303733D01*
X38660000Y-42935000D02*
X37550000Y-42935000D01*
X38660000Y-42175000D02*
X38660000Y-42935000D01*
X36986529Y-41415000D02*
X36440000Y-41415000D01*
X38660000Y-41415000D02*
X38113471Y-41415000D01*
X36440000Y-41415000D02*
X36440000Y-40210000D01*
X38660000Y-41415000D02*
X38660000Y-40210000D01*
X37242470Y-40210000D02*
X36440000Y-40210000D01*
X38660000Y-40210000D02*
X37857530Y-40210000D01*
X77040000Y-74635000D02*
X79325000Y-74635000D01*
X77040000Y-73165000D02*
X77040000Y-74635000D01*
X79325000Y-73165000D02*
X77040000Y-73165000D01*
X65565000Y-70953733D02*
X65565000Y-71296267D01*
X66585000Y-70953733D02*
X66585000Y-71296267D01*
X52021267Y-66890000D02*
X51678733Y-66890000D01*
X52021267Y-67910000D02*
X51678733Y-67910000D01*
D13*
X70200000Y-44975000D02*
X70200000Y-46375000D01*
X75300000Y-44975000D02*
X75300000Y-40825000D01*
X70150000Y-44975000D02*
X70150000Y-40825000D01*
X75300000Y-44975000D02*
X75155000Y-44975000D01*
X75300000Y-40825000D02*
X75155000Y-40825000D01*
X70150000Y-40825000D02*
X70295000Y-40825000D01*
X70150000Y-44975000D02*
X70200000Y-44975000D01*
D10*
X46085000Y-45365000D02*
X46085000Y-46475000D01*
X45325000Y-45365000D02*
X46085000Y-45365000D01*
X44565000Y-47038471D02*
X44565000Y-47585000D01*
X44565000Y-45365000D02*
X44565000Y-45911529D01*
X44565000Y-47585000D02*
X42090000Y-47585000D01*
X44565000Y-45365000D02*
X42090000Y-45365000D01*
X42090000Y-46782530D02*
X42090000Y-47585000D01*
X42090000Y-45365000D02*
X42090000Y-46167470D01*
X79685000Y-47235000D02*
X78575000Y-47235000D01*
X79685000Y-46475000D02*
X79685000Y-47235000D01*
X78011529Y-45715000D02*
X77465000Y-45715000D01*
X79685000Y-45715000D02*
X79138471Y-45715000D01*
X77465000Y-45715000D02*
X77465000Y-44510000D01*
X79685000Y-45715000D02*
X79685000Y-44510000D01*
X78267470Y-44510000D02*
X77465000Y-44510000D01*
X79685000Y-44510000D02*
X78882530Y-44510000D01*
X63621267Y-74215000D02*
X63278733Y-74215000D01*
X63621267Y-75235000D02*
X63278733Y-75235000D01*
X47871267Y-75615000D02*
X47528733Y-75615000D01*
X47871267Y-76635000D02*
X47528733Y-76635000D01*
X65028733Y-76710000D02*
X65371267Y-76710000D01*
X65028733Y-75690000D02*
X65371267Y-75690000D01*
X51053733Y-76635000D02*
X51396267Y-76635000D01*
X51053733Y-75615000D02*
X51396267Y-75615000D01*
X57353733Y-76635000D02*
X57696267Y-76635000D01*
X57353733Y-75615000D02*
X57696267Y-75615000D01*
X39178733Y-80010000D02*
X39521267Y-80010000D01*
X39178733Y-78990000D02*
X39521267Y-78990000D01*
X55928733Y-73310000D02*
X56271267Y-73310000D01*
X55928733Y-72290000D02*
X56271267Y-72290000D01*
X39178733Y-78360000D02*
X39521267Y-78360000D01*
X39178733Y-77340000D02*
X39521267Y-77340000D01*
X67550000Y-47775000D02*
X67550000Y-46375000D01*
X68950000Y-47775000D02*
X67550000Y-47775000D01*
X68950000Y-46375000D02*
X68950000Y-47775000D01*
X67550000Y-46375000D02*
X68950000Y-46375000D01*
X63578733Y-45885000D02*
X63921267Y-45885000D01*
X63578733Y-44865000D02*
X63921267Y-44865000D01*
X48021267Y-42440000D02*
X47678733Y-42440000D01*
X48021267Y-43460000D02*
X47678733Y-43460000D01*
X51671267Y-42440000D02*
X51328733Y-42440000D01*
X51671267Y-43460000D02*
X51328733Y-43460000D01*
X63390000Y-57810000D02*
X67775000Y-57810000D01*
X63390000Y-54790000D02*
X63390000Y-57810000D01*
X67775000Y-54790000D02*
X63390000Y-54790000D01*
X78578733Y-43660000D02*
X78921267Y-43660000D01*
X78578733Y-42640000D02*
X78921267Y-42640000D01*
X78578733Y-41935000D02*
X78921267Y-41935000D01*
X78578733Y-40915000D02*
X78921267Y-40915000D01*
X78578733Y-40360000D02*
X78921267Y-40360000D01*
X78578733Y-39340000D02*
X78921267Y-39340000D01*
X81290000Y-39515000D02*
X82400000Y-39515000D01*
X81290000Y-40275000D02*
X81290000Y-39515000D01*
X82963471Y-41035000D02*
X83510000Y-41035000D01*
X81290000Y-41035000D02*
X81836529Y-41035000D01*
X83510000Y-41035000D02*
X83510000Y-42240000D01*
X81290000Y-41035000D02*
X81290000Y-42240000D01*
X82707530Y-42240000D02*
X83510000Y-42240000D01*
X81290000Y-42240000D02*
X82092470Y-42240000D01*
X68078733Y-44310000D02*
X68421267Y-44310000D01*
X68078733Y-43290000D02*
X68421267Y-43290000D01*
X92470000Y-62270000D02*
X93800000Y-62270000D01*
X92470000Y-63600000D02*
X92470000Y-62270000D01*
X95070000Y-62270000D02*
X97670000Y-62270000D01*
X95070000Y-64870000D02*
X95070000Y-62270000D01*
X92470000Y-64870000D02*
X95070000Y-64870000D01*
X97670000Y-62270000D02*
X97670000Y-80170000D01*
X92470000Y-64870000D02*
X92470000Y-80170000D01*
X92470000Y-80170000D02*
X97670000Y-80170000D01*
X62450000Y-86730000D02*
X62450000Y-84190000D01*
X62450000Y-86730000D02*
X64990000Y-86730000D01*
X62700000Y-86480000D02*
X62700000Y-77130000D01*
X83560000Y-86480000D02*
X62700000Y-86480000D01*
X83560000Y-77130000D02*
X83560000Y-86480000D01*
X62700000Y-77130000D02*
X83560000Y-77130000D01*
X41010000Y-86730000D02*
X41010000Y-84190000D01*
X41010000Y-86730000D02*
X43550000Y-86730000D01*
X41260000Y-86480000D02*
X41260000Y-77130000D01*
X62120000Y-86480000D02*
X41260000Y-86480000D01*
X62120000Y-77130000D02*
X62120000Y-86480000D01*
X41260000Y-77130000D02*
X62120000Y-77130000D01*
D13*
X54375000Y-69800000D02*
X54375000Y-71400000D01*
X64450000Y-69800000D02*
X64450000Y-64050000D01*
X53800000Y-69800000D02*
X53800000Y-64050000D01*
X64450000Y-69800000D02*
X63800000Y-69800000D01*
X64450000Y-64050000D02*
X63800000Y-64050000D01*
X53800000Y-64050000D02*
X54450000Y-64050000D01*
X53800000Y-69800000D02*
X54375000Y-69800000D01*
X39675000Y-69800000D02*
X39675000Y-71400000D01*
X49750000Y-69800000D02*
X49750000Y-64050000D01*
X39100000Y-69800000D02*
X39100000Y-64050000D01*
X49750000Y-69800000D02*
X49100000Y-69800000D01*
X49750000Y-64050000D02*
X49100000Y-64050000D01*
X39100000Y-64050000D02*
X39750000Y-64050000D01*
X39100000Y-69800000D02*
X39675000Y-69800000D01*
D10*
X50325000Y-61800000D02*
X50325000Y-60400000D01*
X51725000Y-61800000D02*
X50325000Y-61800000D01*
X51725000Y-60400000D02*
X51725000Y-61800000D01*
X50325000Y-60400000D02*
X51725000Y-60400000D01*
X34625000Y-64400000D02*
X34625000Y-63000000D01*
X36025000Y-64400000D02*
X34625000Y-64400000D01*
X36025000Y-63000000D02*
X36025000Y-64400000D01*
X34625000Y-63000000D02*
X36025000Y-63000000D01*
X50250000Y-73375000D02*
X50250000Y-71975000D01*
X51650000Y-73375000D02*
X50250000Y-73375000D01*
X51650000Y-71975000D02*
X51650000Y-73375000D01*
X50250000Y-71975000D02*
X51650000Y-71975000D01*
X34575000Y-71000000D02*
X34575000Y-69600000D01*
X35975000Y-71000000D02*
X34575000Y-71000000D01*
X35975000Y-69600000D02*
X35975000Y-71000000D01*
X34575000Y-69600000D02*
X35975000Y-69600000D01*
X53310000Y-63871267D02*
X53310000Y-63528733D01*
X52290000Y-63871267D02*
X52290000Y-63528733D01*
X38410000Y-63871267D02*
X38410000Y-63528733D01*
X37390000Y-63871267D02*
X37390000Y-63528733D01*
X53310000Y-70471267D02*
X53310000Y-70128733D01*
X52290000Y-70471267D02*
X52290000Y-70128733D01*
X38410000Y-70471267D02*
X38410000Y-70128733D01*
X37390000Y-70471267D02*
X37390000Y-70128733D01*
D13*
X74575000Y-64050000D02*
X74575000Y-62450000D01*
X67275000Y-64050000D02*
X67275000Y-69800000D01*
X74925000Y-64050000D02*
X74925000Y-69800000D01*
X67275000Y-64050000D02*
X67725000Y-64050000D01*
X67275000Y-69800000D02*
X67725000Y-69800000D01*
X74925000Y-69800000D02*
X74475000Y-69800000D01*
X74925000Y-64050000D02*
X74575000Y-64050000D01*
D10*
X68571267Y-58390000D02*
X68228733Y-58390000D01*
X68571267Y-59410000D02*
X68228733Y-59410000D01*
X68228733Y-61210000D02*
X68571267Y-61210000D01*
X68228733Y-60190000D02*
X68571267Y-60190000D01*
X84346267Y-57640000D02*
X84003733Y-57640000D01*
X84346267Y-58660000D02*
X84003733Y-58660000D01*
X76040000Y-62503733D02*
X76040000Y-62846267D01*
X77060000Y-62503733D02*
X77060000Y-62846267D01*
D13*
X87920000Y-64050000D02*
X87920000Y-62450000D01*
X77845000Y-64050000D02*
X77845000Y-69800000D01*
X88495000Y-64050000D02*
X88495000Y-69800000D01*
X77845000Y-64050000D02*
X78495000Y-64050000D01*
X77845000Y-69800000D02*
X78495000Y-69800000D01*
X88495000Y-69800000D02*
X87845000Y-69800000D01*
X88495000Y-64050000D02*
X87920000Y-64050000D01*
D10*
X60290000Y-54013748D02*
X60290000Y-54536252D01*
X61710000Y-54013748D02*
X61710000Y-54536252D01*
X57890000Y-54103733D02*
X57890000Y-54446267D01*
X58910000Y-54103733D02*
X58910000Y-54446267D01*
X48310000Y-52546267D02*
X48310000Y-52203733D01*
X47290000Y-52546267D02*
X47290000Y-52203733D01*
X36040000Y-43790000D02*
X36040000Y-48175000D01*
X39060000Y-43790000D02*
X36040000Y-43790000D01*
X39060000Y-48175000D02*
X39060000Y-43790000D01*
X37606252Y-50190000D02*
X37083748Y-50190000D01*
X37606252Y-51610000D02*
X37083748Y-51610000D01*
X56810000Y-48740000D02*
X56810000Y-48265000D01*
X51590000Y-53485000D02*
X52065000Y-53485000D01*
X51590000Y-53010000D02*
X51590000Y-53485000D01*
X51590000Y-48265000D02*
X52065000Y-48265000D01*
X51590000Y-48740000D02*
X51590000Y-48265000D01*
X56810000Y-53485000D02*
X56335000Y-53485000D01*
X56810000Y-53010000D02*
X56810000Y-53485000D01*
X46150000Y-53400000D02*
X46390000Y-53400000D01*
X46150000Y-51600000D02*
X46150000Y-53400000D01*
X42550000Y-53400000D02*
X42550000Y-51600000D01*
X43950000Y-49800000D02*
X44750000Y-49800000D01*
X44750000Y-55200000D02*
X43950000Y-55200000D01*
X44750000Y-55600000D02*
X44750000Y-55200000D01*
X61453733Y-49985000D02*
X61796267Y-49985000D01*
X61453733Y-48965000D02*
X61796267Y-48965000D01*
X47290000Y-48303733D02*
X47290000Y-48646267D01*
X48310000Y-48303733D02*
X48310000Y-48646267D01*
X77085000Y-67096267D02*
X77085000Y-66753733D01*
X76065000Y-67096267D02*
X76065000Y-66753733D01*
X68121267Y-48515000D02*
X67778733Y-48515000D01*
X68121267Y-49535000D02*
X67778733Y-49535000D01*
X49871267Y-44290000D02*
X49528733Y-44290000D01*
X49871267Y-45310000D02*
X49528733Y-45310000D01*
D13*
X72025000Y-48100000D02*
X70500000Y-48100000D01*
X72025000Y-58475000D02*
X79775000Y-58475000D01*
X72025000Y-47825000D02*
X79775000Y-47825000D01*
X72025000Y-58475000D02*
X72025000Y-58120000D01*
X79775000Y-58475000D02*
X79775000Y-58120000D01*
X79775000Y-47825000D02*
X79775000Y-48180000D01*
X72025000Y-47825000D02*
X72025000Y-48100000D01*
G36*
X41000000Y-35065000D02*
G01*
X43540000Y-35065000D01*
X43540000Y-37605000D01*
X41000000Y-37605000D01*
X41000000Y-35065000D01*
G37*
X41000000Y-35065000D02*
X43540000Y-35065000D01*
X43540000Y-37605000D01*
X41000000Y-37605000D01*
X41000000Y-35065000D01*
X41000000Y-32525000D02*
X91800000Y-32525000D01*
X91800000Y-37605000D02*
X41000000Y-37605000D01*
X91800000Y-32525000D02*
X91800000Y-37605000D01*
X41000000Y-37605000D02*
X41000000Y-32525000D01*
X63660714Y-40136904D02*
X63394047Y-39755952D01*
X63203571Y-40136904D02*
X63203571Y-39336904D01*
X63508333Y-39336904D01*
X63584523Y-39375000D01*
X63622619Y-39413095D01*
X63660714Y-39489285D01*
X63660714Y-39603571D01*
X63622619Y-39679761D01*
X63584523Y-39717857D01*
X63508333Y-39755952D01*
X63203571Y-39755952D01*
X64422619Y-40136904D02*
X63965476Y-40136904D01*
X64194047Y-40136904D02*
X64194047Y-39336904D01*
X64117857Y-39451190D01*
X64041666Y-39527380D01*
X63965476Y-39565476D01*
X64689285Y-39336904D02*
X65184523Y-39336904D01*
X64917857Y-39641666D01*
X65032142Y-39641666D01*
X65108333Y-39679761D01*
X65146428Y-39717857D01*
X65184523Y-39794047D01*
X65184523Y-39984523D01*
X65146428Y-40060714D01*
X65108333Y-40098809D01*
X65032142Y-40136904D01*
X64803571Y-40136904D01*
X64727380Y-40098809D01*
X64689285Y-40060714D01*
X64027380Y-52211904D02*
X64027380Y-52783333D01*
X63989285Y-52897619D01*
X63913095Y-52973809D01*
X63798809Y-53011904D01*
X63722619Y-53011904D01*
X64827380Y-53011904D02*
X64370238Y-53011904D01*
X64598809Y-53011904D02*
X64598809Y-52211904D01*
X64522619Y-52326190D01*
X64446428Y-52402380D01*
X64370238Y-52440476D01*
X65322619Y-52211904D02*
X65398809Y-52211904D01*
X65475000Y-52250000D01*
X65513095Y-52288095D01*
X65551190Y-52364285D01*
X65589285Y-52516666D01*
X65589285Y-52707142D01*
X65551190Y-52859523D01*
X65513095Y-52935714D01*
X65475000Y-52973809D01*
X65398809Y-53011904D01*
X65322619Y-53011904D01*
X65246428Y-52973809D01*
X65208333Y-52935714D01*
X65170238Y-52859523D01*
X65132142Y-52707142D01*
X65132142Y-52516666D01*
X65170238Y-52364285D01*
X65208333Y-52288095D01*
X65246428Y-52250000D01*
X65322619Y-52211904D01*
X61558333Y-58561904D02*
X61558333Y-59133333D01*
X61520238Y-59247619D01*
X61444047Y-59323809D01*
X61329761Y-59361904D01*
X61253571Y-59361904D01*
X62282142Y-58561904D02*
X62129761Y-58561904D01*
X62053571Y-58600000D01*
X62015476Y-58638095D01*
X61939285Y-58752380D01*
X61901190Y-58904761D01*
X61901190Y-59209523D01*
X61939285Y-59285714D01*
X61977380Y-59323809D01*
X62053571Y-59361904D01*
X62205952Y-59361904D01*
X62282142Y-59323809D01*
X62320238Y-59285714D01*
X62358333Y-59209523D01*
X62358333Y-59019047D01*
X62320238Y-58942857D01*
X62282142Y-58904761D01*
X62205952Y-58866666D01*
X62053571Y-58866666D01*
X61977380Y-58904761D01*
X61939285Y-58942857D01*
X61901190Y-59019047D01*
X87116666Y-85702380D02*
X87116666Y-86416666D01*
X87069047Y-86559523D01*
X86973809Y-86654761D01*
X86830952Y-86702380D01*
X86735714Y-86702380D01*
X88021428Y-86035714D02*
X88021428Y-86702380D01*
X87783333Y-85654761D02*
X87545238Y-86369047D01*
X88164285Y-86369047D01*
X83785714Y-56736904D02*
X83519047Y-56355952D01*
X83328571Y-56736904D02*
X83328571Y-55936904D01*
X83633333Y-55936904D01*
X83709523Y-55975000D01*
X83747619Y-56013095D01*
X83785714Y-56089285D01*
X83785714Y-56203571D01*
X83747619Y-56279761D01*
X83709523Y-56317857D01*
X83633333Y-56355952D01*
X83328571Y-56355952D01*
X84547619Y-56736904D02*
X84090476Y-56736904D01*
X84319047Y-56736904D02*
X84319047Y-55936904D01*
X84242857Y-56051190D01*
X84166666Y-56127380D01*
X84090476Y-56165476D01*
X85309523Y-56736904D02*
X84852380Y-56736904D01*
X85080952Y-56736904D02*
X85080952Y-55936904D01*
X85004761Y-56051190D01*
X84928571Y-56127380D01*
X84852380Y-56165476D01*
X96439285Y-54253571D02*
X96582142Y-54301190D01*
X96629761Y-54348809D01*
X96677380Y-54444047D01*
X96677380Y-54586904D01*
X96629761Y-54682142D01*
X96582142Y-54729761D01*
X96486904Y-54777380D01*
X96105952Y-54777380D01*
X96105952Y-53777380D01*
X96439285Y-53777380D01*
X96534523Y-53825000D01*
X96582142Y-53872619D01*
X96629761Y-53967857D01*
X96629761Y-54063095D01*
X96582142Y-54158333D01*
X96534523Y-54205952D01*
X96439285Y-54253571D01*
X96105952Y-54253571D01*
X96963095Y-53777380D02*
X97534523Y-53777380D01*
X97248809Y-54777380D02*
X97248809Y-53777380D01*
X98391666Y-54777380D02*
X97820238Y-54777380D01*
X98105952Y-54777380D02*
X98105952Y-53777380D01*
X98010714Y-53920238D01*
X97915476Y-54015476D01*
X97820238Y-54063095D01*
X34290476Y-65236904D02*
X34747619Y-65236904D01*
X34519047Y-66036904D02*
X34519047Y-65236904D01*
X35014285Y-66036904D02*
X35014285Y-65236904D01*
X35319047Y-65236904D01*
X35395238Y-65275000D01*
X35433333Y-65313095D01*
X35471428Y-65389285D01*
X35471428Y-65503571D01*
X35433333Y-65579761D01*
X35395238Y-65617857D01*
X35319047Y-65655952D01*
X35014285Y-65655952D01*
X35928571Y-65579761D02*
X35852380Y-65541666D01*
X35814285Y-65503571D01*
X35776190Y-65427380D01*
X35776190Y-65389285D01*
X35814285Y-65313095D01*
X35852380Y-65275000D01*
X35928571Y-65236904D01*
X36080952Y-65236904D01*
X36157142Y-65275000D01*
X36195238Y-65313095D01*
X36233333Y-65389285D01*
X36233333Y-65427380D01*
X36195238Y-65503571D01*
X36157142Y-65541666D01*
X36080952Y-65579761D01*
X35928571Y-65579761D01*
X35852380Y-65617857D01*
X35814285Y-65655952D01*
X35776190Y-65732142D01*
X35776190Y-65884523D01*
X35814285Y-65960714D01*
X35852380Y-65998809D01*
X35928571Y-66036904D01*
X36080952Y-66036904D01*
X36157142Y-65998809D01*
X36195238Y-65960714D01*
X36233333Y-65884523D01*
X36233333Y-65732142D01*
X36195238Y-65655952D01*
X36157142Y-65617857D01*
X36080952Y-65579761D01*
X41665476Y-58511904D02*
X42122619Y-58511904D01*
X41894047Y-59311904D02*
X41894047Y-58511904D01*
X42389285Y-59311904D02*
X42389285Y-58511904D01*
X42694047Y-58511904D01*
X42770238Y-58550000D01*
X42808333Y-58588095D01*
X42846428Y-58664285D01*
X42846428Y-58778571D01*
X42808333Y-58854761D01*
X42770238Y-58892857D01*
X42694047Y-58930952D01*
X42389285Y-58930952D01*
X43113095Y-58511904D02*
X43646428Y-58511904D01*
X43303571Y-59311904D01*
X74735714Y-73011904D02*
X74469047Y-72630952D01*
X74278571Y-73011904D02*
X74278571Y-72211904D01*
X74583333Y-72211904D01*
X74659523Y-72250000D01*
X74697619Y-72288095D01*
X74735714Y-72364285D01*
X74735714Y-72478571D01*
X74697619Y-72554761D01*
X74659523Y-72592857D01*
X74583333Y-72630952D01*
X74278571Y-72630952D01*
X75497619Y-73011904D02*
X75040476Y-73011904D01*
X75269047Y-73011904D02*
X75269047Y-72211904D01*
X75192857Y-72326190D01*
X75116666Y-72402380D01*
X75040476Y-72440476D01*
X75764285Y-72211904D02*
X76297619Y-72211904D01*
X75954761Y-73011904D01*
D10*
X65361904Y-64364285D02*
X64980952Y-64630952D01*
X65361904Y-64821428D02*
X64561904Y-64821428D01*
X64561904Y-64516666D01*
X64600000Y-64440476D01*
X64638095Y-64402380D01*
X64714285Y-64364285D01*
X64828571Y-64364285D01*
X64904761Y-64402380D01*
X64942857Y-64440476D01*
X64980952Y-64516666D01*
X64980952Y-64821428D01*
X65361904Y-63602380D02*
X65361904Y-64059523D01*
X65361904Y-63830952D02*
X64561904Y-63830952D01*
X64676190Y-63907142D01*
X64752380Y-63983333D01*
X64790476Y-64059523D01*
X64561904Y-62916666D02*
X64561904Y-63069047D01*
X64600000Y-63145238D01*
X64638095Y-63183333D01*
X64752380Y-63259523D01*
X64904761Y-63297619D01*
X65209523Y-63297619D01*
X65285714Y-63259523D01*
X65323809Y-63221428D01*
X65361904Y-63145238D01*
X65361904Y-62992857D01*
X65323809Y-62916666D01*
X65285714Y-62878571D01*
X65209523Y-62840476D01*
X65019047Y-62840476D01*
X64942857Y-62878571D01*
X64904761Y-62916666D01*
X64866666Y-62992857D01*
X64866666Y-63145238D01*
X64904761Y-63221428D01*
X64942857Y-63259523D01*
X65019047Y-63297619D01*
X65336904Y-68014285D02*
X64955952Y-68280952D01*
X65336904Y-68471428D02*
X64536904Y-68471428D01*
X64536904Y-68166666D01*
X64575000Y-68090476D01*
X64613095Y-68052380D01*
X64689285Y-68014285D01*
X64803571Y-68014285D01*
X64879761Y-68052380D01*
X64917857Y-68090476D01*
X64955952Y-68166666D01*
X64955952Y-68471428D01*
X65336904Y-67252380D02*
X65336904Y-67709523D01*
X65336904Y-67480952D02*
X64536904Y-67480952D01*
X64651190Y-67557142D01*
X64727380Y-67633333D01*
X64765476Y-67709523D01*
X64536904Y-66528571D02*
X64536904Y-66909523D01*
X64917857Y-66947619D01*
X64879761Y-66909523D01*
X64841666Y-66833333D01*
X64841666Y-66642857D01*
X64879761Y-66566666D01*
X64917857Y-66528571D01*
X64994047Y-66490476D01*
X65184523Y-66490476D01*
X65260714Y-66528571D01*
X65298809Y-66566666D01*
X65336904Y-66642857D01*
X65336904Y-66833333D01*
X65298809Y-66909523D01*
X65260714Y-66947619D01*
D13*
X37283333Y-38761904D02*
X37283333Y-39333333D01*
X37245238Y-39447619D01*
X37169047Y-39523809D01*
X37054761Y-39561904D01*
X36978571Y-39561904D01*
X37702380Y-39561904D02*
X37854761Y-39561904D01*
X37930952Y-39523809D01*
X37969047Y-39485714D01*
X38045238Y-39371428D01*
X38083333Y-39219047D01*
X38083333Y-38914285D01*
X38045238Y-38838095D01*
X38007142Y-38800000D01*
X37930952Y-38761904D01*
X37778571Y-38761904D01*
X37702380Y-38800000D01*
X37664285Y-38838095D01*
X37626190Y-38914285D01*
X37626190Y-39104761D01*
X37664285Y-39180952D01*
X37702380Y-39219047D01*
X37778571Y-39257142D01*
X37930952Y-39257142D01*
X38007142Y-39219047D01*
X38045238Y-39180952D01*
X38083333Y-39104761D01*
X78529761Y-73011904D02*
X78148809Y-73011904D01*
X78148809Y-72211904D01*
X78796428Y-72592857D02*
X79063095Y-72592857D01*
X79177380Y-73011904D02*
X78796428Y-73011904D01*
X78796428Y-72211904D01*
X79177380Y-72211904D01*
X79520238Y-73011904D02*
X79520238Y-72211904D01*
X79710714Y-72211904D01*
X79825000Y-72250000D01*
X79901190Y-72326190D01*
X79939285Y-72402380D01*
X79977380Y-72554761D01*
X79977380Y-72669047D01*
X79939285Y-72821428D01*
X79901190Y-72897619D01*
X79825000Y-72973809D01*
X79710714Y-73011904D01*
X79520238Y-73011904D01*
X80739285Y-73011904D02*
X80282142Y-73011904D01*
X80510714Y-73011904D02*
X80510714Y-72211904D01*
X80434523Y-72326190D01*
X80358333Y-72402380D01*
X80282142Y-72440476D01*
D10*
X65285714Y-71589285D02*
X65323809Y-71627380D01*
X65361904Y-71741666D01*
X65361904Y-71817857D01*
X65323809Y-71932142D01*
X65247619Y-72008333D01*
X65171428Y-72046428D01*
X65019047Y-72084523D01*
X64904761Y-72084523D01*
X64752380Y-72046428D01*
X64676190Y-72008333D01*
X64600000Y-71932142D01*
X64561904Y-71817857D01*
X64561904Y-71741666D01*
X64600000Y-71627380D01*
X64638095Y-71589285D01*
X64638095Y-71284523D02*
X64600000Y-71246428D01*
X64561904Y-71170238D01*
X64561904Y-70979761D01*
X64600000Y-70903571D01*
X64638095Y-70865476D01*
X64714285Y-70827380D01*
X64790476Y-70827380D01*
X64904761Y-70865476D01*
X65361904Y-71322619D01*
X65361904Y-70827380D01*
X64561904Y-70560714D02*
X64561904Y-70027380D01*
X65361904Y-70370238D01*
D13*
X51310714Y-66535714D02*
X51272619Y-66573809D01*
X51158333Y-66611904D01*
X51082142Y-66611904D01*
X50967857Y-66573809D01*
X50891666Y-66497619D01*
X50853571Y-66421428D01*
X50815476Y-66269047D01*
X50815476Y-66154761D01*
X50853571Y-66002380D01*
X50891666Y-65926190D01*
X50967857Y-65850000D01*
X51082142Y-65811904D01*
X51158333Y-65811904D01*
X51272619Y-65850000D01*
X51310714Y-65888095D01*
X51615476Y-65888095D02*
X51653571Y-65850000D01*
X51729761Y-65811904D01*
X51920238Y-65811904D01*
X51996428Y-65850000D01*
X52034523Y-65888095D01*
X52072619Y-65964285D01*
X52072619Y-66040476D01*
X52034523Y-66154761D01*
X51577380Y-66611904D01*
X52072619Y-66611904D01*
X52758333Y-65811904D02*
X52605952Y-65811904D01*
X52529761Y-65850000D01*
X52491666Y-65888095D01*
X52415476Y-66002380D01*
X52377380Y-66154761D01*
X52377380Y-66459523D01*
X52415476Y-66535714D01*
X52453571Y-66573809D01*
X52529761Y-66611904D01*
X52682142Y-66611904D01*
X52758333Y-66573809D01*
X52796428Y-66535714D01*
X52834523Y-66459523D01*
X52834523Y-66269047D01*
X52796428Y-66192857D01*
X52758333Y-66154761D01*
X52682142Y-66116666D01*
X52529761Y-66116666D01*
X52453571Y-66154761D01*
X52415476Y-66192857D01*
X52377380Y-66269047D01*
X68665476Y-44911904D02*
X68665476Y-45559523D01*
X68703571Y-45635714D01*
X68741666Y-45673809D01*
X68817857Y-45711904D01*
X68970238Y-45711904D01*
X69046428Y-45673809D01*
X69084523Y-45635714D01*
X69122619Y-45559523D01*
X69122619Y-44911904D01*
X69427380Y-44911904D02*
X69960714Y-44911904D01*
X69617857Y-45711904D01*
X43216666Y-43652380D02*
X43216666Y-44366666D01*
X43169047Y-44509523D01*
X43073809Y-44604761D01*
X42930952Y-44652380D01*
X42835714Y-44652380D01*
X43835714Y-44080952D02*
X43740476Y-44033333D01*
X43692857Y-43985714D01*
X43645238Y-43890476D01*
X43645238Y-43842857D01*
X43692857Y-43747619D01*
X43740476Y-43700000D01*
X43835714Y-43652380D01*
X44026190Y-43652380D01*
X44121428Y-43700000D01*
X44169047Y-43747619D01*
X44216666Y-43842857D01*
X44216666Y-43890476D01*
X44169047Y-43985714D01*
X44121428Y-44033333D01*
X44026190Y-44080952D01*
X43835714Y-44080952D01*
X43740476Y-44128571D01*
X43692857Y-44176190D01*
X43645238Y-44271428D01*
X43645238Y-44461904D01*
X43692857Y-44557142D01*
X43740476Y-44604761D01*
X43835714Y-44652380D01*
X44026190Y-44652380D01*
X44121428Y-44604761D01*
X44169047Y-44557142D01*
X44216666Y-44461904D01*
X44216666Y-44271428D01*
X44169047Y-44176190D01*
X44121428Y-44128571D01*
X44026190Y-44080952D01*
X76408333Y-45261904D02*
X76408333Y-45833333D01*
X76370238Y-45947619D01*
X76294047Y-46023809D01*
X76179761Y-46061904D01*
X76103571Y-46061904D01*
X76713095Y-45261904D02*
X77246428Y-45261904D01*
X76903571Y-46061904D01*
X65635714Y-75010714D02*
X65597619Y-75048809D01*
X65483333Y-75086904D01*
X65407142Y-75086904D01*
X65292857Y-75048809D01*
X65216666Y-74972619D01*
X65178571Y-74896428D01*
X65140476Y-74744047D01*
X65140476Y-74629761D01*
X65178571Y-74477380D01*
X65216666Y-74401190D01*
X65292857Y-74325000D01*
X65407142Y-74286904D01*
X65483333Y-74286904D01*
X65597619Y-74325000D01*
X65635714Y-74363095D01*
X65940476Y-74363095D02*
X65978571Y-74325000D01*
X66054761Y-74286904D01*
X66245238Y-74286904D01*
X66321428Y-74325000D01*
X66359523Y-74363095D01*
X66397619Y-74439285D01*
X66397619Y-74515476D01*
X66359523Y-74629761D01*
X65902380Y-75086904D01*
X66397619Y-75086904D01*
X67121428Y-74286904D02*
X66740476Y-74286904D01*
X66702380Y-74667857D01*
X66740476Y-74629761D01*
X66816666Y-74591666D01*
X67007142Y-74591666D01*
X67083333Y-74629761D01*
X67121428Y-74667857D01*
X67159523Y-74744047D01*
X67159523Y-74934523D01*
X67121428Y-75010714D01*
X67083333Y-75048809D01*
X67007142Y-75086904D01*
X66816666Y-75086904D01*
X66740476Y-75048809D01*
X66702380Y-75010714D01*
X46535714Y-75085714D02*
X46497619Y-75123809D01*
X46383333Y-75161904D01*
X46307142Y-75161904D01*
X46192857Y-75123809D01*
X46116666Y-75047619D01*
X46078571Y-74971428D01*
X46040476Y-74819047D01*
X46040476Y-74704761D01*
X46078571Y-74552380D01*
X46116666Y-74476190D01*
X46192857Y-74400000D01*
X46307142Y-74361904D01*
X46383333Y-74361904D01*
X46497619Y-74400000D01*
X46535714Y-74438095D01*
X46840476Y-74438095D02*
X46878571Y-74400000D01*
X46954761Y-74361904D01*
X47145238Y-74361904D01*
X47221428Y-74400000D01*
X47259523Y-74438095D01*
X47297619Y-74514285D01*
X47297619Y-74590476D01*
X47259523Y-74704761D01*
X46802380Y-75161904D01*
X47297619Y-75161904D01*
X47983333Y-74628571D02*
X47983333Y-75161904D01*
X47792857Y-74323809D02*
X47602380Y-74895238D01*
X48097619Y-74895238D01*
X67310714Y-76585714D02*
X67272619Y-76623809D01*
X67158333Y-76661904D01*
X67082142Y-76661904D01*
X66967857Y-76623809D01*
X66891666Y-76547619D01*
X66853571Y-76471428D01*
X66815476Y-76319047D01*
X66815476Y-76204761D01*
X66853571Y-76052380D01*
X66891666Y-75976190D01*
X66967857Y-75900000D01*
X67082142Y-75861904D01*
X67158333Y-75861904D01*
X67272619Y-75900000D01*
X67310714Y-75938095D01*
X67615476Y-75938095D02*
X67653571Y-75900000D01*
X67729761Y-75861904D01*
X67920238Y-75861904D01*
X67996428Y-75900000D01*
X68034523Y-75938095D01*
X68072619Y-76014285D01*
X68072619Y-76090476D01*
X68034523Y-76204761D01*
X67577380Y-76661904D01*
X68072619Y-76661904D01*
X68339285Y-75861904D02*
X68834523Y-75861904D01*
X68567857Y-76166666D01*
X68682142Y-76166666D01*
X68758333Y-76204761D01*
X68796428Y-76242857D01*
X68834523Y-76319047D01*
X68834523Y-76509523D01*
X68796428Y-76585714D01*
X68758333Y-76623809D01*
X68682142Y-76661904D01*
X68453571Y-76661904D01*
X68377380Y-76623809D01*
X68339285Y-76585714D01*
X51285714Y-75135714D02*
X51247619Y-75173809D01*
X51133333Y-75211904D01*
X51057142Y-75211904D01*
X50942857Y-75173809D01*
X50866666Y-75097619D01*
X50828571Y-75021428D01*
X50790476Y-74869047D01*
X50790476Y-74754761D01*
X50828571Y-74602380D01*
X50866666Y-74526190D01*
X50942857Y-74450000D01*
X51057142Y-74411904D01*
X51133333Y-74411904D01*
X51247619Y-74450000D01*
X51285714Y-74488095D01*
X51590476Y-74488095D02*
X51628571Y-74450000D01*
X51704761Y-74411904D01*
X51895238Y-74411904D01*
X51971428Y-74450000D01*
X52009523Y-74488095D01*
X52047619Y-74564285D01*
X52047619Y-74640476D01*
X52009523Y-74754761D01*
X51552380Y-75211904D01*
X52047619Y-75211904D01*
X52352380Y-74488095D02*
X52390476Y-74450000D01*
X52466666Y-74411904D01*
X52657142Y-74411904D01*
X52733333Y-74450000D01*
X52771428Y-74488095D01*
X52809523Y-74564285D01*
X52809523Y-74640476D01*
X52771428Y-74754761D01*
X52314285Y-75211904D01*
X52809523Y-75211904D01*
X59735714Y-76735714D02*
X59697619Y-76773809D01*
X59583333Y-76811904D01*
X59507142Y-76811904D01*
X59392857Y-76773809D01*
X59316666Y-76697619D01*
X59278571Y-76621428D01*
X59240476Y-76469047D01*
X59240476Y-76354761D01*
X59278571Y-76202380D01*
X59316666Y-76126190D01*
X59392857Y-76050000D01*
X59507142Y-76011904D01*
X59583333Y-76011904D01*
X59697619Y-76050000D01*
X59735714Y-76088095D01*
X60040476Y-76088095D02*
X60078571Y-76050000D01*
X60154761Y-76011904D01*
X60345238Y-76011904D01*
X60421428Y-76050000D01*
X60459523Y-76088095D01*
X60497619Y-76164285D01*
X60497619Y-76240476D01*
X60459523Y-76354761D01*
X60002380Y-76811904D01*
X60497619Y-76811904D01*
X61259523Y-76811904D02*
X60802380Y-76811904D01*
X61030952Y-76811904D02*
X61030952Y-76011904D01*
X60954761Y-76126190D01*
X60878571Y-76202380D01*
X60802380Y-76240476D01*
X35735714Y-79785714D02*
X35697619Y-79823809D01*
X35583333Y-79861904D01*
X35507142Y-79861904D01*
X35392857Y-79823809D01*
X35316666Y-79747619D01*
X35278571Y-79671428D01*
X35240476Y-79519047D01*
X35240476Y-79404761D01*
X35278571Y-79252380D01*
X35316666Y-79176190D01*
X35392857Y-79100000D01*
X35507142Y-79061904D01*
X35583333Y-79061904D01*
X35697619Y-79100000D01*
X35735714Y-79138095D01*
X36040476Y-79138095D02*
X36078571Y-79100000D01*
X36154761Y-79061904D01*
X36345238Y-79061904D01*
X36421428Y-79100000D01*
X36459523Y-79138095D01*
X36497619Y-79214285D01*
X36497619Y-79290476D01*
X36459523Y-79404761D01*
X36002380Y-79861904D01*
X36497619Y-79861904D01*
X36992857Y-79061904D02*
X37069047Y-79061904D01*
X37145238Y-79100000D01*
X37183333Y-79138095D01*
X37221428Y-79214285D01*
X37259523Y-79366666D01*
X37259523Y-79557142D01*
X37221428Y-79709523D01*
X37183333Y-79785714D01*
X37145238Y-79823809D01*
X37069047Y-79861904D01*
X36992857Y-79861904D01*
X36916666Y-79823809D01*
X36878571Y-79785714D01*
X36840476Y-79709523D01*
X36802380Y-79557142D01*
X36802380Y-79366666D01*
X36840476Y-79214285D01*
X36878571Y-79138095D01*
X36916666Y-79100000D01*
X36992857Y-79061904D01*
X58660714Y-73085714D02*
X58622619Y-73123809D01*
X58508333Y-73161904D01*
X58432142Y-73161904D01*
X58317857Y-73123809D01*
X58241666Y-73047619D01*
X58203571Y-72971428D01*
X58165476Y-72819047D01*
X58165476Y-72704761D01*
X58203571Y-72552380D01*
X58241666Y-72476190D01*
X58317857Y-72400000D01*
X58432142Y-72361904D01*
X58508333Y-72361904D01*
X58622619Y-72400000D01*
X58660714Y-72438095D01*
X59422619Y-73161904D02*
X58965476Y-73161904D01*
X59194047Y-73161904D02*
X59194047Y-72361904D01*
X59117857Y-72476190D01*
X59041666Y-72552380D01*
X58965476Y-72590476D01*
X59803571Y-73161904D02*
X59955952Y-73161904D01*
X60032142Y-73123809D01*
X60070238Y-73085714D01*
X60146428Y-72971428D01*
X60184523Y-72819047D01*
X60184523Y-72514285D01*
X60146428Y-72438095D01*
X60108333Y-72400000D01*
X60032142Y-72361904D01*
X59879761Y-72361904D01*
X59803571Y-72400000D01*
X59765476Y-72438095D01*
X59727380Y-72514285D01*
X59727380Y-72704761D01*
X59765476Y-72780952D01*
X59803571Y-72819047D01*
X59879761Y-72857142D01*
X60032142Y-72857142D01*
X60108333Y-72819047D01*
X60146428Y-72780952D01*
X60184523Y-72704761D01*
X35710714Y-78110714D02*
X35672619Y-78148809D01*
X35558333Y-78186904D01*
X35482142Y-78186904D01*
X35367857Y-78148809D01*
X35291666Y-78072619D01*
X35253571Y-77996428D01*
X35215476Y-77844047D01*
X35215476Y-77729761D01*
X35253571Y-77577380D01*
X35291666Y-77501190D01*
X35367857Y-77425000D01*
X35482142Y-77386904D01*
X35558333Y-77386904D01*
X35672619Y-77425000D01*
X35710714Y-77463095D01*
X36472619Y-78186904D02*
X36015476Y-78186904D01*
X36244047Y-78186904D02*
X36244047Y-77386904D01*
X36167857Y-77501190D01*
X36091666Y-77577380D01*
X36015476Y-77615476D01*
X36929761Y-77729761D02*
X36853571Y-77691666D01*
X36815476Y-77653571D01*
X36777380Y-77577380D01*
X36777380Y-77539285D01*
X36815476Y-77463095D01*
X36853571Y-77425000D01*
X36929761Y-77386904D01*
X37082142Y-77386904D01*
X37158333Y-77425000D01*
X37196428Y-77463095D01*
X37234523Y-77539285D01*
X37234523Y-77577380D01*
X37196428Y-77653571D01*
X37158333Y-77691666D01*
X37082142Y-77729761D01*
X36929761Y-77729761D01*
X36853571Y-77767857D01*
X36815476Y-77805952D01*
X36777380Y-77882142D01*
X36777380Y-78034523D01*
X36815476Y-78110714D01*
X36853571Y-78148809D01*
X36929761Y-78186904D01*
X37082142Y-78186904D01*
X37158333Y-78148809D01*
X37196428Y-78110714D01*
X37234523Y-78034523D01*
X37234523Y-77882142D01*
X37196428Y-77805952D01*
X37158333Y-77767857D01*
X37082142Y-77729761D01*
X65140476Y-46286904D02*
X65597619Y-46286904D01*
X65369047Y-47086904D02*
X65369047Y-46286904D01*
X65864285Y-47086904D02*
X65864285Y-46286904D01*
X66169047Y-46286904D01*
X66245238Y-46325000D01*
X66283333Y-46363095D01*
X66321428Y-46439285D01*
X66321428Y-46553571D01*
X66283333Y-46629761D01*
X66245238Y-46667857D01*
X66169047Y-46705952D01*
X65864285Y-46705952D01*
X67007142Y-46286904D02*
X66854761Y-46286904D01*
X66778571Y-46325000D01*
X66740476Y-46363095D01*
X66664285Y-46477380D01*
X66626190Y-46629761D01*
X66626190Y-46934523D01*
X66664285Y-47010714D01*
X66702380Y-47048809D01*
X66778571Y-47086904D01*
X66930952Y-47086904D01*
X67007142Y-47048809D01*
X67045238Y-47010714D01*
X67083333Y-46934523D01*
X67083333Y-46744047D01*
X67045238Y-46667857D01*
X67007142Y-46629761D01*
X66930952Y-46591666D01*
X66778571Y-46591666D01*
X66702380Y-46629761D01*
X66664285Y-46667857D01*
X66626190Y-46744047D01*
X62610714Y-47086904D02*
X62344047Y-46705952D01*
X62153571Y-47086904D02*
X62153571Y-46286904D01*
X62458333Y-46286904D01*
X62534523Y-46325000D01*
X62572619Y-46363095D01*
X62610714Y-46439285D01*
X62610714Y-46553571D01*
X62572619Y-46629761D01*
X62534523Y-46667857D01*
X62458333Y-46705952D01*
X62153571Y-46705952D01*
X63372619Y-47086904D02*
X62915476Y-47086904D01*
X63144047Y-47086904D02*
X63144047Y-46286904D01*
X63067857Y-46401190D01*
X62991666Y-46477380D01*
X62915476Y-46515476D01*
X63867857Y-46286904D02*
X63944047Y-46286904D01*
X64020238Y-46325000D01*
X64058333Y-46363095D01*
X64096428Y-46439285D01*
X64134523Y-46591666D01*
X64134523Y-46782142D01*
X64096428Y-46934523D01*
X64058333Y-47010714D01*
X64020238Y-47048809D01*
X63944047Y-47086904D01*
X63867857Y-47086904D01*
X63791666Y-47048809D01*
X63753571Y-47010714D01*
X63715476Y-46934523D01*
X63677380Y-46782142D01*
X63677380Y-46591666D01*
X63715476Y-46439285D01*
X63753571Y-46363095D01*
X63791666Y-46325000D01*
X63867857Y-46286904D01*
X45016666Y-43311904D02*
X44750000Y-42930952D01*
X44559523Y-43311904D02*
X44559523Y-42511904D01*
X44864285Y-42511904D01*
X44940476Y-42550000D01*
X44978571Y-42588095D01*
X45016666Y-42664285D01*
X45016666Y-42778571D01*
X44978571Y-42854761D01*
X44940476Y-42892857D01*
X44864285Y-42930952D01*
X44559523Y-42930952D01*
X45397619Y-43311904D02*
X45550000Y-43311904D01*
X45626190Y-43273809D01*
X45664285Y-43235714D01*
X45740476Y-43121428D01*
X45778571Y-42969047D01*
X45778571Y-42664285D01*
X45740476Y-42588095D01*
X45702380Y-42550000D01*
X45626190Y-42511904D01*
X45473809Y-42511904D01*
X45397619Y-42550000D01*
X45359523Y-42588095D01*
X45321428Y-42664285D01*
X45321428Y-42854761D01*
X45359523Y-42930952D01*
X45397619Y-42969047D01*
X45473809Y-43007142D01*
X45626190Y-43007142D01*
X45702380Y-42969047D01*
X45740476Y-42930952D01*
X45778571Y-42854761D01*
X53941666Y-43311904D02*
X53675000Y-42930952D01*
X53484523Y-43311904D02*
X53484523Y-42511904D01*
X53789285Y-42511904D01*
X53865476Y-42550000D01*
X53903571Y-42588095D01*
X53941666Y-42664285D01*
X53941666Y-42778571D01*
X53903571Y-42854761D01*
X53865476Y-42892857D01*
X53789285Y-42930952D01*
X53484523Y-42930952D01*
X54398809Y-42854761D02*
X54322619Y-42816666D01*
X54284523Y-42778571D01*
X54246428Y-42702380D01*
X54246428Y-42664285D01*
X54284523Y-42588095D01*
X54322619Y-42550000D01*
X54398809Y-42511904D01*
X54551190Y-42511904D01*
X54627380Y-42550000D01*
X54665476Y-42588095D01*
X54703571Y-42664285D01*
X54703571Y-42702380D01*
X54665476Y-42778571D01*
X54627380Y-42816666D01*
X54551190Y-42854761D01*
X54398809Y-42854761D01*
X54322619Y-42892857D01*
X54284523Y-42930952D01*
X54246428Y-43007142D01*
X54246428Y-43159523D01*
X54284523Y-43235714D01*
X54322619Y-43273809D01*
X54398809Y-43311904D01*
X54551190Y-43311904D01*
X54627380Y-43273809D01*
X54665476Y-43235714D01*
X54703571Y-43159523D01*
X54703571Y-43007142D01*
X54665476Y-42930952D01*
X54627380Y-42892857D01*
X54551190Y-42854761D01*
X61685714Y-57610714D02*
X61647619Y-57648809D01*
X61533333Y-57686904D01*
X61457142Y-57686904D01*
X61342857Y-57648809D01*
X61266666Y-57572619D01*
X61228571Y-57496428D01*
X61190476Y-57344047D01*
X61190476Y-57229761D01*
X61228571Y-57077380D01*
X61266666Y-57001190D01*
X61342857Y-56925000D01*
X61457142Y-56886904D01*
X61533333Y-56886904D01*
X61647619Y-56925000D01*
X61685714Y-56963095D01*
X62447619Y-57686904D02*
X61990476Y-57686904D01*
X62219047Y-57686904D02*
X62219047Y-56886904D01*
X62142857Y-57001190D01*
X62066666Y-57077380D01*
X61990476Y-57115476D01*
X62714285Y-56886904D02*
X63247619Y-56886904D01*
X62904761Y-57686904D01*
X76216666Y-43486904D02*
X75950000Y-43105952D01*
X75759523Y-43486904D02*
X75759523Y-42686904D01*
X76064285Y-42686904D01*
X76140476Y-42725000D01*
X76178571Y-42763095D01*
X76216666Y-42839285D01*
X76216666Y-42953571D01*
X76178571Y-43029761D01*
X76140476Y-43067857D01*
X76064285Y-43105952D01*
X75759523Y-43105952D01*
X76483333Y-42686904D02*
X77016666Y-42686904D01*
X76673809Y-43486904D01*
X76216666Y-41861904D02*
X75950000Y-41480952D01*
X75759523Y-41861904D02*
X75759523Y-41061904D01*
X76064285Y-41061904D01*
X76140476Y-41100000D01*
X76178571Y-41138095D01*
X76216666Y-41214285D01*
X76216666Y-41328571D01*
X76178571Y-41404761D01*
X76140476Y-41442857D01*
X76064285Y-41480952D01*
X75759523Y-41480952D01*
X76902380Y-41061904D02*
X76750000Y-41061904D01*
X76673809Y-41100000D01*
X76635714Y-41138095D01*
X76559523Y-41252380D01*
X76521428Y-41404761D01*
X76521428Y-41709523D01*
X76559523Y-41785714D01*
X76597619Y-41823809D01*
X76673809Y-41861904D01*
X76826190Y-41861904D01*
X76902380Y-41823809D01*
X76940476Y-41785714D01*
X76978571Y-41709523D01*
X76978571Y-41519047D01*
X76940476Y-41442857D01*
X76902380Y-41404761D01*
X76826190Y-41366666D01*
X76673809Y-41366666D01*
X76597619Y-41404761D01*
X76559523Y-41442857D01*
X76521428Y-41519047D01*
X76216666Y-40261904D02*
X75950000Y-39880952D01*
X75759523Y-40261904D02*
X75759523Y-39461904D01*
X76064285Y-39461904D01*
X76140476Y-39500000D01*
X76178571Y-39538095D01*
X76216666Y-39614285D01*
X76216666Y-39728571D01*
X76178571Y-39804761D01*
X76140476Y-39842857D01*
X76064285Y-39880952D01*
X75759523Y-39880952D01*
X76940476Y-39461904D02*
X76559523Y-39461904D01*
X76521428Y-39842857D01*
X76559523Y-39804761D01*
X76635714Y-39766666D01*
X76826190Y-39766666D01*
X76902380Y-39804761D01*
X76940476Y-39842857D01*
X76978571Y-39919047D01*
X76978571Y-40109523D01*
X76940476Y-40185714D01*
X76902380Y-40223809D01*
X76826190Y-40261904D01*
X76635714Y-40261904D01*
X76559523Y-40223809D01*
X76521428Y-40185714D01*
X83983333Y-40586904D02*
X83983333Y-41158333D01*
X83945238Y-41272619D01*
X83869047Y-41348809D01*
X83754761Y-41386904D01*
X83678571Y-41386904D01*
X84745238Y-40586904D02*
X84364285Y-40586904D01*
X84326190Y-40967857D01*
X84364285Y-40929761D01*
X84440476Y-40891666D01*
X84630952Y-40891666D01*
X84707142Y-40929761D01*
X84745238Y-40967857D01*
X84783333Y-41044047D01*
X84783333Y-41234523D01*
X84745238Y-41310714D01*
X84707142Y-41348809D01*
X84630952Y-41386904D01*
X84440476Y-41386904D01*
X84364285Y-41348809D01*
X84326190Y-41310714D01*
X67760714Y-42860714D02*
X67722619Y-42898809D01*
X67608333Y-42936904D01*
X67532142Y-42936904D01*
X67417857Y-42898809D01*
X67341666Y-42822619D01*
X67303571Y-42746428D01*
X67265476Y-42594047D01*
X67265476Y-42479761D01*
X67303571Y-42327380D01*
X67341666Y-42251190D01*
X67417857Y-42175000D01*
X67532142Y-42136904D01*
X67608333Y-42136904D01*
X67722619Y-42175000D01*
X67760714Y-42213095D01*
X68522619Y-42936904D02*
X68065476Y-42936904D01*
X68294047Y-42936904D02*
X68294047Y-42136904D01*
X68217857Y-42251190D01*
X68141666Y-42327380D01*
X68065476Y-42365476D01*
X69208333Y-42136904D02*
X69055952Y-42136904D01*
X68979761Y-42175000D01*
X68941666Y-42213095D01*
X68865476Y-42327380D01*
X68827380Y-42479761D01*
X68827380Y-42784523D01*
X68865476Y-42860714D01*
X68903571Y-42898809D01*
X68979761Y-42936904D01*
X69132142Y-42936904D01*
X69208333Y-42898809D01*
X69246428Y-42860714D01*
X69284523Y-42784523D01*
X69284523Y-42594047D01*
X69246428Y-42517857D01*
X69208333Y-42479761D01*
X69132142Y-42441666D01*
X68979761Y-42441666D01*
X68903571Y-42479761D01*
X68865476Y-42517857D01*
X68827380Y-42594047D01*
X91241666Y-79152380D02*
X91241666Y-79866666D01*
X91194047Y-80009523D01*
X91098809Y-80104761D01*
X90955952Y-80152380D01*
X90860714Y-80152380D01*
X92241666Y-80152380D02*
X91670238Y-80152380D01*
X91955952Y-80152380D02*
X91955952Y-79152380D01*
X91860714Y-79295238D01*
X91765476Y-79390476D01*
X91670238Y-79438095D01*
X72791666Y-85302380D02*
X72791666Y-86016666D01*
X72744047Y-86159523D01*
X72648809Y-86254761D01*
X72505952Y-86302380D01*
X72410714Y-86302380D01*
X73172619Y-85302380D02*
X73791666Y-85302380D01*
X73458333Y-85683333D01*
X73601190Y-85683333D01*
X73696428Y-85730952D01*
X73744047Y-85778571D01*
X73791666Y-85873809D01*
X73791666Y-86111904D01*
X73744047Y-86207142D01*
X73696428Y-86254761D01*
X73601190Y-86302380D01*
X73315476Y-86302380D01*
X73220238Y-86254761D01*
X73172619Y-86207142D01*
X51391666Y-85277380D02*
X51391666Y-85991666D01*
X51344047Y-86134523D01*
X51248809Y-86229761D01*
X51105952Y-86277380D01*
X51010714Y-86277380D01*
X51820238Y-85372619D02*
X51867857Y-85325000D01*
X51963095Y-85277380D01*
X52201190Y-85277380D01*
X52296428Y-85325000D01*
X52344047Y-85372619D01*
X52391666Y-85467857D01*
X52391666Y-85563095D01*
X52344047Y-85705952D01*
X51772619Y-86277380D01*
X52391666Y-86277380D01*
X52940476Y-71986904D02*
X52940476Y-72634523D01*
X52978571Y-72710714D01*
X53016666Y-72748809D01*
X53092857Y-72786904D01*
X53245238Y-72786904D01*
X53321428Y-72748809D01*
X53359523Y-72710714D01*
X53397619Y-72634523D01*
X53397619Y-71986904D01*
X54159523Y-71986904D02*
X53778571Y-71986904D01*
X53740476Y-72367857D01*
X53778571Y-72329761D01*
X53854761Y-72291666D01*
X54045238Y-72291666D01*
X54121428Y-72329761D01*
X54159523Y-72367857D01*
X54197619Y-72444047D01*
X54197619Y-72634523D01*
X54159523Y-72710714D01*
X54121428Y-72748809D01*
X54045238Y-72786904D01*
X53854761Y-72786904D01*
X53778571Y-72748809D01*
X53740476Y-72710714D01*
X39040476Y-71911904D02*
X39040476Y-72559523D01*
X39078571Y-72635714D01*
X39116666Y-72673809D01*
X39192857Y-72711904D01*
X39345238Y-72711904D01*
X39421428Y-72673809D01*
X39459523Y-72635714D01*
X39497619Y-72559523D01*
X39497619Y-71911904D01*
X40221428Y-72178571D02*
X40221428Y-72711904D01*
X40030952Y-71873809D02*
X39840476Y-72445238D01*
X40335714Y-72445238D01*
X52140476Y-60661904D02*
X52597619Y-60661904D01*
X52369047Y-61461904D02*
X52369047Y-60661904D01*
X52864285Y-61461904D02*
X52864285Y-60661904D01*
X53169047Y-60661904D01*
X53245238Y-60700000D01*
X53283333Y-60738095D01*
X53321428Y-60814285D01*
X53321428Y-60928571D01*
X53283333Y-61004761D01*
X53245238Y-61042857D01*
X53169047Y-61080952D01*
X52864285Y-61080952D01*
X54007142Y-60928571D02*
X54007142Y-61461904D01*
X53816666Y-60623809D02*
X53626190Y-61195238D01*
X54121428Y-61195238D01*
X34315476Y-61736904D02*
X34772619Y-61736904D01*
X34544047Y-62536904D02*
X34544047Y-61736904D01*
X35039285Y-62536904D02*
X35039285Y-61736904D01*
X35344047Y-61736904D01*
X35420238Y-61775000D01*
X35458333Y-61813095D01*
X35496428Y-61889285D01*
X35496428Y-62003571D01*
X35458333Y-62079761D01*
X35420238Y-62117857D01*
X35344047Y-62155952D01*
X35039285Y-62155952D01*
X35763095Y-61736904D02*
X36258333Y-61736904D01*
X35991666Y-62041666D01*
X36105952Y-62041666D01*
X36182142Y-62079761D01*
X36220238Y-62117857D01*
X36258333Y-62194047D01*
X36258333Y-62384523D01*
X36220238Y-62460714D01*
X36182142Y-62498809D01*
X36105952Y-62536904D01*
X35877380Y-62536904D01*
X35801190Y-62498809D01*
X35763095Y-62460714D01*
X47890476Y-72261904D02*
X48347619Y-72261904D01*
X48119047Y-73061904D02*
X48119047Y-72261904D01*
X48614285Y-73061904D02*
X48614285Y-72261904D01*
X48919047Y-72261904D01*
X48995238Y-72300000D01*
X49033333Y-72338095D01*
X49071428Y-72414285D01*
X49071428Y-72528571D01*
X49033333Y-72604761D01*
X48995238Y-72642857D01*
X48919047Y-72680952D01*
X48614285Y-72680952D01*
X49376190Y-72338095D02*
X49414285Y-72300000D01*
X49490476Y-72261904D01*
X49680952Y-72261904D01*
X49757142Y-72300000D01*
X49795238Y-72338095D01*
X49833333Y-72414285D01*
X49833333Y-72490476D01*
X49795238Y-72604761D01*
X49338095Y-73061904D01*
X49833333Y-73061904D01*
X34290476Y-71436904D02*
X34747619Y-71436904D01*
X34519047Y-72236904D02*
X34519047Y-71436904D01*
X35014285Y-72236904D02*
X35014285Y-71436904D01*
X35319047Y-71436904D01*
X35395238Y-71475000D01*
X35433333Y-71513095D01*
X35471428Y-71589285D01*
X35471428Y-71703571D01*
X35433333Y-71779761D01*
X35395238Y-71817857D01*
X35319047Y-71855952D01*
X35014285Y-71855952D01*
X36233333Y-72236904D02*
X35776190Y-72236904D01*
X36004761Y-72236904D02*
X36004761Y-71436904D01*
X35928571Y-71551190D01*
X35852380Y-71627380D01*
X35776190Y-71665476D01*
X51835714Y-64289285D02*
X51873809Y-64327380D01*
X51911904Y-64441666D01*
X51911904Y-64517857D01*
X51873809Y-64632142D01*
X51797619Y-64708333D01*
X51721428Y-64746428D01*
X51569047Y-64784523D01*
X51454761Y-64784523D01*
X51302380Y-64746428D01*
X51226190Y-64708333D01*
X51150000Y-64632142D01*
X51111904Y-64517857D01*
X51111904Y-64441666D01*
X51150000Y-64327380D01*
X51188095Y-64289285D01*
X51911904Y-63527380D02*
X51911904Y-63984523D01*
X51911904Y-63755952D02*
X51111904Y-63755952D01*
X51226190Y-63832142D01*
X51302380Y-63908333D01*
X51340476Y-63984523D01*
X51111904Y-62803571D02*
X51111904Y-63184523D01*
X51492857Y-63222619D01*
X51454761Y-63184523D01*
X51416666Y-63108333D01*
X51416666Y-62917857D01*
X51454761Y-62841666D01*
X51492857Y-62803571D01*
X51569047Y-62765476D01*
X51759523Y-62765476D01*
X51835714Y-62803571D01*
X51873809Y-62841666D01*
X51911904Y-62917857D01*
X51911904Y-63108333D01*
X51873809Y-63184523D01*
X51835714Y-63222619D01*
X37035714Y-64214285D02*
X37073809Y-64252380D01*
X37111904Y-64366666D01*
X37111904Y-64442857D01*
X37073809Y-64557142D01*
X36997619Y-64633333D01*
X36921428Y-64671428D01*
X36769047Y-64709523D01*
X36654761Y-64709523D01*
X36502380Y-64671428D01*
X36426190Y-64633333D01*
X36350000Y-64557142D01*
X36311904Y-64442857D01*
X36311904Y-64366666D01*
X36350000Y-64252380D01*
X36388095Y-64214285D01*
X37111904Y-63452380D02*
X37111904Y-63909523D01*
X37111904Y-63680952D02*
X36311904Y-63680952D01*
X36426190Y-63757142D01*
X36502380Y-63833333D01*
X36540476Y-63909523D01*
X36578571Y-62766666D02*
X37111904Y-62766666D01*
X36273809Y-62957142D02*
X36845238Y-63147619D01*
X36845238Y-62652380D01*
X51860714Y-70714285D02*
X51898809Y-70752380D01*
X51936904Y-70866666D01*
X51936904Y-70942857D01*
X51898809Y-71057142D01*
X51822619Y-71133333D01*
X51746428Y-71171428D01*
X51594047Y-71209523D01*
X51479761Y-71209523D01*
X51327380Y-71171428D01*
X51251190Y-71133333D01*
X51175000Y-71057142D01*
X51136904Y-70942857D01*
X51136904Y-70866666D01*
X51175000Y-70752380D01*
X51213095Y-70714285D01*
X51936904Y-69952380D02*
X51936904Y-70409523D01*
X51936904Y-70180952D02*
X51136904Y-70180952D01*
X51251190Y-70257142D01*
X51327380Y-70333333D01*
X51365476Y-70409523D01*
X51213095Y-69647619D02*
X51175000Y-69609523D01*
X51136904Y-69533333D01*
X51136904Y-69342857D01*
X51175000Y-69266666D01*
X51213095Y-69228571D01*
X51289285Y-69190476D01*
X51365476Y-69190476D01*
X51479761Y-69228571D01*
X51936904Y-69685714D01*
X51936904Y-69190476D01*
X36985714Y-70814285D02*
X37023809Y-70852380D01*
X37061904Y-70966666D01*
X37061904Y-71042857D01*
X37023809Y-71157142D01*
X36947619Y-71233333D01*
X36871428Y-71271428D01*
X36719047Y-71309523D01*
X36604761Y-71309523D01*
X36452380Y-71271428D01*
X36376190Y-71233333D01*
X36300000Y-71157142D01*
X36261904Y-71042857D01*
X36261904Y-70966666D01*
X36300000Y-70852380D01*
X36338095Y-70814285D01*
X37061904Y-70052380D02*
X37061904Y-70509523D01*
X37061904Y-70280952D02*
X36261904Y-70280952D01*
X36376190Y-70357142D01*
X36452380Y-70433333D01*
X36490476Y-70509523D01*
X37061904Y-69290476D02*
X37061904Y-69747619D01*
X37061904Y-69519047D02*
X36261904Y-69519047D01*
X36376190Y-69595238D01*
X36452380Y-69671428D01*
X36490476Y-69747619D01*
X74440476Y-61136904D02*
X74440476Y-61784523D01*
X74478571Y-61860714D01*
X74516666Y-61898809D01*
X74592857Y-61936904D01*
X74745238Y-61936904D01*
X74821428Y-61898809D01*
X74859523Y-61860714D01*
X74897619Y-61784523D01*
X74897619Y-61136904D01*
X75621428Y-61136904D02*
X75469047Y-61136904D01*
X75392857Y-61175000D01*
X75354761Y-61213095D01*
X75278571Y-61327380D01*
X75240476Y-61479761D01*
X75240476Y-61784523D01*
X75278571Y-61860714D01*
X75316666Y-61898809D01*
X75392857Y-61936904D01*
X75545238Y-61936904D01*
X75621428Y-61898809D01*
X75659523Y-61860714D01*
X75697619Y-61784523D01*
X75697619Y-61594047D01*
X75659523Y-61517857D01*
X75621428Y-61479761D01*
X75545238Y-61441666D01*
X75392857Y-61441666D01*
X75316666Y-61479761D01*
X75278571Y-61517857D01*
X75240476Y-61594047D01*
X70591666Y-59586904D02*
X70325000Y-59205952D01*
X70134523Y-59586904D02*
X70134523Y-58786904D01*
X70439285Y-58786904D01*
X70515476Y-58825000D01*
X70553571Y-58863095D01*
X70591666Y-58939285D01*
X70591666Y-59053571D01*
X70553571Y-59129761D01*
X70515476Y-59167857D01*
X70439285Y-59205952D01*
X70134523Y-59205952D01*
X71277380Y-59053571D02*
X71277380Y-59586904D01*
X71086904Y-58748809D02*
X70896428Y-59320238D01*
X71391666Y-59320238D01*
X70641666Y-61386904D02*
X70375000Y-61005952D01*
X70184523Y-61386904D02*
X70184523Y-60586904D01*
X70489285Y-60586904D01*
X70565476Y-60625000D01*
X70603571Y-60663095D01*
X70641666Y-60739285D01*
X70641666Y-60853571D01*
X70603571Y-60929761D01*
X70565476Y-60967857D01*
X70489285Y-61005952D01*
X70184523Y-61005952D01*
X70908333Y-60586904D02*
X71403571Y-60586904D01*
X71136904Y-60891666D01*
X71251190Y-60891666D01*
X71327380Y-60929761D01*
X71365476Y-60967857D01*
X71403571Y-61044047D01*
X71403571Y-61234523D01*
X71365476Y-61310714D01*
X71327380Y-61348809D01*
X71251190Y-61386904D01*
X71022619Y-61386904D01*
X70946428Y-61348809D01*
X70908333Y-61310714D01*
X84041666Y-59835714D02*
X84003571Y-59873809D01*
X83889285Y-59911904D01*
X83813095Y-59911904D01*
X83698809Y-59873809D01*
X83622619Y-59797619D01*
X83584523Y-59721428D01*
X83546428Y-59569047D01*
X83546428Y-59454761D01*
X83584523Y-59302380D01*
X83622619Y-59226190D01*
X83698809Y-59150000D01*
X83813095Y-59111904D01*
X83889285Y-59111904D01*
X84003571Y-59150000D01*
X84041666Y-59188095D01*
X84308333Y-59111904D02*
X84803571Y-59111904D01*
X84536904Y-59416666D01*
X84651190Y-59416666D01*
X84727380Y-59454761D01*
X84765476Y-59492857D01*
X84803571Y-59569047D01*
X84803571Y-59759523D01*
X84765476Y-59835714D01*
X84727380Y-59873809D01*
X84651190Y-59911904D01*
X84422619Y-59911904D01*
X84346428Y-59873809D01*
X84308333Y-59835714D01*
X77916666Y-61760714D02*
X77878571Y-61798809D01*
X77764285Y-61836904D01*
X77688095Y-61836904D01*
X77573809Y-61798809D01*
X77497619Y-61722619D01*
X77459523Y-61646428D01*
X77421428Y-61494047D01*
X77421428Y-61379761D01*
X77459523Y-61227380D01*
X77497619Y-61151190D01*
X77573809Y-61075000D01*
X77688095Y-61036904D01*
X77764285Y-61036904D01*
X77878571Y-61075000D01*
X77916666Y-61113095D01*
X78602380Y-61303571D02*
X78602380Y-61836904D01*
X78411904Y-60998809D02*
X78221428Y-61570238D01*
X78716666Y-61570238D01*
X30515476Y-58352380D02*
X30515476Y-57352380D01*
X30848809Y-58066666D01*
X31182142Y-57352380D01*
X31182142Y-58352380D01*
X31658333Y-58352380D02*
X31658333Y-57352380D01*
X32229761Y-58352380D02*
X31801190Y-57780952D01*
X32229761Y-57352380D02*
X31658333Y-57923809D01*
X33086904Y-57352380D02*
X32896428Y-57352380D01*
X32801190Y-57400000D01*
X32753571Y-57447619D01*
X32658333Y-57590476D01*
X32610714Y-57780952D01*
X32610714Y-58161904D01*
X32658333Y-58257142D01*
X32705952Y-58304761D01*
X32801190Y-58352380D01*
X32991666Y-58352380D01*
X33086904Y-58304761D01*
X33134523Y-58257142D01*
X33182142Y-58161904D01*
X33182142Y-57923809D01*
X33134523Y-57828571D01*
X33086904Y-57780952D01*
X32991666Y-57733333D01*
X32801190Y-57733333D01*
X32705952Y-57780952D01*
X32658333Y-57828571D01*
X32610714Y-57923809D01*
X100565476Y-58352380D02*
X100565476Y-57352380D01*
X100898809Y-58066666D01*
X101232142Y-57352380D01*
X101232142Y-58352380D01*
X101708333Y-58352380D02*
X101708333Y-57352380D01*
X102279761Y-58352380D02*
X101851190Y-57780952D01*
X102279761Y-57352380D02*
X101708333Y-57923809D01*
X103184523Y-57352380D02*
X102708333Y-57352380D01*
X102660714Y-57828571D01*
X102708333Y-57780952D01*
X102803571Y-57733333D01*
X103041666Y-57733333D01*
X103136904Y-57780952D01*
X103184523Y-57828571D01*
X103232142Y-57923809D01*
X103232142Y-58161904D01*
X103184523Y-58257142D01*
X103136904Y-58304761D01*
X103041666Y-58352380D01*
X102803571Y-58352380D01*
X102708333Y-58304761D01*
X102660714Y-58257142D01*
X87740476Y-61136904D02*
X87740476Y-61784523D01*
X87778571Y-61860714D01*
X87816666Y-61898809D01*
X87892857Y-61936904D01*
X88045238Y-61936904D01*
X88121428Y-61898809D01*
X88159523Y-61860714D01*
X88197619Y-61784523D01*
X88197619Y-61136904D01*
X88502380Y-61136904D02*
X88997619Y-61136904D01*
X88730952Y-61441666D01*
X88845238Y-61441666D01*
X88921428Y-61479761D01*
X88959523Y-61517857D01*
X88997619Y-61594047D01*
X88997619Y-61784523D01*
X88959523Y-61860714D01*
X88921428Y-61898809D01*
X88845238Y-61936904D01*
X88616666Y-61936904D01*
X88540476Y-61898809D01*
X88502380Y-61860714D01*
X60510714Y-52085714D02*
X60472619Y-52123809D01*
X60358333Y-52161904D01*
X60282142Y-52161904D01*
X60167857Y-52123809D01*
X60091666Y-52047619D01*
X60053571Y-51971428D01*
X60015476Y-51819047D01*
X60015476Y-51704761D01*
X60053571Y-51552380D01*
X60091666Y-51476190D01*
X60167857Y-51400000D01*
X60282142Y-51361904D01*
X60358333Y-51361904D01*
X60472619Y-51400000D01*
X60510714Y-51438095D01*
X61272619Y-52161904D02*
X60815476Y-52161904D01*
X61044047Y-52161904D02*
X61044047Y-51361904D01*
X60967857Y-51476190D01*
X60891666Y-51552380D01*
X60815476Y-51590476D01*
X61539285Y-51361904D02*
X62034523Y-51361904D01*
X61767857Y-51666666D01*
X61882142Y-51666666D01*
X61958333Y-51704761D01*
X61996428Y-51742857D01*
X62034523Y-51819047D01*
X62034523Y-52009523D01*
X61996428Y-52085714D01*
X61958333Y-52123809D01*
X61882142Y-52161904D01*
X61653571Y-52161904D01*
X61577380Y-52123809D01*
X61539285Y-52085714D01*
X58316666Y-52085714D02*
X58278571Y-52123809D01*
X58164285Y-52161904D01*
X58088095Y-52161904D01*
X57973809Y-52123809D01*
X57897619Y-52047619D01*
X57859523Y-51971428D01*
X57821428Y-51819047D01*
X57821428Y-51704761D01*
X57859523Y-51552380D01*
X57897619Y-51476190D01*
X57973809Y-51400000D01*
X58088095Y-51361904D01*
X58164285Y-51361904D01*
X58278571Y-51400000D01*
X58316666Y-51438095D01*
X58773809Y-51704761D02*
X58697619Y-51666666D01*
X58659523Y-51628571D01*
X58621428Y-51552380D01*
X58621428Y-51514285D01*
X58659523Y-51438095D01*
X58697619Y-51400000D01*
X58773809Y-51361904D01*
X58926190Y-51361904D01*
X59002380Y-51400000D01*
X59040476Y-51438095D01*
X59078571Y-51514285D01*
X59078571Y-51552380D01*
X59040476Y-51628571D01*
X59002380Y-51666666D01*
X58926190Y-51704761D01*
X58773809Y-51704761D01*
X58697619Y-51742857D01*
X58659523Y-51780952D01*
X58621428Y-51857142D01*
X58621428Y-52009523D01*
X58659523Y-52085714D01*
X58697619Y-52123809D01*
X58773809Y-52161904D01*
X58926190Y-52161904D01*
X59002380Y-52123809D01*
X59040476Y-52085714D01*
X59078571Y-52009523D01*
X59078571Y-51857142D01*
X59040476Y-51780952D01*
X59002380Y-51742857D01*
X58926190Y-51704761D01*
X49316666Y-52960714D02*
X49278571Y-52998809D01*
X49164285Y-53036904D01*
X49088095Y-53036904D01*
X48973809Y-52998809D01*
X48897619Y-52922619D01*
X48859523Y-52846428D01*
X48821428Y-52694047D01*
X48821428Y-52579761D01*
X48859523Y-52427380D01*
X48897619Y-52351190D01*
X48973809Y-52275000D01*
X49088095Y-52236904D01*
X49164285Y-52236904D01*
X49278571Y-52275000D01*
X49316666Y-52313095D01*
X50078571Y-53036904D02*
X49621428Y-53036904D01*
X49850000Y-53036904D02*
X49850000Y-52236904D01*
X49773809Y-52351190D01*
X49697619Y-52427380D01*
X49621428Y-52465476D01*
X35016666Y-44960714D02*
X34978571Y-44998809D01*
X34864285Y-45036904D01*
X34788095Y-45036904D01*
X34673809Y-44998809D01*
X34597619Y-44922619D01*
X34559523Y-44846428D01*
X34521428Y-44694047D01*
X34521428Y-44579761D01*
X34559523Y-44427380D01*
X34597619Y-44351190D01*
X34673809Y-44275000D01*
X34788095Y-44236904D01*
X34864285Y-44236904D01*
X34978571Y-44275000D01*
X35016666Y-44313095D01*
X35283333Y-44236904D02*
X35816666Y-44236904D01*
X35473809Y-45036904D01*
X37111666Y-52785714D02*
X37073571Y-52823809D01*
X36959285Y-52861904D01*
X36883095Y-52861904D01*
X36768809Y-52823809D01*
X36692619Y-52747619D01*
X36654523Y-52671428D01*
X36616428Y-52519047D01*
X36616428Y-52404761D01*
X36654523Y-52252380D01*
X36692619Y-52176190D01*
X36768809Y-52100000D01*
X36883095Y-52061904D01*
X36959285Y-52061904D01*
X37073571Y-52100000D01*
X37111666Y-52138095D01*
X37797380Y-52061904D02*
X37645000Y-52061904D01*
X37568809Y-52100000D01*
X37530714Y-52138095D01*
X37454523Y-52252380D01*
X37416428Y-52404761D01*
X37416428Y-52709523D01*
X37454523Y-52785714D01*
X37492619Y-52823809D01*
X37568809Y-52861904D01*
X37721190Y-52861904D01*
X37797380Y-52823809D01*
X37835476Y-52785714D01*
X37873571Y-52709523D01*
X37873571Y-52519047D01*
X37835476Y-52442857D01*
X37797380Y-52404761D01*
X37721190Y-52366666D01*
X37568809Y-52366666D01*
X37492619Y-52404761D01*
X37454523Y-52442857D01*
X37416428Y-52519047D01*
X56790476Y-46636904D02*
X56790476Y-47284523D01*
X56828571Y-47360714D01*
X56866666Y-47398809D01*
X56942857Y-47436904D01*
X57095238Y-47436904D01*
X57171428Y-47398809D01*
X57209523Y-47360714D01*
X57247619Y-47284523D01*
X57247619Y-46636904D01*
X57590476Y-46713095D02*
X57628571Y-46675000D01*
X57704761Y-46636904D01*
X57895238Y-46636904D01*
X57971428Y-46675000D01*
X58009523Y-46713095D01*
X58047619Y-46789285D01*
X58047619Y-46865476D01*
X58009523Y-46979761D01*
X57552380Y-47436904D01*
X58047619Y-47436904D01*
X43258333Y-48311904D02*
X43791666Y-48311904D01*
X43258333Y-49111904D01*
X43791666Y-49111904D01*
X44629761Y-49188095D02*
X44553571Y-49150000D01*
X44477380Y-49073809D01*
X44363095Y-48959523D01*
X44286904Y-48921428D01*
X44210714Y-48921428D01*
X44248809Y-49111904D02*
X44172619Y-49073809D01*
X44096428Y-48997619D01*
X44058333Y-48845238D01*
X44058333Y-48578571D01*
X44096428Y-48426190D01*
X44172619Y-48350000D01*
X44248809Y-48311904D01*
X44401190Y-48311904D01*
X44477380Y-48350000D01*
X44553571Y-48426190D01*
X44591666Y-48578571D01*
X44591666Y-48845238D01*
X44553571Y-48997619D01*
X44477380Y-49073809D01*
X44401190Y-49111904D01*
X44248809Y-49111904D01*
X45353571Y-49111904D02*
X44896428Y-49111904D01*
X45125000Y-49111904D02*
X45125000Y-48311904D01*
X45048809Y-48426190D01*
X44972619Y-48502380D01*
X44896428Y-48540476D01*
X63860714Y-49910714D02*
X63822619Y-49948809D01*
X63708333Y-49986904D01*
X63632142Y-49986904D01*
X63517857Y-49948809D01*
X63441666Y-49872619D01*
X63403571Y-49796428D01*
X63365476Y-49644047D01*
X63365476Y-49529761D01*
X63403571Y-49377380D01*
X63441666Y-49301190D01*
X63517857Y-49225000D01*
X63632142Y-49186904D01*
X63708333Y-49186904D01*
X63822619Y-49225000D01*
X63860714Y-49263095D01*
X64622619Y-49986904D02*
X64165476Y-49986904D01*
X64394047Y-49986904D02*
X64394047Y-49186904D01*
X64317857Y-49301190D01*
X64241666Y-49377380D01*
X64165476Y-49415476D01*
X65117857Y-49186904D02*
X65194047Y-49186904D01*
X65270238Y-49225000D01*
X65308333Y-49263095D01*
X65346428Y-49339285D01*
X65384523Y-49491666D01*
X65384523Y-49682142D01*
X65346428Y-49834523D01*
X65308333Y-49910714D01*
X65270238Y-49948809D01*
X65194047Y-49986904D01*
X65117857Y-49986904D01*
X65041666Y-49948809D01*
X65003571Y-49910714D01*
X64965476Y-49834523D01*
X64927380Y-49682142D01*
X64927380Y-49491666D01*
X64965476Y-49339285D01*
X65003571Y-49263095D01*
X65041666Y-49225000D01*
X65117857Y-49186904D01*
X49116666Y-48835714D02*
X49078571Y-48873809D01*
X48964285Y-48911904D01*
X48888095Y-48911904D01*
X48773809Y-48873809D01*
X48697619Y-48797619D01*
X48659523Y-48721428D01*
X48621428Y-48569047D01*
X48621428Y-48454761D01*
X48659523Y-48302380D01*
X48697619Y-48226190D01*
X48773809Y-48150000D01*
X48888095Y-48111904D01*
X48964285Y-48111904D01*
X49078571Y-48150000D01*
X49116666Y-48188095D01*
X49497619Y-48911904D02*
X49650000Y-48911904D01*
X49726190Y-48873809D01*
X49764285Y-48835714D01*
X49840476Y-48721428D01*
X49878571Y-48569047D01*
X49878571Y-48264285D01*
X49840476Y-48188095D01*
X49802380Y-48150000D01*
X49726190Y-48111904D01*
X49573809Y-48111904D01*
X49497619Y-48150000D01*
X49459523Y-48188095D01*
X49421428Y-48264285D01*
X49421428Y-48454761D01*
X49459523Y-48530952D01*
X49497619Y-48569047D01*
X49573809Y-48607142D01*
X49726190Y-48607142D01*
X49802380Y-48569047D01*
X49840476Y-48530952D01*
X49878571Y-48454761D01*
X76441666Y-69460714D02*
X76403571Y-69498809D01*
X76289285Y-69536904D01*
X76213095Y-69536904D01*
X76098809Y-69498809D01*
X76022619Y-69422619D01*
X75984523Y-69346428D01*
X75946428Y-69194047D01*
X75946428Y-69079761D01*
X75984523Y-68927380D01*
X76022619Y-68851190D01*
X76098809Y-68775000D01*
X76213095Y-68736904D01*
X76289285Y-68736904D01*
X76403571Y-68775000D01*
X76441666Y-68813095D01*
X77165476Y-68736904D02*
X76784523Y-68736904D01*
X76746428Y-69117857D01*
X76784523Y-69079761D01*
X76860714Y-69041666D01*
X77051190Y-69041666D01*
X77127380Y-69079761D01*
X77165476Y-69117857D01*
X77203571Y-69194047D01*
X77203571Y-69384523D01*
X77165476Y-69460714D01*
X77127380Y-69498809D01*
X77051190Y-69536904D01*
X76860714Y-69536904D01*
X76784523Y-69498809D01*
X76746428Y-69460714D01*
X67791666Y-50610714D02*
X67753571Y-50648809D01*
X67639285Y-50686904D01*
X67563095Y-50686904D01*
X67448809Y-50648809D01*
X67372619Y-50572619D01*
X67334523Y-50496428D01*
X67296428Y-50344047D01*
X67296428Y-50229761D01*
X67334523Y-50077380D01*
X67372619Y-50001190D01*
X67448809Y-49925000D01*
X67563095Y-49886904D01*
X67639285Y-49886904D01*
X67753571Y-49925000D01*
X67791666Y-49963095D01*
X68096428Y-49963095D02*
X68134523Y-49925000D01*
X68210714Y-49886904D01*
X68401190Y-49886904D01*
X68477380Y-49925000D01*
X68515476Y-49963095D01*
X68553571Y-50039285D01*
X68553571Y-50115476D01*
X68515476Y-50229761D01*
X68058333Y-50686904D01*
X68553571Y-50686904D01*
X52116666Y-45261904D02*
X51850000Y-44880952D01*
X51659523Y-45261904D02*
X51659523Y-44461904D01*
X51964285Y-44461904D01*
X52040476Y-44500000D01*
X52078571Y-44538095D01*
X52116666Y-44614285D01*
X52116666Y-44728571D01*
X52078571Y-44804761D01*
X52040476Y-44842857D01*
X51964285Y-44880952D01*
X51659523Y-44880952D01*
X52878571Y-45261904D02*
X52421428Y-45261904D01*
X52650000Y-45261904D02*
X52650000Y-44461904D01*
X52573809Y-44576190D01*
X52497619Y-44652380D01*
X52421428Y-44690476D01*
X70990476Y-47036904D02*
X70990476Y-47684523D01*
X71028571Y-47760714D01*
X71066666Y-47798809D01*
X71142857Y-47836904D01*
X71295238Y-47836904D01*
X71371428Y-47798809D01*
X71409523Y-47760714D01*
X71447619Y-47684523D01*
X71447619Y-47036904D01*
X72247619Y-47836904D02*
X71790476Y-47836904D01*
X72019047Y-47836904D02*
X72019047Y-47036904D01*
X71942857Y-47151190D01*
X71866666Y-47227380D01*
X71790476Y-47265476D01*
X55352380Y-39136904D02*
X55885714Y-39936904D01*
X55885714Y-39136904D02*
X55352380Y-39936904D01*
X56190476Y-39936904D02*
X56190476Y-39136904D01*
X56495238Y-39136904D01*
X56571428Y-39175000D01*
X56609523Y-39213095D01*
X56647619Y-39289285D01*
X56647619Y-39403571D01*
X56609523Y-39479761D01*
X56571428Y-39517857D01*
X56495238Y-39555952D01*
X56190476Y-39555952D01*
X57409523Y-39936904D02*
X56952380Y-39936904D01*
X57180952Y-39936904D02*
X57180952Y-39136904D01*
X57104761Y-39251190D01*
X57028571Y-39327380D01*
X56952380Y-39365476D01*
X36090476Y-29777380D02*
X36090476Y-28777380D01*
X36423809Y-29491666D01*
X36757142Y-28777380D01*
X36757142Y-29777380D01*
X37233333Y-29777380D02*
X37233333Y-28777380D01*
X37804761Y-29777380D02*
X37376190Y-29205952D01*
X37804761Y-28777380D02*
X37233333Y-29348809D01*
X38757142Y-29777380D02*
X38185714Y-29777380D01*
X38471428Y-29777380D02*
X38471428Y-28777380D01*
X38376190Y-28920238D01*
X38280952Y-29015476D01*
X38185714Y-29063095D01*
X94090476Y-29777380D02*
X94090476Y-28777380D01*
X94423809Y-29491666D01*
X94757142Y-28777380D01*
X94757142Y-29777380D01*
X95233333Y-29777380D02*
X95233333Y-28777380D01*
X95804761Y-29777380D02*
X95376190Y-29205952D01*
X95804761Y-28777380D02*
X95233333Y-29348809D01*
X96185714Y-28872619D02*
X96233333Y-28825000D01*
X96328571Y-28777380D01*
X96566666Y-28777380D01*
X96661904Y-28825000D01*
X96709523Y-28872619D01*
X96757142Y-28967857D01*
X96757142Y-29063095D01*
X96709523Y-29205952D01*
X96138095Y-29777380D01*
X96757142Y-29777380D01*
X36090476Y-89277380D02*
X36090476Y-88277380D01*
X36423809Y-88991666D01*
X36757142Y-88277380D01*
X36757142Y-89277380D01*
X37233333Y-89277380D02*
X37233333Y-88277380D01*
X37804761Y-89277380D02*
X37376190Y-88705952D01*
X37804761Y-88277380D02*
X37233333Y-88848809D01*
X38138095Y-88277380D02*
X38757142Y-88277380D01*
X38423809Y-88658333D01*
X38566666Y-88658333D01*
X38661904Y-88705952D01*
X38709523Y-88753571D01*
X38757142Y-88848809D01*
X38757142Y-89086904D01*
X38709523Y-89182142D01*
X38661904Y-89229761D01*
X38566666Y-89277380D01*
X38280952Y-89277380D01*
X38185714Y-89229761D01*
X38138095Y-89182142D01*
X94090476Y-89277380D02*
X94090476Y-88277380D01*
X94423809Y-88991666D01*
X94757142Y-88277380D01*
X94757142Y-89277380D01*
X95233333Y-89277380D02*
X95233333Y-88277380D01*
X95804761Y-89277380D02*
X95376190Y-88705952D01*
X95804761Y-88277380D02*
X95233333Y-88848809D01*
X96661904Y-88610714D02*
X96661904Y-89277380D01*
X96423809Y-88229761D02*
X96185714Y-88944047D01*
X96804761Y-88944047D01*
M02*
