G04 #@! TF.GenerationSoftware,KiCad,Pcbnew,(5.1.4-0)*
G04 #@! TF.CreationDate,2019-10-15T22:26:56+01:00*
G04 #@! TF.ProjectId,raspi-serial-hat,72617370-692d-4736-9572-69616c2d6861,3*
G04 #@! TF.SameCoordinates,Original*
G04 #@! TF.FileFunction,Soldermask,Bot*
G04 #@! TF.FilePolarity,Negative*
%FSLAX46Y46*%
G04 Gerber Fmt 4.6, Leading zero omitted, Abs format (unit mm)*
G04 Created by KiCad (PCBNEW (5.1.4-0)) date 2019-10-15 22:26:56*
%MOMM*%
%LPD*%
G04 APERTURE LIST*
%ADD10O,1.260000X1.260000*%
%ADD11R,1.260000X1.260000*%
%ADD12O,1.960000X1.960000*%
%ADD13R,1.960000X1.960000*%
%ADD14C,2.800000*%
%ADD15C,2.760000*%
%ADD16O,1.987200X1.987200*%
%ADD17R,1.987200X1.987200*%
%ADD18C,6.350000*%
%ADD19C,2.040000*%
%ADD20C,1.960000*%
G04 APERTURE END LIST*
D10*
X67380000Y-52030000D03*
X68650000Y-52030000D03*
X67380000Y-53300000D03*
D11*
X68650000Y-53300000D03*
D10*
X63855000Y-59230000D03*
X65125000Y-59230000D03*
X63855000Y-60500000D03*
D11*
X65125000Y-60500000D03*
D12*
X86180000Y-73760000D03*
X88720000Y-73760000D03*
X86180000Y-76300000D03*
X88720000Y-76300000D03*
X86180000Y-78840000D03*
X88720000Y-78840000D03*
X86180000Y-81380000D03*
X88720000Y-81380000D03*
X86180000Y-83920000D03*
D13*
X88720000Y-83920000D03*
D14*
X90992367Y-47779742D03*
D15*
X89125000Y-57125000D03*
D10*
X37550000Y-40905000D03*
D11*
X37550000Y-42175000D03*
D10*
X42785000Y-46475000D03*
X44055000Y-46475000D03*
D11*
X45325000Y-46475000D03*
D10*
X78575000Y-45205000D03*
D11*
X78575000Y-46475000D03*
D10*
X82400000Y-41545000D03*
D11*
X82400000Y-40275000D03*
D12*
X96340000Y-78840000D03*
X93800000Y-78840000D03*
X96340000Y-76300000D03*
X93800000Y-76300000D03*
X96340000Y-73760000D03*
X93800000Y-73760000D03*
X96340000Y-71220000D03*
X93800000Y-71220000D03*
X96340000Y-68680000D03*
X93800000Y-68680000D03*
X96340000Y-66140000D03*
X93800000Y-66140000D03*
X96340000Y-63600000D03*
D13*
X93800000Y-63600000D03*
D16*
X78210000Y-80535000D03*
X78210000Y-83075000D03*
X75670000Y-80535000D03*
X75670000Y-83075000D03*
X73130000Y-80535000D03*
X73130000Y-83075000D03*
X70590000Y-80535000D03*
X70590000Y-83075000D03*
X68050000Y-80535000D03*
D17*
X68050000Y-83075000D03*
D16*
X56770000Y-80535000D03*
X56770000Y-83075000D03*
X54230000Y-80535000D03*
X54230000Y-83075000D03*
X51690000Y-80535000D03*
X51690000Y-83075000D03*
X49150000Y-80535000D03*
X49150000Y-83075000D03*
X46610000Y-80535000D03*
D17*
X46610000Y-83075000D03*
D18*
X37400000Y-58075000D03*
X95400000Y-58075000D03*
D19*
X89260000Y-35065000D03*
X43540000Y-35065000D03*
D20*
X90530000Y-33795000D03*
X90530000Y-36335000D03*
X87990000Y-33795000D03*
X87990000Y-36335000D03*
X85450000Y-33795000D03*
X85450000Y-36335000D03*
X82910000Y-33795000D03*
X82910000Y-36335000D03*
X80370000Y-33795000D03*
X80370000Y-36335000D03*
X77830000Y-33795000D03*
X77830000Y-36335000D03*
X75290000Y-33795000D03*
X75290000Y-36335000D03*
X72750000Y-33795000D03*
X72750000Y-36335000D03*
X70210000Y-33795000D03*
X70210000Y-36335000D03*
X67670000Y-33795000D03*
X67670000Y-36335000D03*
X65130000Y-33795000D03*
X65130000Y-36335000D03*
X62590000Y-33795000D03*
X62590000Y-36335000D03*
X60050000Y-33795000D03*
X60050000Y-36335000D03*
X57510000Y-33795000D03*
X57510000Y-36335000D03*
X54970000Y-33795000D03*
X54970000Y-36335000D03*
X52430000Y-33795000D03*
X52430000Y-36335000D03*
X49890000Y-33795000D03*
X49890000Y-36335000D03*
X47350000Y-33795000D03*
X47350000Y-36335000D03*
X44810000Y-33795000D03*
X44810000Y-36335000D03*
X42270000Y-33795000D03*
X42270000Y-36335000D03*
D18*
X37400000Y-35075000D03*
X95400000Y-35075000D03*
X37400000Y-84075000D03*
X95400000Y-84075000D03*
M02*
